#N canvas 395 182 650 684 10;
#X obj 16 -21 gemwin;
#X msg 16 -46 create \, 1;
#X msg 96 79 draw fill;
#X msg 96 59 draw linestrip;
#N canvas 305 172 450 309 p1 0;
#X obj 124 111 * 3;
#X obj 124 291 outlet;
#X obj 199 211 * 1;
#X obj 199 81 + 0.75;
#X obj 124 231 pack f f;
#X msg 124 261 \$2 \$1 0;
#X obj 174 31 r ppos;
#X obj 214 171 r spacing;
#X obj 209 121 outlet;
#X obj 209 61 inlet;
#X floatatom 209 101 5 0 0 0 - - -;
#X obj 214 191 t b f;
#X text 249 98 X position of polygon point;
#X text 218 32 Y position of polygon point;
#X obj 124 31 inlet;
#X connect 0 0 4 0;
#X connect 2 0 4 1;
#X connect 3 0 2 0;
#X connect 3 0 8 0;
#X connect 3 0 10 0;
#X connect 4 0 5 0;
#X connect 5 0 1 0;
#X connect 6 0 0 1;
#X connect 7 0 11 0;
#X connect 9 0 3 0;
#X connect 11 0 2 0;
#X connect 11 1 2 1;
#X connect 14 0 0 0;
#X restore 87 239 pd p1;
#X obj 418 -85 hsl 50 15 0.01 3 0 0 empty empty empty -2 -8 0 10 -260097
-1 -1 0 1;
#X floatatom 415 -66 5 0 0 0 - - spacing;
#X obj 16 259 polygon 10 _________________________________________________
;
#X obj 391 -14 hsl 50 15 0 10 0 0 empty empty empty -2 -8 0 10 -260097
-1 -1 0 1;
#X floatatom 388 5 5 0 0 0 - - ppos;
#X msg 96 99 draw point;
#X obj 87 219 r env1;
#X obj 123 179 r env2;
#X obj 158 219 r env3;
#X obj 194 179 r env4;
#X obj 230 219 r env5;
#X obj 265 179 r env6;
#X obj 301 219 r env7;
#X obj 337 179 r env8;
#X text 413 -50 spacing;
#N canvas 179 157 450 309 p1 0;
#X obj 124 111 * 3;
#X obj 124 291 outlet;
#X obj 199 211 * 1;
#X obj 199 81 + 0.75;
#X obj 124 231 pack f f;
#X msg 124 261 \$2 \$1 0;
#X obj 174 31 r ppos;
#X obj 214 171 r spacing;
#X obj 209 121 outlet;
#X obj 209 61 inlet;
#X floatatom 209 101 5 0 0 0 - - -;
#X obj 214 191 t b f;
#X text 249 98 X position of polygon point;
#X text 218 32 Y position of polygon point;
#X obj 124 31 inlet;
#X connect 0 0 4 0;
#X connect 2 0 4 1;
#X connect 3 0 2 0;
#X connect 3 0 8 0;
#X connect 3 0 10 0;
#X connect 4 0 5 0;
#X connect 5 0 1 0;
#X connect 6 0 0 1;
#X connect 7 0 11 0;
#X connect 9 0 3 0;
#X connect 11 0 2 0;
#X connect 11 1 2 1;
#X connect 14 0 0 0;
#X restore 373 239 pd p1;
#N canvas 67 95 450 300 no 0;
#X obj 298 109 r env1;
#X obj 298 149 /;
#X obj 313 129 r env1;
#X obj 298 189 outlet;
#X obj 298 169 - 1;
#X connect 0 0 1 0;
#X connect 1 0 4 0;
#X connect 2 0 1 1;
#X connect 4 0 3 0;
#X restore 51 179 pd no;
#N canvas 67 83 450 300 no 0;
#X obj 298 109 r env1;
#X obj 298 149 /;
#X obj 313 129 r env1;
#X obj 298 169 - 1;
#X obj 298 189 outlet;
#X connect 0 0 1 0;
#X connect 1 0 3 0;
#X connect 2 0 1 1;
#X connect 3 0 4 0;
#X restore 373 219 pd no;
#X obj 16 59 gemhead;
#X obj 16 109 translateXYZ;
#N canvas 305 172 450 309 p1 0;
#X obj 124 111 * 3;
#X obj 124 291 outlet;
#X obj 199 211 * 1;
#X obj 199 81 + 0.75;
#X obj 124 231 pack f f;
#X msg 124 261 \$2 \$1 0;
#X obj 174 31 r ppos;
#X obj 214 171 r spacing;
#X obj 209 121 outlet;
#X obj 209 61 inlet;
#X floatatom 209 101 5 0 0 0 - - -;
#X obj 214 191 t b f;
#X text 249 98 X position of polygon point;
#X text 218 32 Y position of polygon point;
#X obj 124 31 inlet;
#X connect 0 0 4 0;
#X connect 2 0 4 1;
#X connect 3 0 2 0;
#X connect 3 0 8 0;
#X connect 3 0 10 0;
#X connect 4 0 5 0;
#X connect 5 0 1 0;
#X connect 6 0 0 1;
#X connect 7 0 11 0;
#X connect 9 0 3 0;
#X connect 11 0 2 0;
#X connect 11 1 2 1;
#X connect 14 0 0 0;
#X restore 123 199 pd p1;
#N canvas 305 172 450 309 p1 0;
#X obj 124 111 * 3;
#X obj 124 291 outlet;
#X obj 199 211 * 1;
#X obj 199 81 + 0.75;
#X obj 124 231 pack f f;
#X msg 124 261 \$2 \$1 0;
#X obj 174 31 r ppos;
#X obj 214 171 r spacing;
#X obj 209 121 outlet;
#X obj 209 61 inlet;
#X floatatom 209 101 5 0 0 0 - - -;
#X obj 214 191 t b f;
#X text 249 98 X position of polygon point;
#X text 218 32 Y position of polygon point;
#X obj 124 31 inlet;
#X connect 0 0 4 0;
#X connect 2 0 4 1;
#X connect 3 0 2 0;
#X connect 3 0 8 0;
#X connect 3 0 10 0;
#X connect 4 0 5 0;
#X connect 5 0 1 0;
#X connect 6 0 0 1;
#X connect 7 0 11 0;
#X connect 9 0 3 0;
#X connect 11 0 2 0;
#X connect 11 1 2 1;
#X connect 14 0 0 0;
#X restore 194 199 pd p1;
#N canvas 305 172 450 309 p1 0;
#X obj 124 111 * 3;
#X obj 124 291 outlet;
#X obj 199 211 * 1;
#X obj 199 81 + 0.75;
#X obj 124 231 pack f f;
#X msg 124 261 \$2 \$1 0;
#X obj 174 31 r ppos;
#X obj 214 171 r spacing;
#X obj 209 121 outlet;
#X obj 209 61 inlet;
#X floatatom 209 101 5 0 0 0 - - -;
#X obj 214 191 t b f;
#X text 249 98 X position of polygon point;
#X text 218 32 Y position of polygon point;
#X obj 124 31 inlet;
#X connect 0 0 4 0;
#X connect 2 0 4 1;
#X connect 3 0 2 0;
#X connect 3 0 8 0;
#X connect 3 0 10 0;
#X connect 4 0 5 0;
#X connect 5 0 1 0;
#X connect 6 0 0 1;
#X connect 7 0 11 0;
#X connect 9 0 3 0;
#X connect 11 0 2 0;
#X connect 11 1 2 1;
#X connect 14 0 0 0;
#X restore 265 199 pd p1;
#N canvas 305 172 450 309 p1 0;
#X obj 124 111 * 3;
#X obj 124 291 outlet;
#X obj 199 211 * 1;
#X obj 199 81 + 0.75;
#X obj 124 231 pack f f;
#X msg 124 261 \$2 \$1 0;
#X obj 174 31 r ppos;
#X obj 214 171 r spacing;
#X obj 209 121 outlet;
#X obj 209 61 inlet;
#X floatatom 209 101 5 0 0 0 - - -;
#X obj 214 191 t b f;
#X text 249 98 X position of polygon point;
#X text 218 32 Y position of polygon point;
#X obj 124 31 inlet;
#X connect 0 0 4 0;
#X connect 2 0 4 1;
#X connect 3 0 2 0;
#X connect 3 0 8 0;
#X connect 3 0 10 0;
#X connect 4 0 5 0;
#X connect 5 0 1 0;
#X connect 6 0 0 1;
#X connect 7 0 11 0;
#X connect 9 0 3 0;
#X connect 11 0 2 0;
#X connect 11 1 2 1;
#X connect 14 0 0 0;
#X restore 337 199 pd p1;
#N canvas 305 172 450 309 p1 0;
#X obj 124 111 * 3;
#X obj 124 291 outlet;
#X obj 199 211 * 1;
#X obj 199 81 + 0.75;
#X obj 124 231 pack f f;
#X msg 124 261 \$2 \$1 0;
#X obj 174 31 r ppos;
#X obj 214 171 r spacing;
#X obj 209 121 outlet;
#X obj 209 61 inlet;
#X floatatom 209 101 5 0 0 0 - - -;
#X obj 214 191 t b f;
#X text 249 98 X position of polygon point;
#X text 218 32 Y position of polygon point;
#X obj 124 31 inlet;
#X connect 0 0 4 0;
#X connect 2 0 4 1;
#X connect 3 0 2 0;
#X connect 3 0 8 0;
#X connect 3 0 10 0;
#X connect 4 0 5 0;
#X connect 5 0 1 0;
#X connect 6 0 0 1;
#X connect 7 0 11 0;
#X connect 9 0 3 0;
#X connect 11 0 2 0;
#X connect 11 1 2 1;
#X connect 14 0 0 0;
#X restore 158 239 pd p1;
#N canvas 305 172 450 309 p1 0;
#X obj 124 111 * 3;
#X obj 124 291 outlet;
#X obj 199 211 * 1;
#X obj 199 81 + 0.75;
#X obj 124 231 pack f f;
#X msg 124 261 \$2 \$1 0;
#X obj 174 31 r ppos;
#X obj 214 171 r spacing;
#X obj 209 121 outlet;
#X obj 209 61 inlet;
#X floatatom 209 101 5 0 0 0 - - -;
#X obj 214 191 t b f;
#X text 249 98 X position of polygon point;
#X text 218 32 Y position of polygon point;
#X obj 124 31 inlet;
#X connect 0 0 4 0;
#X connect 2 0 4 1;
#X connect 3 0 2 0;
#X connect 3 0 8 0;
#X connect 3 0 10 0;
#X connect 4 0 5 0;
#X connect 5 0 1 0;
#X connect 6 0 0 1;
#X connect 7 0 11 0;
#X connect 9 0 3 0;
#X connect 11 0 2 0;
#X connect 11 1 2 1;
#X connect 14 0 0 0;
#X restore 230 239 pd p1;
#N canvas 305 172 450 309 p1 0;
#X obj 124 111 * 3;
#X obj 124 291 outlet;
#X obj 199 211 * 1;
#X obj 199 81 + 0.75;
#X obj 124 231 pack f f;
#X msg 124 261 \$2 \$1 0;
#X obj 174 31 r ppos;
#X obj 214 171 r spacing;
#X obj 209 121 outlet;
#X obj 209 61 inlet;
#X floatatom 209 101 5 0 0 0 - - -;
#X obj 214 191 t b f;
#X text 249 98 X position of polygon point;
#X text 218 32 Y position of polygon point;
#X obj 124 31 inlet;
#X connect 0 0 4 0;
#X connect 2 0 4 1;
#X connect 3 0 2 0;
#X connect 3 0 8 0;
#X connect 3 0 10 0;
#X connect 4 0 5 0;
#X connect 5 0 1 0;
#X connect 6 0 0 1;
#X connect 7 0 11 0;
#X connect 9 0 3 0;
#X connect 11 0 2 0;
#X connect 11 1 2 1;
#X connect 14 0 0 0;
#X restore 301 239 pd p1;
#N canvas 305 172 450 309 p1 0;
#X obj 124 111 * 3;
#X obj 124 291 outlet;
#X obj 199 211 * 1;
#X obj 199 81 + 0.75;
#X obj 124 231 pack f f;
#X msg 124 261 \$2 \$1 0;
#X obj 174 31 r ppos;
#X obj 214 171 r spacing;
#X obj 209 121 outlet;
#X obj 209 61 inlet;
#X floatatom 209 101 5 0 0 0 - - -;
#X obj 214 191 t b f;
#X text 249 98 X position of polygon point;
#X text 218 32 Y position of polygon point;
#X obj 124 31 inlet;
#X connect 0 0 4 0;
#X connect 2 0 4 1;
#X connect 3 0 2 0;
#X connect 3 0 8 0;
#X connect 3 0 10 0;
#X connect 4 0 5 0;
#X connect 5 0 1 0;
#X connect 6 0 0 1;
#X connect 7 0 11 0;
#X connect 9 0 3 0;
#X connect 11 0 2 0;
#X connect 11 1 2 1;
#X connect 14 0 0 0;
#X restore 51 199 pd p1;
#X obj 39 89 r xpos;
#X obj 404 74 hsl 50 15 -5 5 0 0 empty empty empty -2 -8 0 10 -260097
-1 -1 0 1;
#X floatatom 401 133 5 0 0 0 - - xpos;
#X text 399 149 X position;
#X msg 401 92 \$1 50;
#X obj 401 112 line;
#X text 391 20 Y sensitivity;
#X obj 512 308 % 2;
#X obj 510 284 f;
#X obj 540 285 + 1;
#N canvas 66 54 1300 714 speaker 0;
#X obj 600 100 cnv 15 170 210 empty empty empty 20 12 0 14 -233017
-66577 0;
#X obj -78 233 bp~ 100 10;
#X obj 3 233 bp~ 200 10;
#X obj 85 233 bp~ 400 10;
#X obj 166 233 bp~ 800 10;
#X obj 251 232 bp~ 1000 10;
#X obj 333 232 bp~ 1200 10;
#X obj 418 232 bp~ 1400 10;
#X obj 499 232 bp~ 12600 10;
#X obj 84 504 *~ 0.5;
#X obj 173 504 *~ 0.5;
#X obj 419 505 *~ 0.5;
#X obj 504 507 *~ 0.5;
#X obj 209 675 dac~;
#X obj -79 501 *~ 0.5;
#X obj -1 502 *~ 0.5;
#X obj 252 505 *~ 0.5;
#X obj 336 507 *~ 0.5;
#X obj -65 271 env~ 1024;
#X floatatom -65 323 5 0 0 0 - - -;
#X obj 607 152 vsl 15 80 0 1 0 0 env1 empty empty 0 -9 0 10 -257985
-1 -1 0 1;
#X obj -65 369 line;
#X obj -65 296 dbtorms;
#X obj 15 271 env~ 1024;
#X floatatom 15 323 5 0 0 0 - - -;
#X obj 627 152 vsl 15 80 0 1 0 0 env2 empty empty 0 -9 0 10 -257985
-1 -1 0 1;
#X obj 15 369 line;
#X obj 15 296 dbtorms;
#X obj 95 271 env~ 1024;
#X floatatom 95 323 5 0 0 0 - - -;
#X obj 647 152 vsl 15 80 0 1 0 0 env3 empty empty 0 -9 0 10 -257985
-1 -1 0 1;
#X obj 95 369 line;
#X obj 95 296 dbtorms;
#X obj 185 271 env~ 1024;
#X floatatom 185 323 5 0 0 0 - - -;
#X obj 668 152 vsl 15 80 0 1 0 0 env4 empty empty 0 -9 0 10 -257985
-1 -1 0 1;
#X obj 185 369 line;
#X obj 185 296 dbtorms;
#X obj 265 271 env~ 1024;
#X floatatom 265 323 5 0 0 0 - - -;
#X obj 687 152 vsl 15 80 0 1 0 0 env5 empty empty 0 -9 0 10 -257985
-1 -1 0 1;
#X obj 265 369 line;
#X obj 265 296 dbtorms;
#X obj 345 271 env~ 1024;
#X floatatom 345 323 5 0 0 0 - - -;
#X obj 707 152 vsl 15 80 0 1 0 0 env6 empty empty 0 -9 0 10 -257985
-1 -1 0 1;
#X obj 345 369 line;
#X obj 345 296 dbtorms;
#X obj 435 271 env~ 1024;
#X floatatom 435 323 5 0 0 0 - - -;
#X obj 727 152 vsl 15 80 0 1 0 0 env7 empty empty 0 -9 0 10 -257985
-1 -1 0 1;
#X obj 435 369 line;
#X obj 435 296 dbtorms;
#X obj 515 271 env~ 1024;
#X floatatom 515 323 5 0 0 0 - - -;
#X obj 747 152 vsl 15 80 0 1 0 0 env8 empty empty 0 -9 0 10 -257985
-1 -1 0 1;
#X obj 515 369 line;
#X obj 515 296 dbtorms;
#X obj 176 138 *~;
#X obj 246 138 *~;
#X obj 607 262 vsl 15 40 10 1 0 1 empty empty empty 0 -9 0 10 -262144
-1 -1 0 1;
#X obj 627 262 vsl 15 40 10 1 0 1 empty empty empty 0 -9 0 10 -262144
-1 -1 0 1;
#X obj 647 262 vsl 15 40 10 1 0 1 empty empty empty 0 -9 0 10 -262144
-1 -1 0 1;
#X obj 667 262 vsl 15 40 10 1 0 1 empty empty empty 0 -9 0 10 -262144
-1 -1 0 1;
#X obj 687 262 vsl 15 40 10 1 0 1 empty empty empty 0 -9 0 10 -262144
-1 -1 0 1;
#X obj 707 262 vsl 15 40 10 1 0 1 empty empty empty 0 -9 0 10 -262144
-1 -1 0 1;
#X obj 727 262 vsl 15 40 10 1 0 1 empty empty empty 0 -9 0 10 -262144
-1 -1 0 1;
#X obj 747 262 vsl 15 40 10 1 0 1 empty empty empty 0 -9 0 10 -262144
-1 -1 0 1;
#X obj 780 138 outlet;
#X obj 790 160 outlet;
#X obj 800 180 outlet;
#X obj 810 200 outlet;
#X obj 820 220 outlet;
#X obj 830 240 outlet;
#X obj 840 260 outlet;
#X obj 850 280 outlet;
#X msg -65 348 \$1 125;
#X msg 15 348 \$1 125;
#X msg 95 348 \$1 125;
#X msg 185 348 \$1 125;
#X msg 265 348 \$1 125;
#X msg 345 348 \$1 125;
#X msg 435 347 \$1 125;
#X msg 515 348 \$1 126;
#X obj 176 78 adc~;
#X obj 610 120 hsl 150 15 0.01 10 0 0 empty empty empty -2 -8 0 10
-260097 -1 -1 0 1;
#X text 607 100 Microphone sensitivity;
#X text 607 240 Adjust sensitivity;
#X obj 210 634 *~ 0;
#X connect 1 0 14 0;
#X connect 1 0 18 0;
#X connect 2 0 15 0;
#X connect 2 0 23 0;
#X connect 3 0 9 0;
#X connect 3 0 28 0;
#X connect 4 0 10 0;
#X connect 4 0 33 0;
#X connect 5 0 16 0;
#X connect 5 0 38 0;
#X connect 6 0 17 0;
#X connect 6 0 43 0;
#X connect 7 0 11 0;
#X connect 7 0 48 0;
#X connect 8 0 12 0;
#X connect 8 0 53 0;
#X connect 9 0 88 0;
#X connect 10 0 88 0;
#X connect 11 0 88 0;
#X connect 12 0 88 0;
#X connect 14 0 88 0;
#X connect 15 0 88 0;
#X connect 16 0 88 0;
#X connect 17 0 88 0;
#X connect 18 0 22 0;
#X connect 19 0 76 0;
#X connect 20 0 68 0;
#X connect 21 0 20 0;
#X connect 22 0 19 0;
#X connect 23 0 27 0;
#X connect 24 0 77 0;
#X connect 25 0 69 0;
#X connect 26 0 25 0;
#X connect 27 0 24 0;
#X connect 28 0 32 0;
#X connect 29 0 78 0;
#X connect 30 0 70 0;
#X connect 31 0 30 0;
#X connect 32 0 29 0;
#X connect 33 0 37 0;
#X connect 34 0 79 0;
#X connect 35 0 71 0;
#X connect 36 0 35 0;
#X connect 37 0 34 0;
#X connect 38 0 42 0;
#X connect 39 0 80 0;
#X connect 40 0 72 0;
#X connect 41 0 40 0;
#X connect 42 0 39 0;
#X connect 43 0 47 0;
#X connect 44 0 81 0;
#X connect 45 0 73 0;
#X connect 46 0 45 0;
#X connect 47 0 44 0;
#X connect 48 0 52 0;
#X connect 49 0 82 0;
#X connect 50 0 74 0;
#X connect 51 0 50 0;
#X connect 52 0 49 0;
#X connect 53 0 57 0;
#X connect 54 0 83 0;
#X connect 55 0 75 0;
#X connect 56 0 55 0;
#X connect 57 0 54 0;
#X connect 58 0 1 0;
#X connect 58 0 2 0;
#X connect 58 0 3 0;
#X connect 58 0 4 0;
#X connect 58 0 5 0;
#X connect 58 0 6 0;
#X connect 58 0 7 0;
#X connect 58 0 8 0;
#X connect 59 0 1 0;
#X connect 59 0 2 0;
#X connect 59 0 3 0;
#X connect 59 0 4 0;
#X connect 59 0 5 0;
#X connect 59 0 6 0;
#X connect 59 0 7 0;
#X connect 59 0 8 0;
#X connect 60 0 1 2;
#X connect 61 0 2 2;
#X connect 62 0 3 2;
#X connect 63 0 4 2;
#X connect 64 0 5 2;
#X connect 65 0 6 2;
#X connect 66 0 7 2;
#X connect 67 0 8 2;
#X connect 76 0 21 0;
#X connect 77 0 26 0;
#X connect 78 0 31 0;
#X connect 79 0 36 0;
#X connect 80 0 41 0;
#X connect 81 0 46 0;
#X connect 82 0 51 0;
#X connect 83 0 56 0;
#X connect 84 0 58 0;
#X connect 84 1 59 0;
#X connect 85 0 58 1;
#X connect 85 0 59 1;
#X connect 88 0 13 0;
#X connect 88 0 13 1;
#X coords 0 -1 1 1 170 210 1 600 100;
#X restore 480 -10 pd speaker;
#X obj 16 129 rotateXYZ;
#X msg 96 359 draw fill;
#X msg 96 339 draw linestrip;
#N canvas 305 172 450 309 p1 0;
#X obj 124 111 * 3;
#X obj 124 291 outlet;
#X obj 199 211 * 1;
#X obj 199 81 + 0.75;
#X obj 124 231 pack f f;
#X msg 124 261 \$2 \$1 0;
#X obj 174 31 r ppos;
#X obj 214 171 r spacing;
#X obj 209 121 outlet;
#X obj 209 61 inlet;
#X floatatom 209 101 5 0 0 0 - - -;
#X obj 214 191 t b f;
#X text 249 98 X position of polygon point;
#X text 218 32 Y position of polygon point;
#X obj 124 31 inlet;
#X connect 0 0 4 0;
#X connect 2 0 4 1;
#X connect 3 0 2 0;
#X connect 3 0 8 0;
#X connect 3 0 10 0;
#X connect 4 0 5 0;
#X connect 5 0 1 0;
#X connect 6 0 0 1;
#X connect 7 0 11 0;
#X connect 9 0 3 0;
#X connect 11 0 2 0;
#X connect 11 1 2 1;
#X connect 14 0 0 0;
#X restore 87 519 pd p1;
#X obj 16 539 polygon 10 _________________________________________________
;
#X msg 96 379 draw point;
#X obj 87 499 r env1;
#X obj 123 459 r env2;
#X obj 158 499 r env3;
#X obj 194 459 r env4;
#X obj 230 499 r env5;
#X obj 265 459 r env6;
#X obj 301 499 r env7;
#X obj 337 459 r env8;
#N canvas 179 157 450 309 p1 0;
#X obj 124 111 * 3;
#X obj 124 291 outlet;
#X obj 199 211 * 1;
#X obj 199 81 + 0.75;
#X obj 124 231 pack f f;
#X msg 124 261 \$2 \$1 0;
#X obj 174 31 r ppos;
#X obj 214 171 r spacing;
#X obj 209 121 outlet;
#X obj 209 61 inlet;
#X floatatom 209 101 5 0 0 0 - - -;
#X obj 214 191 t b f;
#X text 249 98 X position of polygon point;
#X text 218 32 Y position of polygon point;
#X obj 124 31 inlet;
#X connect 0 0 4 0;
#X connect 2 0 4 1;
#X connect 3 0 2 0;
#X connect 3 0 8 0;
#X connect 3 0 10 0;
#X connect 4 0 5 0;
#X connect 5 0 1 0;
#X connect 6 0 0 1;
#X connect 7 0 11 0;
#X connect 9 0 3 0;
#X connect 11 0 2 0;
#X connect 11 1 2 1;
#X connect 14 0 0 0;
#X restore 373 519 pd p1;
#N canvas 67 95 450 300 no 0;
#X obj 298 109 r env1;
#X obj 298 149 /;
#X obj 313 129 r env1;
#X obj 298 189 outlet;
#X obj 298 169 - 1;
#X connect 0 0 1 0;
#X connect 1 0 4 0;
#X connect 2 0 1 1;
#X connect 4 0 3 0;
#X restore 51 459 pd no;
#N canvas 67 83 450 300 no 0;
#X obj 298 109 r env1;
#X obj 298 149 /;
#X obj 313 129 r env1;
#X obj 298 169 - 1;
#X obj 298 189 outlet;
#X connect 0 0 1 0;
#X connect 1 0 3 0;
#X connect 2 0 1 1;
#X connect 3 0 4 0;
#X restore 373 499 pd no;
#X obj 16 339 gemhead;
#X obj 16 389 translateXYZ;
#N canvas 305 172 450 309 p1 0;
#X obj 124 111 * 3;
#X obj 124 291 outlet;
#X obj 199 211 * 1;
#X obj 199 81 + 0.75;
#X obj 124 231 pack f f;
#X msg 124 261 \$2 \$1 0;
#X obj 174 31 r ppos;
#X obj 214 171 r spacing;
#X obj 209 121 outlet;
#X obj 209 61 inlet;
#X floatatom 209 101 5 0 0 0 - - -;
#X obj 214 191 t b f;
#X text 249 98 X position of polygon point;
#X text 218 32 Y position of polygon point;
#X obj 124 31 inlet;
#X connect 0 0 4 0;
#X connect 2 0 4 1;
#X connect 3 0 2 0;
#X connect 3 0 8 0;
#X connect 3 0 10 0;
#X connect 4 0 5 0;
#X connect 5 0 1 0;
#X connect 6 0 0 1;
#X connect 7 0 11 0;
#X connect 9 0 3 0;
#X connect 11 0 2 0;
#X connect 11 1 2 1;
#X connect 14 0 0 0;
#X restore 123 479 pd p1;
#N canvas 305 172 450 309 p1 0;
#X obj 124 111 * 3;
#X obj 124 291 outlet;
#X obj 199 211 * 1;
#X obj 199 81 + 0.75;
#X obj 124 231 pack f f;
#X msg 124 261 \$2 \$1 0;
#X obj 174 31 r ppos;
#X obj 214 171 r spacing;
#X obj 209 121 outlet;
#X obj 209 61 inlet;
#X floatatom 209 101 5 0 0 0 - - -;
#X obj 214 191 t b f;
#X text 249 98 X position of polygon point;
#X text 218 32 Y position of polygon point;
#X obj 124 31 inlet;
#X connect 0 0 4 0;
#X connect 2 0 4 1;
#X connect 3 0 2 0;
#X connect 3 0 8 0;
#X connect 3 0 10 0;
#X connect 4 0 5 0;
#X connect 5 0 1 0;
#X connect 6 0 0 1;
#X connect 7 0 11 0;
#X connect 9 0 3 0;
#X connect 11 0 2 0;
#X connect 11 1 2 1;
#X connect 14 0 0 0;
#X restore 194 479 pd p1;
#N canvas 305 172 450 309 p1 0;
#X obj 124 111 * 3;
#X obj 124 291 outlet;
#X obj 199 211 * 1;
#X obj 199 81 + 0.75;
#X obj 124 231 pack f f;
#X msg 124 261 \$2 \$1 0;
#X obj 174 31 r ppos;
#X obj 214 171 r spacing;
#X obj 209 121 outlet;
#X obj 209 61 inlet;
#X floatatom 209 101 5 0 0 0 - - -;
#X obj 214 191 t b f;
#X text 249 98 X position of polygon point;
#X text 218 32 Y position of polygon point;
#X obj 124 31 inlet;
#X connect 0 0 4 0;
#X connect 2 0 4 1;
#X connect 3 0 2 0;
#X connect 3 0 8 0;
#X connect 3 0 10 0;
#X connect 4 0 5 0;
#X connect 5 0 1 0;
#X connect 6 0 0 1;
#X connect 7 0 11 0;
#X connect 9 0 3 0;
#X connect 11 0 2 0;
#X connect 11 1 2 1;
#X connect 14 0 0 0;
#X restore 265 479 pd p1;
#N canvas 305 172 450 309 p1 0;
#X obj 124 111 * 3;
#X obj 124 291 outlet;
#X obj 199 211 * 1;
#X obj 199 81 + 0.75;
#X obj 124 231 pack f f;
#X msg 124 261 \$2 \$1 0;
#X obj 174 31 r ppos;
#X obj 214 171 r spacing;
#X obj 209 121 outlet;
#X obj 209 61 inlet;
#X floatatom 209 101 5 0 0 0 - - -;
#X obj 214 191 t b f;
#X text 249 98 X position of polygon point;
#X text 218 32 Y position of polygon point;
#X obj 124 31 inlet;
#X connect 0 0 4 0;
#X connect 2 0 4 1;
#X connect 3 0 2 0;
#X connect 3 0 8 0;
#X connect 3 0 10 0;
#X connect 4 0 5 0;
#X connect 5 0 1 0;
#X connect 6 0 0 1;
#X connect 7 0 11 0;
#X connect 9 0 3 0;
#X connect 11 0 2 0;
#X connect 11 1 2 1;
#X connect 14 0 0 0;
#X restore 337 479 pd p1;
#N canvas 305 172 450 309 p1 0;
#X obj 124 111 * 3;
#X obj 124 291 outlet;
#X obj 199 211 * 1;
#X obj 199 81 + 0.75;
#X obj 124 231 pack f f;
#X msg 124 261 \$2 \$1 0;
#X obj 174 31 r ppos;
#X obj 214 171 r spacing;
#X obj 209 121 outlet;
#X obj 209 61 inlet;
#X floatatom 209 101 5 0 0 0 - - -;
#X obj 214 191 t b f;
#X text 249 98 X position of polygon point;
#X text 218 32 Y position of polygon point;
#X obj 124 31 inlet;
#X connect 0 0 4 0;
#X connect 2 0 4 1;
#X connect 3 0 2 0;
#X connect 3 0 8 0;
#X connect 3 0 10 0;
#X connect 4 0 5 0;
#X connect 5 0 1 0;
#X connect 6 0 0 1;
#X connect 7 0 11 0;
#X connect 9 0 3 0;
#X connect 11 0 2 0;
#X connect 11 1 2 1;
#X connect 14 0 0 0;
#X restore 158 519 pd p1;
#N canvas 305 172 450 309 p1 0;
#X obj 124 111 * 3;
#X obj 124 291 outlet;
#X obj 199 211 * 1;
#X obj 199 81 + 0.75;
#X obj 124 231 pack f f;
#X msg 124 261 \$2 \$1 0;
#X obj 174 31 r ppos;
#X obj 214 171 r spacing;
#X obj 209 121 outlet;
#X obj 209 61 inlet;
#X floatatom 209 101 5 0 0 0 - - -;
#X obj 214 191 t b f;
#X text 249 98 X position of polygon point;
#X text 218 32 Y position of polygon point;
#X obj 124 31 inlet;
#X connect 0 0 4 0;
#X connect 2 0 4 1;
#X connect 3 0 2 0;
#X connect 3 0 8 0;
#X connect 3 0 10 0;
#X connect 4 0 5 0;
#X connect 5 0 1 0;
#X connect 6 0 0 1;
#X connect 7 0 11 0;
#X connect 9 0 3 0;
#X connect 11 0 2 0;
#X connect 11 1 2 1;
#X connect 14 0 0 0;
#X restore 230 519 pd p1;
#N canvas 305 172 450 309 p1 0;
#X obj 124 111 * 3;
#X obj 124 291 outlet;
#X obj 199 211 * 1;
#X obj 199 81 + 0.75;
#X obj 124 231 pack f f;
#X msg 124 261 \$2 \$1 0;
#X obj 174 31 r ppos;
#X obj 214 171 r spacing;
#X obj 209 121 outlet;
#X obj 209 61 inlet;
#X floatatom 209 101 5 0 0 0 - - -;
#X obj 214 191 t b f;
#X text 249 98 X position of polygon point;
#X text 218 32 Y position of polygon point;
#X obj 124 31 inlet;
#X connect 0 0 4 0;
#X connect 2 0 4 1;
#X connect 3 0 2 0;
#X connect 3 0 8 0;
#X connect 3 0 10 0;
#X connect 4 0 5 0;
#X connect 5 0 1 0;
#X connect 6 0 0 1;
#X connect 7 0 11 0;
#X connect 9 0 3 0;
#X connect 11 0 2 0;
#X connect 11 1 2 1;
#X connect 14 0 0 0;
#X restore 301 519 pd p1;
#N canvas 305 172 450 309 p1 0;
#X obj 124 111 * 3;
#X obj 124 291 outlet;
#X obj 199 211 * 1;
#X obj 199 81 + 0.75;
#X obj 124 231 pack f f;
#X msg 124 261 \$2 \$1 0;
#X obj 174 31 r ppos;
#X obj 214 171 r spacing;
#X obj 209 121 outlet;
#X obj 209 61 inlet;
#X floatatom 209 101 5 0 0 0 - - -;
#X obj 214 191 t b f;
#X text 249 98 X position of polygon point;
#X text 218 32 Y position of polygon point;
#X obj 124 31 inlet;
#X connect 0 0 4 0;
#X connect 2 0 4 1;
#X connect 3 0 2 0;
#X connect 3 0 8 0;
#X connect 3 0 10 0;
#X connect 4 0 5 0;
#X connect 5 0 1 0;
#X connect 6 0 0 1;
#X connect 7 0 11 0;
#X connect 9 0 3 0;
#X connect 11 0 2 0;
#X connect 11 1 2 1;
#X connect 14 0 0 0;
#X restore 51 479 pd p1;
#X obj 39 369 r xpos;
#X obj 16 409 rotateXYZ;
#X connect 1 0 0 0;
#X connect 2 0 7 0;
#X connect 3 0 7 0;
#X connect 4 0 7 2;
#X connect 4 1 25 1;
#X connect 5 0 6 0;
#X connect 8 0 9 0;
#X connect 10 0 7 0;
#X connect 11 0 4 0;
#X connect 12 0 25 0;
#X connect 13 0 29 0;
#X connect 14 0 26 0;
#X connect 15 0 30 0;
#X connect 16 0 27 0;
#X connect 17 0 31 0;
#X connect 18 0 28 0;
#X connect 20 0 7 10;
#X connect 21 0 32 0;
#X connect 21 0 32 1;
#X connect 22 0 20 0;
#X connect 23 0 24 0;
#X connect 24 0 44 0;
#X connect 25 0 7 3;
#X connect 25 1 29 1;
#X connect 26 0 7 5;
#X connect 26 1 30 1;
#X connect 27 0 7 7;
#X connect 27 1 31 1;
#X connect 28 0 7 9;
#X connect 28 1 20 1;
#X connect 29 0 7 4;
#X connect 29 1 26 1;
#X connect 30 0 7 6;
#X connect 30 1 27 1;
#X connect 31 0 7 8;
#X connect 31 1 28 1;
#X connect 32 0 7 1;
#X connect 32 1 4 1;
#X connect 33 0 24 1;
#X connect 34 0 37 0;
#X connect 37 0 38 0;
#X connect 38 0 35 0;
#X connect 41 0 42 0;
#X connect 41 0 40 0;
#X connect 42 0 41 1;
#X connect 44 0 7 0;
#X connect 45 0 48 0;
#X connect 46 0 48 0;
#X connect 47 0 48 2;
#X connect 47 1 63 1;
#X connect 49 0 48 0;
#X connect 50 0 47 0;
#X connect 51 0 63 0;
#X connect 52 0 67 0;
#X connect 53 0 64 0;
#X connect 54 0 68 0;
#X connect 55 0 65 0;
#X connect 56 0 69 0;
#X connect 57 0 66 0;
#X connect 58 0 48 10;
#X connect 59 0 70 0;
#X connect 59 0 70 1;
#X connect 60 0 58 0;
#X connect 61 0 62 0;
#X connect 62 0 72 0;
#X connect 63 0 48 3;
#X connect 63 1 67 1;
#X connect 64 0 48 5;
#X connect 64 1 68 1;
#X connect 65 0 48 7;
#X connect 65 1 69 1;
#X connect 66 0 48 9;
#X connect 66 1 58 1;
#X connect 67 0 48 4;
#X connect 67 1 64 1;
#X connect 68 0 48 6;
#X connect 68 1 65 1;
#X connect 69 0 48 8;
#X connect 69 1 66 1;
#X connect 70 0 48 1;
#X connect 70 1 47 1;
#X connect 71 0 62 1;
#X connect 72 0 48 0;
