#N canvas 156 83 650 684 10;
#X declare -path /home/hellocatfood/pd-externals/hellocatfood;
#X obj 30 -72 path /home/hellocatfood/pd-externals/hellocatfood;
#X obj 537 62 soundvalues;
#X obj 53 57 gemhead;
#X obj 16 -21 gemwin;
#X msg 16 -46 create \, 1;
#X msg 374 121 3 \$1 0;
#X obj 542 9 hsl 128 15 0 6 0 0 empty empty empty -2 -8 0 10 -262144
-1 -1 1100 1;
#X floatatom 537 28 5 0 0 0 - - -;
#X msg 160 241 -2.25 \$1 0;
#X msg 195 221 -1.5 \$1 0;
#X msg 231 201 -0.75 \$1 0;
#X msg 302 161 0.75 \$1 0;
#X msg 338 141 1.5 \$1 0;
#X msg 17 263 draw fill;
#X obj 664 603 curve 8 _____________________________________;
#X obj 667 565 gemhead;
#X obj 647 528 tgl 15 0 empty empty empty 17 7 0 10 -262144 -1 -1 0
1;
#X msg 88 21 -3.1 -2 0;
#X msg 410 21 3.1 -2 0;
#X msg 124 261 -3 \$1 0;
#X msg 53 121 draw linestrip;
#X obj 53 301 polygon 10 _________________________________________________
;
#X obj 88 1 loadbang;
#X obj 124 221 * 3;
#X obj 160 201 * 3;
#X obj 195 181 * 3;
#X obj 231 161 * 3;
#X obj 267 142 * 3;
#X obj 302 121 * 3;
#X obj 338 101 * 3;
#X obj 374 81 * 3;
#X obj 124 181 r env1;
#X obj 160 161 r env2;
#X obj 195 141 r env3;
#X obj 231 121 r env4;
#X obj 267 101 r env5;
#X obj 302 81 r env6;
#X obj 338 61 r env7;
#X obj 374 41 r env8;
#X msg 267 182 0 \$1 0;
#X obj 124 241 - 2;
#X obj 160 221 - 2;
#X obj 302 141 - 2;
#X obj 374 101 - 2;
#X obj 338 121 - 2;
#X obj 195 201 - 2;
#X obj 231 181 - 2;
#X obj 267 162 - 2;
#X floatatom 139 81 5 0 0 0 - - -;
#X obj 53 477 gemhead;
#X msg 374 541 3 \$1 0;
#X msg 160 661 -2.25 \$1 0;
#X msg 195 641 -1.5 \$1 0;
#X msg 231 621 -0.75 \$1 0;
#X msg 302 581 0.75 \$1 0;
#X msg 338 561 1.5 \$1 0;
#X msg 17 683 draw fill;
#X msg 124 681 -3 \$1 0;
#X msg 53 541 draw linestrip;
#X obj 53 721 polygon 10 _________________________________________________
;
#X obj 88 421 loadbang;
#X obj 124 601 r env1;
#X obj 160 581 r env2;
#X obj 195 561 r env3;
#X obj 231 541 r env4;
#X obj 267 521 r env5;
#X obj 302 501 r env6;
#X obj 338 481 r env7;
#X obj 374 461 r env8;
#X msg 267 602 0 \$1 0;
#X obj 124 661 - 2;
#X obj 160 641 - 2;
#X obj 302 561 - 2;
#X obj 338 541 - 2;
#X obj 195 621 - 2;
#X obj 231 601 - 2;
#X obj 267 582 - 2;
#X floatatom 139 501 5 0 0 0 - - -;
#X obj 39 582 translateXYZ;
#X floatatom 32 434 5 0 0 0 - - -;
#X msg 139 60 2;
#X msg 139 480 2;
#X msg 88 441 -3.1 -2 0;
#X msg 410 441 3.1 -2 0;
#X obj 374 521 - 2;
#X obj 477 542 pix_film;
#X obj 37 509 pix_texture;
#X obj 28 93 pix_texture;
#X obj 264 -25 pix_video;
#X obj 284 -48 gemhead;
#X msg 378 -38 device /dev/video1;
#X obj 267 562 * -3;
#X obj 302 541 * -3;
#X obj 338 521 * -3;
#X obj 374 501 * -3;
#X obj 231 581 * -3;
#X obj 195 601 * -3;
#X obj 160 621 * -3;
#X obj 124 641 * -3;
#X connect 4 0 3 0;
#X connect 5 0 21 9;
#X connect 6 0 7 0;
#X connect 7 0 1 0;
#X connect 8 0 21 3;
#X connect 9 0 21 4;
#X connect 10 0 21 5;
#X connect 11 0 21 7;
#X connect 12 0 21 8;
#X connect 13 0 21 0;
#X connect 15 0 14 0;
#X connect 16 0 15 0;
#X connect 17 0 21 1;
#X connect 18 0 21 10;
#X connect 19 0 21 2;
#X connect 20 0 21 0;
#X connect 22 0 17 0;
#X connect 22 0 18 0;
#X connect 22 0 80 0;
#X connect 23 0 40 0;
#X connect 24 0 41 0;
#X connect 25 0 45 0;
#X connect 26 0 46 0;
#X connect 27 0 47 0;
#X connect 28 0 42 0;
#X connect 29 0 44 0;
#X connect 30 0 43 0;
#X connect 31 0 23 0;
#X connect 32 0 24 0;
#X connect 33 0 25 0;
#X connect 34 0 26 0;
#X connect 35 0 27 0;
#X connect 36 0 28 0;
#X connect 37 0 29 0;
#X connect 38 0 30 0;
#X connect 39 0 21 6;
#X connect 40 0 19 0;
#X connect 41 0 8 0;
#X connect 42 0 11 0;
#X connect 43 0 5 0;
#X connect 44 0 12 0;
#X connect 45 0 9 0;
#X connect 46 0 10 0;
#X connect 47 0 39 0;
#X connect 48 0 40 1;
#X connect 48 0 41 1;
#X connect 48 0 45 1;
#X connect 48 0 46 1;
#X connect 48 0 47 1;
#X connect 48 0 42 1;
#X connect 48 0 44 1;
#X connect 48 0 43 1;
#X connect 50 0 59 9;
#X connect 51 0 59 3;
#X connect 52 0 59 4;
#X connect 53 0 59 5;
#X connect 54 0 59 7;
#X connect 55 0 59 8;
#X connect 56 0 59 0;
#X connect 57 0 59 2;
#X connect 58 0 59 0;
#X connect 60 0 82 0;
#X connect 60 0 83 0;
#X connect 60 0 81 0;
#X connect 61 0 98 0;
#X connect 62 0 97 0;
#X connect 63 0 96 0;
#X connect 64 0 95 0;
#X connect 65 0 91 0;
#X connect 66 0 92 0;
#X connect 67 0 93 0;
#X connect 68 0 94 0;
#X connect 69 0 59 6;
#X connect 70 0 57 0;
#X connect 71 0 51 0;
#X connect 72 0 54 0;
#X connect 73 0 55 0;
#X connect 74 0 52 0;
#X connect 75 0 53 0;
#X connect 76 0 69 0;
#X connect 77 0 70 1;
#X connect 77 0 71 1;
#X connect 77 0 74 1;
#X connect 77 0 75 1;
#X connect 77 0 76 1;
#X connect 77 0 72 1;
#X connect 77 0 73 1;
#X connect 77 0 84 1;
#X connect 78 0 59 0;
#X connect 79 0 78 2;
#X connect 80 0 48 0;
#X connect 81 0 77 0;
#X connect 82 0 59 1;
#X connect 83 0 59 10;
#X connect 84 0 50 0;
#X connect 86 0 78 0;
#X connect 87 0 21 0;
#X connect 88 0 87 0;
#X connect 88 0 86 0;
#X connect 89 0 88 0;
#X connect 90 0 88 0;
#X connect 91 0 76 0;
#X connect 92 0 72 0;
#X connect 93 0 73 0;
#X connect 94 0 84 0;
#X connect 95 0 75 0;
#X connect 96 0 74 0;
#X connect 97 0 71 0;
#X connect 98 0 70 0;
