#N canvas 127 83 650 685 10;
#X msg 266 279 draw fill;
#X msg 266 259 draw linestrip;
#X obj 348 -85 hsl 50 15 0.01 3 0 0 empty empty empty -2 -8 0 10 -260097
-1 -1 0 1;
#X floatatom 345 -66 5 0 0 0 - - spacing;
#X obj 321 -14 hsl 50 15 0 15 0 0 empty empty empty -2 -8 0 10 -260097
-1 -1 0 1;
#X floatatom 318 5 5 0 0 0 - - ppos;
#X msg 266 299 draw point;
#X text 343 -50 spacing;
#X obj 16 299 gemhead;
#X obj 16 349 translateXYZ;
#X obj 39 329 r xpos;
#X obj 334 74 hsl 50 15 -15 5 0 0 empty empty empty -2 -8 0 10 -260097
-1 -1 500 1;
#X floatatom 331 133 5 0 0 0 - - xpos;
#X text 332 152 X position;
#X msg 331 92 \$1 50;
#X obj 331 112 line;
#X text 321 20 Y sensitivity;
#N canvas 66 54 1300 714 speaker 0;
#X obj 600 100 cnv 15 170 210 empty empty empty 20 12 0 14 -233017
-66577 0;
#X obj -78 233 bp~ 100 10;
#X obj 3 233 bp~ 200 10;
#X obj 85 233 bp~ 400 10;
#X obj 166 233 bp~ 800 10;
#X obj 251 232 bp~ 1000 10;
#X obj 333 232 bp~ 1200 10;
#X obj 418 232 bp~ 1400 10;
#X obj 499 232 bp~ 12600 10;
#X obj 84 504 *~ 0.5;
#X obj 173 504 *~ 0.5;
#X obj 419 505 *~ 0.5;
#X obj 504 507 *~ 0.5;
#X obj 209 675 dac~;
#X obj -79 501 *~ 0.5;
#X obj -1 502 *~ 0.5;
#X obj 252 505 *~ 0.5;
#X obj 336 507 *~ 0.5;
#X obj -65 271 env~ 1024;
#X floatatom -65 323 5 0 0 0 - - -;
#X obj 607 152 vsl 15 80 0 1 0 0 env1 empty empty 0 -9 0 10 -257985
-1 -1 1395 1;
#X obj -65 369 line;
#X obj -65 296 dbtorms;
#X obj 15 271 env~ 1024;
#X floatatom 15 323 5 0 0 0 - - -;
#X obj 627 152 vsl 15 80 0 1 0 0 env2 empty empty 0 -9 0 10 -257985
-1 -1 922 1;
#X obj 15 369 line;
#X obj 15 296 dbtorms;
#X obj 95 271 env~ 1024;
#X floatatom 95 323 5 0 0 0 - - -;
#X obj 647 152 vsl 15 80 0 1 0 0 env3 empty empty 0 -9 0 10 -257985
-1 -1 833 1;
#X obj 95 369 line;
#X obj 95 296 dbtorms;
#X obj 185 271 env~ 1024;
#X floatatom 185 323 5 0 0 0 - - -;
#X obj 668 152 vsl 15 80 0 1 0 0 env4 empty empty 0 -9 0 10 -257985
-1 -1 1238 1;
#X obj 185 369 line;
#X obj 185 296 dbtorms;
#X obj 265 271 env~ 1024;
#X floatatom 265 323 5 0 0 0 - - -;
#X obj 687 152 vsl 15 80 0 1 0 0 env5 empty empty 0 -9 0 10 -257985
-1 -1 1058 1;
#X obj 265 369 line;
#X obj 265 296 dbtorms;
#X obj 345 271 env~ 1024;
#X floatatom 345 323 5 0 0 0 - - -;
#X obj 707 152 vsl 15 80 0 1 0 0 env6 empty empty 0 -9 0 10 -257985
-1 -1 946 1;
#X obj 345 369 line;
#X obj 345 296 dbtorms;
#X obj 435 271 env~ 1024;
#X floatatom 435 323 5 0 0 0 - - -;
#X obj 727 152 vsl 15 80 0 1 0 0 env7 empty empty 0 -9 0 10 -257985
-1 -1 947 1;
#X obj 435 369 line;
#X obj 435 296 dbtorms;
#X obj 515 271 env~ 1024;
#X floatatom 515 323 5 0 0 0 - - -;
#X obj 747 152 vsl 15 80 0 1 0 0 env8 empty empty 0 -9 0 10 -257985
-1 -1 1184 1;
#X obj 515 369 line;
#X obj 515 296 dbtorms;
#X obj 176 138 *~;
#X obj 246 138 *~;
#X obj 607 262 vsl 15 40 10 1 0 1 empty empty empty 0 -9 0 10 -262144
-1 -1 0 1;
#X obj 627 262 vsl 15 40 10 1 0 1 empty empty empty 0 -9 0 10 -262144
-1 -1 0 1;
#X obj 647 262 vsl 15 40 10 1 0 1 empty empty empty 0 -9 0 10 -262144
-1 -1 0 1;
#X obj 667 262 vsl 15 40 10 1 0 1 empty empty empty 0 -9 0 10 -262144
-1 -1 0 1;
#X obj 687 262 vsl 15 40 10 1 0 1 empty empty empty 0 -9 0 10 -262144
-1 -1 0 1;
#X obj 707 262 vsl 15 40 10 1 0 1 empty empty empty 0 -9 0 10 -262144
-1 -1 0 1;
#X obj 727 262 vsl 15 40 10 1 0 1 empty empty empty 0 -9 0 10 -262144
-1 -1 0 1;
#X obj 747 262 vsl 15 40 10 1 0 1 empty empty empty 0 -9 0 10 -262144
-1 -1 0 1;
#X obj 780 138 outlet;
#X obj 790 160 outlet;
#X obj 800 180 outlet;
#X obj 810 200 outlet;
#X obj 820 220 outlet;
#X obj 830 240 outlet;
#X obj 840 260 outlet;
#X obj 850 280 outlet;
#X msg -65 348 \$1 125;
#X msg 15 348 \$1 125;
#X msg 95 348 \$1 125;
#X msg 185 348 \$1 125;
#X msg 265 348 \$1 125;
#X msg 345 348 \$1 125;
#X msg 435 347 \$1 125;
#X msg 515 348 \$1 126;
#X obj 176 78 adc~;
#X obj 610 120 hsl 150 15 0.01 10 0 0 empty empty empty -2 -8 0 10
-260097 -1 -1 14277 1;
#X text 607 100 Microphone sensitivity;
#X text 607 240 Adjust sensitivity;
#X obj 210 634 *~ 0;
#X obj 607 48 loadbang;
#X msg 607 68 1;
#X connect 1 0 14 0;
#X connect 1 0 18 0;
#X connect 2 0 15 0;
#X connect 2 0 23 0;
#X connect 3 0 9 0;
#X connect 3 0 28 0;
#X connect 4 0 10 0;
#X connect 4 0 33 0;
#X connect 5 0 16 0;
#X connect 5 0 38 0;
#X connect 6 0 17 0;
#X connect 6 0 43 0;
#X connect 7 0 11 0;
#X connect 7 0 48 0;
#X connect 8 0 12 0;
#X connect 8 0 53 0;
#X connect 9 0 88 0;
#X connect 10 0 88 0;
#X connect 11 0 88 0;
#X connect 12 0 88 0;
#X connect 14 0 88 0;
#X connect 15 0 88 0;
#X connect 16 0 88 0;
#X connect 17 0 88 0;
#X connect 18 0 22 0;
#X connect 19 0 76 0;
#X connect 20 0 68 0;
#X connect 21 0 20 0;
#X connect 22 0 19 0;
#X connect 23 0 27 0;
#X connect 24 0 77 0;
#X connect 25 0 69 0;
#X connect 26 0 25 0;
#X connect 27 0 24 0;
#X connect 28 0 32 0;
#X connect 29 0 78 0;
#X connect 30 0 70 0;
#X connect 31 0 30 0;
#X connect 32 0 29 0;
#X connect 33 0 37 0;
#X connect 34 0 79 0;
#X connect 35 0 71 0;
#X connect 36 0 35 0;
#X connect 37 0 34 0;
#X connect 38 0 42 0;
#X connect 39 0 80 0;
#X connect 40 0 72 0;
#X connect 41 0 40 0;
#X connect 42 0 39 0;
#X connect 43 0 47 0;
#X connect 44 0 81 0;
#X connect 45 0 73 0;
#X connect 46 0 45 0;
#X connect 47 0 44 0;
#X connect 48 0 52 0;
#X connect 49 0 82 0;
#X connect 50 0 74 0;
#X connect 51 0 50 0;
#X connect 52 0 49 0;
#X connect 53 0 57 0;
#X connect 54 0 83 0;
#X connect 55 0 75 0;
#X connect 56 0 55 0;
#X connect 57 0 54 0;
#X connect 58 0 1 0;
#X connect 58 0 2 0;
#X connect 58 0 3 0;
#X connect 58 0 4 0;
#X connect 58 0 5 0;
#X connect 58 0 6 0;
#X connect 58 0 7 0;
#X connect 58 0 8 0;
#X connect 59 0 1 0;
#X connect 59 0 2 0;
#X connect 59 0 3 0;
#X connect 59 0 4 0;
#X connect 59 0 5 0;
#X connect 59 0 6 0;
#X connect 59 0 7 0;
#X connect 59 0 8 0;
#X connect 60 0 1 2;
#X connect 61 0 2 2;
#X connect 62 0 3 2;
#X connect 63 0 4 2;
#X connect 64 0 5 2;
#X connect 65 0 6 2;
#X connect 66 0 7 2;
#X connect 67 0 8 2;
#X connect 76 0 21 0;
#X connect 77 0 26 0;
#X connect 78 0 31 0;
#X connect 79 0 36 0;
#X connect 80 0 41 0;
#X connect 81 0 46 0;
#X connect 82 0 51 0;
#X connect 83 0 56 0;
#X connect 84 0 58 0;
#X connect 84 1 59 0;
#X connect 85 0 58 1;
#X connect 85 0 59 1;
#X connect 88 0 13 0;
#X connect 88 0 13 1;
#X connect 89 0 90 0;
#X connect 90 0 85 0;
#X coords 0 -1 1 1 170 210 1 600 100;
#X restore 409 -25 pd speaker;
#X obj 16 389 rotateXYZ;
#X msg 106 49 draw fill;
#X msg 106 29 draw linestrip;
#X msg 106 69 draw point;
#X obj 26 79 translateXYZ;
#X obj 49 59 r xpos;
#X obj 26 99 rotateXYZ 180 0 0;
#X obj 228 50 vsl 15 50 -5 5 0 0 empty empty empty 0 -9 0 10 -260097
-1 -1 0 1;
#X msg 227 105 \$1 50;
#X obj 227 125 line;
#X obj 211 279 vsl 15 50 -5 5 0 0 empty empty empty 0 -9 0 10 -260097
-1 -1 500 1;
#X msg 210 334 \$1 50;
#X obj 210 354 line;
#X floatatom 131 373 5 0 0 0 - - -;
#X obj 26 139 rotateXYZ;
#X floatatom 126 129 5 0 0 0 - - -;
#X obj 16 463 pix_texture;
#X obj 16 443 pix_film;
#X obj 76 443 f;
#X obj 26 199 pix_texture;
#X obj 26 179 pix_film;
#X obj 86 179 f;
#X obj 25 -69 bng 30 250 50 0 empty empty empty 17 7 0 10 -4034 -1
-1;
#X obj 65 -49 bng 15 250 50 0 empty empty empty 17 7 0 10 -258113 -1
-1;
#X obj 65 -69 bng 15 250 50 0 empty empty empty 17 7 0 10 -4032 -1
-1;
#N canvas 220 245 450 300 window 0;
#X obj 30 149 gemwin;
#X msg 320 39 0 \, destroy;
#X obj 30 19 inlet;
#X obj 150 19 inlet;
#X obj 320 19 inlet;
#X msg 151 109 offset 1366 0;
#X msg 260 108 border 0;
#X msg 30 39 FSAA 8 \, create \, 1;
#X obj 332 162 world_light;
#X obj 332 132 gemhead;
#X msg 150 169 lighting \$1;
#X obj 150 149 inlet;
#X msg 249 14 800 600;
#X msg 160 79 dimen 1366 768;
#X connect 1 0 0 0;
#X connect 2 0 7 0;
#X connect 3 0 5 0;
#X connect 3 0 6 0;
#X connect 3 0 13 0;
#X connect 4 0 1 0;
#X connect 5 0 0 0;
#X connect 6 0 0 0;
#X connect 7 0 0 0;
#X connect 9 0 8 0;
#X connect 10 0 0 0;
#X connect 11 0 10 0;
#X connect 12 0 0 0;
#X connect 13 0 0 0;
#X restore 25 -30 pd window;
#X text 85 -71 press this first;
#X text 85 -51 destroy window;
#X text 22 -91 create window;
#X obj 95 -30 tgl 15 0 empty empty empty 17 7 0 10 -257985 -1 -1 1
1;
#X text 115 -31 lighting;
#X obj 16 369 repeat 10;
#X obj 26 119 repeat 10;
#X obj 146 410 tgl 15 0 empty empty empty 17 7 0 10 -262144 -1 -1 0
1;
#X msg 125 432 auto \$1;
#X msg 145 192 auto \$1;
#X obj 161 164 tgl 15 0 empty empty empty 17 7 0 10 -262144 -1 -1 0
1;
#N canvas 633 140 450 300 bottom_poly 0;
#N canvas 301 184 450 309 p1 0;
#X obj 124 111 * 3;
#X obj 124 291 outlet;
#X obj 199 211 * 1;
#X obj 199 81 + 0.75;
#X obj 124 231 pack f f;
#X msg 124 261 \$2 \$1 0;
#X obj 174 31 r ppos;
#X obj 214 171 r spacing;
#X obj 209 121 outlet;
#X obj 209 61 inlet;
#X floatatom 209 101 5 0 0 0 - - -;
#X obj 214 191 t b f;
#X text 249 98 X position of polygon point;
#X text 218 32 Y position of polygon point;
#X obj 124 31 inlet;
#X connect 0 0 4 0;
#X connect 2 0 4 1;
#X connect 3 0 2 0;
#X connect 3 0 8 0;
#X connect 3 0 10 0;
#X connect 4 0 5 0;
#X connect 5 0 1 0;
#X connect 6 0 0 1;
#X connect 7 0 11 0;
#X connect 9 0 3 0;
#X connect 11 0 2 0;
#X connect 11 1 2 1;
#X connect 14 0 0 0;
#X restore 87 139 pd p1;
#X obj 16 159 polygon 10 _________________________________________________
;
#X obj 87 119 r env1;
#X obj 123 79 r env2;
#X obj 158 119 r env3;
#X obj 194 79 r env4;
#X obj 230 119 r env5;
#X obj 265 79 r env6;
#X obj 301 119 r env7;
#X obj 337 79 r env8;
#N canvas 179 157 450 309 p1 0;
#X obj 124 111 * 3;
#X obj 124 291 outlet;
#X obj 199 211 * 1;
#X obj 199 81 + 0.75;
#X obj 124 231 pack f f;
#X msg 124 261 \$2 \$1 0;
#X obj 174 31 r ppos;
#X obj 214 171 r spacing;
#X obj 209 121 outlet;
#X obj 209 61 inlet;
#X floatatom 209 101 5 0 0 0 - - -;
#X obj 214 191 t b f;
#X text 249 98 X position of polygon point;
#X text 218 32 Y position of polygon point;
#X obj 124 31 inlet;
#X connect 0 0 4 0;
#X connect 2 0 4 1;
#X connect 3 0 2 0;
#X connect 3 0 8 0;
#X connect 3 0 10 0;
#X connect 4 0 5 0;
#X connect 5 0 1 0;
#X connect 6 0 0 1;
#X connect 7 0 11 0;
#X connect 9 0 3 0;
#X connect 11 0 2 0;
#X connect 11 1 2 1;
#X connect 14 0 0 0;
#X restore 373 139 pd p1;
#N canvas 67 95 450 300 no 0;
#X obj 298 109 r env1;
#X obj 298 149 /;
#X obj 313 129 r env1;
#X obj 298 189 outlet;
#X obj 298 169 - 1;
#X connect 0 0 1 0;
#X connect 1 0 4 0;
#X connect 2 0 1 1;
#X connect 4 0 3 0;
#X restore 51 79 pd no;
#N canvas 67 83 450 300 no 0;
#X obj 298 109 r env1;
#X obj 298 149 /;
#X obj 313 129 r env1;
#X obj 298 169 - 1;
#X obj 298 189 outlet;
#X connect 0 0 1 0;
#X connect 1 0 3 0;
#X connect 2 0 1 1;
#X connect 3 0 4 0;
#X restore 373 119 pd no;
#N canvas 305 172 450 309 p1 0;
#X obj 124 111 * 3;
#X obj 124 291 outlet;
#X obj 199 211 * 1;
#X obj 199 81 + 0.75;
#X obj 124 231 pack f f;
#X msg 124 261 \$2 \$1 0;
#X obj 174 31 r ppos;
#X obj 214 171 r spacing;
#X obj 209 121 outlet;
#X obj 209 61 inlet;
#X floatatom 209 101 5 0 0 0 - - -;
#X obj 214 191 t b f;
#X text 249 98 X position of polygon point;
#X text 218 32 Y position of polygon point;
#X obj 124 31 inlet;
#X connect 0 0 4 0;
#X connect 2 0 4 1;
#X connect 3 0 2 0;
#X connect 3 0 8 0;
#X connect 3 0 10 0;
#X connect 4 0 5 0;
#X connect 5 0 1 0;
#X connect 6 0 0 1;
#X connect 7 0 11 0;
#X connect 9 0 3 0;
#X connect 11 0 2 0;
#X connect 11 1 2 1;
#X connect 14 0 0 0;
#X restore 123 99 pd p1;
#N canvas 305 172 450 309 p1 0;
#X obj 124 111 * 3;
#X obj 124 291 outlet;
#X obj 199 211 * 1;
#X obj 199 81 + 0.75;
#X obj 124 231 pack f f;
#X msg 124 261 \$2 \$1 0;
#X obj 174 31 r ppos;
#X obj 214 171 r spacing;
#X obj 209 121 outlet;
#X obj 209 61 inlet;
#X floatatom 209 101 5 0 0 0 - - -;
#X obj 214 191 t b f;
#X text 249 98 X position of polygon point;
#X text 218 32 Y position of polygon point;
#X obj 124 31 inlet;
#X connect 0 0 4 0;
#X connect 2 0 4 1;
#X connect 3 0 2 0;
#X connect 3 0 8 0;
#X connect 3 0 10 0;
#X connect 4 0 5 0;
#X connect 5 0 1 0;
#X connect 6 0 0 1;
#X connect 7 0 11 0;
#X connect 9 0 3 0;
#X connect 11 0 2 0;
#X connect 11 1 2 1;
#X connect 14 0 0 0;
#X restore 194 99 pd p1;
#N canvas 305 172 450 309 p1 0;
#X obj 124 111 * 3;
#X obj 124 291 outlet;
#X obj 199 211 * 1;
#X obj 199 81 + 0.75;
#X obj 124 231 pack f f;
#X msg 124 261 \$2 \$1 0;
#X obj 174 31 r ppos;
#X obj 214 171 r spacing;
#X obj 209 121 outlet;
#X obj 209 61 inlet;
#X floatatom 209 101 5 0 0 0 - - -;
#X obj 214 191 t b f;
#X text 249 98 X position of polygon point;
#X text 218 32 Y position of polygon point;
#X obj 124 31 inlet;
#X connect 0 0 4 0;
#X connect 2 0 4 1;
#X connect 3 0 2 0;
#X connect 3 0 8 0;
#X connect 3 0 10 0;
#X connect 4 0 5 0;
#X connect 5 0 1 0;
#X connect 6 0 0 1;
#X connect 7 0 11 0;
#X connect 9 0 3 0;
#X connect 11 0 2 0;
#X connect 11 1 2 1;
#X connect 14 0 0 0;
#X restore 265 99 pd p1;
#N canvas 305 172 450 309 p1 0;
#X obj 124 111 * 3;
#X obj 124 291 outlet;
#X obj 199 211 * 1;
#X obj 199 81 + 0.75;
#X obj 124 231 pack f f;
#X msg 124 261 \$2 \$1 0;
#X obj 174 31 r ppos;
#X obj 214 171 r spacing;
#X obj 209 121 outlet;
#X obj 209 61 inlet;
#X floatatom 209 101 5 0 0 0 - - -;
#X obj 214 191 t b f;
#X text 249 98 X position of polygon point;
#X text 218 32 Y position of polygon point;
#X obj 124 31 inlet;
#X connect 0 0 4 0;
#X connect 2 0 4 1;
#X connect 3 0 2 0;
#X connect 3 0 8 0;
#X connect 3 0 10 0;
#X connect 4 0 5 0;
#X connect 5 0 1 0;
#X connect 6 0 0 1;
#X connect 7 0 11 0;
#X connect 9 0 3 0;
#X connect 11 0 2 0;
#X connect 11 1 2 1;
#X connect 14 0 0 0;
#X restore 337 99 pd p1;
#N canvas 305 172 450 309 p1 0;
#X obj 124 111 * 3;
#X obj 124 291 outlet;
#X obj 199 211 * 1;
#X obj 199 81 + 0.75;
#X obj 124 231 pack f f;
#X msg 124 261 \$2 \$1 0;
#X obj 174 31 r ppos;
#X obj 214 171 r spacing;
#X obj 209 121 outlet;
#X obj 209 61 inlet;
#X floatatom 209 101 5 0 0 0 - - -;
#X obj 214 191 t b f;
#X text 249 98 X position of polygon point;
#X text 218 32 Y position of polygon point;
#X obj 124 31 inlet;
#X connect 0 0 4 0;
#X connect 2 0 4 1;
#X connect 3 0 2 0;
#X connect 3 0 8 0;
#X connect 3 0 10 0;
#X connect 4 0 5 0;
#X connect 5 0 1 0;
#X connect 6 0 0 1;
#X connect 7 0 11 0;
#X connect 9 0 3 0;
#X connect 11 0 2 0;
#X connect 11 1 2 1;
#X connect 14 0 0 0;
#X restore 158 139 pd p1;
#N canvas 305 172 450 309 p1 0;
#X obj 124 111 * 3;
#X obj 124 291 outlet;
#X obj 199 211 * 1;
#X obj 199 81 + 0.75;
#X obj 124 231 pack f f;
#X msg 124 261 \$2 \$1 0;
#X obj 174 31 r ppos;
#X obj 214 171 r spacing;
#X obj 209 121 outlet;
#X obj 209 61 inlet;
#X floatatom 209 101 5 0 0 0 - - -;
#X obj 214 191 t b f;
#X text 249 98 X position of polygon point;
#X text 218 32 Y position of polygon point;
#X obj 124 31 inlet;
#X connect 0 0 4 0;
#X connect 2 0 4 1;
#X connect 3 0 2 0;
#X connect 3 0 8 0;
#X connect 3 0 10 0;
#X connect 4 0 5 0;
#X connect 5 0 1 0;
#X connect 6 0 0 1;
#X connect 7 0 11 0;
#X connect 9 0 3 0;
#X connect 11 0 2 0;
#X connect 11 1 2 1;
#X connect 14 0 0 0;
#X restore 230 139 pd p1;
#N canvas 305 172 450 309 p1 0;
#X obj 124 111 * 3;
#X obj 124 291 outlet;
#X obj 199 211 * 1;
#X obj 199 81 + 0.75;
#X obj 124 231 pack f f;
#X msg 124 261 \$2 \$1 0;
#X obj 174 31 r ppos;
#X obj 214 171 r spacing;
#X obj 209 121 outlet;
#X obj 209 61 inlet;
#X floatatom 209 101 5 0 0 0 - - -;
#X obj 214 191 t b f;
#X text 249 98 X position of polygon point;
#X text 218 32 Y position of polygon point;
#X obj 124 31 inlet;
#X connect 0 0 4 0;
#X connect 2 0 4 1;
#X connect 3 0 2 0;
#X connect 3 0 8 0;
#X connect 3 0 10 0;
#X connect 4 0 5 0;
#X connect 5 0 1 0;
#X connect 6 0 0 1;
#X connect 7 0 11 0;
#X connect 9 0 3 0;
#X connect 11 0 2 0;
#X connect 11 1 2 1;
#X connect 14 0 0 0;
#X restore 301 139 pd p1;
#N canvas 305 172 450 309 p1 0;
#X obj 124 111 * 3;
#X obj 124 291 outlet;
#X obj 199 211 * 1;
#X obj 199 81 + 0.75;
#X obj 124 231 pack f f;
#X msg 124 261 \$2 \$1 0;
#X obj 174 31 r ppos;
#X obj 214 171 r spacing;
#X obj 209 121 outlet;
#X obj 209 61 inlet;
#X floatatom 209 101 5 0 0 0 - - -;
#X obj 214 191 t b f;
#X text 249 98 X position of polygon point;
#X text 218 32 Y position of polygon point;
#X obj 124 31 inlet;
#X connect 0 0 4 0;
#X connect 2 0 4 1;
#X connect 3 0 2 0;
#X connect 3 0 8 0;
#X connect 3 0 10 0;
#X connect 4 0 5 0;
#X connect 5 0 1 0;
#X connect 6 0 0 1;
#X connect 7 0 11 0;
#X connect 9 0 3 0;
#X connect 11 0 2 0;
#X connect 11 1 2 1;
#X connect 14 0 0 0;
#X restore 51 99 pd p1;
#X obj 16 39 inlet;
#X connect 0 0 1 2;
#X connect 0 1 13 1;
#X connect 2 0 0 0;
#X connect 3 0 13 0;
#X connect 4 0 17 0;
#X connect 5 0 14 0;
#X connect 6 0 18 0;
#X connect 7 0 15 0;
#X connect 8 0 19 0;
#X connect 9 0 16 0;
#X connect 10 0 1 10;
#X connect 11 0 20 0;
#X connect 11 0 20 1;
#X connect 12 0 10 0;
#X connect 13 0 1 3;
#X connect 13 1 17 1;
#X connect 14 0 1 5;
#X connect 14 1 18 1;
#X connect 15 0 1 7;
#X connect 15 1 19 1;
#X connect 16 0 1 9;
#X connect 16 1 10 1;
#X connect 17 0 1 4;
#X connect 17 1 14 1;
#X connect 18 0 1 6;
#X connect 18 1 15 1;
#X connect 19 0 1 8;
#X connect 19 1 16 1;
#X connect 20 0 1 1;
#X connect 20 1 0 1;
#X connect 21 0 1 0;
#X restore 17 500 pd bottom_poly;
#N canvas 630 252 450 300 top_poly 0;
#N canvas 305 172 450 309 p1 0;
#X obj 124 111 * 3;
#X obj 124 291 outlet;
#X obj 199 211 * 1;
#X obj 199 81 + 0.75;
#X obj 124 231 pack f f;
#X msg 124 261 \$2 \$1 0;
#X obj 174 31 r ppos;
#X obj 214 171 r spacing;
#X obj 209 121 outlet;
#X obj 209 61 inlet;
#X floatatom 209 101 5 0 0 0 - - -;
#X obj 214 191 t b f;
#X text 249 98 X position of polygon point;
#X text 218 32 Y position of polygon point;
#X obj 124 31 inlet;
#X connect 0 0 4 0;
#X connect 2 0 4 1;
#X connect 3 0 2 0;
#X connect 3 0 8 0;
#X connect 3 0 10 0;
#X connect 4 0 5 0;
#X connect 5 0 1 0;
#X connect 6 0 0 1;
#X connect 7 0 11 0;
#X connect 9 0 3 0;
#X connect 11 0 2 0;
#X connect 11 1 2 1;
#X connect 14 0 0 0;
#X restore 87 189 pd p1;
#X obj 16 209 polygon 10 _________________________________________________
;
#X obj 87 169 r env1;
#X obj 123 129 r env2;
#X obj 158 169 r env3;
#X obj 194 129 r env4;
#X obj 230 169 r env5;
#X obj 265 129 r env6;
#X obj 301 169 r env7;
#X obj 337 129 r env8;
#N canvas 179 157 450 309 p1 0;
#X obj 124 111 * 3;
#X obj 124 291 outlet;
#X obj 199 211 * 1;
#X obj 199 81 + 0.75;
#X obj 124 231 pack f f;
#X msg 124 261 \$2 \$1 0;
#X obj 174 31 r ppos;
#X obj 214 171 r spacing;
#X obj 209 121 outlet;
#X obj 209 61 inlet;
#X floatatom 209 101 5 0 0 0 - - -;
#X obj 214 191 t b f;
#X text 249 98 X position of polygon point;
#X text 218 32 Y position of polygon point;
#X obj 124 31 inlet;
#X connect 0 0 4 0;
#X connect 2 0 4 1;
#X connect 3 0 2 0;
#X connect 3 0 8 0;
#X connect 3 0 10 0;
#X connect 4 0 5 0;
#X connect 5 0 1 0;
#X connect 6 0 0 1;
#X connect 7 0 11 0;
#X connect 9 0 3 0;
#X connect 11 0 2 0;
#X connect 11 1 2 1;
#X connect 14 0 0 0;
#X restore 373 189 pd p1;
#N canvas 67 95 450 300 no 0;
#X obj 298 109 r env1;
#X obj 298 149 /;
#X obj 313 129 r env1;
#X obj 298 189 outlet;
#X obj 298 169 - 1;
#X connect 0 0 1 0;
#X connect 1 0 4 0;
#X connect 2 0 1 1;
#X connect 4 0 3 0;
#X restore 51 129 pd no;
#N canvas 67 83 450 300 no 0;
#X obj 298 109 r env1;
#X obj 298 149 /;
#X obj 313 129 r env1;
#X obj 298 169 - 1;
#X obj 298 189 outlet;
#X connect 0 0 1 0;
#X connect 1 0 3 0;
#X connect 2 0 1 1;
#X connect 3 0 4 0;
#X restore 373 169 pd no;
#N canvas 305 172 450 309 p1 0;
#X obj 124 111 * 3;
#X obj 124 291 outlet;
#X obj 199 211 * 1;
#X obj 199 81 + 0.75;
#X obj 124 231 pack f f;
#X msg 124 261 \$2 \$1 0;
#X obj 174 31 r ppos;
#X obj 214 171 r spacing;
#X obj 209 121 outlet;
#X obj 209 61 inlet;
#X floatatom 209 101 5 0 0 0 - - -;
#X obj 214 191 t b f;
#X text 249 98 X position of polygon point;
#X text 218 32 Y position of polygon point;
#X obj 124 31 inlet;
#X connect 0 0 4 0;
#X connect 2 0 4 1;
#X connect 3 0 2 0;
#X connect 3 0 8 0;
#X connect 3 0 10 0;
#X connect 4 0 5 0;
#X connect 5 0 1 0;
#X connect 6 0 0 1;
#X connect 7 0 11 0;
#X connect 9 0 3 0;
#X connect 11 0 2 0;
#X connect 11 1 2 1;
#X connect 14 0 0 0;
#X restore 123 149 pd p1;
#N canvas 305 172 450 309 p1 0;
#X obj 124 111 * 3;
#X obj 124 291 outlet;
#X obj 199 211 * 1;
#X obj 199 81 + 0.75;
#X obj 124 231 pack f f;
#X msg 124 261 \$2 \$1 0;
#X obj 174 31 r ppos;
#X obj 214 171 r spacing;
#X obj 209 121 outlet;
#X obj 209 61 inlet;
#X floatatom 209 101 5 0 0 0 - - -;
#X obj 214 191 t b f;
#X text 249 98 X position of polygon point;
#X text 218 32 Y position of polygon point;
#X obj 124 31 inlet;
#X connect 0 0 4 0;
#X connect 2 0 4 1;
#X connect 3 0 2 0;
#X connect 3 0 8 0;
#X connect 3 0 10 0;
#X connect 4 0 5 0;
#X connect 5 0 1 0;
#X connect 6 0 0 1;
#X connect 7 0 11 0;
#X connect 9 0 3 0;
#X connect 11 0 2 0;
#X connect 11 1 2 1;
#X connect 14 0 0 0;
#X restore 194 149 pd p1;
#N canvas 305 172 450 309 p1 0;
#X obj 124 111 * 3;
#X obj 124 291 outlet;
#X obj 199 211 * 1;
#X obj 199 81 + 0.75;
#X obj 124 231 pack f f;
#X msg 124 261 \$2 \$1 0;
#X obj 174 31 r ppos;
#X obj 214 171 r spacing;
#X obj 209 121 outlet;
#X obj 209 61 inlet;
#X floatatom 209 101 5 0 0 0 - - -;
#X obj 214 191 t b f;
#X text 249 98 X position of polygon point;
#X text 218 32 Y position of polygon point;
#X obj 124 31 inlet;
#X connect 0 0 4 0;
#X connect 2 0 4 1;
#X connect 3 0 2 0;
#X connect 3 0 8 0;
#X connect 3 0 10 0;
#X connect 4 0 5 0;
#X connect 5 0 1 0;
#X connect 6 0 0 1;
#X connect 7 0 11 0;
#X connect 9 0 3 0;
#X connect 11 0 2 0;
#X connect 11 1 2 1;
#X connect 14 0 0 0;
#X restore 265 149 pd p1;
#N canvas 305 172 450 309 p1 0;
#X obj 124 111 * 3;
#X obj 124 291 outlet;
#X obj 199 211 * 1;
#X obj 199 81 + 0.75;
#X obj 124 231 pack f f;
#X msg 124 261 \$2 \$1 0;
#X obj 174 31 r ppos;
#X obj 214 171 r spacing;
#X obj 209 121 outlet;
#X obj 209 61 inlet;
#X floatatom 209 101 5 0 0 0 - - -;
#X obj 214 191 t b f;
#X text 249 98 X position of polygon point;
#X text 218 32 Y position of polygon point;
#X obj 124 31 inlet;
#X connect 0 0 4 0;
#X connect 2 0 4 1;
#X connect 3 0 2 0;
#X connect 3 0 8 0;
#X connect 3 0 10 0;
#X connect 4 0 5 0;
#X connect 5 0 1 0;
#X connect 6 0 0 1;
#X connect 7 0 11 0;
#X connect 9 0 3 0;
#X connect 11 0 2 0;
#X connect 11 1 2 1;
#X connect 14 0 0 0;
#X restore 337 149 pd p1;
#N canvas 305 172 450 309 p1 0;
#X obj 124 111 * 3;
#X obj 124 291 outlet;
#X obj 199 211 * 1;
#X obj 199 81 + 0.75;
#X obj 124 231 pack f f;
#X msg 124 261 \$2 \$1 0;
#X obj 174 31 r ppos;
#X obj 214 171 r spacing;
#X obj 209 121 outlet;
#X obj 209 61 inlet;
#X floatatom 209 101 5 0 0 0 - - -;
#X obj 214 191 t b f;
#X text 249 98 X position of polygon point;
#X text 218 32 Y position of polygon point;
#X obj 124 31 inlet;
#X connect 0 0 4 0;
#X connect 2 0 4 1;
#X connect 3 0 2 0;
#X connect 3 0 8 0;
#X connect 3 0 10 0;
#X connect 4 0 5 0;
#X connect 5 0 1 0;
#X connect 6 0 0 1;
#X connect 7 0 11 0;
#X connect 9 0 3 0;
#X connect 11 0 2 0;
#X connect 11 1 2 1;
#X connect 14 0 0 0;
#X restore 158 189 pd p1;
#N canvas 305 172 450 309 p1 0;
#X obj 124 111 * 3;
#X obj 124 291 outlet;
#X obj 199 211 * 1;
#X obj 199 81 + 0.75;
#X obj 124 231 pack f f;
#X msg 124 261 \$2 \$1 0;
#X obj 174 31 r ppos;
#X obj 214 171 r spacing;
#X obj 209 121 outlet;
#X obj 209 61 inlet;
#X floatatom 209 101 5 0 0 0 - - -;
#X obj 214 191 t b f;
#X text 249 98 X position of polygon point;
#X text 218 32 Y position of polygon point;
#X obj 124 31 inlet;
#X connect 0 0 4 0;
#X connect 2 0 4 1;
#X connect 3 0 2 0;
#X connect 3 0 8 0;
#X connect 3 0 10 0;
#X connect 4 0 5 0;
#X connect 5 0 1 0;
#X connect 6 0 0 1;
#X connect 7 0 11 0;
#X connect 9 0 3 0;
#X connect 11 0 2 0;
#X connect 11 1 2 1;
#X connect 14 0 0 0;
#X restore 230 189 pd p1;
#N canvas 305 172 450 309 p1 0;
#X obj 124 111 * 3;
#X obj 124 291 outlet;
#X obj 199 211 * 1;
#X obj 199 81 + 0.75;
#X obj 124 231 pack f f;
#X msg 124 261 \$2 \$1 0;
#X obj 174 31 r ppos;
#X obj 214 171 r spacing;
#X obj 209 121 outlet;
#X obj 209 61 inlet;
#X floatatom 209 101 5 0 0 0 - - -;
#X obj 214 191 t b f;
#X text 249 98 X position of polygon point;
#X text 218 32 Y position of polygon point;
#X obj 124 31 inlet;
#X connect 0 0 4 0;
#X connect 2 0 4 1;
#X connect 3 0 2 0;
#X connect 3 0 8 0;
#X connect 3 0 10 0;
#X connect 4 0 5 0;
#X connect 5 0 1 0;
#X connect 6 0 0 1;
#X connect 7 0 11 0;
#X connect 9 0 3 0;
#X connect 11 0 2 0;
#X connect 11 1 2 1;
#X connect 14 0 0 0;
#X restore 301 189 pd p1;
#N canvas 305 172 450 309 p1 0;
#X obj 124 111 * 3;
#X obj 124 291 outlet;
#X obj 199 211 * 1;
#X obj 199 81 + 0.75;
#X obj 124 231 pack f f;
#X msg 124 261 \$2 \$1 0;
#X obj 174 31 r ppos;
#X obj 214 171 r spacing;
#X obj 209 121 outlet;
#X obj 209 61 inlet;
#X floatatom 209 101 5 0 0 0 - - -;
#X obj 214 191 t b f;
#X text 249 98 X position of polygon point;
#X text 218 32 Y position of polygon point;
#X obj 124 31 inlet;
#X connect 0 0 4 0;
#X connect 2 0 4 1;
#X connect 3 0 2 0;
#X connect 3 0 8 0;
#X connect 3 0 10 0;
#X connect 4 0 5 0;
#X connect 5 0 1 0;
#X connect 6 0 0 1;
#X connect 7 0 11 0;
#X connect 9 0 3 0;
#X connect 11 0 2 0;
#X connect 11 1 2 1;
#X connect 14 0 0 0;
#X restore 51 149 pd p1;
#X obj 16 89 inlet;
#X connect 0 0 1 2;
#X connect 0 1 13 1;
#X connect 2 0 0 0;
#X connect 3 0 13 0;
#X connect 4 0 17 0;
#X connect 5 0 14 0;
#X connect 6 0 18 0;
#X connect 7 0 15 0;
#X connect 8 0 19 0;
#X connect 9 0 16 0;
#X connect 10 0 1 10;
#X connect 11 0 20 0;
#X connect 11 0 20 1;
#X connect 12 0 10 0;
#X connect 13 0 1 3;
#X connect 13 1 17 1;
#X connect 14 0 1 5;
#X connect 14 1 18 1;
#X connect 15 0 1 7;
#X connect 15 1 19 1;
#X connect 16 0 1 9;
#X connect 16 1 10 1;
#X connect 17 0 1 4;
#X connect 17 1 14 1;
#X connect 18 0 1 6;
#X connect 18 1 15 1;
#X connect 19 0 1 8;
#X connect 19 1 16 1;
#X connect 20 0 1 1;
#X connect 20 1 0 1;
#X connect 21 0 1 0;
#X restore 26 229 pd top_poly;
#X obj 252 390 playlist all 200 100 {Helvetica 10 bold} #457782 yellow
black red;
#X msg 252 493 open \$1;
#X msg 252 363 location /home/hellocatfood/Desktop;
#X obj 402 230 playlist all 200 100 {Helvetica 10 bold} #457782 yellow
black red;
#X msg 402 333 open \$1;
#X msg 402 203 location /home/hellocatfood/Desktop;
#X obj 26 29 gemhead 1;
#X connect 0 0 55 0;
#X connect 1 0 55 0;
#X connect 2 0 3 0;
#X connect 4 0 5 0;
#X connect 6 0 55 0;
#X connect 8 0 9 0;
#X connect 9 0 49 0;
#X connect 10 0 9 1;
#X connect 11 0 14 0;
#X connect 14 0 15 0;
#X connect 15 0 12 0;
#X connect 18 0 35 0;
#X connect 19 0 56 0;
#X connect 20 0 56 0;
#X connect 21 0 56 0;
#X connect 22 0 24 0;
#X connect 23 0 22 1;
#X connect 24 0 50 0;
#X connect 25 0 26 0;
#X connect 26 0 27 0;
#X connect 27 0 22 2;
#X connect 28 0 29 0;
#X connect 29 0 30 0;
#X connect 30 0 9 2;
#X connect 31 0 18 1;
#X connect 32 0 38 0;
#X connect 33 0 32 1;
#X connect 34 0 55 0;
#X connect 35 0 34 0;
#X connect 35 2 36 0;
#X connect 36 0 35 1;
#X connect 37 0 56 0;
#X connect 38 0 37 0;
#X connect 38 2 39 0;
#X connect 39 0 38 1;
#X connect 40 0 43 0;
#X connect 41 0 43 3;
#X connect 42 0 43 2;
#X connect 47 0 43 1;
#X connect 49 0 18 0;
#X connect 50 0 32 0;
#X connect 51 0 52 0;
#X connect 52 0 35 0;
#X connect 53 0 38 0;
#X connect 54 0 53 0;
#X connect 57 0 58 0;
#X connect 58 0 35 0;
#X connect 59 0 57 0;
#X connect 60 0 61 0;
#X connect 61 0 38 0;
#X connect 62 0 60 0;
#X connect 63 0 22 0;
