#N canvas 66 82 650 685 10;
#X declare -path /home/hellocatfood/pd-externals/hellocatfood;
#X declare -lib gridflow;
#X obj 25 -69 bng 30 250 50 0 empty empty empty 17 7 0 10 -4034 -1
-1;
#X obj 65 -49 bng 15 250 50 0 empty empty empty 17 7 0 10 -258113 -1
-1;
#X obj 65 -69 bng 15 250 50 0 empty empty empty 17 7 0 10 -4032 -1
-1;
#N canvas 220 250 450 300 window 0;
#X obj 30 149 gemwin;
#X msg 320 39 0 \, destroy;
#X obj 30 19 inlet;
#X obj 150 19 inlet;
#X obj 320 19 inlet;
#X msg 151 109 offset 1366 0;
#X msg 260 108 border 0;
#X msg 30 39 FSAA 8 \, create \, 1;
#X obj 332 162 world_light;
#X obj 332 132 gemhead;
#X msg 150 169 lighting \$1;
#X obj 150 149 inlet;
#X msg 160 79 dimen 1440 900;
#X connect 1 0 0 0;
#X connect 2 0 7 0;
#X connect 3 0 5 0;
#X connect 3 0 6 0;
#X connect 3 0 12 0;
#X connect 4 0 1 0;
#X connect 5 0 0 0;
#X connect 6 0 0 0;
#X connect 7 0 0 0;
#X connect 9 0 8 0;
#X connect 10 0 0 0;
#X connect 11 0 10 0;
#X connect 12 0 0 0;
#X restore 25 -30 pd window;
#X text 85 -71 press this first;
#X text 85 -51 destroy window;
#X text 22 -91 create window;
#X obj 95 -30 tgl 15 0 empty empty empty 17 7 0 10 -257985 -1 -1 0
1;
#X text 115 -31 lighting;
#N canvas 708 82 646 685 polys 0;
#X obj 200 100 cnv 15 160 160 empty empty empty 20 12 0 14 -233017
-66577 0;
#X obj 55 186 translateXYZ;
#X obj 78 166 r xpos;
#X obj 55 216 rotateXYZ 180 0 0;
#X obj 206 141 vsl 15 50 -5 5 0 0 empty empty empty 0 -9 0 10 -260097
-1 -1 4500 1;
#X msg 135 136 \$1 50;
#X obj 135 156 line;
#X obj 55 296 rotateXYZ;
#X obj 55 397 pix_texture;
#X obj 55 326 pix_film;
#X obj 115 326 f;
#X obj 55 246 repeat 10;
#X msg 199 339 draw fill;
#X msg 199 319 draw linestrip;
#X obj 55 556 translateXYZ;
#X obj 78 536 r xpos;
#X obj 55 616 rotateXYZ;
#X obj 206 201 vsl 15 50 -5 5 0 0 empty empty empty 0 -9 0 10 -260097
-1 -1 500 1;
#X msg 135 506 \$1 50;
#X obj 135 526 line;
#X obj 55 716 pix_texture;
#X obj 55 646 pix_film;
#X obj 115 646 f;
#X obj 55 586 repeat 10;
#X obj 239 139 hsl 50 15 0.01 3 0 0 spacing empty empty -2 -8 0 10
-260097 -1 -1 3200 1;
#X obj 239 179 hsl 50 15 0 15 0 0 ppos empty empty -2 -8 0 10 -260097
-1 -1 1200 1;
#X text 234 155 spacing;
#X obj 239 219 hsl 50 15 -15 5 0 0 xpos empty empty -2 -8 0 10 -260097
-1 -1 1700 1;
#N canvas 599 172 450 300 poly 0;
#N canvas 301 184 450 309 p1 0;
#X obj 124 111 * 3;
#X obj 124 291 outlet;
#X obj 199 211 * 1;
#X obj 199 81 + 0.75;
#X obj 124 231 pack f f;
#X msg 124 261 \$2 \$1 0;
#X obj 174 31 r ppos;
#X obj 214 171 r spacing;
#X obj 209 121 outlet;
#X obj 209 61 inlet;
#X floatatom 209 101 5 0 0 0 - - -;
#X obj 214 191 t b f;
#X text 249 98 X position of polygon point;
#X text 218 32 Y position of polygon point;
#X obj 124 31 inlet;
#X connect 0 0 4 0;
#X connect 2 0 4 1;
#X connect 3 0 2 0;
#X connect 3 0 8 0;
#X connect 3 0 10 0;
#X connect 4 0 5 0;
#X connect 5 0 1 0;
#X connect 6 0 0 1;
#X connect 7 0 11 0;
#X connect 9 0 3 0;
#X connect 11 0 2 0;
#X connect 11 1 2 1;
#X connect 14 0 0 0;
#X restore 87 139 pd p1;
#X obj 16 159 polygon 10 _________________________________________________
;
#X obj 87 119 r env1;
#X obj 123 79 r env2;
#X obj 158 119 r env3;
#X obj 194 79 r env4;
#X obj 230 119 r env5;
#X obj 265 79 r env6;
#X obj 301 119 r env7;
#X obj 337 79 r env8;
#N canvas 179 157 450 309 p1 0;
#X obj 124 111 * 3;
#X obj 124 291 outlet;
#X obj 199 211 * 1;
#X obj 199 81 + 0.75;
#X obj 124 231 pack f f;
#X msg 124 261 \$2 \$1 0;
#X obj 174 31 r ppos;
#X obj 214 171 r spacing;
#X obj 209 121 outlet;
#X obj 209 61 inlet;
#X floatatom 209 101 5 0 0 0 - - -;
#X obj 214 191 t b f;
#X text 249 98 X position of polygon point;
#X text 218 32 Y position of polygon point;
#X obj 124 31 inlet;
#X connect 0 0 4 0;
#X connect 2 0 4 1;
#X connect 3 0 2 0;
#X connect 3 0 8 0;
#X connect 3 0 10 0;
#X connect 4 0 5 0;
#X connect 5 0 1 0;
#X connect 6 0 0 1;
#X connect 7 0 11 0;
#X connect 9 0 3 0;
#X connect 11 0 2 0;
#X connect 11 1 2 1;
#X connect 14 0 0 0;
#X restore 373 139 pd p1;
#N canvas 65 100 450 300 no 0;
#X obj 298 109 r env1;
#X obj 298 149 /;
#X obj 313 129 r env1;
#X obj 298 189 outlet;
#X obj 298 169 - 1;
#X connect 0 0 1 0;
#X connect 1 0 4 0;
#X connect 2 0 1 1;
#X connect 4 0 3 0;
#X restore 51 79 pd no;
#N canvas 67 83 450 300 no 0;
#X obj 298 109 r env1;
#X obj 298 149 /;
#X obj 313 129 r env1;
#X obj 298 169 - 1;
#X obj 298 189 outlet;
#X connect 0 0 1 0;
#X connect 1 0 3 0;
#X connect 2 0 1 1;
#X connect 3 0 4 0;
#X restore 373 119 pd no;
#N canvas 305 172 450 309 p1 0;
#X obj 124 111 * 3;
#X obj 124 291 outlet;
#X obj 199 211 * 1;
#X obj 199 81 + 0.75;
#X obj 124 231 pack f f;
#X msg 124 261 \$2 \$1 0;
#X obj 174 31 r ppos;
#X obj 214 171 r spacing;
#X obj 209 121 outlet;
#X obj 209 61 inlet;
#X floatatom 209 101 5 0 0 0 - - -;
#X obj 214 191 t b f;
#X text 249 98 X position of polygon point;
#X text 218 32 Y position of polygon point;
#X obj 124 31 inlet;
#X connect 0 0 4 0;
#X connect 2 0 4 1;
#X connect 3 0 2 0;
#X connect 3 0 8 0;
#X connect 3 0 10 0;
#X connect 4 0 5 0;
#X connect 5 0 1 0;
#X connect 6 0 0 1;
#X connect 7 0 11 0;
#X connect 9 0 3 0;
#X connect 11 0 2 0;
#X connect 11 1 2 1;
#X connect 14 0 0 0;
#X restore 123 99 pd p1;
#N canvas 305 172 450 309 p1 0;
#X obj 124 111 * 3;
#X obj 124 291 outlet;
#X obj 199 211 * 1;
#X obj 199 81 + 0.75;
#X obj 124 231 pack f f;
#X msg 124 261 \$2 \$1 0;
#X obj 174 31 r ppos;
#X obj 214 171 r spacing;
#X obj 209 121 outlet;
#X obj 209 61 inlet;
#X floatatom 209 101 5 0 0 0 - - -;
#X obj 214 191 t b f;
#X text 249 98 X position of polygon point;
#X text 218 32 Y position of polygon point;
#X obj 124 31 inlet;
#X connect 0 0 4 0;
#X connect 2 0 4 1;
#X connect 3 0 2 0;
#X connect 3 0 8 0;
#X connect 3 0 10 0;
#X connect 4 0 5 0;
#X connect 5 0 1 0;
#X connect 6 0 0 1;
#X connect 7 0 11 0;
#X connect 9 0 3 0;
#X connect 11 0 2 0;
#X connect 11 1 2 1;
#X connect 14 0 0 0;
#X restore 194 99 pd p1;
#N canvas 305 172 450 309 p1 0;
#X obj 124 111 * 3;
#X obj 124 291 outlet;
#X obj 199 211 * 1;
#X obj 199 81 + 0.75;
#X obj 124 231 pack f f;
#X msg 124 261 \$2 \$1 0;
#X obj 174 31 r ppos;
#X obj 214 171 r spacing;
#X obj 209 121 outlet;
#X obj 209 61 inlet;
#X floatatom 209 101 5 0 0 0 - - -;
#X obj 214 191 t b f;
#X text 249 98 X position of polygon point;
#X text 218 32 Y position of polygon point;
#X obj 124 31 inlet;
#X connect 0 0 4 0;
#X connect 2 0 4 1;
#X connect 3 0 2 0;
#X connect 3 0 8 0;
#X connect 3 0 10 0;
#X connect 4 0 5 0;
#X connect 5 0 1 0;
#X connect 6 0 0 1;
#X connect 7 0 11 0;
#X connect 9 0 3 0;
#X connect 11 0 2 0;
#X connect 11 1 2 1;
#X connect 14 0 0 0;
#X restore 265 99 pd p1;
#N canvas 305 172 450 309 p1 0;
#X obj 124 111 * 3;
#X obj 124 291 outlet;
#X obj 199 211 * 1;
#X obj 199 81 + 0.75;
#X obj 124 231 pack f f;
#X msg 124 261 \$2 \$1 0;
#X obj 174 31 r ppos;
#X obj 214 171 r spacing;
#X obj 209 121 outlet;
#X obj 209 61 inlet;
#X floatatom 209 101 5 0 0 0 - - -;
#X obj 214 191 t b f;
#X text 249 98 X position of polygon point;
#X text 218 32 Y position of polygon point;
#X obj 124 31 inlet;
#X connect 0 0 4 0;
#X connect 2 0 4 1;
#X connect 3 0 2 0;
#X connect 3 0 8 0;
#X connect 3 0 10 0;
#X connect 4 0 5 0;
#X connect 5 0 1 0;
#X connect 6 0 0 1;
#X connect 7 0 11 0;
#X connect 9 0 3 0;
#X connect 11 0 2 0;
#X connect 11 1 2 1;
#X connect 14 0 0 0;
#X restore 337 99 pd p1;
#N canvas 305 172 450 309 p1 0;
#X obj 124 111 * 3;
#X obj 124 291 outlet;
#X obj 199 211 * 1;
#X obj 199 81 + 0.75;
#X obj 124 231 pack f f;
#X msg 124 261 \$2 \$1 0;
#X obj 174 31 r ppos;
#X obj 214 171 r spacing;
#X obj 209 121 outlet;
#X obj 209 61 inlet;
#X floatatom 209 101 5 0 0 0 - - -;
#X obj 214 191 t b f;
#X text 249 98 X position of polygon point;
#X text 218 32 Y position of polygon point;
#X obj 124 31 inlet;
#X connect 0 0 4 0;
#X connect 2 0 4 1;
#X connect 3 0 2 0;
#X connect 3 0 8 0;
#X connect 3 0 10 0;
#X connect 4 0 5 0;
#X connect 5 0 1 0;
#X connect 6 0 0 1;
#X connect 7 0 11 0;
#X connect 9 0 3 0;
#X connect 11 0 2 0;
#X connect 11 1 2 1;
#X connect 14 0 0 0;
#X restore 158 139 pd p1;
#N canvas 305 172 450 309 p1 0;
#X obj 124 111 * 3;
#X obj 124 291 outlet;
#X obj 199 211 * 1;
#X obj 199 81 + 0.75;
#X obj 124 231 pack f f;
#X msg 124 261 \$2 \$1 0;
#X obj 174 31 r ppos;
#X obj 214 171 r spacing;
#X obj 209 121 outlet;
#X obj 209 61 inlet;
#X floatatom 209 101 5 0 0 0 - - -;
#X obj 214 191 t b f;
#X text 249 98 X position of polygon point;
#X text 218 32 Y position of polygon point;
#X obj 124 31 inlet;
#X connect 0 0 4 0;
#X connect 2 0 4 1;
#X connect 3 0 2 0;
#X connect 3 0 8 0;
#X connect 3 0 10 0;
#X connect 4 0 5 0;
#X connect 5 0 1 0;
#X connect 6 0 0 1;
#X connect 7 0 11 0;
#X connect 9 0 3 0;
#X connect 11 0 2 0;
#X connect 11 1 2 1;
#X connect 14 0 0 0;
#X restore 230 139 pd p1;
#N canvas 305 172 450 309 p1 0;
#X obj 124 111 * 3;
#X obj 124 291 outlet;
#X obj 199 211 * 1;
#X obj 199 81 + 0.75;
#X obj 124 231 pack f f;
#X msg 124 261 \$2 \$1 0;
#X obj 174 31 r ppos;
#X obj 214 171 r spacing;
#X obj 209 121 outlet;
#X obj 209 61 inlet;
#X floatatom 209 101 5 0 0 0 - - -;
#X obj 214 191 t b f;
#X text 249 98 X position of polygon point;
#X text 218 32 Y position of polygon point;
#X obj 124 31 inlet;
#X connect 0 0 4 0;
#X connect 2 0 4 1;
#X connect 3 0 2 0;
#X connect 3 0 8 0;
#X connect 3 0 10 0;
#X connect 4 0 5 0;
#X connect 5 0 1 0;
#X connect 6 0 0 1;
#X connect 7 0 11 0;
#X connect 9 0 3 0;
#X connect 11 0 2 0;
#X connect 11 1 2 1;
#X connect 14 0 0 0;
#X restore 301 139 pd p1;
#N canvas 295 197 450 309 p1 0;
#X obj 124 111 * 3;
#X obj 124 291 outlet;
#X obj 199 211 * 1;
#X obj 199 81 + 0.75;
#X obj 124 231 pack f f;
#X msg 124 261 \$2 \$1 0;
#X obj 174 31 r ppos;
#X obj 214 171 r spacing;
#X obj 209 121 outlet;
#X obj 209 61 inlet;
#X floatatom 209 101 5 0 0 0 - - -;
#X obj 214 191 t b f;
#X text 249 98 X position of polygon point;
#X text 218 32 Y position of polygon point;
#X obj 124 31 inlet;
#X connect 0 0 4 0;
#X connect 2 0 4 1;
#X connect 3 0 2 0;
#X connect 3 0 8 0;
#X connect 3 0 10 0;
#X connect 4 0 5 0;
#X connect 5 0 1 0;
#X connect 6 0 0 1;
#X connect 7 0 11 0;
#X connect 9 0 3 0;
#X connect 11 0 2 0;
#X connect 11 1 2 1;
#X connect 14 0 0 0;
#X restore 51 99 pd p1;
#X obj 16 39 inlet;
#X connect 0 0 1 2;
#X connect 0 1 13 1;
#X connect 2 0 0 0;
#X connect 3 0 13 0;
#X connect 4 0 17 0;
#X connect 5 0 14 0;
#X connect 6 0 18 0;
#X connect 7 0 15 0;
#X connect 8 0 19 0;
#X connect 9 0 16 0;
#X connect 10 0 1 10;
#X connect 11 0 20 0;
#X connect 11 0 20 1;
#X connect 12 0 10 0;
#X connect 13 0 1 3;
#X connect 13 1 17 1;
#X connect 14 0 1 5;
#X connect 14 1 18 1;
#X connect 15 0 1 7;
#X connect 15 1 19 1;
#X connect 16 0 1 9;
#X connect 16 1 10 1;
#X connect 17 0 1 4;
#X connect 17 1 14 1;
#X connect 18 0 1 6;
#X connect 18 1 15 1;
#X connect 19 0 1 8;
#X connect 19 1 16 1;
#X connect 20 0 1 1;
#X connect 20 1 0 1;
#X connect 21 0 1 0;
#X restore 55 427 pd poly;
#N canvas 629 152 450 300 poly 0;
#N canvas 301 184 450 309 p1 0;
#X obj 124 111 * 3;
#X obj 124 291 outlet;
#X obj 199 211 * 1;
#X obj 199 81 + 0.75;
#X obj 124 231 pack f f;
#X msg 124 261 \$2 \$1 0;
#X obj 174 31 r ppos;
#X obj 214 171 r spacing;
#X obj 209 121 outlet;
#X obj 209 61 inlet;
#X floatatom 209 101 5 0 0 0 - - -;
#X obj 214 191 t b f;
#X text 249 98 X position of polygon point;
#X text 218 32 Y position of polygon point;
#X obj 124 31 inlet;
#X connect 0 0 4 0;
#X connect 2 0 4 1;
#X connect 3 0 2 0;
#X connect 3 0 8 0;
#X connect 3 0 10 0;
#X connect 4 0 5 0;
#X connect 5 0 1 0;
#X connect 6 0 0 1;
#X connect 7 0 11 0;
#X connect 9 0 3 0;
#X connect 11 0 2 0;
#X connect 11 1 2 1;
#X connect 14 0 0 0;
#X restore 87 139 pd p1;
#X obj 16 159 polygon 10 _________________________________________________
;
#X obj 87 119 r env1;
#X obj 123 79 r env2;
#X obj 158 119 r env3;
#X obj 194 79 r env4;
#X obj 230 119 r env5;
#X obj 265 79 r env6;
#X obj 301 119 r env7;
#X obj 337 79 r env8;
#N canvas 179 157 450 309 p1 0;
#X obj 124 111 * 3;
#X obj 124 291 outlet;
#X obj 199 211 * 1;
#X obj 199 81 + 0.75;
#X obj 124 231 pack f f;
#X msg 124 261 \$2 \$1 0;
#X obj 174 31 r ppos;
#X obj 214 171 r spacing;
#X obj 209 121 outlet;
#X obj 209 61 inlet;
#X floatatom 209 101 5 0 0 0 - - -;
#X obj 214 191 t b f;
#X text 249 98 X position of polygon point;
#X text 218 32 Y position of polygon point;
#X obj 124 31 inlet;
#X connect 0 0 4 0;
#X connect 2 0 4 1;
#X connect 3 0 2 0;
#X connect 3 0 8 0;
#X connect 3 0 10 0;
#X connect 4 0 5 0;
#X connect 5 0 1 0;
#X connect 6 0 0 1;
#X connect 7 0 11 0;
#X connect 9 0 3 0;
#X connect 11 0 2 0;
#X connect 11 1 2 1;
#X connect 14 0 0 0;
#X restore 373 139 pd p1;
#N canvas 67 95 450 300 no 0;
#X obj 298 109 r env1;
#X obj 298 149 /;
#X obj 313 129 r env1;
#X obj 298 189 outlet;
#X obj 298 169 - 1;
#X connect 0 0 1 0;
#X connect 1 0 4 0;
#X connect 2 0 1 1;
#X connect 4 0 3 0;
#X restore 51 79 pd no;
#N canvas 67 83 450 300 no 0;
#X obj 298 109 r env1;
#X obj 298 149 /;
#X obj 313 129 r env1;
#X obj 298 169 - 1;
#X obj 298 189 outlet;
#X connect 0 0 1 0;
#X connect 1 0 3 0;
#X connect 2 0 1 1;
#X connect 3 0 4 0;
#X restore 373 119 pd no;
#N canvas 305 172 450 309 p1 0;
#X obj 124 111 * 3;
#X obj 124 291 outlet;
#X obj 199 211 * 1;
#X obj 199 81 + 0.75;
#X obj 124 231 pack f f;
#X msg 124 261 \$2 \$1 0;
#X obj 174 31 r ppos;
#X obj 214 171 r spacing;
#X obj 209 121 outlet;
#X obj 209 61 inlet;
#X floatatom 209 101 5 0 0 0 - - -;
#X obj 214 191 t b f;
#X text 249 98 X position of polygon point;
#X text 218 32 Y position of polygon point;
#X obj 124 31 inlet;
#X connect 0 0 4 0;
#X connect 2 0 4 1;
#X connect 3 0 2 0;
#X connect 3 0 8 0;
#X connect 3 0 10 0;
#X connect 4 0 5 0;
#X connect 5 0 1 0;
#X connect 6 0 0 1;
#X connect 7 0 11 0;
#X connect 9 0 3 0;
#X connect 11 0 2 0;
#X connect 11 1 2 1;
#X connect 14 0 0 0;
#X restore 123 99 pd p1;
#N canvas 305 172 450 309 p1 0;
#X obj 124 111 * 3;
#X obj 124 291 outlet;
#X obj 199 211 * 1;
#X obj 199 81 + 0.75;
#X obj 124 231 pack f f;
#X msg 124 261 \$2 \$1 0;
#X obj 174 31 r ppos;
#X obj 214 171 r spacing;
#X obj 209 121 outlet;
#X obj 209 61 inlet;
#X floatatom 209 101 5 0 0 0 - - -;
#X obj 214 191 t b f;
#X text 249 98 X position of polygon point;
#X text 218 32 Y position of polygon point;
#X obj 124 31 inlet;
#X connect 0 0 4 0;
#X connect 2 0 4 1;
#X connect 3 0 2 0;
#X connect 3 0 8 0;
#X connect 3 0 10 0;
#X connect 4 0 5 0;
#X connect 5 0 1 0;
#X connect 6 0 0 1;
#X connect 7 0 11 0;
#X connect 9 0 3 0;
#X connect 11 0 2 0;
#X connect 11 1 2 1;
#X connect 14 0 0 0;
#X restore 194 99 pd p1;
#N canvas 305 172 450 309 p1 0;
#X obj 124 111 * 3;
#X obj 124 291 outlet;
#X obj 199 211 * 1;
#X obj 199 81 + 0.75;
#X obj 124 231 pack f f;
#X msg 124 261 \$2 \$1 0;
#X obj 174 31 r ppos;
#X obj 214 171 r spacing;
#X obj 209 121 outlet;
#X obj 209 61 inlet;
#X floatatom 209 101 5 0 0 0 - - -;
#X obj 214 191 t b f;
#X text 249 98 X position of polygon point;
#X text 218 32 Y position of polygon point;
#X obj 124 31 inlet;
#X connect 0 0 4 0;
#X connect 2 0 4 1;
#X connect 3 0 2 0;
#X connect 3 0 8 0;
#X connect 3 0 10 0;
#X connect 4 0 5 0;
#X connect 5 0 1 0;
#X connect 6 0 0 1;
#X connect 7 0 11 0;
#X connect 9 0 3 0;
#X connect 11 0 2 0;
#X connect 11 1 2 1;
#X connect 14 0 0 0;
#X restore 265 99 pd p1;
#N canvas 305 172 450 309 p1 0;
#X obj 124 111 * 3;
#X obj 124 291 outlet;
#X obj 199 211 * 1;
#X obj 199 81 + 0.75;
#X obj 124 231 pack f f;
#X msg 124 261 \$2 \$1 0;
#X obj 174 31 r ppos;
#X obj 214 171 r spacing;
#X obj 209 121 outlet;
#X obj 209 61 inlet;
#X floatatom 209 101 5 0 0 0 - - -;
#X obj 214 191 t b f;
#X text 249 98 X position of polygon point;
#X text 218 32 Y position of polygon point;
#X obj 124 31 inlet;
#X connect 0 0 4 0;
#X connect 2 0 4 1;
#X connect 3 0 2 0;
#X connect 3 0 8 0;
#X connect 3 0 10 0;
#X connect 4 0 5 0;
#X connect 5 0 1 0;
#X connect 6 0 0 1;
#X connect 7 0 11 0;
#X connect 9 0 3 0;
#X connect 11 0 2 0;
#X connect 11 1 2 1;
#X connect 14 0 0 0;
#X restore 337 99 pd p1;
#N canvas 305 172 450 309 p1 0;
#X obj 124 111 * 3;
#X obj 124 291 outlet;
#X obj 199 211 * 1;
#X obj 199 81 + 0.75;
#X obj 124 231 pack f f;
#X msg 124 261 \$2 \$1 0;
#X obj 174 31 r ppos;
#X obj 214 171 r spacing;
#X obj 209 121 outlet;
#X obj 209 61 inlet;
#X floatatom 209 101 5 0 0 0 - - -;
#X obj 214 191 t b f;
#X text 249 98 X position of polygon point;
#X text 218 32 Y position of polygon point;
#X obj 124 31 inlet;
#X connect 0 0 4 0;
#X connect 2 0 4 1;
#X connect 3 0 2 0;
#X connect 3 0 8 0;
#X connect 3 0 10 0;
#X connect 4 0 5 0;
#X connect 5 0 1 0;
#X connect 6 0 0 1;
#X connect 7 0 11 0;
#X connect 9 0 3 0;
#X connect 11 0 2 0;
#X connect 11 1 2 1;
#X connect 14 0 0 0;
#X restore 158 139 pd p1;
#N canvas 305 172 450 309 p1 0;
#X obj 124 111 * 3;
#X obj 124 291 outlet;
#X obj 199 211 * 1;
#X obj 199 81 + 0.75;
#X obj 124 231 pack f f;
#X msg 124 261 \$2 \$1 0;
#X obj 174 31 r ppos;
#X obj 214 171 r spacing;
#X obj 209 121 outlet;
#X obj 209 61 inlet;
#X floatatom 209 101 5 0 0 0 - - -;
#X obj 214 191 t b f;
#X text 249 98 X position of polygon point;
#X text 218 32 Y position of polygon point;
#X obj 124 31 inlet;
#X connect 0 0 4 0;
#X connect 2 0 4 1;
#X connect 3 0 2 0;
#X connect 3 0 8 0;
#X connect 3 0 10 0;
#X connect 4 0 5 0;
#X connect 5 0 1 0;
#X connect 6 0 0 1;
#X connect 7 0 11 0;
#X connect 9 0 3 0;
#X connect 11 0 2 0;
#X connect 11 1 2 1;
#X connect 14 0 0 0;
#X restore 230 139 pd p1;
#N canvas 305 172 450 309 p1 0;
#X obj 124 111 * 3;
#X obj 124 291 outlet;
#X obj 199 211 * 1;
#X obj 199 81 + 0.75;
#X obj 124 231 pack f f;
#X msg 124 261 \$2 \$1 0;
#X obj 174 31 r ppos;
#X obj 214 171 r spacing;
#X obj 209 121 outlet;
#X obj 209 61 inlet;
#X floatatom 209 101 5 0 0 0 - - -;
#X obj 214 191 t b f;
#X text 249 98 X position of polygon point;
#X text 218 32 Y position of polygon point;
#X obj 124 31 inlet;
#X connect 0 0 4 0;
#X connect 2 0 4 1;
#X connect 3 0 2 0;
#X connect 3 0 8 0;
#X connect 3 0 10 0;
#X connect 4 0 5 0;
#X connect 5 0 1 0;
#X connect 6 0 0 1;
#X connect 7 0 11 0;
#X connect 9 0 3 0;
#X connect 11 0 2 0;
#X connect 11 1 2 1;
#X connect 14 0 0 0;
#X restore 301 139 pd p1;
#N canvas 305 172 450 309 p1 0;
#X obj 124 111 * 3;
#X obj 124 291 outlet;
#X obj 199 211 * 1;
#X obj 199 81 + 0.75;
#X obj 124 231 pack f f;
#X msg 124 261 \$2 \$1 0;
#X obj 174 31 r ppos;
#X obj 214 171 r spacing;
#X obj 209 121 outlet;
#X obj 209 61 inlet;
#X floatatom 209 101 5 0 0 0 - - -;
#X obj 214 191 t b f;
#X text 249 98 X position of polygon point;
#X text 218 32 Y position of polygon point;
#X obj 124 31 inlet;
#X connect 0 0 4 0;
#X connect 2 0 4 1;
#X connect 3 0 2 0;
#X connect 3 0 8 0;
#X connect 3 0 10 0;
#X connect 4 0 5 0;
#X connect 5 0 1 0;
#X connect 6 0 0 1;
#X connect 7 0 11 0;
#X connect 9 0 3 0;
#X connect 11 0 2 0;
#X connect 11 1 2 1;
#X connect 14 0 0 0;
#X restore 51 99 pd p1;
#X obj 16 39 inlet;
#X connect 0 0 1 2;
#X connect 0 1 13 1;
#X connect 2 0 0 0;
#X connect 3 0 13 0;
#X connect 4 0 17 0;
#X connect 5 0 14 0;
#X connect 6 0 18 0;
#X connect 7 0 15 0;
#X connect 8 0 19 0;
#X connect 9 0 16 0;
#X connect 10 0 1 10;
#X connect 11 0 20 0;
#X connect 11 0 20 1;
#X connect 12 0 10 0;
#X connect 13 0 1 3;
#X connect 13 1 17 1;
#X connect 14 0 1 5;
#X connect 14 1 18 1;
#X connect 15 0 1 7;
#X connect 15 1 19 1;
#X connect 16 0 1 9;
#X connect 16 1 10 1;
#X connect 17 0 1 4;
#X connect 17 1 14 1;
#X connect 18 0 1 6;
#X connect 18 1 15 1;
#X connect 19 0 1 8;
#X connect 19 1 16 1;
#X connect 20 0 1 1;
#X connect 20 1 0 1;
#X connect 21 0 1 0;
#X restore 55 746 pd poly;
#X floatatom 306 219 5 0 10 0 - - -;
#X obj 72 276 * -1;
#X obj 306 139 bng 15 250 50 0 empty empty empty 17 7 0 10 -258113
-1 -1;
#X obj 306 159 bng 15 250 50 0 empty empty empty 17 7 0 10 -258113
-1 -1;
#X text 234 193 sensitivity;
#X text 234 236 position;
#X text 323 137 fill;
#X text 323 157 line;
#X text 303 236 rotate;
#X obj 206 109 tgl 15 0 empty empty empty 17 7 0 10 -258113 -1 -1 1
1;
#X text 224 106 render;
#X obj 206 56 loadbang;
#X obj 206 76 t b b;
#X obj 362 352 inlet;
#X obj 55 136 gemhead 190;
#X obj 55 506 gemhead 180;
#X obj 451 344 inlet;
#X obj 55 367 color;
#X obj 55 677 color;
#X obj 537 312 inlet;
#X connect 1 0 3 0;
#X connect 2 0 1 1;
#X connect 3 0 11 0;
#X connect 4 0 5 0;
#X connect 5 0 6 0;
#X connect 6 0 1 2;
#X connect 7 0 9 0;
#X connect 8 0 28 0;
#X connect 9 0 47 0;
#X connect 9 2 10 0;
#X connect 10 0 9 1;
#X connect 11 0 7 0;
#X connect 12 0 29 0;
#X connect 12 0 28 0;
#X connect 13 0 29 0;
#X connect 13 0 28 0;
#X connect 14 0 23 0;
#X connect 15 0 14 1;
#X connect 16 0 21 0;
#X connect 17 0 18 0;
#X connect 18 0 19 0;
#X connect 19 0 14 2;
#X connect 20 0 29 0;
#X connect 21 0 48 0;
#X connect 21 2 22 0;
#X connect 22 0 21 1;
#X connect 23 0 16 0;
#X connect 30 0 16 1;
#X connect 30 0 31 0;
#X connect 31 0 7 1;
#X connect 32 0 12 0;
#X connect 33 0 13 0;
#X connect 39 0 44 0;
#X connect 39 0 45 0;
#X connect 41 0 42 0;
#X connect 42 0 39 0;
#X connect 42 1 39 0;
#X connect 43 0 8 1;
#X connect 43 0 20 1;
#X connect 44 0 1 0;
#X connect 45 0 14 0;
#X connect 46 0 28 0;
#X connect 46 0 29 0;
#X connect 47 0 8 0;
#X connect 48 0 20 0;
#X connect 49 0 47 1;
#X connect 49 0 48 1;
#X coords 0 -1 1 1 160 160 2 200 100;
#X restore 34 279 pd polys;
#N canvas 159 127 702 640 feedback 1;
#X obj 500 250 cnv 15 110 195 empty empty empty 20 12 0 14 -233017
-66577 0;
#X obj 274 250 pix_texture;
#X msg 367 112 snap;
#X obj 274 88 render_trigger;
#X obj 274 520 rotateXYZ;
#X obj 274 470 translateXYZ;
#X obj 504 275 grid grid1 100 0 10 100 0 10 0 0.1 0.1 10 10 87 130
;
#N canvas 67 113 450 300 translated 0;
#X obj 119 196 line;
#X msg 119 176 \$1 100;
#X obj 192 196 line;
#X msg 192 176 \$1 100;
#X obj 119 156 inlet;
#X obj 192 156 inlet;
#X obj 119 236 outlet;
#X obj 192 236 outlet;
#X obj 119 216 - 5;
#X obj 192 216 - 5;
#X connect 0 0 8 0;
#X connect 1 0 0 0;
#X connect 2 0 9 0;
#X connect 3 0 2 0;
#X connect 4 0 1 0;
#X connect 5 0 3 0;
#X connect 8 0 6 0;
#X connect 9 0 7 0;
#X restore 314 440 pd translated;
#X obj 508 405 hsl 60 15 -10 10 0 0 empty empty empty -2 -8 0 10 -260097
-1 -1 3835 1;
#X obj 508 385 hsl 60 15 0 360 0 0 empty empty empty -2 -8 0 10 -260097
-1 -1 0 1;
#X text 570 384 rotate;
#X obj 274 640 spigot;
#X obj 505 425 tgl 15 0 empty empty empty 17 7 0 10 -4034 -1 -1 0 1
;
#X obj 504 255 tgl 15 0 empty empty empty 17 7 0 10 -258113 -1 -1 1
1;
#X obj 299 592 square;
#X obj 274 660 sphere 5;
#X text 570 403 size;
#X text 521 253 render;
#X text 521 423 sphere;
#X obj 504 200 loadbang;
#X obj 504 220 t b b;
#X msg 597 224 3;
#X obj 575 136 key;
#X obj 577 177 bng 15 250 50 0 empty empty empty 17 7 0 10 -262144
-1 -1;
#X floatatom 619 192 5 0 0 0 - - -;
#X obj 575 156 sel 101;
#X obj 274 64 gemhead -1;
#X obj 297 111 gemhead 10;
#X obj 274 306 gemhead 90;
#X obj 274 400 pix_texture;
#X floatatom 460 593 5 0 0 0 - - -;
#X obj 295 564 scaleXYZ;
#X floatatom 469 562 5 0 0 0 - - -;
#X obj 274 230 inlet;
#X obj 274 180 outlet;
#X obj 274 159 pix_snap 0 0 1440 900;
#X connect 1 1 29 1;
#X connect 2 0 35 0;
#X connect 3 0 35 0;
#X connect 3 2 2 0;
#X connect 4 0 11 0;
#X connect 4 0 31 0;
#X connect 5 0 4 0;
#X connect 6 0 7 0;
#X connect 6 1 7 1;
#X connect 7 0 5 1;
#X connect 7 1 5 2;
#X connect 8 0 14 1;
#X connect 9 0 4 3;
#X connect 11 0 15 0;
#X connect 12 0 11 1;
#X connect 13 0 26 0;
#X connect 13 0 27 0;
#X connect 13 0 28 0;
#X connect 19 0 20 0;
#X connect 19 0 21 0;
#X connect 20 0 13 0;
#X connect 20 1 13 0;
#X connect 21 0 8 0;
#X connect 22 0 24 0;
#X connect 22 0 25 0;
#X connect 23 0 13 0;
#X connect 25 0 23 0;
#X connect 26 0 3 0;
#X connect 27 0 35 0;
#X connect 28 0 29 0;
#X connect 29 0 5 0;
#X connect 30 0 31 1;
#X connect 31 0 14 0;
#X connect 32 0 31 2;
#X connect 33 0 1 0;
#X connect 35 0 34 0;
#X coords 0 -1 1 1 110 195 1 500 250;
#X restore 37 59 pd feedback;
#X msg 224 241 width \$1;
#X obj 227 215 / 10;
#X floatatom 236 181 5 0 0 0 - - -;
#X obj 300 -53 path /home/hellocatfood/pd-externals/hellocatfood;
#X obj 230 -79 import gridflow;
#X obj 291 -30 somepixeffects;
#N canvas 66 54 1300 714 speaker 0;
#X obj 600 100 cnv 15 170 210 empty empty empty 20 12 0 14 -233017
-66577 0;
#X obj -78 233 bp~ 100 10;
#X obj 3 233 bp~ 200 10;
#X obj 85 233 bp~ 400 10;
#X obj 166 233 bp~ 800 10;
#X obj 251 232 bp~ 1000 10;
#X obj 333 232 bp~ 1200 10;
#X obj 418 232 bp~ 1400 10;
#X obj 499 232 bp~ 12600 10;
#X obj 84 504 *~ 0.5;
#X obj 173 504 *~ 0.5;
#X obj 419 505 *~ 0.5;
#X obj 504 507 *~ 0.5;
#X obj 209 675 dac~;
#X obj -79 501 *~ 0.5;
#X obj -1 502 *~ 0.5;
#X obj 252 505 *~ 0.5;
#X obj 336 507 *~ 0.5;
#X obj -65 271 env~ 1024;
#X floatatom -65 323 5 0 0 0 - - -;
#X obj 607 152 vsl 15 80 0 1 0 0 env1 empty empty 0 -9 0 10 -257985
-1 -1 4405 1;
#X obj -65 369 line;
#X obj -65 296 dbtorms;
#X obj 15 271 env~ 1024;
#X floatatom 15 323 5 0 0 0 - - -;
#X obj 627 152 vsl 15 80 0 1 0 0 env2 empty empty 0 -9 0 10 -257985
-1 -1 1869 1;
#X obj 15 369 line;
#X obj 15 296 dbtorms;
#X obj 95 271 env~ 1024;
#X floatatom 95 323 5 0 0 0 - - -;
#X obj 647 152 vsl 15 80 0 1 0 0 env3 empty empty 0 -9 0 10 -257985
-1 -1 1676 1;
#X obj 95 369 line;
#X obj 95 296 dbtorms;
#X obj 185 271 env~ 1024;
#X floatatom 185 323 5 0 0 0 - - -;
#X obj 668 152 vsl 15 80 0 1 0 0 env4 empty empty 0 -9 0 10 -257985
-1 -1 1517 1;
#X obj 185 369 line;
#X obj 185 296 dbtorms;
#X obj 265 271 env~ 1024;
#X floatatom 265 323 5 0 0 0 - - -;
#X obj 687 152 vsl 15 80 0 1 0 0 env5 empty empty 0 -9 0 10 -257985
-1 -1 1497 1;
#X obj 265 369 line;
#X obj 265 296 dbtorms;
#X obj 345 271 env~ 1024;
#X floatatom 345 323 5 0 0 0 - - -;
#X obj 707 152 vsl 15 80 0 1 0 0 env6 empty empty 0 -9 0 10 -257985
-1 -1 1475 1;
#X obj 345 369 line;
#X obj 345 296 dbtorms;
#X obj 435 271 env~ 1024;
#X floatatom 435 323 5 0 0 0 - - -;
#X obj 727 152 vsl 15 80 0 1 0 0 env7 empty empty 0 -9 0 10 -257985
-1 -1 1524 1;
#X obj 435 369 line;
#X obj 435 296 dbtorms;
#X obj 515 271 env~ 1024;
#X floatatom 515 323 5 0 0 0 - - -;
#X obj 747 152 vsl 15 80 0 1 0 0 env8 empty empty 0 -9 0 10 -257985
-1 -1 2193 1;
#X obj 515 369 line;
#X obj 515 296 dbtorms;
#X obj 176 138 *~;
#X obj 246 138 *~;
#X obj 607 262 vsl 15 40 10 1 0 1 empty empty empty 0 -9 0 10 -262144
-1 -1 0 1;
#X obj 627 262 vsl 15 40 10 1 0 1 empty empty empty 0 -9 0 10 -262144
-1 -1 0 1;
#X obj 647 262 vsl 15 40 10 1 0 1 empty empty empty 0 -9 0 10 -262144
-1 -1 0 1;
#X obj 667 262 vsl 15 40 10 1 0 1 empty empty empty 0 -9 0 10 -262144
-1 -1 0 1;
#X obj 687 262 vsl 15 40 10 1 0 1 empty empty empty 0 -9 0 10 -262144
-1 -1 0 1;
#X obj 707 262 vsl 15 40 10 1 0 1 empty empty empty 0 -9 0 10 -262144
-1 -1 0 1;
#X obj 727 262 vsl 15 40 10 1 0 1 empty empty empty 0 -9 0 10 -262144
-1 -1 0 1;
#X obj 747 262 vsl 15 40 10 1 0 1 empty empty empty 0 -9 0 10 -262144
-1 -1 0 1;
#X obj 780 138 outlet;
#X obj 790 160 outlet;
#X obj 800 180 outlet;
#X obj 810 200 outlet;
#X obj 820 220 outlet;
#X obj 830 240 outlet;
#X obj 840 260 outlet;
#X obj 850 280 outlet;
#X obj 176 78 adc~;
#X obj 610 120 hsl 150 15 0.01 10 0 0 empty empty empty -2 -8 0 10
-260097 -1 -1 13577 1;
#X text 607 100 Microphone sensitivity;
#X text 607 240 Adjust sensitivity;
#X obj 210 634 *~ 0;
#X obj 607 48 loadbang;
#X msg 607 68 1;
#X msg -65 348 \$1 25;
#X msg 15 348 \$1 25;
#X msg 95 348 \$1 25;
#X msg 185 348 \$1 25;
#X msg 265 348 \$1 25;
#X msg 345 348 \$1 25;
#X msg 435 348 \$1 25;
#X msg 515 348 \$1 25;
#X connect 1 0 14 0;
#X connect 1 0 18 0;
#X connect 2 0 15 0;
#X connect 2 0 23 0;
#X connect 3 0 9 0;
#X connect 3 0 28 0;
#X connect 4 0 10 0;
#X connect 4 0 33 0;
#X connect 5 0 16 0;
#X connect 5 0 38 0;
#X connect 6 0 17 0;
#X connect 6 0 43 0;
#X connect 7 0 11 0;
#X connect 7 0 48 0;
#X connect 8 0 12 0;
#X connect 8 0 53 0;
#X connect 9 0 80 0;
#X connect 10 0 80 0;
#X connect 11 0 80 0;
#X connect 12 0 80 0;
#X connect 14 0 80 0;
#X connect 15 0 80 0;
#X connect 16 0 80 0;
#X connect 17 0 80 0;
#X connect 18 0 22 0;
#X connect 19 0 83 0;
#X connect 20 0 68 0;
#X connect 21 0 20 0;
#X connect 22 0 19 0;
#X connect 23 0 27 0;
#X connect 24 0 84 0;
#X connect 25 0 69 0;
#X connect 26 0 25 0;
#X connect 27 0 24 0;
#X connect 28 0 32 0;
#X connect 29 0 85 0;
#X connect 30 0 70 0;
#X connect 31 0 30 0;
#X connect 32 0 29 0;
#X connect 33 0 37 0;
#X connect 34 0 86 0;
#X connect 35 0 71 0;
#X connect 36 0 35 0;
#X connect 37 0 34 0;
#X connect 38 0 42 0;
#X connect 39 0 87 0;
#X connect 40 0 72 0;
#X connect 41 0 40 0;
#X connect 42 0 39 0;
#X connect 43 0 47 0;
#X connect 44 0 88 0;
#X connect 45 0 73 0;
#X connect 46 0 45 0;
#X connect 47 0 44 0;
#X connect 48 0 52 0;
#X connect 49 0 89 0;
#X connect 50 0 74 0;
#X connect 51 0 50 0;
#X connect 52 0 49 0;
#X connect 53 0 57 0;
#X connect 54 0 90 0;
#X connect 55 0 75 0;
#X connect 56 0 55 0;
#X connect 57 0 54 0;
#X connect 58 0 1 0;
#X connect 58 0 2 0;
#X connect 58 0 3 0;
#X connect 58 0 4 0;
#X connect 58 0 5 0;
#X connect 58 0 6 0;
#X connect 58 0 7 0;
#X connect 58 0 8 0;
#X connect 59 0 1 0;
#X connect 59 0 2 0;
#X connect 59 0 3 0;
#X connect 59 0 4 0;
#X connect 59 0 5 0;
#X connect 59 0 6 0;
#X connect 59 0 7 0;
#X connect 59 0 8 0;
#X connect 60 0 1 2;
#X connect 61 0 2 2;
#X connect 62 0 3 2;
#X connect 63 0 4 2;
#X connect 64 0 5 2;
#X connect 65 0 6 2;
#X connect 66 0 7 2;
#X connect 67 0 8 2;
#X connect 76 0 58 0;
#X connect 76 1 59 0;
#X connect 77 0 58 1;
#X connect 77 0 59 1;
#X connect 80 0 13 0;
#X connect 80 0 13 1;
#X connect 81 0 82 0;
#X connect 82 0 77 0;
#X connect 83 0 21 0;
#X connect 84 0 26 0;
#X connect 85 0 31 0;
#X connect 86 0 36 0;
#X connect 87 0 41 0;
#X connect 88 0 46 0;
#X connect 89 0 51 0;
#X connect 90 0 56 0;
#X coords 0 -1 1 1 170 210 1 600 100;
#X restore 329 275 pd speaker;
#X msg 516 184 0 1 0;
#X msg 466 184 1 0 0;
#X msg 566 184 0 0 1;
#X obj 508 75 metro 100;
#X obj 506 101 f;
#X obj 536 101 + 1;
#X obj 517 48 tgl 15 0 empty empty empty 17 7 0 10 -262144 -1 -1 0
1;
#X floatatom 587 124 5 0 0 0 - - -;
#X obj 558 39 hsl 80 15 0 800 0 0 empty empty empty -2 -8 0 10 -262144
-1 -1 0 1;
#X msg 560 240 1 1 1;
#X obj 508 140 sel 0 1 2;
#X obj 507 121 % 3;
#X connect 0 0 3 0;
#X connect 1 0 3 3;
#X connect 2 0 3 2;
#X connect 7 0 3 1;
#X connect 10 0 16 0;
#X connect 11 0 9 1;
#X connect 12 0 11 0;
#X connect 13 0 12 0;
#X connect 16 0 10 0;
#X connect 18 0 9 2;
#X connect 19 0 9 2;
#X connect 20 0 9 2;
#X connect 21 0 22 0;
#X connect 22 0 23 0;
#X connect 22 0 29 0;
#X connect 23 0 22 1;
#X connect 24 0 21 0;
#X connect 26 0 21 1;
#X connect 27 0 9 2;
#X connect 28 0 19 0;
#X connect 28 1 18 0;
#X connect 28 2 20 0;
#X connect 29 0 25 0;
#X connect 29 0 28 0;
