#N canvas 203 154 650 684 10;
#X declare -path /home/hellocatfood/pd-externals/hellocatfood;
#X obj 30 -72 path /home/hellocatfood/pd-externals/hellocatfood;
#X obj 537 62 soundvalues;
#X obj 16 -21 gemwin;
#X msg 16 -46 create \, 1;
#X obj 542 9 hsl 128 15 0 6 0 0 empty empty empty -2 -8 0 10 -262144
-1 -1 5400 1;
#X floatatom 537 28 5 0 0 0 - - -;
#X msg 17 263 draw fill;
#X obj 664 603 curve 8 _____________________________________;
#X obj 667 565 gemhead;
#X obj 647 528 tgl 15 0 empty empty empty 17 7 0 10 -262144 -1 -1 0
1;
#X msg 88 21 -3.1 -2 0;
#X msg 410 21 3.1 -2 0;
#X msg 53 121 draw linestrip;
#X obj 88 1 loadbang;
#X floatatom 139 81 5 0 0 0 - - -;
#X obj 53 477 gemhead;
#X msg 374 541 3 \$1 0;
#X msg 160 661 -2.25 \$1 0;
#X msg 195 641 -1.5 \$1 0;
#X msg 231 621 -0.75 \$1 0;
#X msg 302 581 0.75 \$1 0;
#X msg 338 561 1.5 \$1 0;
#X msg 17 683 draw fill;
#X msg 124 681 -3 \$1 0;
#X msg 53 541 draw linestrip;
#X obj 53 721 polygon 10 _________________________________________________
;
#X obj 88 421 loadbang;
#X obj 124 601 r env1;
#X obj 160 581 r env2;
#X obj 195 561 r env3;
#X obj 231 541 r env4;
#X obj 267 521 r env5;
#X obj 302 501 r env6;
#X obj 338 481 r env7;
#X obj 374 461 r env8;
#X msg 267 602 0 \$1 0;
#X obj 124 661 - 2;
#X obj 160 641 - 2;
#X obj 302 561 - 2;
#X obj 338 541 - 2;
#X obj 195 621 - 2;
#X obj 231 601 - 2;
#X obj 267 582 - 2;
#X floatatom 139 501 5 0 0 0 - - -;
#X obj 39 582 translateXYZ;
#X floatatom 32 434 5 0 0 0 - - -;
#X msg 139 60 2;
#X msg 139 480 2;
#X msg 88 441 -3.1 -2 0;
#X msg 410 441 3.1 -2 0;
#X obj 374 521 - 2;
#X obj 477 542 pix_film;
#X obj 37 509 pix_texture;
#X obj 28 93 pix_texture;
#X obj 264 -25 pix_video;
#X obj 284 -48 gemhead;
#X msg 378 -38 device /dev/video1;
#X obj 267 562 * -3;
#X obj 302 541 * -3;
#X obj 338 521 * -3;
#X obj 374 501 * -3;
#X obj 231 581 * -3;
#X obj 195 601 * -3;
#X obj 160 621 * -3;
#X obj 124 641 * -3;
#X obj 86 365 tgl 15 0 empty empty empty 17 7 0 10 -262144 -1 -1 0
1;
#N canvas 183 145 450 309 p1 1;
#X obj 124 111 * 3;
#X obj 124 131 - 2;
#X obj 124 291 outlet;
#X obj 199 211 * 1;
#X obj 199 81 + 0.75;
#X obj 124 231 pack f f;
#X msg 124 261 \$2 \$1 0;
#X obj 174 31 r ppos;
#X obj 214 171 r spacing;
#X obj 209 121 outlet;
#X obj 209 61 inlet;
#X floatatom 209 101 5 0 0 0 - - -;
#X obj 214 191 t b f;
#X text 249 98 X position of polygon point;
#X text 218 32 Y position of polygon point;
#X obj 124 31 inlet;
#X connect 0 0 1 0;
#X connect 1 0 5 0;
#X connect 3 0 5 1;
#X connect 4 0 3 0;
#X connect 4 0 9 0;
#X connect 4 0 11 0;
#X connect 5 0 6 0;
#X connect 6 0 2 0;
#X connect 7 0 1 1;
#X connect 8 0 12 0;
#X connect 10 0 4 0;
#X connect 12 0 3 0;
#X connect 12 1 3 1;
#X connect 15 0 0 0;
#X restore 124 271 pd p1;
#X obj 164 329 hsl 50 15 0 10 0 0 empty empty empty -2 -8 0 10 -260097
-1 -1 800 1;
#X floatatom 161 348 5 0 0 0 - - spacing;
#X obj 53 301 polygon 10 _________________________________________________
;
#X floatatom 117 209 5 0 0 0 - - -;
#X obj 254 349 hsl 50 15 0 10 0 0 empty empty empty -2 -8 0 10 -260097
-1 -1 600 1;
#X floatatom 251 368 5 0 0 0 - - ppos;
#X msg 194 114 draw point;
#X obj 21 184 bng 15 250 50 0 empty empty empty 17 7 0 10 -262144 -1
-1;
#X obj 124 251 r env1;
#N canvas 181 151 450 309 p1 0;
#X obj 124 111 * 3;
#X obj 124 131 - 2;
#X obj 124 291 outlet;
#X obj 199 211 * 1;
#X obj 199 81 + 0.75;
#X obj 124 231 pack f f;
#X msg 124 261 \$2 \$1 0;
#X obj 174 31 r ppos;
#X obj 214 171 r spacing;
#X obj 209 121 outlet;
#X obj 209 61 inlet;
#X floatatom 209 101 5 0 0 0 - - -;
#X obj 214 191 t b f;
#X text 249 98 X position of polygon point;
#X text 218 32 Y position of polygon point;
#X obj 124 31 inlet;
#X connect 0 0 1 0;
#X connect 1 0 5 0;
#X connect 3 0 5 1;
#X connect 4 0 3 0;
#X connect 4 0 9 0;
#X connect 4 0 11 0;
#X connect 5 0 6 0;
#X connect 6 0 2 0;
#X connect 7 0 1 1;
#X connect 8 0 12 0;
#X connect 10 0 4 0;
#X connect 12 0 3 0;
#X connect 12 1 3 1;
#X connect 15 0 0 0;
#X restore 160 231 pd p1;
#N canvas 181 151 450 309 p1 0;
#X obj 124 111 * 3;
#X obj 124 131 - 2;
#X obj 124 291 outlet;
#X obj 199 211 * 1;
#X obj 199 81 + 0.75;
#X obj 124 231 pack f f;
#X msg 124 261 \$2 \$1 0;
#X obj 174 31 r ppos;
#X obj 214 171 r spacing;
#X obj 209 121 outlet;
#X obj 209 61 inlet;
#X floatatom 209 101 5 0 0 0 - - -;
#X obj 214 191 t b f;
#X text 249 98 X position of polygon point;
#X text 218 32 Y position of polygon point;
#X obj 124 31 inlet;
#X connect 0 0 1 0;
#X connect 1 0 5 0;
#X connect 3 0 5 1;
#X connect 4 0 3 0;
#X connect 4 0 9 0;
#X connect 4 0 11 0;
#X connect 5 0 6 0;
#X connect 6 0 2 0;
#X connect 7 0 1 1;
#X connect 8 0 12 0;
#X connect 10 0 4 0;
#X connect 12 0 3 0;
#X connect 12 1 3 1;
#X connect 15 0 0 0;
#X restore 195 271 pd p1;
#N canvas 181 151 450 309 p1 0;
#X obj 124 111 * 3;
#X obj 124 131 - 2;
#X obj 124 291 outlet;
#X obj 199 211 * 1;
#X obj 199 81 + 0.75;
#X obj 124 231 pack f f;
#X msg 124 261 \$2 \$1 0;
#X obj 174 31 r ppos;
#X obj 214 171 r spacing;
#X obj 209 121 outlet;
#X obj 209 61 inlet;
#X floatatom 209 101 5 0 0 0 - - -;
#X obj 214 191 t b f;
#X text 249 98 X position of polygon point;
#X text 218 32 Y position of polygon point;
#X obj 124 31 inlet;
#X connect 0 0 1 0;
#X connect 1 0 5 0;
#X connect 3 0 5 1;
#X connect 4 0 3 0;
#X connect 4 0 9 0;
#X connect 4 0 11 0;
#X connect 5 0 6 0;
#X connect 6 0 2 0;
#X connect 7 0 1 1;
#X connect 8 0 12 0;
#X connect 10 0 4 0;
#X connect 12 0 3 0;
#X connect 12 1 3 1;
#X connect 15 0 0 0;
#X restore 231 231 pd p1;
#N canvas 181 151 450 309 p1 0;
#X obj 124 111 * 3;
#X obj 124 131 - 2;
#X obj 124 291 outlet;
#X obj 199 211 * 1;
#X obj 199 81 + 0.75;
#X obj 124 231 pack f f;
#X msg 124 261 \$2 \$1 0;
#X obj 174 31 r ppos;
#X obj 214 171 r spacing;
#X obj 209 121 outlet;
#X obj 209 61 inlet;
#X floatatom 209 101 5 0 0 0 - - -;
#X obj 214 191 t b f;
#X text 249 98 X position of polygon point;
#X text 218 32 Y position of polygon point;
#X obj 124 31 inlet;
#X connect 0 0 1 0;
#X connect 1 0 5 0;
#X connect 3 0 5 1;
#X connect 4 0 3 0;
#X connect 4 0 9 0;
#X connect 4 0 11 0;
#X connect 5 0 6 0;
#X connect 6 0 2 0;
#X connect 7 0 1 1;
#X connect 8 0 12 0;
#X connect 10 0 4 0;
#X connect 12 0 3 0;
#X connect 12 1 3 1;
#X connect 15 0 0 0;
#X restore 267 271 pd p1;
#N canvas 181 151 450 309 p1 0;
#X obj 124 111 * 3;
#X obj 124 131 - 2;
#X obj 124 291 outlet;
#X obj 199 211 * 1;
#X obj 199 81 + 0.75;
#X obj 124 231 pack f f;
#X msg 124 261 \$2 \$1 0;
#X obj 174 31 r ppos;
#X obj 214 171 r spacing;
#X obj 209 121 outlet;
#X obj 209 61 inlet;
#X floatatom 209 101 5 0 0 0 - - -;
#X obj 214 191 t b f;
#X text 249 98 X position of polygon point;
#X text 218 32 Y position of polygon point;
#X obj 124 31 inlet;
#X connect 0 0 1 0;
#X connect 1 0 5 0;
#X connect 3 0 5 1;
#X connect 4 0 3 0;
#X connect 4 0 9 0;
#X connect 4 0 11 0;
#X connect 5 0 6 0;
#X connect 6 0 2 0;
#X connect 7 0 1 1;
#X connect 8 0 12 0;
#X connect 10 0 4 0;
#X connect 12 0 3 0;
#X connect 12 1 3 1;
#X connect 15 0 0 0;
#X restore 302 231 pd p1;
#N canvas 181 151 450 309 p1 0;
#X obj 124 111 * 3;
#X obj 124 131 - 2;
#X obj 124 291 outlet;
#X obj 199 211 * 1;
#X obj 199 81 + 0.75;
#X obj 124 231 pack f f;
#X msg 124 261 \$2 \$1 0;
#X obj 174 31 r ppos;
#X obj 214 171 r spacing;
#X obj 209 121 outlet;
#X obj 209 61 inlet;
#X floatatom 209 101 5 0 0 0 - - -;
#X obj 214 191 t b f;
#X text 249 98 X position of polygon point;
#X text 218 32 Y position of polygon point;
#X obj 124 31 inlet;
#X connect 0 0 1 0;
#X connect 1 0 5 0;
#X connect 3 0 5 1;
#X connect 4 0 3 0;
#X connect 4 0 9 0;
#X connect 4 0 11 0;
#X connect 5 0 6 0;
#X connect 6 0 2 0;
#X connect 7 0 1 1;
#X connect 8 0 12 0;
#X connect 10 0 4 0;
#X connect 12 0 3 0;
#X connect 12 1 3 1;
#X connect 15 0 0 0;
#X restore 338 271 pd p1;
#N canvas 181 151 450 309 p1 0;
#X obj 124 111 * 3;
#X obj 124 131 - 2;
#X obj 124 291 outlet;
#X obj 199 211 * 1;
#X obj 199 81 + 0.75;
#X obj 124 231 pack f f;
#X msg 124 261 \$2 \$1 0;
#X obj 174 31 r ppos;
#X obj 214 171 r spacing;
#X obj 209 121 outlet;
#X obj 209 61 inlet;
#X floatatom 209 101 5 0 0 0 - - -;
#X obj 214 191 t b f;
#X text 249 98 X position of polygon point;
#X text 218 32 Y position of polygon point;
#X obj 124 31 inlet;
#X connect 0 0 1 0;
#X connect 1 0 5 0;
#X connect 3 0 5 1;
#X connect 4 0 3 0;
#X connect 4 0 9 0;
#X connect 4 0 11 0;
#X connect 5 0 6 0;
#X connect 6 0 2 0;
#X connect 7 0 1 1;
#X connect 8 0 12 0;
#X connect 10 0 4 0;
#X connect 12 0 3 0;
#X connect 12 1 3 1;
#X connect 15 0 0 0;
#X restore 374 231 pd p1;
#X obj 160 211 r env2;
#X obj 195 251 r env3;
#X obj 231 211 r env4;
#X obj 267 251 r env5;
#X obj 302 211 r env6;
#X obj 338 251 r env7;
#X obj 374 211 r env8;
#X obj 197 160;
#X text 159 364 spacing;
#X obj 106 174 pack f f;
#X connect 3 0 2 0;
#X connect 4 0 5 0;
#X connect 5 0 1 0;
#X connect 6 0 69 0;
#X connect 8 0 7 0;
#X connect 9 0 8 0;
#X connect 10 0 69 1;
#X connect 11 0 69 10;
#X connect 12 0 69 0;
#X connect 13 0 10 0;
#X connect 13 0 11 0;
#X connect 13 0 46 0;
#X connect 16 0 25 9;
#X connect 17 0 25 3;
#X connect 18 0 25 4;
#X connect 19 0 25 5;
#X connect 20 0 25 7;
#X connect 21 0 25 8;
#X connect 22 0 25 0;
#X connect 23 0 25 2;
#X connect 24 0 25 0;
#X connect 26 0 48 0;
#X connect 26 0 49 0;
#X connect 26 0 47 0;
#X connect 27 0 64 0;
#X connect 28 0 63 0;
#X connect 29 0 62 0;
#X connect 30 0 61 0;
#X connect 31 0 57 0;
#X connect 32 0 58 0;
#X connect 33 0 59 0;
#X connect 34 0 60 0;
#X connect 35 0 25 6;
#X connect 36 0 23 0;
#X connect 37 0 17 0;
#X connect 38 0 20 0;
#X connect 39 0 21 0;
#X connect 40 0 18 0;
#X connect 41 0 19 0;
#X connect 42 0 35 0;
#X connect 43 0 36 1;
#X connect 43 0 37 1;
#X connect 43 0 40 1;
#X connect 43 0 41 1;
#X connect 43 0 42 1;
#X connect 43 0 38 1;
#X connect 43 0 39 1;
#X connect 43 0 50 1;
#X connect 44 0 25 0;
#X connect 45 0 44 2;
#X connect 46 0 14 0;
#X connect 47 0 43 0;
#X connect 48 0 25 1;
#X connect 49 0 25 10;
#X connect 50 0 16 0;
#X connect 52 0 44 0;
#X connect 53 0 69 0;
#X connect 54 0 53 0;
#X connect 55 0 54 0;
#X connect 56 0 54 0;
#X connect 57 0 42 0;
#X connect 58 0 38 0;
#X connect 59 0 39 0;
#X connect 60 0 50 0;
#X connect 61 0 41 0;
#X connect 62 0 40 0;
#X connect 63 0 37 0;
#X connect 64 0 36 0;
#X connect 65 0 15 0;
#X connect 66 0 69 2;
#X connect 66 1 76 1;
#X connect 67 0 68 0;
#X connect 70 0 66 1;
#X connect 71 0 72 0;
#X connect 73 0 69 0;
#X connect 75 0 66 0;
#X connect 76 0 69 3;
#X connect 76 1 77 1;
#X connect 77 0 69 4;
#X connect 77 1 78 1;
#X connect 78 0 69 5;
#X connect 78 1 79 1;
#X connect 79 0 69 6;
#X connect 79 1 80 1;
#X connect 80 0 69 7;
#X connect 80 1 81 1;
#X connect 81 0 69 8;
#X connect 81 1 82 1;
#X connect 82 0 69 9;
#X connect 83 0 76 0;
#X connect 84 0 77 0;
#X connect 85 0 78 0;
#X connect 86 0 79 0;
#X connect 87 0 80 0;
#X connect 88 0 81 0;
#X connect 89 0 82 0;
