#N canvas 102 88 650 684 10;
#X declare -path /home/hellocatfood/pd-externals/hellocatfood;
#X obj 30 -72 path /home/hellocatfood/pd-externals/hellocatfood;
#X obj 537 62 soundvalues;
#X obj 16 -21 gemwin;
#X msg 16 -46 create \, 1;
#X obj 542 9 hsl 128 15 0 6 0 0 empty empty empty -2 -8 0 10 -262144
-1 -1 3300 1;
#X floatatom 537 28 5 0 0 0 - - -;
#X msg 66 89 draw fill;
#X obj 664 603 curve 8 _____________________________________;
#X obj 667 565 gemhead;
#X obj 647 528 tgl 15 0 empty empty empty 17 7 0 10 -262144 -1 -1 0
1;
#X msg 66 69 draw linestrip;
#X obj 53 707 gemhead;
#X msg 374 771 3 \$1 0;
#X msg 160 891 -2.25 \$1 0;
#X msg 195 871 -1.5 \$1 0;
#X msg 231 851 -0.75 \$1 0;
#X msg 302 811 0.75 \$1 0;
#X msg 338 791 1.5 \$1 0;
#X msg 17 913 draw fill;
#X msg 124 911 -3 \$1 0;
#X msg 53 771 draw linestrip;
#X obj 53 951 polygon 10 _________________________________________________
;
#X obj 88 651 loadbang;
#X obj 124 831 r env1;
#X obj 160 811 r env2;
#X obj 195 791 r env3;
#X obj 231 771 r env4;
#X obj 267 751 r env5;
#X obj 302 731 r env6;
#X obj 338 711 r env7;
#X obj 374 691 r env8;
#X msg 267 832 0 \$1 0;
#X obj 124 891 - 2;
#X obj 160 871 - 2;
#X obj 302 791 - 2;
#X obj 338 771 - 2;
#X obj 195 851 - 2;
#X obj 231 831 - 2;
#X obj 267 812 - 2;
#X floatatom 139 731 5 0 0 0 - - -;
#X obj 39 812 translateXYZ;
#X floatatom 32 664 5 0 0 0 - - -;
#X msg 139 710 2;
#X msg 88 671 -3.1 -2 0;
#X msg 410 671 3.1 -2 0;
#X obj 374 751 - 2;
#X obj 477 772 pix_film;
#X obj 37 739 pix_texture;
#X obj 267 792 * -3;
#X obj 302 771 * -3;
#X obj 338 751 * -3;
#X obj 374 731 * -3;
#X obj 231 811 * -3;
#X obj 195 831 * -3;
#X obj 160 851 * -3;
#X obj 124 871 * -3;
#X obj 86 595 tgl 15 0 empty empty empty 17 7 0 10 -262144 -1 -1 0
1;
#N canvas 179 157 450 309 p1 0;
#X obj 124 111 * 3;
#X obj 124 131 - 2;
#X obj 124 291 outlet;
#X obj 199 211 * 1;
#X obj 199 81 + 0.75;
#X obj 124 231 pack f f;
#X msg 124 261 \$2 \$1 0;
#X obj 174 31 r ppos;
#X obj 214 171 r spacing;
#X obj 209 121 outlet;
#X obj 209 61 inlet;
#X floatatom 209 101 5 0 0 0 - - -;
#X obj 214 191 t b f;
#X text 249 98 X position of polygon point;
#X text 218 32 Y position of polygon point;
#X obj 124 31 inlet;
#X connect 0 0 1 0;
#X connect 1 0 5 0;
#X connect 3 0 5 1;
#X connect 4 0 3 0;
#X connect 4 0 9 0;
#X connect 4 0 11 0;
#X connect 5 0 6 0;
#X connect 6 0 2 0;
#X connect 7 0 1 1;
#X connect 8 0 12 0;
#X connect 10 0 4 0;
#X connect 12 0 3 0;
#X connect 12 1 3 1;
#X connect 15 0 0 0;
#X restore 87 199 pd p1;
#X obj 361 -14 hsl 50 15 0.01 10 0 0 empty empty empty -2 -8 0 10 -260097
-1 -1 300 1;
#X floatatom 358 5 5 0 0 0 - - spacing;
#X obj 16 219 polygon 10 _________________________________________________
;
#X obj 451 6 hsl 50 15 10 0 0 0 empty empty empty -2 -8 0 10 -260097
-1 -1 4000 1;
#X floatatom 448 25 5 0 0 0 - - ppos;
#X msg 66 109 draw point;
#X obj 87 179 r env1;
#N canvas 181 151 450 309 p1 0;
#X obj 124 111 * 3;
#X obj 124 131 - 2;
#X obj 124 291 outlet;
#X obj 199 211 * 1;
#X obj 199 81 + 0.75;
#X obj 124 231 pack f f;
#X msg 124 261 \$2 \$1 0;
#X obj 174 31 r ppos;
#X obj 214 171 r spacing;
#X obj 209 121 outlet;
#X obj 209 61 inlet;
#X floatatom 209 101 5 0 0 0 - - -;
#X obj 214 191 t b f;
#X text 249 98 X position of polygon point;
#X text 218 32 Y position of polygon point;
#X obj 124 31 inlet;
#X connect 0 0 1 0;
#X connect 1 0 5 0;
#X connect 3 0 5 1;
#X connect 4 0 3 0;
#X connect 4 0 9 0;
#X connect 4 0 11 0;
#X connect 5 0 6 0;
#X connect 6 0 2 0;
#X connect 7 0 1 1;
#X connect 8 0 12 0;
#X connect 10 0 4 0;
#X connect 12 0 3 0;
#X connect 12 1 3 1;
#X connect 15 0 0 0;
#X restore 123 159 pd p1;
#N canvas 179 157 450 309 p1 0;
#X obj 124 111 * 3;
#X obj 124 131 - 2;
#X obj 124 291 outlet;
#X obj 199 211 * 1;
#X obj 199 81 + 0.75;
#X obj 124 231 pack f f;
#X msg 124 261 \$2 \$1 0;
#X obj 174 31 r ppos;
#X obj 214 171 r spacing;
#X obj 209 121 outlet;
#X obj 209 61 inlet;
#X floatatom 209 101 5 0 0 0 - - -;
#X obj 214 191 t b f;
#X text 249 98 X position of polygon point;
#X text 218 32 Y position of polygon point;
#X obj 124 31 inlet;
#X connect 0 0 1 0;
#X connect 1 0 5 0;
#X connect 3 0 5 1;
#X connect 4 0 3 0;
#X connect 4 0 9 0;
#X connect 4 0 11 0;
#X connect 5 0 6 0;
#X connect 6 0 2 0;
#X connect 7 0 1 1;
#X connect 8 0 12 0;
#X connect 10 0 4 0;
#X connect 12 0 3 0;
#X connect 12 1 3 1;
#X connect 15 0 0 0;
#X restore 158 199 pd p1;
#N canvas 181 151 450 309 p1 0;
#X obj 124 111 * 3;
#X obj 124 131 - 2;
#X obj 124 291 outlet;
#X obj 199 211 * 1;
#X obj 199 81 + 0.75;
#X obj 124 231 pack f f;
#X msg 124 261 \$2 \$1 0;
#X obj 174 31 r ppos;
#X obj 214 171 r spacing;
#X obj 209 121 outlet;
#X obj 209 61 inlet;
#X floatatom 209 101 5 0 0 0 - - -;
#X obj 214 191 t b f;
#X text 249 98 X position of polygon point;
#X text 218 32 Y position of polygon point;
#X obj 124 31 inlet;
#X connect 0 0 1 0;
#X connect 1 0 5 0;
#X connect 3 0 5 1;
#X connect 4 0 3 0;
#X connect 4 0 9 0;
#X connect 4 0 11 0;
#X connect 5 0 6 0;
#X connect 6 0 2 0;
#X connect 7 0 1 1;
#X connect 8 0 12 0;
#X connect 10 0 4 0;
#X connect 12 0 3 0;
#X connect 12 1 3 1;
#X connect 15 0 0 0;
#X restore 194 159 pd p1;
#N canvas 181 151 450 309 p1 0;
#X obj 124 111 * 3;
#X obj 124 131 - 2;
#X obj 124 291 outlet;
#X obj 199 211 * 1;
#X obj 199 81 + 0.75;
#X obj 124 231 pack f f;
#X msg 124 261 \$2 \$1 0;
#X obj 174 31 r ppos;
#X obj 214 171 r spacing;
#X obj 209 121 outlet;
#X obj 209 61 inlet;
#X floatatom 209 101 5 0 0 0 - - -;
#X obj 214 191 t b f;
#X text 249 98 X position of polygon point;
#X text 218 32 Y position of polygon point;
#X obj 124 31 inlet;
#X connect 0 0 1 0;
#X connect 1 0 5 0;
#X connect 3 0 5 1;
#X connect 4 0 3 0;
#X connect 4 0 9 0;
#X connect 4 0 11 0;
#X connect 5 0 6 0;
#X connect 6 0 2 0;
#X connect 7 0 1 1;
#X connect 8 0 12 0;
#X connect 10 0 4 0;
#X connect 12 0 3 0;
#X connect 12 1 3 1;
#X connect 15 0 0 0;
#X restore 230 199 pd p1;
#N canvas 181 151 450 309 p1 0;
#X obj 124 111 * 3;
#X obj 124 131 - 2;
#X obj 124 291 outlet;
#X obj 199 211 * 1;
#X obj 199 81 + 0.75;
#X obj 124 231 pack f f;
#X msg 124 261 \$2 \$1 0;
#X obj 174 31 r ppos;
#X obj 214 171 r spacing;
#X obj 209 121 outlet;
#X obj 209 61 inlet;
#X floatatom 209 101 5 0 0 0 - - -;
#X obj 214 191 t b f;
#X text 249 98 X position of polygon point;
#X text 218 32 Y position of polygon point;
#X obj 124 31 inlet;
#X connect 0 0 1 0;
#X connect 1 0 5 0;
#X connect 3 0 5 1;
#X connect 4 0 3 0;
#X connect 4 0 9 0;
#X connect 4 0 11 0;
#X connect 5 0 6 0;
#X connect 6 0 2 0;
#X connect 7 0 1 1;
#X connect 8 0 12 0;
#X connect 10 0 4 0;
#X connect 12 0 3 0;
#X connect 12 1 3 1;
#X connect 15 0 0 0;
#X restore 265 159 pd p1;
#N canvas 181 151 450 309 p1 0;
#X obj 124 111 * 3;
#X obj 124 131 - 2;
#X obj 124 291 outlet;
#X obj 199 211 * 1;
#X obj 199 81 + 0.75;
#X obj 124 231 pack f f;
#X msg 124 261 \$2 \$1 0;
#X obj 174 31 r ppos;
#X obj 214 171 r spacing;
#X obj 209 121 outlet;
#X obj 209 61 inlet;
#X floatatom 209 101 5 0 0 0 - - -;
#X obj 214 191 t b f;
#X text 249 98 X position of polygon point;
#X text 218 32 Y position of polygon point;
#X obj 124 31 inlet;
#X connect 0 0 1 0;
#X connect 1 0 5 0;
#X connect 3 0 5 1;
#X connect 4 0 3 0;
#X connect 4 0 9 0;
#X connect 4 0 11 0;
#X connect 5 0 6 0;
#X connect 6 0 2 0;
#X connect 7 0 1 1;
#X connect 8 0 12 0;
#X connect 10 0 4 0;
#X connect 12 0 3 0;
#X connect 12 1 3 1;
#X connect 15 0 0 0;
#X restore 301 199 pd p1;
#N canvas 177 163 450 309 p1 0;
#X obj 124 131 - 2;
#X obj 124 291 outlet;
#X obj 199 211 * 1;
#X obj 199 81 + 0.75;
#X obj 124 231 pack f f;
#X msg 124 261 \$2 \$1 0;
#X obj 174 31 r ppos;
#X obj 214 171 r spacing;
#X obj 209 121 outlet;
#X obj 209 61 inlet;
#X floatatom 209 101 5 0 0 0 - - -;
#X obj 214 191 t b f;
#X text 249 98 X position of polygon point;
#X text 218 32 Y position of polygon point;
#X obj 124 31 inlet;
#X obj 124 111 * 3;
#X connect 0 0 4 0;
#X connect 2 0 4 1;
#X connect 3 0 2 0;
#X connect 3 0 8 0;
#X connect 3 0 10 0;
#X connect 4 0 5 0;
#X connect 5 0 1 0;
#X connect 6 0 0 1;
#X connect 7 0 11 0;
#X connect 9 0 3 0;
#X connect 11 0 2 0;
#X connect 11 1 2 1;
#X connect 14 0 15 0;
#X connect 15 0 0 0;
#X restore 337 159 pd p1;
#X obj 123 139 r env2;
#X obj 158 179 r env3;
#X obj 194 139 r env4;
#X obj 230 179 r env5;
#X obj 265 139 r env6;
#X obj 301 179 r env7;
#X obj 337 139 r env8;
#X text 356 21 spacing;
#X text 451 40 Y Position;
#N canvas 175 169 450 309 p1 0;
#X obj 124 111 * 3;
#X obj 124 131 - 2;
#X obj 124 291 outlet;
#X obj 199 211 * 1;
#X obj 124 231 pack f f;
#X msg 124 261 \$2 \$1 0;
#X obj 174 31 r ppos;
#X obj 214 171 r spacing;
#X obj 209 121 outlet;
#X obj 209 61 inlet;
#X floatatom 209 101 5 0 0 0 - - -;
#X obj 214 191 t b f;
#X text 249 98 X position of polygon point;
#X text 218 32 Y position of polygon point;
#X obj 124 31 inlet;
#X obj 199 81 + 0;
#X connect 0 0 1 0;
#X connect 1 0 4 0;
#X connect 3 0 4 1;
#X connect 4 0 5 0;
#X connect 5 0 2 0;
#X connect 6 0 1 1;
#X connect 7 0 11 0;
#X connect 9 0 15 0;
#X connect 11 0 3 0;
#X connect 11 1 3 1;
#X connect 14 0 0 0;
#X connect 15 0 3 0;
#X connect 15 0 8 0;
#X connect 15 0 10 0;
#X restore 51 159 pd p1;
#N canvas 181 151 450 309 p1 0;
#X obj 124 111 * 3;
#X obj 124 131 - 2;
#X obj 124 291 outlet;
#X obj 199 211 * 1;
#X obj 199 81 + 0.75;
#X obj 124 231 pack f f;
#X msg 124 261 \$2 \$1 0;
#X obj 174 31 r ppos;
#X obj 214 171 r spacing;
#X obj 209 121 outlet;
#X obj 209 61 inlet;
#X floatatom 209 101 5 0 0 0 - - -;
#X obj 214 191 t b f;
#X text 249 98 X position of polygon point;
#X text 218 32 Y position of polygon point;
#X obj 124 31 inlet;
#X connect 0 0 1 0;
#X connect 1 0 5 0;
#X connect 3 0 5 1;
#X connect 4 0 3 0;
#X connect 4 0 9 0;
#X connect 4 0 11 0;
#X connect 5 0 6 0;
#X connect 6 0 2 0;
#X connect 7 0 1 1;
#X connect 8 0 12 0;
#X connect 10 0 4 0;
#X connect 12 0 3 0;
#X connect 12 1 3 1;
#X connect 15 0 0 0;
#X restore 373 199 pd p1;
#N canvas 67 83 450 300 no 0;
#X obj 298 109 r env1;
#X obj 298 149 /;
#X obj 313 129 r env1;
#X obj 298 169 - 1;
#X obj 298 189 outlet;
#X connect 0 0 1 0;
#X connect 1 0 3 0;
#X connect 2 0 1 1;
#X connect 3 0 4 0;
#X restore 51 139 pd no;
#N canvas 67 83 450 300 no 0;
#X obj 298 109 r env1;
#X obj 298 149 /;
#X obj 313 129 r env1;
#X obj 298 169 - 1;
#X obj 298 189 outlet;
#X connect 0 0 1 0;
#X connect 1 0 3 0;
#X connect 2 0 1 1;
#X connect 3 0 4 0;
#X restore 373 179 pd no;
#X obj 16 69 gemhead;
#X obj 338 519 until;
#X msg 66 269 draw fill;
#X msg 66 249 draw linestrip;
#N canvas 175 169 450 309 p1 0;
#X obj 124 131 - 2;
#X obj 124 291 outlet;
#X obj 199 211 * 1;
#X obj 199 81 + 0.75;
#X obj 124 231 pack f f;
#X msg 124 261 \$2 \$1 0;
#X obj 174 31 r ppos;
#X obj 214 171 r spacing;
#X obj 209 121 outlet;
#X obj 209 61 inlet;
#X floatatom 209 101 5 0 0 0 - - -;
#X obj 214 191 t b f;
#X text 249 98 X position of polygon point;
#X text 218 32 Y position of polygon point;
#X obj 124 31 inlet;
#X obj 124 111 * -3;
#X connect 0 0 4 0;
#X connect 2 0 4 1;
#X connect 3 0 2 0;
#X connect 3 0 8 0;
#X connect 3 0 10 0;
#X connect 4 0 5 0;
#X connect 5 0 1 0;
#X connect 6 0 0 1;
#X connect 7 0 11 0;
#X connect 9 0 3 0;
#X connect 11 0 2 0;
#X connect 11 1 2 1;
#X connect 14 0 15 0;
#X connect 15 0 0 0;
#X restore 87 379 pd p1;
#X obj 16 399 polygon 10 _________________________________________________
;
#X msg 66 289 draw point;
#X obj 87 359 r env1;
#N canvas 179 157 450 309 p1 0;
#X obj 124 131 - 2;
#X obj 124 291 outlet;
#X obj 199 211 * 1;
#X obj 199 81 + 0.75;
#X obj 124 231 pack f f;
#X msg 124 261 \$2 \$1 0;
#X obj 174 31 r ppos;
#X obj 214 171 r spacing;
#X obj 209 121 outlet;
#X obj 209 61 inlet;
#X floatatom 209 101 5 0 0 0 - - -;
#X obj 214 191 t b f;
#X text 249 98 X position of polygon point;
#X text 218 32 Y position of polygon point;
#X obj 124 31 inlet;
#X obj 124 111 * -3;
#X connect 0 0 4 0;
#X connect 2 0 4 1;
#X connect 3 0 2 0;
#X connect 3 0 8 0;
#X connect 3 0 10 0;
#X connect 4 0 5 0;
#X connect 5 0 1 0;
#X connect 6 0 0 1;
#X connect 7 0 11 0;
#X connect 9 0 3 0;
#X connect 11 0 2 0;
#X connect 11 1 2 1;
#X connect 14 0 15 0;
#X connect 15 0 0 0;
#X restore 123 339 pd p1;
#N canvas 175 169 450 309 p1 0;
#X obj 124 131 - 2;
#X obj 124 291 outlet;
#X obj 199 211 * 1;
#X obj 199 81 + 0.75;
#X obj 124 231 pack f f;
#X msg 124 261 \$2 \$1 0;
#X obj 174 31 r ppos;
#X obj 214 171 r spacing;
#X obj 209 121 outlet;
#X obj 209 61 inlet;
#X floatatom 209 101 5 0 0 0 - - -;
#X obj 214 191 t b f;
#X text 249 98 X position of polygon point;
#X text 218 32 Y position of polygon point;
#X obj 124 31 inlet;
#X obj 124 111 * -3;
#X connect 0 0 4 0;
#X connect 2 0 4 1;
#X connect 3 0 2 0;
#X connect 3 0 8 0;
#X connect 3 0 10 0;
#X connect 4 0 5 0;
#X connect 5 0 1 0;
#X connect 6 0 0 1;
#X connect 7 0 11 0;
#X connect 9 0 3 0;
#X connect 11 0 2 0;
#X connect 11 1 2 1;
#X connect 14 0 15 0;
#X connect 15 0 0 0;
#X restore 158 379 pd p1;
#N canvas 179 157 450 309 p1 0;
#X obj 124 131 - 2;
#X obj 124 291 outlet;
#X obj 199 211 * 1;
#X obj 199 81 + 0.75;
#X obj 124 231 pack f f;
#X msg 124 261 \$2 \$1 0;
#X obj 174 31 r ppos;
#X obj 214 171 r spacing;
#X obj 209 121 outlet;
#X obj 209 61 inlet;
#X floatatom 209 101 5 0 0 0 - - -;
#X obj 214 191 t b f;
#X text 249 98 X position of polygon point;
#X text 218 32 Y position of polygon point;
#X obj 124 31 inlet;
#X obj 124 111 * -3;
#X connect 0 0 4 0;
#X connect 2 0 4 1;
#X connect 3 0 2 0;
#X connect 3 0 8 0;
#X connect 3 0 10 0;
#X connect 4 0 5 0;
#X connect 5 0 1 0;
#X connect 6 0 0 1;
#X connect 7 0 11 0;
#X connect 9 0 3 0;
#X connect 11 0 2 0;
#X connect 11 1 2 1;
#X connect 14 0 15 0;
#X connect 15 0 0 0;
#X restore 194 339 pd p1;
#N canvas 179 157 450 309 p1 0;
#X obj 124 131 - 2;
#X obj 124 291 outlet;
#X obj 199 211 * 1;
#X obj 199 81 + 0.75;
#X obj 124 231 pack f f;
#X msg 124 261 \$2 \$1 0;
#X obj 174 31 r ppos;
#X obj 214 171 r spacing;
#X obj 209 121 outlet;
#X obj 209 61 inlet;
#X floatatom 209 101 5 0 0 0 - - -;
#X obj 214 191 t b f;
#X text 249 98 X position of polygon point;
#X text 218 32 Y position of polygon point;
#X obj 124 31 inlet;
#X obj 124 111 * -3;
#X connect 0 0 4 0;
#X connect 2 0 4 1;
#X connect 3 0 2 0;
#X connect 3 0 8 0;
#X connect 3 0 10 0;
#X connect 4 0 5 0;
#X connect 5 0 1 0;
#X connect 6 0 0 1;
#X connect 7 0 11 0;
#X connect 9 0 3 0;
#X connect 11 0 2 0;
#X connect 11 1 2 1;
#X connect 14 0 15 0;
#X connect 15 0 0 0;
#X restore 230 379 pd p1;
#N canvas 179 157 450 309 p1 0;
#X obj 124 131 - 2;
#X obj 124 291 outlet;
#X obj 199 211 * 1;
#X obj 199 81 + 0.75;
#X obj 124 231 pack f f;
#X msg 124 261 \$2 \$1 0;
#X obj 174 31 r ppos;
#X obj 214 171 r spacing;
#X obj 209 121 outlet;
#X obj 209 61 inlet;
#X floatatom 209 101 5 0 0 0 - - -;
#X obj 214 191 t b f;
#X text 249 98 X position of polygon point;
#X text 218 32 Y position of polygon point;
#X obj 124 31 inlet;
#X obj 124 111 * -3;
#X connect 0 0 4 0;
#X connect 2 0 4 1;
#X connect 3 0 2 0;
#X connect 3 0 8 0;
#X connect 3 0 10 0;
#X connect 4 0 5 0;
#X connect 5 0 1 0;
#X connect 6 0 0 1;
#X connect 7 0 11 0;
#X connect 9 0 3 0;
#X connect 11 0 2 0;
#X connect 11 1 2 1;
#X connect 14 0 15 0;
#X connect 15 0 0 0;
#X restore 265 339 pd p1;
#N canvas 177 163 450 309 p1 0;
#X obj 124 131 - 2;
#X obj 124 291 outlet;
#X obj 199 211 * 1;
#X obj 199 81 + 0.75;
#X obj 124 231 pack f f;
#X msg 124 261 \$2 \$1 0;
#X obj 174 31 r ppos;
#X obj 214 171 r spacing;
#X obj 209 121 outlet;
#X obj 209 61 inlet;
#X floatatom 209 101 5 0 0 0 - - -;
#X obj 214 191 t b f;
#X text 249 98 X position of polygon point;
#X text 218 32 Y position of polygon point;
#X obj 124 31 inlet;
#X obj 124 111 * -3;
#X connect 0 0 4 0;
#X connect 2 0 4 1;
#X connect 3 0 2 0;
#X connect 3 0 8 0;
#X connect 3 0 10 0;
#X connect 4 0 5 0;
#X connect 5 0 1 0;
#X connect 6 0 0 1;
#X connect 7 0 11 0;
#X connect 9 0 3 0;
#X connect 11 0 2 0;
#X connect 11 1 2 1;
#X connect 14 0 15 0;
#X connect 15 0 0 0;
#X restore 301 379 pd p1;
#N canvas 175 169 450 309 p1 0;
#X obj 124 131 - 2;
#X obj 124 291 outlet;
#X obj 199 211 * 1;
#X obj 199 81 + 0.75;
#X obj 124 231 pack f f;
#X msg 124 261 \$2 \$1 0;
#X obj 174 31 r ppos;
#X obj 214 171 r spacing;
#X obj 209 121 outlet;
#X obj 209 61 inlet;
#X floatatom 209 101 5 0 0 0 - - -;
#X obj 214 191 t b f;
#X text 249 98 X position of polygon point;
#X text 218 32 Y position of polygon point;
#X obj 124 31 inlet;
#X obj 124 111 * -3;
#X connect 0 0 4 0;
#X connect 2 0 4 1;
#X connect 3 0 2 0;
#X connect 3 0 8 0;
#X connect 3 0 10 0;
#X connect 4 0 5 0;
#X connect 5 0 1 0;
#X connect 6 0 0 1;
#X connect 7 0 11 0;
#X connect 9 0 3 0;
#X connect 11 0 2 0;
#X connect 11 1 2 1;
#X connect 14 0 15 0;
#X connect 15 0 0 0;
#X restore 337 339 pd p1;
#X obj 123 319 r env2;
#X obj 158 359 r env3;
#X obj 194 319 r env4;
#X obj 230 359 r env5;
#X obj 265 319 r env6;
#X obj 301 359 r env7;
#X obj 337 319 r env8;
#N canvas 173 175 450 309 p1 0;
#X obj 124 131 - 2;
#X obj 124 291 outlet;
#X obj 199 211 * 1;
#X obj 124 231 pack f f;
#X msg 124 261 \$2 \$1 0;
#X obj 174 31 r ppos;
#X obj 214 171 r spacing;
#X obj 209 121 outlet;
#X obj 209 61 inlet;
#X floatatom 209 101 5 0 0 0 - - -;
#X obj 214 191 t b f;
#X text 249 98 X position of polygon point;
#X text 218 32 Y position of polygon point;
#X obj 124 31 inlet;
#X obj 199 81 + 0;
#X obj 124 111 * -3;
#X connect 0 0 3 0;
#X connect 2 0 3 1;
#X connect 3 0 4 0;
#X connect 4 0 1 0;
#X connect 5 0 0 1;
#X connect 6 0 10 0;
#X connect 8 0 14 0;
#X connect 10 0 2 0;
#X connect 10 1 2 1;
#X connect 13 0 15 0;
#X connect 14 0 2 0;
#X connect 14 0 7 0;
#X connect 14 0 9 0;
#X connect 15 0 0 0;
#X restore 51 339 pd p1;
#N canvas 177 163 450 309 p1 1;
#X obj 124 131 - 2;
#X obj 124 291 outlet;
#X obj 199 211 * 1;
#X obj 199 81 + 0.75;
#X obj 124 231 pack f f;
#X msg 124 261 \$2 \$1 0;
#X obj 174 31 r ppos;
#X obj 214 171 r spacing;
#X obj 209 121 outlet;
#X obj 209 61 inlet;
#X floatatom 209 101 5 0 0 0 - - -;
#X obj 214 191 t b f;
#X text 249 98 X position of polygon point;
#X text 218 32 Y position of polygon point;
#X obj 124 31 inlet;
#X obj 124 111 * -3;
#X connect 0 0 4 0;
#X connect 2 0 4 1;
#X connect 3 0 2 0;
#X connect 3 0 8 0;
#X connect 3 0 10 0;
#X connect 4 0 5 0;
#X connect 5 0 1 0;
#X connect 6 0 0 1;
#X connect 7 0 11 0;
#X connect 9 0 3 0;
#X connect 11 0 2 0;
#X connect 11 1 2 1;
#X connect 14 0 15 0;
#X connect 15 0 0 0;
#X restore 373 379 pd p1;
#N canvas 67 83 450 300 no 0;
#X obj 298 109 r env1;
#X obj 298 149 /;
#X obj 313 129 r env1;
#X obj 298 169 - 1;
#X obj 298 189 outlet;
#X connect 0 0 1 0;
#X connect 1 0 3 0;
#X connect 2 0 1 1;
#X connect 3 0 4 0;
#X restore 51 319 pd no;
#N canvas 67 83 450 300 no 0;
#X obj 298 109 r env1;
#X obj 298 149 /;
#X obj 313 129 r env1;
#X obj 298 169 - 1;
#X obj 298 189 outlet;
#X connect 0 0 1 0;
#X connect 1 0 3 0;
#X connect 2 0 1 1;
#X connect 3 0 4 0;
#X restore 373 359 pd no;
#X obj 16 249 gemhead;
#X obj 38 474 translateXYZ;
#X floatatom 102 440 5 0 0 0 - - -;
#X connect 3 0 2 0;
#X connect 4 0 5 0;
#X connect 5 0 1 0;
#X connect 6 0 60 0;
#X connect 8 0 7 0;
#X connect 9 0 8 0;
#X connect 10 0 60 0;
#X connect 11 0 21 0;
#X connect 12 0 21 9;
#X connect 13 0 21 3;
#X connect 14 0 21 4;
#X connect 15 0 21 5;
#X connect 16 0 21 7;
#X connect 17 0 21 8;
#X connect 18 0 21 0;
#X connect 19 0 21 2;
#X connect 20 0 21 0;
#X connect 22 0 43 0;
#X connect 22 0 44 0;
#X connect 22 0 42 0;
#X connect 23 0 55 0;
#X connect 24 0 54 0;
#X connect 25 0 53 0;
#X connect 26 0 52 0;
#X connect 27 0 48 0;
#X connect 28 0 49 0;
#X connect 29 0 50 0;
#X connect 30 0 51 0;
#X connect 31 0 21 6;
#X connect 32 0 19 0;
#X connect 33 0 13 0;
#X connect 34 0 16 0;
#X connect 35 0 17 0;
#X connect 36 0 14 0;
#X connect 37 0 15 0;
#X connect 38 0 31 0;
#X connect 39 0 32 1;
#X connect 39 0 33 1;
#X connect 39 0 36 1;
#X connect 39 0 37 1;
#X connect 39 0 38 1;
#X connect 39 0 34 1;
#X connect 39 0 35 1;
#X connect 39 0 45 1;
#X connect 40 0 21 0;
#X connect 41 0 40 2;
#X connect 42 0 39 0;
#X connect 43 0 21 1;
#X connect 44 0 21 10;
#X connect 45 0 12 0;
#X connect 47 0 40 0;
#X connect 48 0 38 0;
#X connect 49 0 34 0;
#X connect 50 0 35 0;
#X connect 51 0 45 0;
#X connect 52 0 37 0;
#X connect 53 0 36 0;
#X connect 54 0 33 0;
#X connect 55 0 32 0;
#X connect 56 0 11 0;
#X connect 57 0 60 2;
#X connect 57 1 65 1;
#X connect 58 0 59 0;
#X connect 61 0 62 0;
#X connect 63 0 60 0;
#X connect 64 0 57 0;
#X connect 65 0 60 3;
#X connect 65 1 66 1;
#X connect 66 0 60 4;
#X connect 66 1 67 1;
#X connect 67 0 60 5;
#X connect 67 1 68 1;
#X connect 68 0 60 6;
#X connect 68 1 69 1;
#X connect 69 0 60 7;
#X connect 69 1 70 1;
#X connect 70 0 60 8;
#X connect 70 1 71 1;
#X connect 71 0 60 9;
#X connect 71 1 82 1;
#X connect 72 0 65 0;
#X connect 73 0 66 0;
#X connect 74 0 67 0;
#X connect 75 0 68 0;
#X connect 76 0 69 0;
#X connect 77 0 70 0;
#X connect 78 0 71 0;
#X connect 81 0 60 1;
#X connect 81 1 57 1;
#X connect 82 0 60 10;
#X connect 83 0 81 0;
#X connect 84 0 82 0;
#X connect 85 0 60 0;
#X connect 87 0 90 0;
#X connect 88 0 90 0;
#X connect 89 0 90 2;
#X connect 89 1 93 1;
#X connect 91 0 90 0;
#X connect 92 0 89 0;
#X connect 93 0 90 3;
#X connect 93 1 94 1;
#X connect 94 0 90 4;
#X connect 94 1 95 1;
#X connect 95 0 90 5;
#X connect 95 1 96 1;
#X connect 96 0 90 6;
#X connect 96 1 97 1;
#X connect 97 0 90 7;
#X connect 97 1 98 1;
#X connect 98 0 90 8;
#X connect 98 1 99 1;
#X connect 99 0 90 9;
#X connect 99 1 108 1;
#X connect 100 0 93 0;
#X connect 101 0 94 0;
#X connect 102 0 95 0;
#X connect 103 0 96 0;
#X connect 104 0 97 0;
#X connect 105 0 98 0;
#X connect 106 0 99 0;
#X connect 107 0 90 1;
#X connect 107 1 89 1;
#X connect 108 0 90 10;
#X connect 109 0 107 0;
#X connect 110 0 108 0;
#X connect 111 0 112 0;
#X connect 112 0 90 0;
#X connect 113 0 112 2;
