#N canvas 66 54 1300 714 10;
#X obj 35 -200 udpreceive 57120;
#X obj 35 -178 unpackOSC;
#X obj 35 -157 routeOSC /bile;
#N canvas 457 250 450 300 messaging 0;
#X obj 225 254 udpsend;
#X obj 225 231 packOSC;
#X msg 225 206 connect 255.255.255.255 57120;
#X msg 225 160 disconnect;
#X obj 35 151 routeOSC /msg;
#X msg 145 110 send /bile/msg Antonio \$1;
#X obj 35 129 inlet;
#X obj 55 174 print chat;
#X msg 35 194 set \$1;
#X obj 35 214 outlet;
#X obj 225 140 inlet;
#X obj 225 186 inlet;
#X obj 145 88 inlet;
#X connect 1 0 0 0;
#X connect 2 0 0 0;
#X connect 3 0 0 0;
#X connect 4 0 8 0;
#X connect 4 0 7 0;
#X connect 5 0 1 0;
#X connect 6 0 4 0;
#X connect 8 0 9 0;
#X connect 10 0 3 0;
#X connect 11 0 2 0;
#X connect 12 0 5 0;
#X coords 0 0 1 1 248 86 0;
#X restore 35 325 pd messaging;
#X obj 35 235 cnv 15 242 80 empty empty empty 20 12 0 14 -228856 -66577
0;
#X obj 38 262 cnv 15 235 50 empty empty empty 20 12 0 14 -4034 -66577
0;
#X symbolatom 41 265 30 0 0 0 - - -;
#X symbolatom 87 290 30 0 0 0 - - -;
#X obj 38 238 bng 15 250 50 0 empty empty empty 17 7 0 10 -260097 -1
-1;
#X obj 128 238 bng 15 250 50 0 empty empty empty 17 7 0 10 -258113
-1 -1;
#X text 54 236 connect;
#X text 144 236 disconnect;
#X text 244 264 send;
#X text 37 290 recieve;
#X obj 223 238 cnv 15 50 20 empty empty empty 20 12 0 14 -257985 -66577
0;
#X text 228 238 chat;
#X obj 55 -137 cnv 15 78 53 empty empty empty 20 12 0 14 -260097 -66577
0;
#X floatatom 58 -114 3 0 1 0 - - -;
#X floatatom 83 -114 3 0 1 0 - - -;
#X floatatom 109 -114 3 0 1 0 - - -;
#X text 60 -102 x;
#X text 85 -102 y;
#X text 111 -102 z;
#N canvas 240 198 450 300 Julien 0;
#X obj 107 9 inlet;
#X obj 107 51 routeOSC /x;
#X obj 182 51 routeOSC /y;
#X obj 258 51 routeOSC /z;
#X obj 107 95 outlet;
#X obj 182 95 outlet;
#X obj 258 95 outlet;
#X obj 107 75 - 0;
#X obj 182 75 - 0;
#X obj 258 75 - 0;
#X obj 107 30 routeOSC /Juju;
#X connect 0 0 10 0;
#X connect 1 0 7 0;
#X connect 2 0 8 0;
#X connect 3 0 9 0;
#X connect 7 0 4 0;
#X connect 8 0 5 0;
#X connect 9 0 6 0;
#X connect 10 0 1 0;
#X connect 10 0 2 0;
#X connect 10 0 3 0;
#X coords 0 300 1 299 59 84 0;
#X restore 58 -134 pd Julien;
#X obj 145 -137 cnv 15 78 53 empty empty empty 20 12 0 14 -260097 -66577
0;
#X floatatom 148 -114 3 0 1 0 - - -;
#X floatatom 173 -114 3 0 1 0 - - -;
#X floatatom 199 -114 3 0 1 0 - - -;
#X text 150 -102 x;
#X text 176 -100 y;
#X text 201 -102 z;
#X obj 235 -137 cnv 15 78 53 empty empty empty 20 12 0 14 -260097 -66577
0;
#X floatatom 238 -114 3 0 1 0 - - -;
#X floatatom 263 -114 3 0 1 0 - - -;
#X floatatom 289 -114 3 0 1 0 - - -;
#X text 240 -102 x;
#X text 265 -102 y;
#X text 291 -102 z;
#N canvas 454 202 450 300 Shelly 0;
#X obj 107 9 inlet;
#X obj 107 51 routeOSC /x;
#X obj 182 51 routeOSC /y;
#X obj 258 51 routeOSC /z;
#X obj 107 95 outlet;
#X obj 182 95 outlet;
#X obj 258 95 outlet;
#X obj 107 75 - 0;
#X obj 182 75 - 0;
#X obj 258 75 - 0;
#X obj 107 30 routeOSC /Shelly;
#X connect 0 0 10 0;
#X connect 1 0 7 0;
#X connect 2 0 8 0;
#X connect 3 0 9 0;
#X connect 7 0 4 0;
#X connect 8 0 5 0;
#X connect 9 0 6 0;
#X connect 10 0 1 0;
#X connect 10 0 2 0;
#X connect 10 0 3 0;
#X coords 0 300 1 299 59 84 0;
#X restore 148 -134 pd Shelly;
#N canvas 565 184 450 300 Les 0;
#X obj 107 9 inlet;
#X obj 107 51 routeOSC /x;
#X obj 182 51 routeOSC /y;
#X obj 258 51 routeOSC /z;
#X obj 107 95 outlet;
#X obj 182 95 outlet;
#X obj 258 95 outlet;
#X obj 107 75 - 0;
#X obj 182 75 - 0;
#X obj 258 75 - 0;
#X obj 107 30 routeOSC /Les;
#X connect 0 0 10 0;
#X connect 1 0 7 0;
#X connect 2 0 8 0;
#X connect 3 0 9 0;
#X connect 7 0 4 0;
#X connect 8 0 5 0;
#X connect 9 0 6 0;
#X connect 10 0 1 0;
#X connect 10 0 2 0;
#X connect 10 0 3 0;
#X coords 0 300 1 299 59 84 0;
#X restore 238 -134 pd Les;
#X obj 165 -239 bng 30 250 50 0 empty empty empty 17 7 0 10 -4034 -1
-1;
#X obj 205 -219 bng 15 250 50 0 empty empty empty 17 7 0 10 -258113
-1 -1;
#X obj 205 -239 bng 15 250 50 0 empty empty empty 17 7 0 10 -4032 -1
-1;
#N canvas 67 131 450 300 window 0;
#X obj 30 149 gemwin;
#X msg 320 39 0 \, destroy;
#X obj 30 19 inlet;
#X obj 150 19 inlet;
#X obj 320 19 inlet;
#X msg 151 69 offset 1366 0;
#X msg 260 68 border 0;
#X msg 30 39 FSAA 8 \, create \, 1;
#X obj 332 162 world_light;
#X obj 332 132 gemhead;
#X msg 150 129 lighting \$1;
#X obj 150 109 inlet;
#X msg 150 39 dimen 1600 1200;
#X connect 1 0 0 0;
#X connect 2 0 7 0;
#X connect 3 0 5 0;
#X connect 3 0 12 0;
#X connect 3 0 6 0;
#X connect 4 0 1 0;
#X connect 5 0 0 0;
#X connect 6 0 0 0;
#X connect 7 0 0 0;
#X connect 9 0 8 0;
#X connect 10 0 0 0;
#X connect 11 0 10 0;
#X connect 12 0 0 0;
#X restore 165 -200 pd window;
#X text 225 -241 press this first;
#X text 225 -221 destroy window;
#X text 162 -261 create window;
#X obj 235 -200 tgl 15 0 empty empty empty 17 7 0 10 -257985 -1 -1
0 1;
#X text 255 -201 lighting;
#X connect 0 0 1 0;
#X connect 1 0 2 0;
#X connect 2 0 3 0;
#X connect 2 0 23 0;
#X connect 2 0 38 0;
#X connect 2 0 39 0;
#X connect 3 0 7 0;
#X connect 6 0 3 1;
#X connect 8 0 3 2;
#X connect 9 0 3 3;
#X connect 23 0 17 0;
#X connect 23 1 18 0;
#X connect 23 2 19 0;
#X connect 38 0 25 0;
#X connect 38 1 26 0;
#X connect 38 2 27 0;
#X connect 39 0 32 0;
#X connect 39 1 33 0;
#X connect 39 2 34 0;
#X connect 40 0 43 0;
#X connect 41 0 43 3;
#X connect 42 0 43 2;
#X connect 47 0 43 1;
