#N canvas 66 24 1279 711 10;
#X declare -lib mrpeach;
#X obj 91 -46 gemwin;
#X msg 150 -74 dimen 1366 795;
#X msg 150 -46 offset 1366 0;
#X obj 93 150 udpreceive 57120;
#X obj 90 73 import mrpeach;
#X obj 93 175 unpackOSC;
#X obj 93 196 routeOSC /bile;
#X obj 93 217 routeOSC /API;
#X obj 93 239 routeOSC /ID;
#X symbolatom 93 262 10 0 0 0 - - -;
#X msg 263 -111 create \, 1;
#X msg 259 -73 0 \, destroy;
#N canvas 558 167 450 300 windowsetup 0;
#X obj 142 174 outlet;
#X restore 93 101 pd windowsetup;
#X obj 95 303 cnv 15 100 60 empty empty empty 20 12 0 14 -233017 -66577
0;
#X obj 102 461 square;
#X obj 102 376 translateXYZ;
#N canvas 858 186 450 300 shake 0;
#X obj 101 11 inlet;
#X obj 101 150 line;
#X floatatom 101 173 5 0 0 0 - - -;
#X msg 101 128 \$1 250;
#X obj 101 193 outlet;
#X obj 171 150 line;
#X floatatom 171 173 5 0 0 0 - - -;
#X msg 171 128 \$1 250;
#X obj 171 193 outlet;
#X obj 171 11 inlet;
#X obj 101 83 / 1;
#X obj 171 83 / 1;
#X connect 0 0 10 0;
#X connect 1 0 2 0;
#X connect 2 0 4 0;
#X connect 3 0 1 0;
#X connect 5 0 6 0;
#X connect 6 0 8 0;
#X connect 7 0 5 0;
#X connect 9 0 11 0;
#X connect 10 0 3 0;
#X connect 11 0 7 0;
#X restore 126 355 pd shake;
#X obj 102 440 translateXYZ;
#N canvas 836 405 450 300 jmove 0;
#X msg 158 76 250 600;
#X msg 87 77 0 600;
#X obj 87 51 inlet;
#X obj 87 100 line;
#X obj 158 100 line;
#X floatatom 87 121 5 0 0 0 - - -;
#X obj 87 141 / 100;
#X floatatom 158 121 5 0 0 0 - - -;
#X obj 158 141 / 100;
#X obj 87 164 outlet;
#X obj 158 164 outlet;
#X connect 0 0 4 0;
#X connect 1 0 3 0;
#X connect 2 0 1 0;
#X connect 2 0 0 0;
#X connect 3 0 5 0;
#X connect 4 0 7 0;
#X connect 5 0 6 0;
#X connect 6 0 9 0;
#X connect 7 0 8 0;
#X connect 8 0 10 0;
#X restore 125 419 pd jmove;
#X text 99 303 julien - top;
#X obj 102 322 gemhead;
#N canvas 916 304 450 300 smove 0;
#X msg 88 76 250 600;
#X obj 88 51 inlet;
#X msg 158 76 -145 600;
#X obj 88 99 line;
#X obj 158 99 line;
#X floatatom 88 120 5 0 0 0 - - -;
#X obj 88 140 / 100;
#X floatatom 158 120 5 0 0 0 - - -;
#X obj 158 140 / 100;
#X obj 88 163 outlet;
#X obj 158 163 outlet;
#X connect 0 0 3 0;
#X connect 1 0 0 0;
#X connect 1 0 2 0;
#X connect 2 0 4 0;
#X connect 3 0 5 0;
#X connect 4 0 7 0;
#X connect 5 0 6 0;
#X connect 6 0 9 0;
#X connect 7 0 8 0;
#X connect 8 0 10 0;
#X restore 245 419 pd smove;
#N canvas 395 165 450 300 lmove 0;
#X msg 88 76 -250 600;
#X msg 158 76 -145 600;
#X obj 88 51 inlet;
#X obj 88 99 line;
#X obj 158 99 line;
#X floatatom 88 120 5 0 0 0 - - -;
#X obj 88 140 / 100;
#X floatatom 158 120 5 0 0 0 - - -;
#X obj 158 140 / 100;
#X obj 88 163 outlet;
#X obj 158 163 outlet;
#X connect 0 0 3 0;
#X connect 1 0 4 0;
#X connect 2 0 0 0;
#X connect 2 0 1 0;
#X connect 3 0 5 0;
#X connect 4 0 7 0;
#X connect 5 0 6 0;
#X connect 6 0 9 0;
#X connect 7 0 8 0;
#X connect 8 0 10 0;
#X restore 365 419 pd lmove;
#X obj 215 303 cnv 15 100 60 empty empty empty 20 12 0 14 -233017 -66577
0;
#X obj 222 461 square;
#X obj 222 376 translateXYZ;
#N canvas 858 186 450 300 shake 0;
#X obj 101 11 inlet;
#X obj 101 150 line;
#X floatatom 101 173 5 0 0 0 - - -;
#X msg 101 128 \$1 250;
#X obj 101 193 outlet;
#X obj 171 150 line;
#X floatatom 171 173 5 0 0 0 - - -;
#X msg 171 128 \$1 250;
#X obj 171 193 outlet;
#X obj 171 11 inlet;
#X obj 101 83 / 1;
#X obj 171 83 / 1;
#X connect 0 0 10 0;
#X connect 1 0 2 0;
#X connect 2 0 4 0;
#X connect 3 0 1 0;
#X connect 5 0 6 0;
#X connect 6 0 8 0;
#X connect 7 0 5 0;
#X connect 9 0 11 0;
#X connect 10 0 3 0;
#X connect 11 0 7 0;
#X restore 246 355 pd shake;
#X obj 222 440 translateXYZ;
#X obj 222 322 gemhead;
#X obj 335 303 cnv 15 100 60 empty empty empty 20 12 0 14 -233017 -66577
0;
#X obj 342 461 square;
#X obj 342 376 translateXYZ;
#N canvas 858 186 450 300 shake 0;
#X obj 101 11 inlet;
#X obj 101 150 line;
#X floatatom 101 173 5 0 0 0 - - -;
#X msg 101 128 \$1 250;
#X obj 101 193 outlet;
#X obj 171 150 line;
#X floatatom 171 173 5 0 0 0 - - -;
#X msg 171 128 \$1 250;
#X obj 171 193 outlet;
#X obj 171 11 inlet;
#X obj 101 83 / 1;
#X obj 171 83 / 1;
#X connect 0 0 10 0;
#X connect 1 0 2 0;
#X connect 2 0 4 0;
#X connect 3 0 1 0;
#X connect 5 0 6 0;
#X connect 6 0 8 0;
#X connect 7 0 5 0;
#X connect 9 0 11 0;
#X connect 10 0 3 0;
#X connect 11 0 7 0;
#X restore 366 355 pd shake;
#X obj 342 440 translateXYZ;
#X obj 342 322 gemhead;
#X text 220 303 shelly - right;
#X text 341 303 les - left;
#X obj 475 -115 gemhead;
#X msg 475 -70 draw linestrip;
#X obj 475 -91 rotateXYZ;
#X floatatom 526 -114 5 0 0 0 - - -;
#X obj 475 103 curve 3;
#X obj 488 60 pack f f f;
#X floatatom 488 20 5 0 0 0 - - -;
#X floatatom 558 20 5 0 0 0 - - -;
#X msg 488 81 \$1 \$2 \$3;
#X obj 558 39 t b f;
#X obj 638 60 pack f f f;
#X floatatom 638 20 5 0 0 0 - - -;
#X floatatom 708 20 5 0 0 0 - - -;
#X msg 638 81 \$1 \$2 \$3;
#X obj 708 39 t b f;
#X obj 778 60 pack f f f;
#X floatatom 778 20 5 0 0 0 - - -;
#X floatatom 848 20 5 0 0 0 - - -;
#X msg 778 81 \$1 \$2 \$3;
#X obj 848 39 t b f;
#X obj 488 0 line;
#X obj 488 -42 r emerge;
#X obj 558 0 line;
#X obj 558 -42 r emerge;
#X msg 488 -21 -2.77 600;
#X msg 558 -21 -1.46 600;
#X obj 638 0 line;
#X obj 638 -42 r emerge;
#X obj 708 0 line;
#X obj 708 -42 r emerge;
#X msg 708 -21 0 600;
#X obj 778 0 line;
#X obj 778 -42 r emerge;
#X obj 848 0 line;
#X obj 848 -42 r emerge;
#X msg 778 -21 0 600;
#X msg 848 -21 2.56 600;
#X msg 638 -21 -1.66 600;
#X obj 475 135 gemhead;
#X msg 475 180 draw linestrip;
#X obj 475 159 rotateXYZ;
#X floatatom 526 136 5 0 0 0 - - -;
#X obj 475 353 curve 3;
#X obj 488 310 pack f f f;
#X floatatom 488 270 5 0 0 0 - - -;
#X floatatom 558 270 5 0 0 0 - - -;
#X msg 488 331 \$1 \$2 \$3;
#X obj 558 289 t b f;
#X obj 638 310 pack f f f;
#X floatatom 638 270 5 0 0 0 - - -;
#X floatatom 708 270 5 0 0 0 - - -;
#X msg 638 331 \$1 \$2 \$3;
#X obj 708 289 t b f;
#X obj 778 310 pack f f f;
#X floatatom 778 270 5 0 0 0 - - -;
#X floatatom 848 270 5 0 0 0 - - -;
#X msg 778 331 \$1 \$2 \$3;
#X obj 848 289 t b f;
#X obj 488 250 line;
#X obj 488 208 r emerge;
#X obj 558 250 line;
#X obj 558 208 r emerge;
#X msg 558 229 -1.46 600;
#X obj 638 250 line;
#X obj 638 208 r emerge;
#X obj 708 250 line;
#X obj 708 208 r emerge;
#X msg 708 229 0 600;
#X obj 778 250 line;
#X obj 778 208 r emerge;
#X obj 848 250 line;
#X obj 848 208 r emerge;
#X msg 778 229 0 600;
#X msg 848 229 2.56 600;
#X obj 475 385 gemhead;
#X msg 475 430 draw linestrip;
#X obj 475 409 rotateXYZ;
#X floatatom 526 386 5 0 0 0 - - -;
#X obj 475 603 curve 3;
#X obj 488 560 pack f f f;
#X floatatom 488 520 5 0 0 0 - - -;
#X floatatom 558 520 5 0 0 0 - - -;
#X msg 488 581 \$1 \$2 \$3;
#X obj 558 539 t b f;
#X obj 638 560 pack f f f;
#X floatatom 638 520 5 0 0 0 - - -;
#X floatatom 708 520 5 0 0 0 - - -;
#X msg 638 581 \$1 \$2 \$3;
#X obj 708 539 t b f;
#X obj 778 560 pack f f f;
#X floatatom 778 520 5 0 0 0 - - -;
#X floatatom 848 520 5 0 0 0 - - -;
#X msg 778 581 \$1 \$2 \$3;
#X obj 848 539 t b f;
#X obj 488 500 line;
#X obj 488 458 r emerge;
#X obj 558 500 line;
#X obj 558 458 r emerge;
#X msg 488 479 -2.77 600;
#X msg 558 479 -1.46 600;
#X obj 638 500 line;
#X obj 638 458 r emerge;
#X obj 708 500 line;
#X obj 708 458 r emerge;
#X obj 778 500 line;
#X obj 778 458 r emerge;
#X obj 848 500 line;
#X obj 848 458 r emerge;
#X msg 488 229 2.77 600;
#X msg 638 229 -1.82 600;
#X msg 638 479 0 600;
#X msg 708 479 -1.47 600;
#X msg 778 479 2.77 600;
#X msg 848 479 -1.46 600;
#X obj 365 398 r emerge;
#X obj 343 171 bng 30 250 50 0 empty empty empty 17 7 0 10 -258113
-1 -1;
#X obj 245 398 r emerge;
#X obj 125 398 r emerge;
#X text 382 179 emerge;
#X connect 1 0 0 0;
#X connect 2 0 0 0;
#X connect 3 0 5 0;
#X connect 5 0 6 0;
#X connect 6 0 7 0;
#X connect 7 0 8 0;
#X connect 8 0 9 0;
#X connect 10 0 0 0;
#X connect 11 0 0 0;
#X connect 15 0 17 0;
#X connect 16 0 15 1;
#X connect 16 1 15 2;
#X connect 17 0 14 0;
#X connect 18 0 17 1;
#X connect 18 1 17 2;
#X connect 20 0 15 0;
#X connect 21 0 27 1;
#X connect 21 1 27 2;
#X connect 22 0 33 1;
#X connect 22 1 33 2;
#X connect 25 0 27 0;
#X connect 26 0 25 1;
#X connect 26 1 25 2;
#X connect 27 0 24 0;
#X connect 28 0 25 0;
#X connect 31 0 33 0;
#X connect 32 0 31 1;
#X connect 32 1 31 2;
#X connect 33 0 30 0;
#X connect 34 0 31 0;
#X connect 37 0 39 0;
#X connect 38 0 41 0;
#X connect 39 0 41 0;
#X connect 40 0 39 1;
#X connect 40 0 39 3;
#X connect 42 0 45 0;
#X connect 43 0 42 0;
#X connect 44 0 46 0;
#X connect 45 0 41 1;
#X connect 46 0 42 0;
#X connect 46 1 42 1;
#X connect 47 0 50 0;
#X connect 48 0 47 0;
#X connect 49 0 51 0;
#X connect 50 0 41 2;
#X connect 51 0 47 0;
#X connect 51 1 47 1;
#X connect 52 0 55 0;
#X connect 53 0 52 0;
#X connect 54 0 56 0;
#X connect 55 0 41 3;
#X connect 56 0 52 0;
#X connect 56 1 52 1;
#X connect 57 0 43 0;
#X connect 58 0 61 0;
#X connect 59 0 44 0;
#X connect 60 0 62 0;
#X connect 61 0 57 0;
#X connect 62 0 59 0;
#X connect 63 0 48 0;
#X connect 64 0 74 0;
#X connect 65 0 49 0;
#X connect 66 0 67 0;
#X connect 67 0 65 0;
#X connect 68 0 53 0;
#X connect 69 0 72 0;
#X connect 70 0 54 0;
#X connect 71 0 73 0;
#X connect 72 0 68 0;
#X connect 73 0 70 0;
#X connect 74 0 63 0;
#X connect 75 0 77 0;
#X connect 76 0 79 0;
#X connect 77 0 79 0;
#X connect 78 0 77 1;
#X connect 78 0 77 3;
#X connect 80 0 83 0;
#X connect 81 0 80 0;
#X connect 82 0 84 0;
#X connect 83 0 79 1;
#X connect 84 0 80 0;
#X connect 84 1 80 1;
#X connect 85 0 88 0;
#X connect 86 0 85 0;
#X connect 87 0 89 0;
#X connect 88 0 79 2;
#X connect 89 0 85 0;
#X connect 89 1 85 1;
#X connect 90 0 93 0;
#X connect 91 0 90 0;
#X connect 92 0 94 0;
#X connect 93 0 79 3;
#X connect 94 0 90 0;
#X connect 94 1 90 1;
#X connect 95 0 81 0;
#X connect 96 0 145 0;
#X connect 97 0 82 0;
#X connect 98 0 99 0;
#X connect 99 0 97 0;
#X connect 100 0 86 0;
#X connect 101 0 146 0;
#X connect 102 0 87 0;
#X connect 103 0 104 0;
#X connect 104 0 102 0;
#X connect 105 0 91 0;
#X connect 106 0 109 0;
#X connect 107 0 92 0;
#X connect 108 0 110 0;
#X connect 109 0 105 0;
#X connect 110 0 107 0;
#X connect 111 0 113 0;
#X connect 112 0 115 0;
#X connect 113 0 115 0;
#X connect 114 0 113 1;
#X connect 114 0 113 3;
#X connect 116 0 119 0;
#X connect 117 0 116 0;
#X connect 118 0 120 0;
#X connect 119 0 115 1;
#X connect 120 0 116 0;
#X connect 120 1 116 1;
#X connect 121 0 124 0;
#X connect 122 0 121 0;
#X connect 123 0 125 0;
#X connect 124 0 115 2;
#X connect 125 0 121 0;
#X connect 125 1 121 1;
#X connect 126 0 129 0;
#X connect 127 0 126 0;
#X connect 128 0 130 0;
#X connect 129 0 115 3;
#X connect 130 0 126 0;
#X connect 130 1 126 1;
#X connect 131 0 117 0;
#X connect 132 0 135 0;
#X connect 133 0 118 0;
#X connect 134 0 136 0;
#X connect 135 0 131 0;
#X connect 136 0 133 0;
#X connect 137 0 122 0;
#X connect 138 0 147 0;
#X connect 139 0 123 0;
#X connect 140 0 148 0;
#X connect 141 0 127 0;
#X connect 142 0 149 0;
#X connect 143 0 128 0;
#X connect 144 0 150 0;
#X connect 145 0 95 0;
#X connect 146 0 100 0;
#X connect 147 0 137 0;
#X connect 148 0 139 0;
#X connect 149 0 141 0;
#X connect 150 0 143 0;
#X connect 151 0 22 0;
#X connect 153 0 21 0;
#X connect 154 0 18 0;
