#N canvas 17 24 627 660 10;
#X declare -lib mrpeach;
#X msg 108 -212 dimen 1366 795;
#X obj 35 10 udpreceive 57120;
#X obj 35 32 unpackOSC;
#X obj 35 53 routeOSC /bile;
#X obj 35 246 cnv 15 220 270 empty empty empty 20 12 0 14 -16662 -66577
0;
#X obj 42 336 translateXYZ;
#N canvas 858 186 450 300 shake 0;
#X obj 101 11 inlet;
#X obj 101 150 line;
#X floatatom 101 173 5 0 0 0 - - -;
#X msg 101 128 \$1 250;
#X obj 101 193 outlet;
#X obj 171 150 line;
#X floatatom 171 173 5 0 0 0 - - -;
#X msg 171 128 \$1 250;
#X obj 171 193 outlet;
#X obj 171 11 inlet;
#X obj 101 83 / 1;
#X obj 171 83 / 1;
#X connect 0 0 10 0;
#X connect 1 0 2 0;
#X connect 2 0 4 0;
#X connect 3 0 1 0;
#X connect 5 0 6 0;
#X connect 6 0 8 0;
#X connect 7 0 5 0;
#X connect 9 0 11 0;
#X connect 10 0 3 0;
#X connect 11 0 7 0;
#X restore 66 315 pd shake;
#X obj 42 400 translateXYZ;
#N canvas 836 405 450 300 jmove 0;
#X msg 158 76 250 600;
#X msg 87 77 0 600;
#X obj 87 51 inlet;
#X obj 87 100 line;
#X obj 158 100 line;
#X floatatom 87 121 5 0 0 0 - - -;
#X obj 87 141 / 100;
#X floatatom 158 121 5 0 0 0 - - -;
#X obj 158 141 / 100;
#X obj 87 164 outlet;
#X obj 158 164 outlet;
#X connect 0 0 4 0;
#X connect 1 0 3 0;
#X connect 2 0 1 0;
#X connect 2 0 0 0;
#X connect 3 0 5 0;
#X connect 4 0 7 0;
#X connect 5 0 6 0;
#X connect 6 0 9 0;
#X connect 7 0 8 0;
#X connect 8 0 10 0;
#X restore 65 379 pd jmove;
#X obj 265 246 cnv 15 220 270 empty empty empty 20 12 0 14 -4034 -66577
0;
#X obj 495 246 cnv 15 220 270 empty empty empty 20 12 0 14 -159808
-66577 0;
#X obj 209 -195 bng 30 250 50 0 emerge empty empty 17 7 0 10 -258113
-1 -1;
#X obj 65 358 r emerge;
#X text 248 -187 emerge;
#X obj 42 459 pix_texture;
#N canvas 70 24 450 300 loadvids 0;
#X obj 92 -54 loadbang;
#X msg 92 -34 location /home/hellocatfood/Desktop/XYZvid;
#X msg 92 117 open \$1;
#X obj 92 13 playlist .mov 100 100 {Helvetica 10 bold} #457782 yellow
black red;
#X obj 92 141 outlet;
#X obj 151 -54 inlet;
#X connect 0 0 1 0;
#X connect 1 0 3 0;
#X connect 2 0 4 0;
#X connect 3 0 2 0;
#X connect 5 0 3 0;
#X coords 0 -1 1 1 105 105 2 90 10;
#X restore 122 404 pd loadvids;
#N canvas 66 34 450 300 Shelly 0;
#X obj 102 102 cnv 15 55 80 empty empty empty 20 12 0 14 -260097 -66577
0;
#X obj 107 29 inlet;
#X obj 107 50 routeOSC /Shelly;
#X floatatom 107 125 5 0 1 0 - - -;
#X floatatom 107 144 5 0 1 0 - - -;
#X floatatom 107 163 5 0 1 0 - - -;
#X obj 107 71 routeOSC /x;
#X obj 182 71 routeOSC /y;
#X obj 258 71 routeOSC /z;
#X obj 107 195 outlet;
#X obj 182 195 outlet;
#X obj 258 195 outlet;
#X text 107 102 Shelly;
#X text 141 124 x;
#X text 142 144 y;
#X text 141 161 z;
#X connect 1 0 2 0;
#X connect 2 0 6 0;
#X connect 2 0 7 0;
#X connect 2 0 8 0;
#X connect 3 0 9 0;
#X connect 4 0 10 0;
#X connect 5 0 11 0;
#X connect 6 0 3 0;
#X connect 7 0 4 0;
#X connect 8 0 5 0;
#X coords 0 -1 1 1 59 84 2 100 100;
#X restore 350 281 pd Shelly;
#N canvas 66 34 450 300 Shelly 0;
#X obj 102 102 cnv 15 55 80 empty empty empty 20 12 0 14 -260097 -66577
0;
#X obj 107 9 inlet;
#X floatatom 107 125 5 0 1 0 - - -;
#X floatatom 107 144 5 0 1 0 - - -;
#X floatatom 107 163 5 0 1 0 - - -;
#X obj 107 51 routeOSC /x;
#X obj 182 51 routeOSC /y;
#X obj 258 51 routeOSC /z;
#X obj 107 195 outlet;
#X obj 182 195 outlet;
#X obj 258 195 outlet;
#X text 141 124 x;
#X text 142 144 y;
#X text 141 161 z;
#X text 106 102 Julien;
#X obj 107 30 routeOSC /Julien;
#X obj 258 71 - 0.5;
#X obj 182 71 - 0.5;
#X obj 107 71 - 0.5;
#X connect 1 0 15 0;
#X connect 2 0 8 0;
#X connect 3 0 9 0;
#X connect 4 0 10 0;
#X connect 5 0 18 0;
#X connect 6 0 17 0;
#X connect 7 0 16 0;
#X connect 15 0 5 0;
#X connect 15 0 6 0;
#X connect 15 0 7 0;
#X connect 16 0 4 0;
#X connect 17 0 3 0;
#X connect 18 0 2 0;
#X coords 0 -1 1 1 59 84 2 100 100;
#X restore 123 281 pd Shelly;
#N canvas 69 32 450 300 Shelly 0;
#X obj 102 102 cnv 15 55 80 empty empty empty 20 12 0 14 -260097 -66577
0;
#X obj 107 29 inlet;
#X floatatom 107 125 5 0 1 0 - - -;
#X floatatom 107 144 5 0 1 0 - - -;
#X floatatom 107 163 5 0 1 0 - - -;
#X obj 107 71 routeOSC /x;
#X obj 182 71 routeOSC /y;
#X obj 258 71 routeOSC /z;
#X obj 107 195 outlet;
#X obj 182 195 outlet;
#X obj 258 195 outlet;
#X text 141 124 x;
#X text 142 144 y;
#X text 141 161 z;
#X text 107 102 les;
#X obj 107 50 routeOSC /Les;
#X connect 1 0 15 0;
#X connect 2 0 8 0;
#X connect 3 0 9 0;
#X connect 4 0 10 0;
#X connect 5 0 2 0;
#X connect 6 0 3 0;
#X connect 7 0 4 0;
#X connect 15 0 5 0;
#X connect 15 0 6 0;
#X connect 15 0 7 0;
#X coords 0 -1 1 1 59 84 2 100 100;
#X restore 582 282 pd Shelly;
#N canvas 68 24 450 300 play 0;
#X obj 153 28 tgl 30 1 empty empty empty 17 7 0 10 -258113 -1 -1 1
1;
#X msg 153 75 auto \$1;
#X obj 78 140 pix_film;
#X obj 139 140 f;
#X obj 78 110 inlet;
#X obj 78 170 outlet;
#X connect 0 0 1 0;
#X connect 1 0 2 0;
#X connect 2 0 5 0;
#X connect 2 2 3 0;
#X connect 3 0 2 1;
#X connect 4 0 2 0;
#X coords 0 -1 1 1 35 35 2 150 25;
#X restore 42 421 pd play;
#X obj 42 251 cnv 15 80 20 empty empty empty 20 12 0 14 -233017 -66577
0;
#X text 42 253 julien - top;
#N canvas 916 304 450 300 smove 0;
#X msg 88 76 250 600;
#X obj 88 51 inlet;
#X msg 158 76 -145 600;
#X obj 88 99 line;
#X obj 158 99 line;
#X floatatom 88 120 5 0 0 0 - - -;
#X obj 88 140 / 100;
#X floatatom 158 120 5 0 0 0 - - -;
#X obj 158 140 / 100;
#X obj 88 163 outlet;
#X obj 158 163 outlet;
#X connect 0 0 3 0;
#X connect 1 0 0 0;
#X connect 1 0 2 0;
#X connect 2 0 4 0;
#X connect 3 0 5 0;
#X connect 4 0 7 0;
#X connect 5 0 6 0;
#X connect 6 0 9 0;
#X connect 7 0 8 0;
#X connect 8 0 10 0;
#X restore 293 379 pd smove;
#X obj 270 335 translateXYZ;
#N canvas 858 186 450 300 shake 0;
#X obj 101 11 inlet;
#X obj 101 150 line;
#X floatatom 101 173 5 0 0 0 - - -;
#X msg 101 128 \$1 250;
#X obj 101 193 outlet;
#X obj 171 150 line;
#X floatatom 171 173 5 0 0 0 - - -;
#X msg 171 128 \$1 250;
#X obj 171 193 outlet;
#X obj 171 11 inlet;
#X obj 101 83 / 1;
#X obj 171 83 / 1;
#X connect 0 0 10 0;
#X connect 1 0 2 0;
#X connect 2 0 4 0;
#X connect 3 0 1 0;
#X connect 5 0 6 0;
#X connect 6 0 8 0;
#X connect 7 0 5 0;
#X connect 9 0 11 0;
#X connect 10 0 3 0;
#X connect 11 0 7 0;
#X restore 294 314 pd shake;
#X obj 270 400 translateXYZ;
#X obj 293 358 r emerge;
#X obj 270 459 pix_texture;
#X obj 270 251 cnv 15 80 20 empty empty empty 20 12 0 14 -233017 -66577
0;
#N canvas 68 24 450 300 play 0;
#X obj 153 28 tgl 30 1 empty empty empty 17 7 0 10 -258113 -1 -1 1
1;
#X msg 153 75 auto \$1;
#X obj 78 140 pix_film;
#X obj 139 140 f;
#X obj 78 110 inlet;
#X obj 78 170 outlet;
#X connect 0 0 1 0;
#X connect 1 0 2 0;
#X connect 2 0 5 0;
#X connect 2 2 3 0;
#X connect 3 0 2 1;
#X connect 4 0 2 0;
#X coords 0 -1 1 1 35 35 2 150 25;
#X restore 270 421 pd play;
#N canvas 70 24 450 300 loadvids 0;
#X obj 92 -54 loadbang;
#X msg 92 -34 location /home/hellocatfood/Desktop/XYZvid;
#X msg 92 117 open \$1;
#X obj 92 13 playlist .mov 100 100 {Helvetica 10 bold} #457782 yellow
black red;
#X obj 92 141 outlet;
#X obj 151 -54 inlet;
#X connect 0 0 1 0;
#X connect 1 0 3 0;
#X connect 2 0 4 0;
#X connect 3 0 2 0;
#X connect 5 0 3 0;
#X coords 0 -1 1 1 105 105 2 90 10;
#X restore 350 404 pd loadvids;
#N canvas 395 165 450 300 lmove 0;
#X msg 88 76 -250 600;
#X msg 158 76 -145 600;
#X obj 88 51 inlet;
#X obj 88 99 line;
#X obj 158 99 line;
#X floatatom 88 120 5 0 0 0 - - -;
#X obj 88 140 / 100;
#X floatatom 158 120 5 0 0 0 - - -;
#X obj 158 140 / 100;
#X obj 88 163 outlet;
#X obj 158 163 outlet;
#X connect 0 0 3 0;
#X connect 1 0 4 0;
#X connect 2 0 0 0;
#X connect 2 0 1 0;
#X connect 3 0 5 0;
#X connect 4 0 7 0;
#X connect 5 0 6 0;
#X connect 6 0 9 0;
#X connect 7 0 8 0;
#X connect 8 0 10 0;
#X restore 525 379 pd lmove;
#X obj 502 336 translateXYZ;
#N canvas 858 186 450 300 shake 0;
#X obj 101 11 inlet;
#X obj 101 150 line;
#X floatatom 101 173 5 0 0 0 - - -;
#X msg 101 128 \$1 250;
#X obj 101 193 outlet;
#X obj 171 150 line;
#X floatatom 171 173 5 0 0 0 - - -;
#X msg 171 128 \$1 250;
#X obj 171 193 outlet;
#X obj 171 11 inlet;
#X obj 101 83 / 1;
#X obj 171 83 / 1;
#X connect 0 0 10 0;
#X connect 1 0 2 0;
#X connect 2 0 4 0;
#X connect 3 0 1 0;
#X connect 5 0 6 0;
#X connect 6 0 8 0;
#X connect 7 0 5 0;
#X connect 9 0 11 0;
#X connect 10 0 3 0;
#X connect 11 0 7 0;
#X restore 526 315 pd shake;
#X obj 502 400 translateXYZ;
#X obj 525 358 r emerge;
#X obj 502 459 pix_texture;
#X obj 502 251 cnv 15 80 20 empty empty empty 20 12 0 14 -233017 -66577
0;
#N canvas 68 24 450 300 play 0;
#X obj 153 28 tgl 30 1 empty empty empty 17 7 0 10 -258113 -1 -1 1
1;
#X msg 153 75 auto \$1;
#X obj 78 140 pix_film;
#X obj 139 140 f;
#X obj 78 110 inlet;
#X obj 78 170 outlet;
#X connect 0 0 1 0;
#X connect 1 0 2 0;
#X connect 2 0 5 0;
#X connect 2 2 3 0;
#X connect 3 0 2 1;
#X connect 4 0 2 0;
#X coords 0 -1 1 1 35 35 2 150 25;
#X restore 502 421 pd play;
#N canvas 70 24 450 300 loadvids 0;
#X obj 92 -54 loadbang;
#X msg 92 -34 location /home/hellocatfood/Desktop/XYZvid;
#X msg 92 117 open \$1;
#X obj 92 13 playlist .mov 100 100 {Helvetica 10 bold} #457782 yellow
black red;
#X obj 92 141 outlet;
#X obj 151 -54 inlet;
#X connect 0 0 1 0;
#X connect 1 0 3 0;
#X connect 2 0 4 0;
#X connect 3 0 2 0;
#X connect 5 0 3 0;
#X coords 0 -1 1 1 105 105 2 90 10;
#X restore 582 404 pd loadvids;
#X text 270 253 shelly - right;
#X text 502 253 les - left;
#N canvas 354 304 450 300 messaging 0;
#X obj 63 33 cnv 15 242 80 empty empty empty 20 12 0 14 -228856 -66577
0;
#X obj 66 60 cnv 15 235 50 empty empty empty 20 12 0 14 -4034 -66577
0;
#X obj 225 254 udpsend;
#X obj 225 231 packOSC;
#X msg 225 206 connect 255.255.255.255 57120;
#X msg 225 180 disconnect;
#X obj 51 152 routeOSC /msg;
#X msg 145 152 send /bile/msg Antonio \$1;
#X symbolatom 69 63 30 0 0 0 - - -;
#X symbolatom 115 88 30 0 0 0 - - -;
#X obj 12 152 inlet;
#X obj 66 36 bng 15 250 50 0 empty empty empty 17 7 0 10 -260097 -1
-1;
#X obj 156 36 bng 15 250 50 0 empty empty empty 17 7 0 10 -258113 -1
-1;
#X text 82 34 connect;
#X text 172 34 disconnect;
#X text 272 62 send;
#X text 65 88 recieve;
#X obj 251 36 cnv 15 50 20 empty empty empty 20 12 0 14 -257985 -66577
0;
#X obj 338 99 s displaytext;
#X text 256 36 chat;
#X obj 51 173 print chat;
#X msg 51 194 set \$1;
#X connect 3 0 2 0;
#X connect 4 0 2 0;
#X connect 5 0 2 0;
#X connect 6 0 21 0;
#X connect 6 0 20 0;
#X connect 7 0 3 0;
#X connect 8 0 7 0;
#X connect 10 0 6 0;
#X connect 11 0 4 0;
#X connect 12 0 5 0;
#X connect 21 0 9 0;
#X connect 21 0 18 0;
#X coords 0 -1 1 1 248 86 2 60 30;
#X restore 35 155 pd messaging;
#N canvas 685 108 681 660 text 0;
#X obj 272 102 cnv 15 180 70 empty empty empty 20 12 0 14 -203904 -66577
0;
#X obj 276 248 translateXYZ;
#X symbolatom 276 128 28 0 0 0 - - -;
#X obj 276 273 loadbang;
#X msg 276 292 font /home/hellocatfood/.fonts/Orbitron-Black.ttf;
#X obj 279 150 hsl 40 15 -4 4 0 0 empty empty x 30 7 0 10 -260097 -1
-1 107 1;
#X obj 276 225 line;
#X obj 329 150 hsl 40 15 -4 4 0 0 empty empty y 30 7 0 10 -260097 -1
-1 3550 1;
#X obj 326 225 line;
#X obj 276 109 tgl 15 0 empty textrender empty 17 7 0 10 -260097 -1
-1 0 1;
#X text 293 107 render;
#X msg 309 345 \$1 100;
#X obj 309 365 line;
#X obj 336 104 cnv 15 110 20 empty empty empty 20 12 0 14 -257985 -66577
0;
#X obj 380 150 nbx 3 15 -1e+37 1e+37 0 0 empty empty empty 0 -8 0 10
-4034 -1 -1 40 256;
#X text 417 149 size;
#X obj 327 57 loadbang;
#X msg 326 205 \$1 100;
#X msg 276 205 \$1 100;
#X msg 276 315 text steal: \$1;
#X floatatom 326 185 5 0 0 0 - - -;
#X floatatom 276 185 5 0 0 0 - - -;
#X text 340 104 steal text;
#X msg 584 292 justify left base;
#X msg 327 77 -3.78;
#X msg 369 77 3.282;
#X obj 276 77 gemhead -40;
#X obj 276 385 text2d;
#X msg 412 77 40;
#X obj 42 40 routeOSC /steal;
#X obj 42 87 unpack s s s;
#X symbolatom 42 111 6 0 0 0 - - -;
#X symbolatom 82 111 6 0 0 0 - - -;
#X symbolatom 122 111 6 0 0 0 - - -;
#X obj 42 163 pack s s s;
#X obj 42 138 outlet;
#X obj 82 138 outlet;
#X obj 122 138 outlet;
#X obj 42 192 list2symbol;
#X obj 172 77 print steal;
#X obj 172 57 spigot;
#X obj 205 31 tgl 15 0 empty empty empty 17 7 0 10 -4034 -1 -1 0 1
;
#X text 225 31 print;
#X obj 42 14 inlet;
#X connect 1 0 27 0;
#X connect 2 0 19 0;
#X connect 3 0 4 0;
#X connect 3 0 23 0;
#X connect 3 0 19 0;
#X connect 4 0 27 0;
#X connect 5 0 21 0;
#X connect 6 0 1 1;
#X connect 7 0 20 0;
#X connect 8 0 1 2;
#X connect 9 0 26 0;
#X connect 11 0 12 0;
#X connect 12 0 27 1;
#X connect 14 0 11 0;
#X connect 16 0 24 0;
#X connect 16 0 25 0;
#X connect 16 0 28 0;
#X connect 17 0 8 0;
#X connect 18 0 6 0;
#X connect 19 0 27 0;
#X connect 20 0 17 0;
#X connect 21 0 18 0;
#X connect 23 0 27 0;
#X connect 24 0 5 0;
#X connect 25 0 7 0;
#X connect 26 0 1 0;
#X connect 28 0 14 0;
#X connect 29 0 30 0;
#X connect 29 0 40 0;
#X connect 30 0 31 0;
#X connect 30 1 32 0;
#X connect 30 2 33 0;
#X connect 31 0 34 0;
#X connect 31 0 35 0;
#X connect 32 0 34 1;
#X connect 32 0 36 0;
#X connect 33 0 34 2;
#X connect 33 0 37 0;
#X connect 34 0 38 0;
#X connect 38 0 2 0;
#X connect 40 0 39 0;
#X connect 41 0 40 1;
#X connect 43 0 29 0;
#X coords 0 -1 1 1 184 74 2 270 100;
#X restore 285 -134 pd text;
#N canvas 637 24 681 660 text 0;
#X obj 272 102 cnv 15 180 70 empty empty empty 20 12 0 14 -203904 -66577
0;
#X obj 276 248 translateXYZ;
#X symbolatom 276 128 28 0 0 0 - - -;
#X obj 276 273 loadbang;
#X msg 276 292 font /home/hellocatfood/.fonts/Orbitron-Black.ttf;
#X obj 279 150 hsl 40 15 -4 4 0 0 empty empty x 30 7 0 10 -260097 -1
-1 107 1;
#X obj 276 225 line;
#X obj 329 150 hsl 40 15 -4 4 0 0 empty empty y 30 7 0 10 -260097 -1
-1 2950 1;
#X obj 326 225 line;
#X obj 276 109 tgl 15 0 empty textrender empty 17 7 0 10 -260097 -1
-1 0 1;
#X text 293 107 render;
#X msg 309 345 \$1 100;
#X obj 309 365 line;
#X obj 336 104 cnv 15 110 20 empty empty empty 20 12 0 14 -257985 -66577
0;
#X obj 380 150 nbx 3 15 -1e+37 1e+37 0 0 empty empty empty 0 -8 0 10
-4034 -1 -1 40 256;
#X text 417 149 size;
#X obj 327 57 loadbang;
#X msg 326 205 \$1 100;
#X msg 276 205 \$1 100;
#X floatatom 326 185 5 0 0 0 - - -;
#X floatatom 276 185 5 0 0 0 - - -;
#X text 340 104 winner text;
#X msg 327 77 -3.78;
#X msg 584 292 justify left base;
#X msg 276 315 text winner: \$1;
#X msg 369 77 2.051;
#X obj 276 77 gemhead -50;
#X obj 275 386 text2d;
#X msg 411 77 40;
#X obj 32 85 unpack s s s;
#X symbolatom 32 109 6 0 0 0 - - -;
#X symbolatom 72 109 6 0 0 0 - - -;
#X symbolatom 112 109 6 0 0 0 - - -;
#X obj 32 161 pack s s s;
#X obj 32 136 outlet;
#X obj 72 136 outlet;
#X obj 112 136 outlet;
#X obj 32 38 routeOSC /winner;
#X obj 32 190 list2symbol;
#X obj 162 55 spigot;
#X obj 191 29 tgl 15 0 empty empty empty 17 7 0 10 -4034 -1 -1 0 1
;
#X text 211 29 print;
#X obj 162 75 print winner;
#X obj 32 12 inlet;
#X connect 1 0 27 0;
#X connect 2 0 24 0;
#X connect 3 0 4 0;
#X connect 3 0 23 0;
#X connect 3 0 24 0;
#X connect 4 0 27 0;
#X connect 5 0 20 0;
#X connect 6 0 1 1;
#X connect 7 0 19 0;
#X connect 8 0 1 2;
#X connect 9 0 26 0;
#X connect 11 0 12 0;
#X connect 12 0 27 1;
#X connect 14 0 11 0;
#X connect 16 0 22 0;
#X connect 16 0 25 0;
#X connect 16 0 28 0;
#X connect 17 0 8 0;
#X connect 18 0 6 0;
#X connect 19 0 17 0;
#X connect 20 0 18 0;
#X connect 22 0 5 0;
#X connect 23 0 27 0;
#X connect 24 0 27 0;
#X connect 25 0 7 0;
#X connect 26 0 1 0;
#X connect 28 0 14 0;
#X connect 29 0 30 0;
#X connect 29 1 31 0;
#X connect 29 2 32 0;
#X connect 30 0 33 0;
#X connect 30 0 34 0;
#X connect 31 0 33 1;
#X connect 31 0 35 0;
#X connect 32 0 33 2;
#X connect 32 0 36 0;
#X connect 33 0 38 0;
#X connect 37 0 29 0;
#X connect 37 0 39 0;
#X connect 38 0 2 0;
#X connect 39 0 42 0;
#X connect 40 0 39 1;
#X connect 43 0 37 0;
#X coords 0 -1 1 1 184 74 2 270 100;
#X restore 285 -55 pd text;
#N canvas 469 24 681 660 text 0;
#X obj 272 102 cnv 15 180 70 empty empty empty 20 12 0 14 -203904 -66577
0;
#X obj 276 248 translateXYZ;
#X symbolatom 276 128 28 0 0 0 - - -;
#X obj 276 273 loadbang;
#X msg 276 292 font /home/hellocatfood/.fonts/Orbitron-Black.ttf;
#X obj 279 150 hsl 40 15 -4 4 0 0 empty empty x 30 7 0 10 -260097 -1
-1 107 1;
#X obj 276 225 line;
#X obj 329 150 hsl 40 15 -4 4 0 0 empty empty y 30 7 0 10 -260097 -1
-1 2350 1;
#X obj 326 225 line;
#X obj 276 109 tgl 15 0 empty textrender empty 17 7 0 10 -260097 -1
-1 0 1;
#X text 293 107 render;
#X msg 309 345 \$1 100;
#X obj 309 365 line;
#X obj 336 104 cnv 15 110 20 empty empty empty 20 12 0 14 -257985 -66577
0;
#X obj 380 150 nbx 3 15 -1e+37 1e+37 0 0 empty empty empty 0 -8 0 10
-4034 -1 -1 40 256;
#X text 417 149 size;
#X obj 327 57 loadbang;
#X msg 326 205 \$1 100;
#X msg 276 205 \$1 100;
#X floatatom 326 185 5 0 0 0 - - -;
#X floatatom 276 185 5 0 0 0 - - -;
#X text 340 104 resign text;
#X msg 327 77 -3.78;
#X msg 584 292 justify left base;
#X msg 276 315 text resign: \$1;
#X msg 369 77 0.82;
#X obj 276 77 gemhead -60;
#X obj 276 386 text2d;
#X msg 411 77 40;
#X obj 37 55 inlet;
#X obj 37 125 unpack s s s;
#X symbolatom 37 149 6 0 0 0 - - -;
#X symbolatom 77 149 6 0 0 0 - - -;
#X symbolatom 117 149 6 0 0 0 - - -;
#X obj 37 201 pack s s s;
#X obj 37 176 outlet;
#X obj 77 176 outlet;
#X obj 117 176 outlet;
#X obj 37 78 routeOSC /resign;
#X obj 37 228 list2symbol;
#X obj 167 95 spigot;
#X obj 200 69 tgl 15 0 empty empty empty 17 7 0 10 -4034 -1 -1 0 1
;
#X text 220 69 print;
#X obj 167 115 print resign;
#X connect 1 0 27 0;
#X connect 2 0 24 0;
#X connect 3 0 4 0;
#X connect 3 0 23 0;
#X connect 3 0 24 0;
#X connect 4 0 27 0;
#X connect 5 0 20 0;
#X connect 6 0 1 1;
#X connect 7 0 19 0;
#X connect 8 0 1 2;
#X connect 9 0 26 0;
#X connect 11 0 12 0;
#X connect 12 0 27 1;
#X connect 14 0 11 0;
#X connect 16 0 22 0;
#X connect 16 0 25 0;
#X connect 16 0 28 0;
#X connect 17 0 8 0;
#X connect 18 0 6 0;
#X connect 19 0 17 0;
#X connect 20 0 18 0;
#X connect 22 0 5 0;
#X connect 23 0 27 0;
#X connect 24 0 27 0;
#X connect 25 0 7 0;
#X connect 26 0 1 0;
#X connect 28 0 14 0;
#X connect 29 0 38 0;
#X connect 30 0 31 0;
#X connect 30 1 32 0;
#X connect 30 2 33 0;
#X connect 31 0 34 0;
#X connect 31 0 35 0;
#X connect 32 0 34 1;
#X connect 32 0 36 0;
#X connect 33 0 34 2;
#X connect 33 0 37 0;
#X connect 34 0 39 0;
#X connect 38 0 30 0;
#X connect 38 0 40 0;
#X connect 39 0 2 0;
#X connect 40 0 43 0;
#X connect 41 0 40 1;
#X coords 0 -1 1 1 184 74 2 270 100;
#X restore 495 -135 pd text;
#N canvas 608 67 681 660 text 0;
#X obj 272 102 cnv 15 180 70 empty empty empty 20 12 0 14 -203904 -66577
0;
#X obj 276 248 translateXYZ;
#X symbolatom 276 128 28 0 0 0 - - -;
#X obj 276 273 loadbang;
#X msg 276 292 font /home/hellocatfood/.fonts/Orbitron-Black.ttf;
#X obj 279 150 hsl 40 15 -4 4 0 0 empty empty x 30 7 0 10 -260097 -1
-1 107 1;
#X obj 276 225 line;
#X obj 329 150 hsl 40 15 -4 4 0 0 empty empty y 30 7 0 10 -260097 -1
-1 1750 1;
#X obj 326 225 line;
#X obj 276 109 tgl 15 0 empty textrender empty 17 7 0 10 -260097 -1
-1 0 1;
#X text 293 107 render;
#X msg 309 345 \$1 100;
#X obj 309 365 line;
#X obj 336 104 cnv 15 110 20 empty empty empty 20 12 0 14 -257985 -66577
0;
#X obj 380 150 nbx 3 15 -1e+37 1e+37 0 0 empty empty empty 0 -8 0 10
-4034 -1 -1 40 256;
#X text 417 149 size;
#X obj 327 57 loadbang;
#X msg 326 205 \$1 100;
#X msg 276 205 \$1 100;
#X floatatom 326 185 5 0 0 0 - - -;
#X floatatom 276 185 5 0 0 0 - - -;
#X text 340 104 fighters text;
#X msg 327 77 -3.78;
#X msg 584 292 justify left base;
#X msg 276 315 text fighters: \$1;
#X msg 369 77 -0.41;
#X obj 276 77 gemhead -70;
#X obj 276 386 text2d;
#X msg 411 77 40;
#X obj 32 55 inlet;
#X obj 32 125 unpack s s s;
#X symbolatom 32 149 6 0 0 0 - - -;
#X symbolatom 72 149 6 0 0 0 - - -;
#X symbolatom 112 149 6 0 0 0 - - -;
#X obj 32 201 pack s s s;
#X obj 32 176 outlet;
#X obj 72 176 outlet;
#X obj 112 176 outlet;
#X obj 32 78 routeOSC /fighters;
#X obj 32 230 list2symbol;
#X obj 162 115 print steal;
#X obj 162 95 spigot;
#X obj 195 69 tgl 15 0 empty empty empty 17 7 0 10 -4034 -1 -1 0 1
;
#X text 215 69 print;
#X connect 1 0 27 0;
#X connect 2 0 24 0;
#X connect 3 0 4 0;
#X connect 3 0 23 0;
#X connect 3 0 24 0;
#X connect 4 0 27 0;
#X connect 5 0 20 0;
#X connect 6 0 1 1;
#X connect 7 0 19 0;
#X connect 8 0 1 2;
#X connect 9 0 26 0;
#X connect 11 0 12 0;
#X connect 12 0 27 1;
#X connect 14 0 11 0;
#X connect 16 0 22 0;
#X connect 16 0 25 0;
#X connect 16 0 28 0;
#X connect 17 0 8 0;
#X connect 18 0 6 0;
#X connect 19 0 17 0;
#X connect 20 0 18 0;
#X connect 22 0 5 0;
#X connect 23 0 27 0;
#X connect 24 0 27 0;
#X connect 25 0 7 0;
#X connect 26 0 1 0;
#X connect 28 0 14 0;
#X connect 29 0 38 0;
#X connect 30 0 31 0;
#X connect 30 1 32 0;
#X connect 30 2 33 0;
#X connect 31 0 34 0;
#X connect 31 0 35 0;
#X connect 32 0 34 1;
#X connect 32 0 36 0;
#X connect 33 0 34 2;
#X connect 33 0 37 0;
#X connect 34 0 39 0;
#X connect 38 0 30 0;
#X connect 38 0 41 0;
#X connect 39 0 2 0;
#X connect 41 0 40 0;
#X connect 42 0 41 1;
#X coords 0 -1 1 1 184 74 2 270 100;
#X restore 495 -55 pd text;
#X obj 209 -235 tgl 30 0 textrender empty empty 17 7 0 10 -258113 -1
-1 0 1;
#X obj 209 -275 loadbang;
#X obj 209 -255 t b b;
#X obj 35 -210 gemwin;
#X msg 35 -255 create \, 1;
#X msg 35 -233 0 \, destroy;
#X msg 108 -233 border 0;
#X msg 108 -255 cursor 0;
#X msg 108 -191 offset 1366 0;
#X obj 35 -275 import mrpeach;
#X text 248 -227 render text;
#X obj 697 -17 somepixeffects;
#X obj 857 -17 somepixeffects;
#N canvas 252 65 450 300 multiply 0;
#X obj 154 198 pix_mix;
#X obj 215 197 pix_multiply;
#X obj 154 108 shunt;
#X obj 257 108 shunt;
#X obj 144 5 hsl 180 40 0 1 0 0 empty empty empty 0 -20 0 20 -260097
-1 -1 0 1;
#X obj 330 5 tgl 40 0 empty empty empty 35 15 0 20 -260097 -1 -1 0
1;
#X obj 110 78 inlet;
#X obj 172 223 outlet;
#X obj 310 78 inlet;
#X obj 141 -25 spigot;
#X obj 184 -49 inlet;
#X obj 61 -48 r env4;
#X connect 0 0 7 0;
#X connect 1 0 7 0;
#X connect 2 0 0 0;
#X connect 2 1 1 0;
#X connect 3 0 0 1;
#X connect 3 1 1 1;
#X connect 4 0 0 2;
#X connect 5 0 2 1;
#X connect 5 0 3 1;
#X connect 6 0 2 0;
#X connect 8 0 3 0;
#X connect 9 0 4 0;
#X connect 10 0 9 1;
#X connect 11 0 9 0;
#X coords 0 -1 1 1 242 50 2 135 0;
#X restore 738 266 pd multiply;
#X text 928 246 multiply;
#X text 847 246 mix;
#N canvas 59 24 450 300 preview 0;
#X obj 222 14 cnv 15 120 143 empty empty empty 20 12 0 14 -85113 -66577
0;
#X obj 47 110 pix_texture;
#X obj 127 230 #downscale_by 6;
#X obj 127 197 #from_pix;
#X obj 47 85 inlet;
#X obj 226 18 tgl 20 0 previews empty empty 17 7 0 10 -260097 -1 -1
0 1;
#X text 250 17 preview on/off;
#X obj 127 152 spigot;
#X obj 47 257 scaleXYZ;
#X obj 47 280 outlet;
#X floatatom 226 138 5 0 0 0 - - -;
#X text 263 137 scale tex;
#X obj 225 43 #see;
#X obj 127 132 separator;
#X obj 47 132 separator;
#X connect 1 0 13 0;
#X connect 1 0 14 0;
#X connect 2 0 12 0;
#X connect 3 0 2 0;
#X connect 4 0 1 0;
#X connect 5 0 7 1;
#X connect 7 0 3 0;
#X connect 8 0 9 0;
#X connect 10 0 8 3;
#X connect 13 0 7 0;
#X connect 14 0 8 0;
#X coords 0 -1 1 1 124 147 2 220 12;
#X restore 776 323 pd preview;
#X obj 776 480 scaleXYZ;
#X obj 777 501 square;
#X obj 738 246 tgl 20 0 empty empty empty 17 7 0 10 -257985 -1 -1 0
1;
#N canvas 66 24 450 300 scaletext 0;
#X floatatom 103 103 3 0 15 0 - - -;
#X floatatom 103 124 3 0 5 0 - - -;
#X obj 54 105 line;
#X obj 54 155 line;
#X obj 24 194 outlet;
#X obj 74 194 outlet;
#X msg 54 84 \$1 200;
#X msg 54 133 \$1 200;
#X obj 101 55 loadbang;
#X msg 101 76 6;
#X msg 132 76 4;
#X connect 0 0 6 0;
#X connect 1 0 7 0;
#X connect 2 0 4 0;
#X connect 3 0 5 0;
#X connect 6 0 2 0;
#X connect 7 0 3 0;
#X connect 8 0 9 0;
#X connect 8 0 10 0;
#X connect 9 0 0 0;
#X connect 10 0 1 0;
#X coords 0 -1 1 1 25 43 2 100 100;
#X restore 836 478 pd scaletext;
#X text 862 481 x;
#X text 862 502 y;
#X text 760 246 gen;
#N canvas 59 24 450 300 fading 0;
#X obj 102 63 bng 25 250 50 0 fading empty empty 17 7 0 10 -260097
-1 -1;
#X obj 102 33 bng 25 250 50 0 fading empty empty 17 7 0 10 -257985
-1 -1;
#X obj 163 124 line;
#X obj 163 165 s fading;
#X obj 163 145 / 100;
#X msg 103 103 0 1000;
#X msg 163 103 100 1000;
#X connect 0 0 5 0;
#X connect 1 0 6 0;
#X connect 2 0 4 0;
#X connect 4 0 3 0;
#X connect 5 0 2 0;
#X connect 6 0 2 0;
#X coords 0 -1 1 1 30 60 2 100 30;
#X restore 907 353 pd fading;
#X text 938 360 fade in;
#X text 938 387 fade out;
#X text 886 481 7;
#X text 889 505 5;
#X msg 697 -154 open \$1;
#X msg 857 -154 open \$1;
#X obj 1017 -151 soundvalues;
#X obj 1206 142 bng 15 250 50 0 amp1 empty empty 17 7 0 10 -260097
-1 -1;
#X text 1223 141 up;
#X obj 1206 163 bng 15 250 50 0 amp5 empty empty 17 7 0 10 -260097
-1 -1;
#X obj 1206 183 bng 15 250 50 0 amp10 empty empty 17 7 0 10 -260097
-1 -1;
#X text 1223 161 mid;
#X text 1223 181 down;
#X obj 1017 -177 nbx 5 20 1 300 0 0 empty empty empty 0 -8 0 10 -260097
-1 -1 1 256;
#N canvas 70 24 450 300 loadvids 0;
#X obj 92 -54 loadbang;
#X obj 92 13 playlist .mov 100 100 {Helvetica 10 bold} #457782 yellow
black red;
#X obj 92 141 outlet;
#X obj 151 -54 inlet;
#X msg 92 -34 location /home/hellocatfood/Desktop/XYZvid/Backvids;
#X connect 0 0 4 0;
#X connect 1 0 2 0;
#X connect 3 0 1 0;
#X connect 4 0 1 0;
#X coords 0 -1 1 1 105 105 2 90 10;
#X restore 697 -262 pd loadvids;
#N canvas 70 24 450 300 loadvids 0;
#X obj 92 -54 loadbang;
#X obj 92 13 playlist .mov 100 100 {Helvetica 10 bold} #457782 yellow
black red;
#X obj 92 141 outlet;
#X obj 151 -54 inlet;
#X msg 92 -34 location /home/hellocatfood/Desktop/XYZvid/Backvids;
#X connect 0 0 4 0;
#X connect 1 0 2 0;
#X connect 3 0 1 0;
#X connect 4 0 1 0;
#X coords 0 -1 1 1 105 105 2 90 10;
#X restore 857 -262 pd loadvids;
#X obj 697 -134 player;
#X obj 857 -134 player;
#X obj 42 281 gemhead -10;
#X obj 270 281 gemhead -20;
#X obj 502 282 gemhead -30;
#X obj 42 488 square;
#X obj 270 488 square;
#N canvas 75 92 450 300 xtext 0;
#X obj 94 70 text2d;
#X msg 224 -60 text x: \$1;
#X obj 94 11 translateXYZ;
#X floatatom 224 54 5 0 0 0 - - -;
#X obj 224 -82 inlet;
#X obj 224 13 loadbang;
#X obj 94 -164 gemhead -100;
#X obj 94 -137 loadbang;
#X msg 94 -118 font /home/hellocatfood/.fonts/Orbitron-Black.ttf;
#X msg 402 -118 justify left base;
#X floatatom 151 -13 5 0 0 0 - - -;
#X floatatom 117 -13 5 0 0 0 - - -;
#X msg 224 34 25;
#X obj 117 -56 loadbang;
#X msg 151 -35 -0.56;
#X msg 117 -35 2;
#X obj 136 -185 inlet;
#X obj 94 43 color 1 0 0;
#X connect 1 0 0 0;
#X connect 2 0 17 0;
#X connect 3 0 0 1;
#X connect 4 0 1 0;
#X connect 5 0 12 0;
#X connect 6 0 2 0;
#X connect 7 0 8 0;
#X connect 7 0 9 0;
#X connect 8 0 0 0;
#X connect 9 0 0 0;
#X connect 10 0 2 2;
#X connect 11 0 2 1;
#X connect 12 0 3 0;
#X connect 13 0 15 0;
#X connect 13 0 14 0;
#X connect 13 0 1 0;
#X connect 14 0 10 0;
#X connect 15 0 11 0;
#X connect 16 0 6 0;
#X connect 17 0 0 0;
#X restore 420 281 pd xtext;
#N canvas 643 188 450 300 ytext 0;
#X obj 94 70 text2d;
#X obj 94 11 translateXYZ;
#X floatatom 224 54 5 0 0 0 - - -;
#X obj 224 -82 inlet;
#X obj 224 13 loadbang;
#X obj 94 -164 gemhead -100;
#X obj 94 -137 loadbang;
#X msg 94 -117 font /home/hellocatfood/.fonts/Orbitron-Black.ttf;
#X msg 403 -118 justify left base;
#X floatatom 151 -13 5 0 0 0 - - -;
#X floatatom 117 -13 5 0 0 0 - - -;
#X msg 224 34 25;
#X obj 117 -56 loadbang;
#X msg 151 -35 -2.52;
#X msg 224 -60 text y: \$1;
#X msg 117 -35 1.19;
#X obj 136 -185 inlet;
#X obj 94 43 color 1 0 0;
#X connect 1 0 17 0;
#X connect 2 0 0 1;
#X connect 3 0 14 0;
#X connect 4 0 11 0;
#X connect 5 0 1 0;
#X connect 6 0 7 0;
#X connect 6 0 8 0;
#X connect 7 0 0 0;
#X connect 8 0 0 0;
#X connect 9 0 1 2;
#X connect 10 0 1 1;
#X connect 11 0 2 0;
#X connect 12 0 15 0;
#X connect 12 0 13 0;
#X connect 12 0 14 0;
#X connect 13 0 9 0;
#X connect 14 0 0 0;
#X connect 15 0 10 0;
#X connect 16 0 5 0;
#X connect 17 0 0 0;
#X restore 420 301 pd ytext;
#N canvas 113 84 450 300 ztext 0;
#X obj 94 70 text2d;
#X obj 94 11 translateXYZ;
#X floatatom 224 54 5 0 0 0 - - -;
#X obj 224 -82 inlet;
#X obj 224 13 loadbang;
#X obj 94 -164 gemhead -100;
#X obj 94 -137 loadbang;
#X msg 94 -118 font /home/hellocatfood/.fonts/Orbitron-Black.ttf;
#X msg 402 -118 justify left base;
#X floatatom 151 -13 5 0 0 0 - - -;
#X floatatom 117 -13 5 0 0 0 - - -;
#X msg 224 34 25;
#X obj 117 -56 loadbang;
#X msg 117 -35 2.91;
#X msg 151 -35 -1.88;
#X msg 224 -60 text z: \$1;
#X obj 136 -185 inlet;
#X obj 94 43 color 1 0 0;
#X connect 1 0 17 0;
#X connect 2 0 0 1;
#X connect 3 0 15 0;
#X connect 4 0 11 0;
#X connect 5 0 1 0;
#X connect 6 0 7 0;
#X connect 6 0 8 0;
#X connect 7 0 0 0;
#X connect 8 0 0 0;
#X connect 9 0 1 2;
#X connect 10 0 1 1;
#X connect 11 0 2 0;
#X connect 12 0 13 0;
#X connect 12 0 14 0;
#X connect 12 0 15 0;
#X connect 13 0 10 0;
#X connect 14 0 9 0;
#X connect 15 0 0 0;
#X connect 16 0 5 0;
#X connect 17 0 0 0;
#X restore 420 321 pd ztext;
#N canvas 267 92 450 300 xtext 0;
#X obj 94 70 text2d;
#X msg 224 -60 text x: \$1;
#X obj 94 11 translateXYZ;
#X floatatom 224 54 5 0 0 0 - - -;
#X obj 224 -82 inlet;
#X obj 224 13 loadbang;
#X obj 94 -164 gemhead -100;
#X obj 94 -137 loadbang;
#X msg 94 -118 font /home/hellocatfood/.fonts/Orbitron-Black.ttf;
#X msg 402 -118 justify left base;
#X floatatom 151 -13 5 0 0 0 - - -;
#X floatatom 117 -13 5 0 0 0 - - -;
#X msg 224 34 25;
#X obj 117 -56 loadbang;
#X msg 117 -35 -3;
#X msg 151 -35 -0.56;
#X obj 136 -185 inlet;
#X obj 94 43 color 0 1 0;
#X connect 1 0 0 0;
#X connect 2 0 17 0;
#X connect 3 0 0 1;
#X connect 4 0 1 0;
#X connect 5 0 12 0;
#X connect 6 0 2 0;
#X connect 7 0 8 0;
#X connect 7 0 9 0;
#X connect 8 0 0 0;
#X connect 9 0 0 0;
#X connect 10 0 2 2;
#X connect 11 0 2 1;
#X connect 12 0 3 0;
#X connect 13 0 14 0;
#X connect 13 0 15 0;
#X connect 13 0 1 0;
#X connect 14 0 11 0;
#X connect 15 0 10 0;
#X connect 16 0 6 0;
#X connect 17 0 0 0;
#X restore 650 281 pd xtext;
#N canvas 739 405 450 300 ytext 0;
#X obj 94 70 text2d;
#X obj 94 11 translateXYZ;
#X floatatom 224 54 5 0 0 0 - - -;
#X obj 224 -82 inlet;
#X obj 224 13 loadbang;
#X obj 94 -164 gemhead -100;
#X obj 94 -137 loadbang;
#X msg 94 -118 font /home/hellocatfood/.fonts/Orbitron-Black.ttf;
#X msg 402 -118 justify left base;
#X floatatom 151 -13 5 0 0 0 - - -;
#X floatatom 117 -13 5 0 0 0 - - -;
#X msg 224 34 25;
#X obj 117 -56 loadbang;
#X msg 117 -35 -3.65;
#X msg 151 -35 -2.52;
#X msg 224 -60 text y: \$1;
#X obj 136 -185 inlet;
#X obj 94 43 color 0 1 0;
#X connect 1 0 17 0;
#X connect 2 0 0 1;
#X connect 3 0 15 0;
#X connect 4 0 11 0;
#X connect 5 0 1 0;
#X connect 6 0 7 0;
#X connect 6 0 8 0;
#X connect 7 0 0 0;
#X connect 8 0 0 0;
#X connect 9 0 1 2;
#X connect 10 0 1 1;
#X connect 11 0 2 0;
#X connect 12 0 13 0;
#X connect 12 0 14 0;
#X connect 12 0 15 0;
#X connect 13 0 10 0;
#X connect 14 0 9 0;
#X connect 15 0 0 0;
#X connect 16 0 5 0;
#X connect 17 0 0 0;
#X restore 650 301 pd ytext;
#N canvas 487 98 450 300 ztext 0;
#X obj 94 80 text2d;
#X obj 94 11 translateXYZ;
#X floatatom 224 64 5 0 0 0 - - -;
#X obj 224 -82 inlet;
#X obj 224 23 loadbang;
#X obj 94 -164 gemhead -100;
#X obj 94 -137 loadbang;
#X msg 94 -118 font /home/hellocatfood/.fonts/Orbitron-Black.ttf;
#X msg 402 -118 justify left base;
#X floatatom 151 -13 5 0 0 0 - - -;
#X floatatom 117 -13 5 0 0 0 - - -;
#X msg 224 44 25;
#X obj 117 -56 loadbang;
#X msg 117 -35 -2.09;
#X msg 224 -60 text z: \$1;
#X msg 151 -35 -1.88;
#X obj 136 -185 inlet;
#X obj 94 43 color 0 1 0;
#X connect 1 0 17 0;
#X connect 2 0 0 1;
#X connect 3 0 14 0;
#X connect 4 0 11 0;
#X connect 5 0 1 0;
#X connect 6 0 7 0;
#X connect 6 0 8 0;
#X connect 7 0 0 0;
#X connect 8 0 0 0;
#X connect 9 0 1 2;
#X connect 10 0 1 1;
#X connect 11 0 2 0;
#X connect 12 0 13 0;
#X connect 12 0 15 0;
#X connect 12 0 14 0;
#X connect 13 0 10 0;
#X connect 14 0 0 0;
#X connect 15 0 9 0;
#X connect 16 0 5 0;
#X connect 17 0 0 0;
#X restore 650 321 pd ztext;
#N canvas 307 164 450 300 xtext 0;
#X msg 224 -60 text x: \$1;
#X obj 94 11 translateXYZ;
#X floatatom 224 54 5 0 0 0 - - -;
#X obj 224 -82 inlet;
#X obj 224 13 loadbang;
#X obj 94 -164 gemhead -100;
#X obj 94 -137 loadbang;
#X msg 94 -118 font /home/hellocatfood/.fonts/Orbitron-Black.ttf;
#X msg 402 -118 justify left base;
#X floatatom 151 -13 5 0 0 0 - - -;
#X floatatom 117 -13 5 0 0 0 - - -;
#X msg 224 34 25;
#X obj 117 -56 loadbang;
#X msg 117 -35 -0.37;
#X msg 151 -35 3.44;
#X obj 136 -185 inlet;
#X obj 94 70 text2d;
#X obj 94 44 color 0 0 1;
#X connect 0 0 16 0;
#X connect 1 0 17 0;
#X connect 2 0 16 1;
#X connect 3 0 0 0;
#X connect 4 0 11 0;
#X connect 5 0 1 0;
#X connect 6 0 7 0;
#X connect 6 0 8 0;
#X connect 7 0 16 0;
#X connect 8 0 16 0;
#X connect 9 0 1 2;
#X connect 10 0 1 1;
#X connect 11 0 2 0;
#X connect 12 0 13 0;
#X connect 12 0 14 0;
#X connect 12 0 0 0;
#X connect 13 0 10 0;
#X connect 14 0 9 0;
#X connect 15 0 5 0;
#X connect 17 0 16 0;
#X restore 190 281 pd xtext;
#N canvas 111 236 450 300 ytext 0;
#X obj 94 70 text2d;
#X obj 94 11 translateXYZ;
#X floatatom 224 54 5 0 0 0 - - -;
#X obj 224 -82 inlet;
#X obj 224 13 loadbang;
#X obj 94 -164 gemhead -100;
#X obj 94 -137 loadbang;
#X msg 94 -118 font /home/hellocatfood/.fonts/Orbitron-Black.ttf;
#X msg 402 -118 justify left base;
#X floatatom 151 -13 5 0 0 0 - - -;
#X floatatom 117 -13 5 0 0 0 - - -;
#X msg 224 34 25;
#X obj 117 -56 loadbang;
#X msg 117 -35 -1.27;
#X msg 151 -35 1.42;
#X msg 224 -60 text y: \$1;
#X obj 136 -185 inlet;
#X obj 94 43 color 0 0 1;
#X connect 1 0 17 0;
#X connect 2 0 0 1;
#X connect 3 0 15 0;
#X connect 4 0 11 0;
#X connect 5 0 1 0;
#X connect 6 0 7 0;
#X connect 6 0 8 0;
#X connect 7 0 0 0;
#X connect 8 0 0 0;
#X connect 9 0 1 2;
#X connect 10 0 1 1;
#X connect 11 0 2 0;
#X connect 12 0 14 0;
#X connect 12 0 13 0;
#X connect 12 0 15 0;
#X connect 13 0 10 0;
#X connect 14 0 9 0;
#X connect 15 0 0 0;
#X connect 16 0 5 0;
#X connect 17 0 0 0;
#X restore 190 301 pd ytext;
#N canvas 385 88 450 300 ztext 0;
#X obj 94 70 text2d;
#X obj 94 11 translateXYZ;
#X floatatom 224 54 5 0 0 0 - - -;
#X obj 224 -82 inlet;
#X obj 224 13 loadbang;
#X obj 94 -164 gemhead -100;
#X obj 94 -137 loadbang;
#X msg 94 -118 font /home/hellocatfood/.fonts/Orbitron-Black.ttf;
#X msg 402 -118 justify left base;
#X floatatom 151 -13 5 0 0 0 - - -;
#X floatatom 117 -13 5 0 0 0 - - -;
#X msg 224 34 25;
#X obj 117 -56 loadbang;
#X msg 117 -35 0.5;
#X msg 224 -60 text z: \$1;
#X msg 151 -35 2.43;
#X obj 136 -185 inlet;
#X obj 94 43 color 0 0 1;
#X connect 1 0 17 0;
#X connect 2 0 0 1;
#X connect 3 0 14 0;
#X connect 4 0 11 0;
#X connect 5 0 1 0;
#X connect 6 0 7 0;
#X connect 6 0 8 0;
#X connect 7 0 0 0;
#X connect 8 0 0 0;
#X connect 9 0 1 2;
#X connect 10 0 1 1;
#X connect 11 0 2 0;
#X connect 12 0 13 0;
#X connect 12 0 15 0;
#X connect 12 0 14 0;
#X connect 13 0 10 0;
#X connect 14 0 0 0;
#X connect 15 0 9 0;
#X connect 16 0 5 0;
#X connect 17 0 0 0;
#X restore 190 321 pd ztext;
#X obj 502 488 square;
#X obj 190 261 tgl 15 0 empty textrender empty 17 7 0 10 -257985 -1
-1 0 1;
#X obj 420 261 tgl 15 0 empty textrender empty 17 7 0 10 -257985 -1
-1 0 1;
#X obj 650 261 tgl 15 0 empty textrender empty 17 7 0 10 -257985 -1
-1 0 1;
#X connect 0 0 50 0;
#X connect 1 0 2 0;
#X connect 2 0 3 0;
#X connect 3 0 17 0;
#X connect 3 0 16 0;
#X connect 3 0 18 0;
#X connect 3 0 42 0;
#X connect 3 0 43 0;
#X connect 3 0 44 0;
#X connect 3 0 45 0;
#X connect 3 0 46 0;
#X connect 5 0 7 0;
#X connect 6 0 5 1;
#X connect 6 1 5 2;
#X connect 7 0 19 0;
#X connect 8 0 7 1;
#X connect 8 1 7 2;
#X connect 12 0 8 0;
#X connect 14 0 93 0;
#X connect 15 0 19 0;
#X connect 16 0 24 0;
#X connect 16 0 95 1;
#X connect 16 1 24 1;
#X connect 16 1 96 1;
#X connect 16 2 97 1;
#X connect 17 0 6 0;
#X connect 17 0 101 1;
#X connect 17 1 6 1;
#X connect 17 1 102 1;
#X connect 17 2 103 1;
#X connect 18 0 33 0;
#X connect 18 0 98 1;
#X connect 18 1 33 1;
#X connect 18 1 99 1;
#X connect 18 2 100 1;
#X connect 19 0 14 0;
#X connect 22 0 25 1;
#X connect 22 1 25 2;
#X connect 23 0 25 0;
#X connect 24 0 23 1;
#X connect 24 1 23 2;
#X connect 25 0 29 0;
#X connect 26 0 22 0;
#X connect 27 0 94 0;
#X connect 29 0 27 0;
#X connect 30 0 29 0;
#X connect 31 0 34 1;
#X connect 31 1 34 2;
#X connect 32 0 34 0;
#X connect 33 0 32 1;
#X connect 33 1 32 2;
#X connect 34 0 38 0;
#X connect 35 0 31 0;
#X connect 36 0 104 0;
#X connect 38 0 36 0;
#X connect 39 0 38 0;
#X connect 48 0 49 0;
#X connect 49 0 47 0;
#X connect 49 1 47 0;
#X connect 51 0 50 0;
#X connect 52 0 50 0;
#X connect 53 0 50 0;
#X connect 54 0 50 0;
#X connect 55 0 50 0;
#X connect 58 0 60 0;
#X connect 59 0 60 2;
#X connect 60 0 63 0;
#X connect 63 0 64 0;
#X connect 64 0 65 0;
#X connect 66 0 60 1;
#X connect 67 0 64 1;
#X connect 67 1 64 2;
#X connect 76 0 88 0;
#X connect 77 0 89 0;
#X connect 85 0 78 0;
#X connect 86 0 76 0;
#X connect 87 0 77 0;
#X connect 88 0 58 0;
#X connect 89 0 59 0;
#X connect 90 0 5 0;
#X connect 91 0 23 0;
#X connect 92 0 32 0;
#X connect 105 0 101 0;
#X connect 105 0 102 0;
#X connect 105 0 103 0;
#X connect 106 0 95 0;
#X connect 106 0 96 0;
#X connect 106 0 97 0;
#X connect 107 0 98 0;
#X connect 107 0 99 0;
#X connect 107 0 100 0;
