#N canvas 70 24 648 660 10;
#X declare -lib mrpeach;
#X msg 108 -142 dimen 1366 795;
#X obj 35 90 udpreceive 57120;
#X obj 35 112 unpackOSC;
#X obj 35 133 routeOSC /bile;
#X obj 35 246 cnv 15 220 270 empty empty empty 20 12 0 14 -16662 -66577
0;
#X obj 42 336 translateXYZ;
#N canvas 858 186 450 300 shake 0;
#X obj 101 11 inlet;
#X obj 101 150 line;
#X floatatom 101 173 5 0 0 0 - - -;
#X msg 101 128 \$1 250;
#X obj 101 193 outlet;
#X obj 171 150 line;
#X floatatom 171 173 5 0 0 0 - - -;
#X msg 171 128 \$1 250;
#X obj 171 193 outlet;
#X obj 171 11 inlet;
#X obj 101 83 / 1;
#X obj 171 83 / 1;
#X connect 0 0 10 0;
#X connect 1 0 2 0;
#X connect 2 0 4 0;
#X connect 3 0 1 0;
#X connect 5 0 6 0;
#X connect 6 0 8 0;
#X connect 7 0 5 0;
#X connect 9 0 11 0;
#X connect 10 0 3 0;
#X connect 11 0 7 0;
#X restore 66 315 pd shake;
#X obj 42 400 translateXYZ;
#N canvas 836 405 450 300 jmove 0;
#X msg 158 76 250 600;
#X msg 87 77 0 600;
#X obj 87 51 inlet;
#X obj 87 100 line;
#X obj 158 100 line;
#X floatatom 87 121 5 0 0 0 - - -;
#X obj 87 141 / 100;
#X floatatom 158 121 5 0 0 0 - - -;
#X obj 158 141 / 100;
#X obj 87 164 outlet;
#X obj 158 164 outlet;
#X connect 0 0 4 0;
#X connect 1 0 3 0;
#X connect 2 0 1 0;
#X connect 2 0 0 0;
#X connect 3 0 5 0;
#X connect 4 0 7 0;
#X connect 5 0 6 0;
#X connect 6 0 9 0;
#X connect 7 0 8 0;
#X connect 8 0 10 0;
#X restore 65 379 pd jmove;
#X obj 265 246 cnv 15 220 270 empty empty empty 20 12 0 14 -4034 -66577
0;
#X obj 495 246 cnv 15 220 270 empty empty empty 20 12 0 14 -159808
-66577 0;
#X obj 209 -125 bng 30 250 50 0 emerge empty empty 17 7 0 10 -258113
-1 -1;
#X obj 65 358 r emerge;
#X text 248 -117 emerge;
#X obj 42 281 gemhead 1;
#X obj 42 459 pix_texture;
#N canvas 70 24 450 300 loadvids 0;
#X obj 92 -54 loadbang;
#X msg 92 -34 location /home/hellocatfood/Desktop/XYZvid;
#X msg 92 117 open \$1;
#X obj 92 13 playlist .mov 100 100 {Helvetica 10 bold} #457782 yellow
black red;
#X obj 92 141 outlet;
#X obj 151 -54 inlet;
#X connect 0 0 1 0;
#X connect 1 0 3 0;
#X connect 2 0 4 0;
#X connect 3 0 2 0;
#X connect 5 0 3 0;
#X coords 0 -1 1 1 105 105 2 90 10;
#X restore 122 404 pd loadvids;
#X msg 122 379 seek 1;
#X msg 172 379 seek 2;
#N canvas 66 34 450 300 Shelly 0;
#X obj 102 102 cnv 15 55 80 empty empty empty 20 12 0 14 -260097 -66577
0;
#X obj 107 29 inlet;
#X obj 107 50 routeOSC /Shelly;
#X floatatom 107 125 5 0 1 0 - - -;
#X floatatom 107 144 5 0 1 0 - - -;
#X floatatom 107 163 5 0 1 0 - - -;
#X obj 107 71 routeOSC /x;
#X obj 182 71 routeOSC /y;
#X obj 258 71 routeOSC /z;
#X obj 107 195 outlet;
#X obj 182 195 outlet;
#X obj 258 195 outlet;
#X text 107 102 Shelly;
#X text 141 124 x;
#X text 142 144 y;
#X text 141 161 z;
#X connect 1 0 2 0;
#X connect 2 0 6 0;
#X connect 2 0 7 0;
#X connect 2 0 8 0;
#X connect 3 0 9 0;
#X connect 4 0 10 0;
#X connect 5 0 11 0;
#X connect 6 0 3 0;
#X connect 7 0 4 0;
#X connect 8 0 5 0;
#X coords 0 -1 1 1 59 84 2 100 100;
#X restore 350 281 pd Shelly;
#N canvas 66 34 450 300 Shelly 0;
#X obj 102 102 cnv 15 55 80 empty empty empty 20 12 0 14 -260097 -66577
0;
#X obj 107 9 inlet;
#X floatatom 107 125 5 0 1 0 - - -;
#X floatatom 107 144 5 0 1 0 - - -;
#X floatatom 107 163 5 0 1 0 - - -;
#X obj 107 51 routeOSC /x;
#X obj 182 51 routeOSC /y;
#X obj 258 51 routeOSC /z;
#X obj 107 195 outlet;
#X obj 182 195 outlet;
#X obj 258 195 outlet;
#X text 141 124 x;
#X text 142 144 y;
#X text 141 161 z;
#X text 106 102 Julien;
#X obj 107 30 routeOSC /Julien;
#X obj 258 71 - 0.5;
#X obj 182 71 - 0.5;
#X obj 107 71 - 0.5;
#X connect 1 0 15 0;
#X connect 2 0 8 0;
#X connect 3 0 9 0;
#X connect 4 0 10 0;
#X connect 5 0 18 0;
#X connect 6 0 17 0;
#X connect 7 0 16 0;
#X connect 15 0 5 0;
#X connect 15 0 6 0;
#X connect 15 0 7 0;
#X connect 16 0 4 0;
#X connect 17 0 3 0;
#X connect 18 0 2 0;
#X coords 0 -1 1 1 59 84 2 100 100;
#X restore 123 281 pd Shelly;
#N canvas 69 32 450 300 Shelly 0;
#X obj 102 102 cnv 15 55 80 empty empty empty 20 12 0 14 -260097 -66577
0;
#X obj 107 29 inlet;
#X floatatom 107 125 5 0 1 0 - - -;
#X floatatom 107 144 5 0 1 0 - - -;
#X floatatom 107 163 5 0 1 0 - - -;
#X obj 107 71 routeOSC /x;
#X obj 182 71 routeOSC /y;
#X obj 258 71 routeOSC /z;
#X obj 107 195 outlet;
#X obj 182 195 outlet;
#X obj 258 195 outlet;
#X text 141 124 x;
#X text 142 144 y;
#X text 141 161 z;
#X text 107 102 les;
#X obj 107 50 routeOSC /Les;
#X connect 1 0 15 0;
#X connect 2 0 8 0;
#X connect 3 0 9 0;
#X connect 4 0 10 0;
#X connect 5 0 2 0;
#X connect 6 0 3 0;
#X connect 7 0 4 0;
#X connect 15 0 5 0;
#X connect 15 0 6 0;
#X connect 15 0 7 0;
#X coords 0 -1 1 1 59 84 2 100 100;
#X restore 582 282 pd Shelly;
#N canvas 68 24 450 300 play 0;
#X obj 153 28 tgl 30 1 empty empty empty 17 7 0 10 -258113 -1 -1 1
1;
#X msg 153 75 auto \$1;
#X obj 78 140 pix_film;
#X obj 139 140 f;
#X obj 78 110 inlet;
#X obj 78 170 outlet;
#X connect 0 0 1 0;
#X connect 1 0 2 0;
#X connect 2 0 5 0;
#X connect 2 2 3 0;
#X connect 3 0 2 1;
#X connect 4 0 2 0;
#X coords 0 -1 1 1 35 35 2 150 25;
#X restore 42 421 pd play;
#X obj 42 251 cnv 15 80 20 empty empty empty 20 12 0 14 -233017 -66577
0;
#X text 42 253 julien - top;
#N canvas 916 304 450 300 smove 0;
#X msg 88 76 250 600;
#X obj 88 51 inlet;
#X msg 158 76 -145 600;
#X obj 88 99 line;
#X obj 158 99 line;
#X floatatom 88 120 5 0 0 0 - - -;
#X obj 88 140 / 100;
#X floatatom 158 120 5 0 0 0 - - -;
#X obj 158 140 / 100;
#X obj 88 163 outlet;
#X obj 158 163 outlet;
#X connect 0 0 3 0;
#X connect 1 0 0 0;
#X connect 1 0 2 0;
#X connect 2 0 4 0;
#X connect 3 0 5 0;
#X connect 4 0 7 0;
#X connect 5 0 6 0;
#X connect 6 0 9 0;
#X connect 7 0 8 0;
#X connect 8 0 10 0;
#X restore 293 379 pd smove;
#X obj 270 335 translateXYZ;
#N canvas 858 186 450 300 shake 0;
#X obj 101 11 inlet;
#X obj 101 150 line;
#X floatatom 101 173 5 0 0 0 - - -;
#X msg 101 128 \$1 250;
#X obj 101 193 outlet;
#X obj 171 150 line;
#X floatatom 171 173 5 0 0 0 - - -;
#X msg 171 128 \$1 250;
#X obj 171 193 outlet;
#X obj 171 11 inlet;
#X obj 101 83 / 1;
#X obj 171 83 / 1;
#X connect 0 0 10 0;
#X connect 1 0 2 0;
#X connect 2 0 4 0;
#X connect 3 0 1 0;
#X connect 5 0 6 0;
#X connect 6 0 8 0;
#X connect 7 0 5 0;
#X connect 9 0 11 0;
#X connect 10 0 3 0;
#X connect 11 0 7 0;
#X restore 294 314 pd shake;
#X obj 270 400 translateXYZ;
#X obj 293 358 r emerge;
#X obj 270 281 gemhead 2;
#X obj 270 459 pix_texture;
#X obj 270 251 cnv 15 80 20 empty empty empty 20 12 0 14 -233017 -66577
0;
#N canvas 68 24 450 300 play 0;
#X obj 153 28 tgl 30 1 empty empty empty 17 7 0 10 -258113 -1 -1 1
1;
#X msg 153 75 auto \$1;
#X obj 78 140 pix_film;
#X obj 139 140 f;
#X obj 78 110 inlet;
#X obj 78 170 outlet;
#X connect 0 0 1 0;
#X connect 1 0 2 0;
#X connect 2 0 5 0;
#X connect 2 2 3 0;
#X connect 3 0 2 1;
#X connect 4 0 2 0;
#X coords 0 -1 1 1 35 35 2 150 25;
#X restore 270 421 pd play;
#N canvas 70 24 450 300 loadvids 0;
#X obj 92 -54 loadbang;
#X msg 92 -34 location /home/hellocatfood/Desktop/XYZvid;
#X msg 92 117 open \$1;
#X obj 92 13 playlist .mov 100 100 {Helvetica 10 bold} #457782 yellow
black red;
#X obj 92 141 outlet;
#X obj 151 -54 inlet;
#X connect 0 0 1 0;
#X connect 1 0 3 0;
#X connect 2 0 4 0;
#X connect 3 0 2 0;
#X connect 5 0 3 0;
#X coords 0 -1 1 1 105 105 2 90 10;
#X restore 350 404 pd loadvids;
#X msg 350 379 seek 1;
#X msg 400 379 seek 2;
#N canvas 395 165 450 300 lmove 0;
#X msg 88 76 -250 600;
#X msg 158 76 -145 600;
#X obj 88 51 inlet;
#X obj 88 99 line;
#X obj 158 99 line;
#X floatatom 88 120 5 0 0 0 - - -;
#X obj 88 140 / 100;
#X floatatom 158 120 5 0 0 0 - - -;
#X obj 158 140 / 100;
#X obj 88 163 outlet;
#X obj 158 163 outlet;
#X connect 0 0 3 0;
#X connect 1 0 4 0;
#X connect 2 0 0 0;
#X connect 2 0 1 0;
#X connect 3 0 5 0;
#X connect 4 0 7 0;
#X connect 5 0 6 0;
#X connect 6 0 9 0;
#X connect 7 0 8 0;
#X connect 8 0 10 0;
#X restore 525 379 pd lmove;
#X obj 502 336 translateXYZ;
#N canvas 858 186 450 300 shake 0;
#X obj 101 11 inlet;
#X obj 101 150 line;
#X floatatom 101 173 5 0 0 0 - - -;
#X msg 101 128 \$1 250;
#X obj 101 193 outlet;
#X obj 171 150 line;
#X floatatom 171 173 5 0 0 0 - - -;
#X msg 171 128 \$1 250;
#X obj 171 193 outlet;
#X obj 171 11 inlet;
#X obj 101 83 / 1;
#X obj 171 83 / 1;
#X connect 0 0 10 0;
#X connect 1 0 2 0;
#X connect 2 0 4 0;
#X connect 3 0 1 0;
#X connect 5 0 6 0;
#X connect 6 0 8 0;
#X connect 7 0 5 0;
#X connect 9 0 11 0;
#X connect 10 0 3 0;
#X connect 11 0 7 0;
#X restore 526 315 pd shake;
#X obj 502 400 translateXYZ;
#X obj 525 358 r emerge;
#X obj 502 282 gemhead 3;
#X obj 502 459 pix_texture;
#X obj 502 251 cnv 15 80 20 empty empty empty 20 12 0 14 -233017 -66577
0;
#N canvas 68 24 450 300 play 0;
#X obj 153 28 tgl 30 1 empty empty empty 17 7 0 10 -258113 -1 -1 1
1;
#X msg 153 75 auto \$1;
#X obj 78 140 pix_film;
#X obj 139 140 f;
#X obj 78 110 inlet;
#X obj 78 170 outlet;
#X connect 0 0 1 0;
#X connect 1 0 2 0;
#X connect 2 0 5 0;
#X connect 2 2 3 0;
#X connect 3 0 2 1;
#X connect 4 0 2 0;
#X coords 0 -1 1 1 35 35 2 150 25;
#X restore 502 421 pd play;
#N canvas 70 24 450 300 loadvids 0;
#X obj 92 -54 loadbang;
#X msg 92 -34 location /home/hellocatfood/Desktop/XYZvid;
#X msg 92 117 open \$1;
#X obj 92 13 playlist .mov 100 100 {Helvetica 10 bold} #457782 yellow
black red;
#X obj 92 141 outlet;
#X obj 151 -54 inlet;
#X connect 0 0 1 0;
#X connect 1 0 3 0;
#X connect 2 0 4 0;
#X connect 3 0 2 0;
#X connect 5 0 3 0;
#X coords 0 -1 1 1 105 105 2 90 10;
#X restore 582 404 pd loadvids;
#X msg 582 379 seek 1;
#X msg 632 379 seek 2;
#X text 270 253 shelly - right;
#X text 502 253 les - left;
#N canvas 354 304 450 300 messaging 0;
#X obj 63 33 cnv 15 242 80 empty empty empty 20 12 0 14 -228856 -66577
0;
#X obj 66 60 cnv 15 235 50 empty empty empty 20 12 0 14 -4034 -66577
0;
#X obj 225 254 udpsend;
#X obj 225 231 packOSC;
#X msg 225 206 connect 255.255.255.255 57120;
#X msg 225 180 disconnect;
#X obj 51 152 routeOSC /msg;
#X msg 51 194 set \$1;
#X msg 145 152 send /bile/msg Antonio \$1;
#X symbolatom 69 63 30 0 0 0 - - -;
#X symbolatom 115 88 30 0 0 0 - - -;
#X obj 12 152 inlet;
#X obj 66 36 bng 15 250 50 0 empty empty empty 17 7 0 10 -260097 -1
-1;
#X obj 156 36 bng 15 250 50 0 empty empty empty 17 7 0 10 -258113 -1
-1;
#X text 82 34 connect;
#X text 172 34 disconnect;
#X text 272 62 send;
#X text 65 88 recieve;
#X obj 251 36 cnv 15 50 20 empty empty empty 20 12 0 14 -257985 -66577
0;
#X obj 338 99 s displaytext;
#X text 256 36 chat;
#X obj 51 173 print chat;
#X connect 3 0 2 0;
#X connect 4 0 2 0;
#X connect 5 0 2 0;
#X connect 6 0 7 0;
#X connect 6 0 21 0;
#X connect 7 0 10 0;
#X connect 7 0 19 0;
#X connect 8 0 3 0;
#X connect 9 0 8 0;
#X connect 11 0 6 0;
#X connect 12 0 4 0;
#X connect 13 0 5 0;
#X coords 0 -1 1 1 248 86 2 60 30;
#X restore 35 155 pd messaging;
#N canvas 146 84 681 684 text 0;
#X obj 272 102 cnv 15 180 70 empty empty empty 20 12 0 14 -203904 -66577
0;
#X obj 276 77 gemhead;
#X obj 276 248 translateXYZ;
#X symbolatom 276 128 28 0 0 0 - - -;
#X obj 276 273 loadbang;
#X msg 276 292 font /home/hellocatfood/.fonts/Orbitron-Black.ttf;
#X obj 279 150 hsl 40 15 -4 4 0 0 empty empty x 30 7 0 10 -260097 -1
-1 107 1;
#X obj 276 225 line;
#X obj 329 150 hsl 40 15 -4 4 0 0 empty empty y 30 7 0 10 -260097 -1
-1 3550 1;
#X obj 326 225 line;
#X obj 276 109 tgl 15 0 empty textrender empty 17 7 0 10 -260097 -1
-1 1 1;
#X text 293 107 render;
#X msg 309 345 \$1 100;
#X obj 309 365 line;
#X obj 336 104 cnv 15 110 20 empty empty empty 20 12 0 14 -257985 -66577
0;
#X obj 380 150 nbx 3 15 -1e+37 1e+37 0 0 empty empty empty 0 -8 0 10
-4034 -1 -1 9 256;
#X text 417 149 size;
#X obj 327 57 loadbang;
#X msg 326 205 \$1 100;
#X msg 276 205 \$1 100;
#X obj 276 49 inlet;
#X msg 276 315 text steal: \$1;
#X floatatom 326 185 5 0 0 0 - - -;
#X floatatom 276 185 5 0 0 0 - - -;
#X text 340 104 steal text;
#X obj 276 386 textoutline;
#X msg 411 77 9;
#X msg 584 292 justify left base;
#X msg 327 77 -3.78;
#X msg 369 77 3.282;
#X connect 1 0 2 0;
#X connect 2 0 25 0;
#X connect 3 0 21 0;
#X connect 4 0 5 0;
#X connect 4 0 27 0;
#X connect 4 0 21 0;
#X connect 5 0 25 0;
#X connect 6 0 23 0;
#X connect 7 0 2 1;
#X connect 8 0 22 0;
#X connect 9 0 2 2;
#X connect 10 0 1 0;
#X connect 12 0 13 0;
#X connect 13 0 25 1;
#X connect 15 0 12 0;
#X connect 17 0 28 0;
#X connect 17 0 29 0;
#X connect 17 0 26 0;
#X connect 18 0 9 0;
#X connect 19 0 7 0;
#X connect 20 0 3 0;
#X connect 21 0 25 0;
#X connect 22 0 18 0;
#X connect 23 0 19 0;
#X connect 26 0 15 0;
#X connect 27 0 25 0;
#X connect 28 0 6 0;
#X connect 29 0 8 0;
#X coords 0 -1 1 1 184 74 2 270 100;
#X restore 497 -84 pd text;
#N canvas 745 165 450 300 steal 0;
#X obj 88 209 cnv 15 160 40 empty empty empty 20 12 0 14 -204786 -66577
0;
#X obj 92 5 inlet;
#X obj 92 28 routeOSC /steal;
#X obj 222 45 print steal;
#X obj 92 75 unpack s s s;
#X symbolatom 92 99 6 0 0 0 - - -;
#X symbolatom 132 99 6 0 0 0 - - -;
#X symbolatom 172 99 6 0 0 0 - - -;
#X obj 92 151 pack s s s;
#X symbolatom 92 228 25 0 0 0 - - -;
#X obj 52 274 outlet;
#X obj 92 126 outlet;
#X obj 132 126 outlet;
#X obj 172 126 outlet;
#X text 91 209 steal;
#X obj 92 180 list2symbol;
#X connect 1 0 2 0;
#X connect 2 0 3 0;
#X connect 2 0 4 0;
#X connect 4 0 5 0;
#X connect 4 1 6 0;
#X connect 4 2 7 0;
#X connect 5 0 8 0;
#X connect 5 0 11 0;
#X connect 6 0 8 1;
#X connect 6 0 12 0;
#X connect 7 0 8 2;
#X connect 7 0 13 0;
#X connect 8 0 15 0;
#X connect 9 0 10 0;
#X connect 15 0 9 0;
#X coords 0 -1 1 1 165 48 2 85 205;
#X restore 320 -84 pd steal;
#N canvas 745 165 450 300 steal 0;
#X obj 88 209 cnv 15 160 40 empty empty empty 20 12 0 14 -204786 -66577
0;
#X obj 92 5 inlet;
#X obj 92 75 unpack s s s;
#X symbolatom 92 99 6 0 0 0 - - -;
#X symbolatom 132 99 6 0 0 0 - - -;
#X symbolatom 172 99 6 0 0 0 - - -;
#X obj 92 151 pack s s s;
#X symbolatom 92 228 25 0 0 0 - - -;
#X obj 52 274 outlet;
#X obj 92 126 outlet;
#X obj 132 126 outlet;
#X obj 172 126 outlet;
#X obj 92 28 routeOSC /winner;
#X obj 222 45 print winner;
#X text 91 209 winner;
#X obj 92 180 list2symbol;
#X connect 1 0 12 0;
#X connect 2 0 3 0;
#X connect 2 1 4 0;
#X connect 2 2 5 0;
#X connect 3 0 6 0;
#X connect 3 0 9 0;
#X connect 4 0 6 1;
#X connect 4 0 10 0;
#X connect 5 0 6 2;
#X connect 5 0 11 0;
#X connect 6 0 15 0;
#X connect 7 0 8 0;
#X connect 12 0 2 0;
#X connect 12 0 13 0;
#X connect 15 0 7 0;
#X coords 0 -1 1 1 165 48 2 85 205;
#X restore 320 -5 pd steal;
#N canvas 745 165 450 300 steal 0;
#X obj 88 209 cnv 15 160 40 empty empty empty 20 12 0 14 -204786 -66577
0;
#X obj 92 5 inlet;
#X obj 92 75 unpack s s s;
#X symbolatom 92 99 6 0 0 0 - - -;
#X symbolatom 132 99 6 0 0 0 - - -;
#X symbolatom 172 99 6 0 0 0 - - -;
#X obj 92 151 pack s s s;
#X symbolatom 92 228 25 0 0 0 - - -;
#X obj 52 274 outlet;
#X obj 92 126 outlet;
#X obj 132 126 outlet;
#X obj 172 126 outlet;
#X obj 92 28 routeOSC /resign;
#X obj 222 45 print resign;
#X text 91 209 resign;
#X obj 92 178 list2symbol;
#X connect 1 0 12 0;
#X connect 2 0 3 0;
#X connect 2 1 4 0;
#X connect 2 2 5 0;
#X connect 3 0 6 0;
#X connect 3 0 9 0;
#X connect 4 0 6 1;
#X connect 4 0 10 0;
#X connect 5 0 6 2;
#X connect 5 0 11 0;
#X connect 6 0 15 0;
#X connect 7 0 8 0;
#X connect 12 0 2 0;
#X connect 12 0 13 0;
#X connect 15 0 7 0;
#X coords 0 -1 1 1 165 48 2 85 205;
#X restore 320 75 pd steal;
#N canvas 745 165 450 300 steal 0;
#X obj 88 209 cnv 15 160 40 empty empty empty 20 12 0 14 -204786 -66577
0;
#X obj 92 5 inlet;
#X obj 92 75 unpack s s s;
#X symbolatom 92 99 6 0 0 0 - - -;
#X symbolatom 132 99 6 0 0 0 - - -;
#X symbolatom 172 99 6 0 0 0 - - -;
#X obj 92 151 pack s s s;
#X symbolatom 92 228 25 0 0 0 - - -;
#X obj 52 274 outlet;
#X obj 92 126 outlet;
#X obj 132 126 outlet;
#X obj 172 126 outlet;
#X obj 92 28 routeOSC /fighters;
#X obj 222 45 print fighters;
#X text 91 209 fighters;
#X obj 92 180 list2symbol;
#X connect 1 0 12 0;
#X connect 2 0 3 0;
#X connect 2 1 4 0;
#X connect 2 2 5 0;
#X connect 3 0 6 0;
#X connect 3 0 9 0;
#X connect 4 0 6 1;
#X connect 4 0 10 0;
#X connect 5 0 6 2;
#X connect 5 0 11 0;
#X connect 6 0 15 0;
#X connect 7 0 8 0;
#X connect 12 0 2 0;
#X connect 12 0 13 0;
#X connect 15 0 7 0;
#X coords 0 -1 1 1 165 48 2 85 205;
#X restore 320 155 pd steal;
#N canvas 636 24 681 684 text 0;
#X obj 272 102 cnv 15 180 70 empty empty empty 20 12 0 14 -203904 -66577
0;
#X obj 276 77 gemhead;
#X obj 276 248 translateXYZ;
#X symbolatom 276 128 28 0 0 0 - - -;
#X obj 276 273 loadbang;
#X msg 276 292 font /home/hellocatfood/.fonts/Orbitron-Black.ttf;
#X obj 279 150 hsl 40 15 -4 4 0 0 empty empty x 30 7 0 10 -260097 -1
-1 107 1;
#X obj 276 225 line;
#X obj 329 150 hsl 40 15 -4 4 0 0 empty empty y 30 7 0 10 -260097 -1
-1 2950 1;
#X obj 326 225 line;
#X obj 276 109 tgl 15 0 empty textrender empty 17 7 0 10 -260097 -1
-1 1 1;
#X text 293 107 render;
#X msg 309 345 \$1 100;
#X obj 309 365 line;
#X obj 336 104 cnv 15 110 20 empty empty empty 20 12 0 14 -257985 -66577
0;
#X obj 380 150 nbx 3 15 -1e+37 1e+37 0 0 empty empty empty 0 -8 0 10
-4034 -1 -1 9 256;
#X text 417 149 size;
#X obj 327 57 loadbang;
#X msg 326 205 \$1 100;
#X msg 276 205 \$1 100;
#X obj 276 49 inlet;
#X floatatom 326 185 5 0 0 0 - - -;
#X floatatom 276 185 5 0 0 0 - - -;
#X text 340 104 winner text;
#X msg 411 77 9;
#X obj 276 386 textoutline;
#X msg 327 77 -3.78;
#X msg 584 292 justify left base;
#X msg 276 315 text winner: \$1;
#X msg 369 77 2.051;
#X connect 1 0 2 0;
#X connect 2 0 25 0;
#X connect 3 0 28 0;
#X connect 4 0 5 0;
#X connect 4 0 27 0;
#X connect 4 0 28 0;
#X connect 5 0 25 0;
#X connect 6 0 22 0;
#X connect 7 0 2 1;
#X connect 8 0 21 0;
#X connect 9 0 2 2;
#X connect 10 0 1 0;
#X connect 12 0 13 0;
#X connect 13 0 25 1;
#X connect 15 0 12 0;
#X connect 17 0 26 0;
#X connect 17 0 29 0;
#X connect 17 0 24 0;
#X connect 18 0 9 0;
#X connect 19 0 7 0;
#X connect 20 0 3 0;
#X connect 21 0 18 0;
#X connect 22 0 19 0;
#X connect 24 0 15 0;
#X connect 26 0 6 0;
#X connect 27 0 25 0;
#X connect 28 0 25 0;
#X connect 29 0 8 0;
#X coords 0 -1 1 1 184 74 2 270 100;
#X restore 497 -5 pd text;
#N canvas 469 24 681 684 text 0;
#X obj 272 102 cnv 15 180 70 empty empty empty 20 12 0 14 -203904 -66577
0;
#X obj 276 77 gemhead;
#X obj 276 248 translateXYZ;
#X symbolatom 276 128 28 0 0 0 - - -;
#X obj 276 273 loadbang;
#X msg 276 292 font /home/hellocatfood/.fonts/Orbitron-Black.ttf;
#X obj 279 150 hsl 40 15 -4 4 0 0 empty empty x 30 7 0 10 -260097 -1
-1 107 1;
#X obj 276 225 line;
#X obj 329 150 hsl 40 15 -4 4 0 0 empty empty y 30 7 0 10 -260097 -1
-1 2350 1;
#X obj 326 225 line;
#X obj 276 109 tgl 15 0 empty textrender empty 17 7 0 10 -260097 -1
-1 1 1;
#X text 293 107 render;
#X msg 309 345 \$1 100;
#X obj 309 365 line;
#X obj 336 104 cnv 15 110 20 empty empty empty 20 12 0 14 -257985 -66577
0;
#X obj 380 150 nbx 3 15 -1e+37 1e+37 0 0 empty empty empty 0 -8 0 10
-4034 -1 -1 9 256;
#X text 417 149 size;
#X obj 327 57 loadbang;
#X msg 326 205 \$1 100;
#X msg 276 205 \$1 100;
#X obj 276 49 inlet;
#X floatatom 326 185 5 0 0 0 - - -;
#X floatatom 276 185 5 0 0 0 - - -;
#X msg 411 77 9;
#X obj 276 386 textoutline;
#X text 340 104 resign text;
#X msg 327 77 -3.78;
#X msg 584 292 justify left base;
#X msg 276 315 text resign: \$1;
#X msg 369 77 0.82;
#X connect 1 0 2 0;
#X connect 2 0 24 0;
#X connect 3 0 28 0;
#X connect 4 0 5 0;
#X connect 4 0 27 0;
#X connect 4 0 28 0;
#X connect 5 0 24 0;
#X connect 6 0 22 0;
#X connect 7 0 2 1;
#X connect 8 0 21 0;
#X connect 9 0 2 2;
#X connect 10 0 1 0;
#X connect 12 0 13 0;
#X connect 13 0 24 1;
#X connect 15 0 12 0;
#X connect 17 0 26 0;
#X connect 17 0 29 0;
#X connect 17 0 23 0;
#X connect 18 0 9 0;
#X connect 19 0 7 0;
#X connect 20 0 3 0;
#X connect 21 0 18 0;
#X connect 22 0 19 0;
#X connect 23 0 15 0;
#X connect 26 0 6 0;
#X connect 27 0 24 0;
#X connect 28 0 24 0;
#X connect 29 0 8 0;
#X coords 0 -1 1 1 184 74 2 270 100;
#X restore 497 75 pd text;
#N canvas 123 24 681 684 text 0;
#X obj 272 102 cnv 15 180 70 empty empty empty 20 12 0 14 -203904 -66577
0;
#X obj 276 77 gemhead;
#X obj 276 248 translateXYZ;
#X symbolatom 276 128 28 0 0 0 - - -;
#X obj 276 273 loadbang;
#X msg 276 292 font /home/hellocatfood/.fonts/Orbitron-Black.ttf;
#X obj 279 150 hsl 40 15 -4 4 0 0 empty empty x 30 7 0 10 -260097 -1
-1 107 1;
#X obj 276 225 line;
#X obj 329 150 hsl 40 15 -4 4 0 0 empty empty y 30 7 0 10 -260097 -1
-1 1750 1;
#X obj 326 225 line;
#X obj 276 109 tgl 15 0 empty textrender empty 17 7 0 10 -260097 -1
-1 1 1;
#X text 293 107 render;
#X msg 309 345 \$1 100;
#X obj 309 365 line;
#X obj 336 104 cnv 15 110 20 empty empty empty 20 12 0 14 -257985 -66577
0;
#X obj 380 150 nbx 3 15 -1e+37 1e+37 0 0 empty empty empty 0 -8 0 10
-4034 -1 -1 9 256;
#X text 417 149 size;
#X obj 327 57 loadbang;
#X msg 326 205 \$1 100;
#X msg 276 205 \$1 100;
#X obj 276 49 inlet;
#X floatatom 326 185 5 0 0 0 - - -;
#X floatatom 276 185 5 0 0 0 - - -;
#X msg 411 77 9;
#X obj 276 386 textoutline;
#X text 340 104 fighters text;
#X msg 327 77 -3.78;
#X msg 584 292 justify left base;
#X msg 276 315 text fighters: \$1;
#X msg 369 77 -0.41;
#X connect 1 0 2 0;
#X connect 2 0 24 0;
#X connect 3 0 28 0;
#X connect 4 0 5 0;
#X connect 4 0 27 0;
#X connect 4 0 28 0;
#X connect 5 0 24 0;
#X connect 6 0 22 0;
#X connect 7 0 2 1;
#X connect 8 0 21 0;
#X connect 9 0 2 2;
#X connect 10 0 1 0;
#X connect 12 0 13 0;
#X connect 13 0 24 1;
#X connect 15 0 12 0;
#X connect 17 0 26 0;
#X connect 17 0 29 0;
#X connect 17 0 23 0;
#X connect 18 0 9 0;
#X connect 19 0 7 0;
#X connect 20 0 3 0;
#X connect 21 0 18 0;
#X connect 22 0 19 0;
#X connect 23 0 15 0;
#X connect 26 0 6 0;
#X connect 27 0 24 0;
#X connect 28 0 24 0;
#X connect 29 0 8 0;
#X coords 0 -1 1 1 184 74 2 270 100;
#X restore 497 155 pd text;
#X obj 209 -165 tgl 30 0 textrender empty empty 17 7 0 10 -258113 -1
-1 1 1;
#X obj 209 -205 loadbang;
#X obj 209 -185 t b b;
#X obj 35 -140 gemwin;
#X msg 35 -185 create \, 1;
#X msg 35 -163 0 \, destroy;
#X msg 108 -163 border 0;
#X msg 108 -185 cursor 0;
#X msg 108 -121 offset 1366 0;
#X obj 35 -205 import mrpeach;
#X obj 42 488 circle;
#X obj 270 488 circle;
#X obj 502 488 circle;
#X text 248 -157 render text;
#X connect 0 0 63 0;
#X connect 1 0 2 0;
#X connect 2 0 3 0;
#X connect 3 0 20 0;
#X connect 3 0 19 0;
#X connect 3 0 21 0;
#X connect 3 0 51 0;
#X connect 3 0 53 0;
#X connect 3 0 54 0;
#X connect 3 0 55 0;
#X connect 3 0 56 0;
#X connect 5 0 7 0;
#X connect 6 0 5 1;
#X connect 6 1 5 2;
#X connect 7 0 22 0;
#X connect 8 0 7 1;
#X connect 8 1 7 2;
#X connect 12 0 8 0;
#X connect 14 0 5 0;
#X connect 15 0 70 0;
#X connect 16 0 22 0;
#X connect 17 0 16 0;
#X connect 18 0 16 0;
#X connect 19 0 27 0;
#X connect 19 1 27 1;
#X connect 20 0 6 0;
#X connect 20 1 6 1;
#X connect 21 0 39 0;
#X connect 21 1 39 1;
#X connect 22 0 15 0;
#X connect 25 0 28 1;
#X connect 25 1 28 2;
#X connect 26 0 28 0;
#X connect 27 0 26 1;
#X connect 27 1 26 2;
#X connect 28 0 33 0;
#X connect 29 0 25 0;
#X connect 30 0 26 0;
#X connect 31 0 71 0;
#X connect 33 0 31 0;
#X connect 34 0 33 0;
#X connect 35 0 34 0;
#X connect 36 0 34 0;
#X connect 37 0 40 1;
#X connect 37 1 40 2;
#X connect 38 0 40 0;
#X connect 39 0 38 1;
#X connect 39 1 38 2;
#X connect 40 0 45 0;
#X connect 41 0 37 0;
#X connect 42 0 38 0;
#X connect 43 0 72 0;
#X connect 45 0 43 0;
#X connect 46 0 45 0;
#X connect 47 0 46 0;
#X connect 48 0 46 0;
#X connect 53 0 52 0;
#X connect 54 0 57 0;
#X connect 55 0 58 0;
#X connect 56 0 59 0;
#X connect 61 0 62 0;
#X connect 62 0 60 0;
#X connect 62 1 60 0;
#X connect 64 0 63 0;
#X connect 65 0 63 0;
#X connect 66 0 63 0;
#X connect 67 0 63 0;
#X connect 68 0 63 0;
