#N canvas 61 24 627 660 10;
#X declare -lib mrpeach;
#X obj 91 -46 gemwin;
#X msg 150 -74 dimen 1366 795;
#X msg 150 -46 offset 1366 0;
#X obj 35 90 udpreceive 57120;
#X obj 399 -107 import mrpeach;
#X obj 35 112 unpackOSC;
#X obj 35 133 routeOSC /bile;
#X msg 259 -101 create \, 1;
#X msg 259 -73 0 \, destroy;
#X obj 35 246 cnv 15 220 270 empty empty empty 20 12 0 14 -16662 -66577
0;
#X obj 42 336 translateXYZ;
#N canvas 858 186 450 300 shake 0;
#X obj 101 11 inlet;
#X obj 101 150 line;
#X floatatom 101 173 5 0 0 0 - - -;
#X msg 101 128 \$1 250;
#X obj 101 193 outlet;
#X obj 171 150 line;
#X floatatom 171 173 5 0 0 0 - - -;
#X msg 171 128 \$1 250;
#X obj 171 193 outlet;
#X obj 171 11 inlet;
#X obj 101 83 / 1;
#X obj 171 83 / 1;
#X connect 0 0 10 0;
#X connect 1 0 2 0;
#X connect 2 0 4 0;
#X connect 3 0 1 0;
#X connect 5 0 6 0;
#X connect 6 0 8 0;
#X connect 7 0 5 0;
#X connect 9 0 11 0;
#X connect 10 0 3 0;
#X connect 11 0 7 0;
#X restore 66 315 pd shake;
#X obj 42 400 translateXYZ;
#N canvas 836 405 450 300 jmove 0;
#X msg 158 76 250 600;
#X msg 87 77 0 600;
#X obj 87 51 inlet;
#X obj 87 100 line;
#X obj 158 100 line;
#X floatatom 87 121 5 0 0 0 - - -;
#X obj 87 141 / 100;
#X floatatom 158 121 5 0 0 0 - - -;
#X obj 158 141 / 100;
#X obj 87 164 outlet;
#X obj 158 164 outlet;
#X connect 0 0 4 0;
#X connect 1 0 3 0;
#X connect 2 0 1 0;
#X connect 2 0 0 0;
#X connect 3 0 5 0;
#X connect 4 0 7 0;
#X connect 5 0 6 0;
#X connect 6 0 9 0;
#X connect 7 0 8 0;
#X connect 8 0 10 0;
#X restore 65 379 pd jmove;
#X obj 265 246 cnv 15 220 270 empty empty empty 20 12 0 14 -4034 -66577
0;
#X obj 495 246 cnv 15 220 270 empty empty empty 20 12 0 14 -159808
-66577 0;
#X msg 1078 -80 draw linestrip;
#X obj 845 -91 rotateXYZ;
#X floatatom 916 -114 5 0 0 0 - - -;
#X obj 845 103 curve 3;
#X obj 858 60 pack f f f;
#X floatatom 858 10 5 0 0 0 - - -;
#X floatatom 928 10 5 0 0 0 - - -;
#X msg 858 81 \$1 \$2 \$3;
#X obj 928 29 t b f;
#X obj 1008 60 pack f f f;
#X floatatom 1008 10 5 0 0 0 - - -;
#X floatatom 1078 10 5 0 0 0 - - -;
#X msg 1008 81 \$1 \$2 \$3;
#X obj 1078 29 t b f;
#X obj 1148 60 pack f f f;
#X floatatom 1148 10 5 0 0 0 - - -;
#X floatatom 1218 10 5 0 0 0 - - -;
#X msg 1148 81 \$1 \$2 \$3;
#X obj 1218 29 t b f;
#X obj 858 -10 line;
#X obj 858 -52 r emerge;
#X obj 928 -10 line;
#X obj 928 -52 r emerge;
#X msg 858 -31 -2.77 600;
#X msg 928 -31 -1.46 600;
#X obj 1008 -10 line;
#X obj 1008 -52 r emerge;
#X obj 1078 -10 line;
#X obj 1078 -52 r emerge;
#X msg 1078 -31 0 600;
#X obj 1148 -10 line;
#X obj 1148 -52 r emerge;
#X obj 1218 -10 line;
#X obj 1218 -52 r emerge;
#X msg 1148 -31 0 600;
#X msg 1218 -31 2.56 600;
#X msg 1008 -31 -1.66 600;
#X msg 845 180 draw linestrip;
#X obj 845 159 rotateXYZ;
#X floatatom 916 136 5 0 0 0 - - -;
#X obj 845 353 curve 3;
#X obj 858 310 pack f f f;
#X floatatom 858 270 5 0 0 0 - - -;
#X floatatom 928 270 5 0 0 0 - - -;
#X msg 858 331 \$1 \$2 \$3;
#X obj 928 289 t b f;
#X obj 1008 310 pack f f f;
#X floatatom 1008 270 5 0 0 0 - - -;
#X floatatom 1078 270 5 0 0 0 - - -;
#X msg 1008 331 \$1 \$2 \$3;
#X obj 1078 289 t b f;
#X obj 1148 310 pack f f f;
#X floatatom 1148 270 5 0 0 0 - - -;
#X floatatom 1218 270 5 0 0 0 - - -;
#X msg 1148 331 \$1 \$2 \$3;
#X obj 1218 289 t b f;
#X obj 858 250 line;
#X obj 858 208 r emerge;
#X obj 928 250 line;
#X obj 928 208 r emerge;
#X msg 928 229 -1.46 600;
#X obj 1008 250 line;
#X obj 1008 208 r emerge;
#X obj 1078 250 line;
#X obj 1078 208 r emerge;
#X msg 1078 229 0 600;
#X obj 1148 250 line;
#X obj 1148 208 r emerge;
#X obj 1218 250 line;
#X obj 1218 208 r emerge;
#X msg 1148 229 0 600;
#X msg 1218 229 2.56 600;
#X msg 845 430 draw linestrip;
#X obj 845 409 rotateXYZ;
#X floatatom 916 386 5 0 0 0 - - -;
#X obj 845 603 curve 3;
#X obj 858 560 pack f f f;
#X floatatom 858 520 5 0 0 0 - - -;
#X floatatom 928 520 5 0 0 0 - - -;
#X msg 858 581 \$1 \$2 \$3;
#X obj 928 539 t b f;
#X obj 1008 560 pack f f f;
#X floatatom 1008 520 5 0 0 0 - - -;
#X floatatom 1078 520 5 0 0 0 - - -;
#X msg 1008 581 \$1 \$2 \$3;
#X obj 1078 539 t b f;
#X obj 1148 560 pack f f f;
#X floatatom 1148 520 5 0 0 0 - - -;
#X floatatom 1218 520 5 0 0 0 - - -;
#X msg 1148 581 \$1 \$2 \$3;
#X obj 1218 539 t b f;
#X obj 858 500 line;
#X obj 858 458 r emerge;
#X obj 928 500 line;
#X obj 928 458 r emerge;
#X msg 858 479 -2.77 600;
#X msg 928 479 -1.46 600;
#X obj 1008 500 line;
#X obj 1008 458 r emerge;
#X obj 1078 500 line;
#X obj 1078 458 r emerge;
#X obj 1148 500 line;
#X obj 1148 458 r emerge;
#X obj 1218 500 line;
#X obj 1218 458 r emerge;
#X msg 858 229 2.77 600;
#X msg 1008 479 0 600;
#X msg 1078 479 -1.47 600;
#X msg 1148 479 2.77 600;
#X msg 1218 479 -1.46 600;
#X obj 359 -69 bng 30 250 50 0 emerge empty empty 17 7 0 10 -258113
-1 -1;
#X obj 65 358 r emerge;
#X text 398 -61 emerge;
#X text 956 -114 left line;
#X text 956 136 right line;
#X text 956 386 bottom line;
#X msg 1008 229 1.82 600;
#X obj 845 36 color;
#X msg 1182 -80 width 10;
#X obj 42 281 gemhead 1;
#X obj 845 -115 gemhead 21;
#X obj 845 135 gemhead 22;
#X obj 845 385 gemhead 23;
#X obj 42 459 pix_texture;
#N canvas 70 24 450 300 loadvids 0;
#X obj 92 -54 loadbang;
#X msg 92 -34 location /home/hellocatfood/Desktop/XYZvid;
#X msg 92 117 open \$1;
#X obj 92 13 playlist .mov 100 100 {Helvetica 10 bold} #457782 yellow
black red;
#X obj 92 141 outlet;
#X obj 151 -54 inlet;
#X connect 0 0 1 0;
#X connect 1 0 3 0;
#X connect 2 0 4 0;
#X connect 3 0 2 0;
#X connect 5 0 3 0;
#X coords 0 -1 1 1 105 105 2 90 10;
#X restore 122 404 pd loadvids;
#X msg 122 379 seek 1;
#X msg 172 379 seek 2;
#N canvas 66 34 450 300 Shelly 0;
#X obj 102 102 cnv 15 55 80 empty empty empty 20 12 0 14 -260097 -66577
0;
#X obj 107 29 inlet;
#X obj 107 50 routeOSC /Shelly;
#X floatatom 107 125 5 0 1 0 - - -;
#X floatatom 107 144 5 0 1 0 - - -;
#X floatatom 107 163 5 0 1 0 - - -;
#X obj 107 71 routeOSC /x;
#X obj 182 71 routeOSC /y;
#X obj 258 71 routeOSC /z;
#X obj 107 195 outlet;
#X obj 182 195 outlet;
#X obj 258 195 outlet;
#X text 107 102 Shelly;
#X text 141 124 x;
#X text 142 144 y;
#X text 141 161 z;
#X connect 1 0 2 0;
#X connect 2 0 6 0;
#X connect 2 0 7 0;
#X connect 2 0 8 0;
#X connect 3 0 9 0;
#X connect 4 0 10 0;
#X connect 5 0 11 0;
#X connect 6 0 3 0;
#X connect 7 0 4 0;
#X connect 8 0 5 0;
#X coords 0 -1 1 1 59 84 2 100 100;
#X restore 350 281 pd Shelly;
#N canvas 66 34 450 300 Shelly 0;
#X obj 102 102 cnv 15 55 80 empty empty empty 20 12 0 14 -260097 -66577
0;
#X obj 107 9 inlet;
#X floatatom 107 125 5 0 1 0 - - -;
#X floatatom 107 144 5 0 1 0 - - -;
#X floatatom 107 163 5 0 1 0 - - -;
#X obj 107 51 routeOSC /x;
#X obj 182 51 routeOSC /y;
#X obj 258 51 routeOSC /z;
#X obj 107 195 outlet;
#X obj 182 195 outlet;
#X obj 258 195 outlet;
#X text 141 124 x;
#X text 142 144 y;
#X text 141 161 z;
#X text 106 102 Julien;
#X obj 107 30 routeOSC /Julien;
#X obj 258 71 - 0.5;
#X obj 182 71 - 0.5;
#X obj 107 71 - 0.5;
#X connect 1 0 15 0;
#X connect 2 0 8 0;
#X connect 3 0 9 0;
#X connect 4 0 10 0;
#X connect 5 0 18 0;
#X connect 6 0 17 0;
#X connect 7 0 16 0;
#X connect 15 0 5 0;
#X connect 15 0 6 0;
#X connect 15 0 7 0;
#X connect 16 0 4 0;
#X connect 17 0 3 0;
#X connect 18 0 2 0;
#X coords 0 -1 1 1 59 84 2 100 100;
#X restore 123 281 pd Shelly;
#N canvas 69 32 450 300 Shelly 0;
#X obj 102 102 cnv 15 55 80 empty empty empty 20 12 0 14 -260097 -66577
0;
#X obj 107 29 inlet;
#X floatatom 107 125 5 0 1 0 - - -;
#X floatatom 107 144 5 0 1 0 - - -;
#X floatatom 107 163 5 0 1 0 - - -;
#X obj 107 71 routeOSC /x;
#X obj 182 71 routeOSC /y;
#X obj 258 71 routeOSC /z;
#X obj 107 195 outlet;
#X obj 182 195 outlet;
#X obj 258 195 outlet;
#X text 141 124 x;
#X text 142 144 y;
#X text 141 161 z;
#X text 107 102 les;
#X obj 107 50 routeOSC /Les;
#X connect 1 0 15 0;
#X connect 2 0 8 0;
#X connect 3 0 9 0;
#X connect 4 0 10 0;
#X connect 5 0 2 0;
#X connect 6 0 3 0;
#X connect 7 0 4 0;
#X connect 15 0 5 0;
#X connect 15 0 6 0;
#X connect 15 0 7 0;
#X coords 0 -1 1 1 59 84 2 100 100;
#X restore 582 282 pd Shelly;
#N canvas 68 24 450 300 play 0;
#X obj 153 28 tgl 30 1 empty empty empty 17 7 0 10 -258113 -1 -1 1
1;
#X msg 153 75 auto \$1;
#X obj 78 140 pix_film;
#X obj 139 140 f;
#X obj 78 110 inlet;
#X obj 78 170 outlet;
#X connect 0 0 1 0;
#X connect 1 0 2 0;
#X connect 2 0 5 0;
#X connect 2 2 3 0;
#X connect 3 0 2 1;
#X connect 4 0 2 0;
#X coords 0 -1 1 1 35 35 2 150 25;
#X restore 42 421 pd play;
#X obj 42 251 cnv 15 80 20 empty empty empty 20 12 0 14 -233017 -66577
0;
#X text 42 253 julien - top;
#N canvas 916 304 450 300 smove 0;
#X msg 88 76 250 600;
#X obj 88 51 inlet;
#X msg 158 76 -145 600;
#X obj 88 99 line;
#X obj 158 99 line;
#X floatatom 88 120 5 0 0 0 - - -;
#X obj 88 140 / 100;
#X floatatom 158 120 5 0 0 0 - - -;
#X obj 158 140 / 100;
#X obj 88 163 outlet;
#X obj 158 163 outlet;
#X connect 0 0 3 0;
#X connect 1 0 0 0;
#X connect 1 0 2 0;
#X connect 2 0 4 0;
#X connect 3 0 5 0;
#X connect 4 0 7 0;
#X connect 5 0 6 0;
#X connect 6 0 9 0;
#X connect 7 0 8 0;
#X connect 8 0 10 0;
#X restore 293 379 pd smove;
#X obj 270 335 translateXYZ;
#N canvas 858 186 450 300 shake 0;
#X obj 101 11 inlet;
#X obj 101 150 line;
#X floatatom 101 173 5 0 0 0 - - -;
#X msg 101 128 \$1 250;
#X obj 101 193 outlet;
#X obj 171 150 line;
#X floatatom 171 173 5 0 0 0 - - -;
#X msg 171 128 \$1 250;
#X obj 171 193 outlet;
#X obj 171 11 inlet;
#X obj 101 83 / 1;
#X obj 171 83 / 1;
#X connect 0 0 10 0;
#X connect 1 0 2 0;
#X connect 2 0 4 0;
#X connect 3 0 1 0;
#X connect 5 0 6 0;
#X connect 6 0 8 0;
#X connect 7 0 5 0;
#X connect 9 0 11 0;
#X connect 10 0 3 0;
#X connect 11 0 7 0;
#X restore 294 314 pd shake;
#X obj 270 400 translateXYZ;
#X obj 293 358 r emerge;
#X obj 270 281 gemhead 2;
#X obj 270 459 pix_texture;
#X obj 270 251 cnv 15 80 20 empty empty empty 20 12 0 14 -233017 -66577
0;
#N canvas 68 24 450 300 play 0;
#X obj 153 28 tgl 30 1 empty empty empty 17 7 0 10 -258113 -1 -1 1
1;
#X msg 153 75 auto \$1;
#X obj 78 140 pix_film;
#X obj 139 140 f;
#X obj 78 110 inlet;
#X obj 78 170 outlet;
#X connect 0 0 1 0;
#X connect 1 0 2 0;
#X connect 2 0 5 0;
#X connect 2 2 3 0;
#X connect 3 0 2 1;
#X connect 4 0 2 0;
#X coords 0 -1 1 1 35 35 2 150 25;
#X restore 270 421 pd play;
#N canvas 70 24 450 300 loadvids 0;
#X obj 92 -54 loadbang;
#X msg 92 -34 location /home/hellocatfood/Desktop/XYZvid;
#X msg 92 117 open \$1;
#X obj 92 13 playlist .mov 100 100 {Helvetica 10 bold} #457782 yellow
black red;
#X obj 92 141 outlet;
#X obj 151 -54 inlet;
#X connect 0 0 1 0;
#X connect 1 0 3 0;
#X connect 2 0 4 0;
#X connect 3 0 2 0;
#X connect 5 0 3 0;
#X coords 0 -1 1 1 105 105 2 90 10;
#X restore 350 404 pd loadvids;
#X msg 350 379 seek 1;
#X msg 400 379 seek 2;
#N canvas 395 165 450 300 lmove 0;
#X msg 88 76 -250 600;
#X msg 158 76 -145 600;
#X obj 88 51 inlet;
#X obj 88 99 line;
#X obj 158 99 line;
#X floatatom 88 120 5 0 0 0 - - -;
#X obj 88 140 / 100;
#X floatatom 158 120 5 0 0 0 - - -;
#X obj 158 140 / 100;
#X obj 88 163 outlet;
#X obj 158 163 outlet;
#X connect 0 0 3 0;
#X connect 1 0 4 0;
#X connect 2 0 0 0;
#X connect 2 0 1 0;
#X connect 3 0 5 0;
#X connect 4 0 7 0;
#X connect 5 0 6 0;
#X connect 6 0 9 0;
#X connect 7 0 8 0;
#X connect 8 0 10 0;
#X restore 525 379 pd lmove;
#X obj 502 336 translateXYZ;
#N canvas 858 186 450 300 shake 0;
#X obj 101 11 inlet;
#X obj 101 150 line;
#X floatatom 101 173 5 0 0 0 - - -;
#X msg 101 128 \$1 250;
#X obj 101 193 outlet;
#X obj 171 150 line;
#X floatatom 171 173 5 0 0 0 - - -;
#X msg 171 128 \$1 250;
#X obj 171 193 outlet;
#X obj 171 11 inlet;
#X obj 101 83 / 1;
#X obj 171 83 / 1;
#X connect 0 0 10 0;
#X connect 1 0 2 0;
#X connect 2 0 4 0;
#X connect 3 0 1 0;
#X connect 5 0 6 0;
#X connect 6 0 8 0;
#X connect 7 0 5 0;
#X connect 9 0 11 0;
#X connect 10 0 3 0;
#X connect 11 0 7 0;
#X restore 526 315 pd shake;
#X obj 502 400 translateXYZ;
#X obj 525 358 r emerge;
#X obj 502 282 gemhead 3;
#X obj 502 459 pix_texture;
#X obj 502 251 cnv 15 80 20 empty empty empty 20 12 0 14 -233017 -66577
0;
#N canvas 68 24 450 300 play 0;
#X obj 153 28 tgl 30 1 empty empty empty 17 7 0 10 -258113 -1 -1 1
1;
#X msg 153 75 auto \$1;
#X obj 78 140 pix_film;
#X obj 139 140 f;
#X obj 78 110 inlet;
#X obj 78 170 outlet;
#X connect 0 0 1 0;
#X connect 1 0 2 0;
#X connect 2 0 5 0;
#X connect 2 2 3 0;
#X connect 3 0 2 1;
#X connect 4 0 2 0;
#X coords 0 -1 1 1 35 35 2 150 25;
#X restore 502 421 pd play;
#N canvas 70 24 450 300 loadvids 0;
#X obj 92 -54 loadbang;
#X msg 92 -34 location /home/hellocatfood/Desktop/XYZvid;
#X msg 92 117 open \$1;
#X obj 92 13 playlist .mov 100 100 {Helvetica 10 bold} #457782 yellow
black red;
#X obj 92 141 outlet;
#X obj 151 -54 inlet;
#X connect 0 0 1 0;
#X connect 1 0 3 0;
#X connect 2 0 4 0;
#X connect 3 0 2 0;
#X connect 5 0 3 0;
#X coords 0 -1 1 1 105 105 2 90 10;
#X restore 582 404 pd loadvids;
#X msg 582 379 seek 1;
#X msg 632 379 seek 2;
#X text 270 253 shelly - right;
#X text 502 253 les - left;
#X obj 42 488 circle;
#X obj 270 488 circle;
#X obj 502 488 circle;
#N canvas 354 304 450 300 messaging 0;
#X obj 63 33 cnv 15 242 80 empty empty empty 20 12 0 14 -228856 -66577
0;
#X obj 66 60 cnv 15 235 50 empty empty empty 20 12 0 14 -4034 -66577
0;
#X obj 225 254 udpsend;
#X obj 225 231 packOSC;
#X msg 225 206 connect 255.255.255.255 57120;
#X msg 225 180 disconnect;
#X obj 51 152 routeOSC /msg;
#X obj 51 173 print;
#X msg 51 194 set \$1;
#X msg 145 152 send /bile/msg Antonio \$1;
#X symbolatom 69 63 30 0 0 0 - - -;
#X symbolatom 115 88 30 0 0 0 - - -;
#X obj 12 152 inlet;
#X obj 66 36 bng 15 250 50 0 empty empty empty 17 7 0 10 -260097 -1
-1;
#X obj 156 36 bng 15 250 50 0 empty empty empty 17 7 0 10 -258113 -1
-1;
#X text 82 34 connect;
#X text 172 34 disconnect;
#X text 272 62 send;
#X text 65 88 recieve;
#X obj 251 36 cnv 15 50 20 empty empty empty 20 12 0 14 -257985 -66577
0;
#X obj 338 99 s displaytext;
#X text 256 36 chat;
#X connect 3 0 2 0;
#X connect 4 0 2 0;
#X connect 5 0 2 0;
#X connect 6 0 7 0;
#X connect 6 0 8 0;
#X connect 8 0 11 0;
#X connect 8 0 20 0;
#X connect 9 0 3 0;
#X connect 10 0 9 0;
#X connect 12 0 6 0;
#X connect 13 0 4 0;
#X connect 14 0 5 0;
#X coords 0 -1 1 1 248 86 2 60 30;
#X restore 35 155 pd messaging;
#X obj 431 85 routeOSC /winner;
#X obj 301 85 routeOSC /steal;
#X obj 561 85 routeOSC /resign;
#X obj 691 85 routeOSC /fighters;
#X obj 431 107 print winner;
#X obj 561 108 print resign;
#X obj 301 107 print steal;
#X obj 691 108 print fighters;
#X obj 692 132 unpack s s s;
#X symbolatom 692 156 6 0 0 0 - - -;
#X symbolatom 732 156 6 0 0 0 - - -;
#X symbolatom 772 156 6 0 0 0 - - -;
#X obj 561 132 unpack s s s;
#X symbolatom 561 156 6 0 0 0 - - -;
#X symbolatom 601 156 6 0 0 0 - - -;
#X symbolatom 641 156 6 0 0 0 - - -;
#X obj 431 132 unpack s s s;
#X symbolatom 431 156 6 0 0 0 - - -;
#X symbolatom 471 156 6 0 0 0 - - -;
#X symbolatom 511 156 6 0 0 0 - - -;
#X obj 301 132 unpack s s s;
#X symbolatom 301 156 6 0 0 0 - - -;
#X symbolatom 341 156 6 0 0 0 - - -;
#X symbolatom 381 156 6 0 0 0 - - -;
#X obj 768 300 * 5;
#X obj 778 350 * 5;
#N canvas 348 24 681 684 text 0;
#X obj 272 102 cnv 15 250 70 empty empty empty 20 12 0 14 -203904 -66577
0;
#X obj 84 57 gemhead;
#X msg 94 141 font \$1;
#X obj 94 122 openpanel;
#X obj 331 109 bng 15 250 50 0 empty empty empty 0 -6 0 8 -262144 -1
-1;
#X obj 84 98 translateXYZ;
#X obj 84 356 text2d;
#X symbolatom 276 128 40 0 0 0 - - -;
#X text 349 106 open font;
#X obj 94 243 loadbang;
#X msg 94 262 font /home/hellocatfood/.fonts/Orbitron-Black.ttf;
#X obj 279 150 hsl 40 15 -4 4 0 0 empty empty x 30 7 0 10 -260097 -1
-1 1950 1;
#X obj 276 215 line;
#X obj 329 150 hsl 40 15 -4 4 0 0 empty empty y 30 7 0 10 -260097 -1
-1 1950 1;
#X obj 326 215 line;
#X obj 276 109 tgl 15 1 empty empty empty 17 7 0 10 -260097 -1 -1 1
1;
#X text 293 107 render;
#X msg 117 315 \$1 100;
#X obj 117 335 line;
#X obj 468 104 cnv 15 50 20 empty empty empty 20 12 0 14 -257985 -66577
0;
#X text 472 104 text;
#X obj 400 150 nbx 3 15 -1e+37 1e+37 0 0 empty empty empty 0 -8 0 10
-4034 -1 -1 0 256;
#X text 437 149 size;
#X obj 174 146 r displaytext;
#X obj 174 168 spigot;
#X obj 468 150 tgl 15 0 empty empty empty 17 7 0 10 -4034 -1 -1 0 1
;
#X text 485 148 irc;
#X symbolatom 158 230 10 0 0 0 - - -;
#X obj 201 195 bng 15 250 50 0 empty empty empty 17 7 0 10 -262144
-1 -1;
#X msg 276 243 text \$1;
#X obj 276 308 loadbang;
#X obj 378 150 bng 15 250 50 0 empty empty empty 0 -6 0 8 -258113 -1
-1;
#X msg 276 288 0;
#X msg 326 195 \$1 100;
#X msg 276 195 \$1 100;
#X obj 84 178 translateXYZ;
#X obj 521 276 / 100;
#X obj 521 215 tgl 15 0 empty empty empty 17 7 0 10 -262144 -1 -1 1
1;
#X obj 591 276 / 100;
#X obj 591 215 tgl 15 0 empty empty empty 17 7 0 10 -262144 -1 -1 1
1;
#X obj 521 254 random 30;
#X obj 591 255 random 30;
#X obj 521 234 metro 50;
#X obj 591 234 metro 50;
#X obj 414 109 tgl 15 1 empty empty empty 17 7 0 10 -260097 -1 -1 1
1;
#X text 431 107 shake;
#X connect 1 0 5 0;
#X connect 2 0 6 0;
#X connect 3 0 2 0;
#X connect 4 0 3 0;
#X connect 5 0 35 0;
#X connect 7 0 29 0;
#X connect 9 0 10 0;
#X connect 10 0 6 0;
#X connect 11 0 34 0;
#X connect 12 0 5 1;
#X connect 13 0 33 0;
#X connect 14 0 5 2;
#X connect 15 0 1 0;
#X connect 17 0 18 0;
#X connect 18 0 6 1;
#X connect 21 0 17 0;
#X connect 23 0 24 0;
#X connect 24 0 27 0;
#X connect 24 0 28 0;
#X connect 25 0 24 1;
#X connect 27 0 29 0;
#X connect 28 0 27 0;
#X connect 29 0 6 0;
#X connect 30 0 32 0;
#X connect 31 0 32 0;
#X connect 32 0 13 0;
#X connect 32 0 11 0;
#X connect 33 0 14 0;
#X connect 34 0 12 0;
#X connect 35 0 6 0;
#X connect 36 0 35 1;
#X connect 37 0 42 0;
#X connect 38 0 35 2;
#X connect 39 0 43 0;
#X connect 40 0 36 0;
#X connect 41 0 38 0;
#X connect 42 0 40 0;
#X connect 43 0 41 0;
#X connect 44 0 37 0;
#X connect 44 0 39 0;
#X coords 0 -1 1 1 254 74 2 270 100;
#X restore 301 -26 pd text;
#X connect 1 0 0 0;
#X connect 2 0 0 0;
#X connect 3 0 5 0;
#X connect 5 0 6 0;
#X connect 6 0 144 0;
#X connect 6 0 143 0;
#X connect 6 0 145 0;
#X connect 6 0 178 0;
#X connect 6 0 179 0;
#X connect 6 0 181 0;
#X connect 6 0 182 0;
#X connect 6 0 180 0;
#X connect 7 0 0 0;
#X connect 8 0 0 0;
#X connect 10 0 12 0;
#X connect 11 0 10 1;
#X connect 11 1 10 2;
#X connect 12 0 146 0;
#X connect 13 0 12 1;
#X connect 13 1 12 2;
#X connect 16 0 19 0;
#X connect 17 0 133 0;
#X connect 18 0 17 1;
#X connect 18 0 17 3;
#X connect 20 0 23 0;
#X connect 21 0 20 0;
#X connect 22 0 24 0;
#X connect 23 0 19 1;
#X connect 24 0 20 0;
#X connect 24 1 20 1;
#X connect 25 0 28 0;
#X connect 26 0 25 0;
#X connect 27 0 29 0;
#X connect 28 0 19 2;
#X connect 29 0 25 0;
#X connect 29 1 25 1;
#X connect 30 0 33 0;
#X connect 31 0 30 0;
#X connect 32 0 34 0;
#X connect 33 0 19 3;
#X connect 34 0 30 0;
#X connect 34 1 30 1;
#X connect 35 0 21 0;
#X connect 36 0 39 0;
#X connect 37 0 22 0;
#X connect 38 0 40 0;
#X connect 39 0 35 0;
#X connect 40 0 37 0;
#X connect 41 0 26 0;
#X connect 42 0 52 0;
#X connect 43 0 27 0;
#X connect 44 0 45 0;
#X connect 45 0 43 0;
#X connect 46 0 31 0;
#X connect 47 0 50 0;
#X connect 48 0 32 0;
#X connect 49 0 51 0;
#X connect 50 0 46 0;
#X connect 51 0 48 0;
#X connect 52 0 41 0;
#X connect 53 0 56 0;
#X connect 54 0 56 0;
#X connect 55 0 54 1;
#X connect 55 0 54 3;
#X connect 57 0 60 0;
#X connect 58 0 57 0;
#X connect 59 0 61 0;
#X connect 60 0 56 1;
#X connect 61 0 57 0;
#X connect 61 1 57 1;
#X connect 62 0 65 0;
#X connect 63 0 62 0;
#X connect 64 0 66 0;
#X connect 65 0 56 2;
#X connect 66 0 62 0;
#X connect 66 1 62 1;
#X connect 67 0 70 0;
#X connect 68 0 67 0;
#X connect 69 0 71 0;
#X connect 70 0 56 3;
#X connect 71 0 67 0;
#X connect 71 1 67 1;
#X connect 72 0 58 0;
#X connect 73 0 121 0;
#X connect 74 0 59 0;
#X connect 75 0 76 0;
#X connect 76 0 74 0;
#X connect 77 0 63 0;
#X connect 78 0 132 0;
#X connect 79 0 64 0;
#X connect 80 0 81 0;
#X connect 81 0 79 0;
#X connect 82 0 68 0;
#X connect 83 0 86 0;
#X connect 84 0 69 0;
#X connect 85 0 87 0;
#X connect 86 0 82 0;
#X connect 87 0 84 0;
#X connect 88 0 91 0;
#X connect 89 0 91 0;
#X connect 90 0 89 1;
#X connect 90 0 89 3;
#X connect 92 0 95 0;
#X connect 93 0 92 0;
#X connect 94 0 96 0;
#X connect 95 0 91 1;
#X connect 96 0 92 0;
#X connect 96 1 92 1;
#X connect 97 0 100 0;
#X connect 98 0 97 0;
#X connect 99 0 101 0;
#X connect 100 0 91 2;
#X connect 101 0 97 0;
#X connect 101 1 97 1;
#X connect 102 0 105 0;
#X connect 103 0 102 0;
#X connect 104 0 106 0;
#X connect 105 0 91 3;
#X connect 106 0 102 0;
#X connect 106 1 102 1;
#X connect 107 0 93 0;
#X connect 108 0 111 0;
#X connect 109 0 94 0;
#X connect 110 0 112 0;
#X connect 111 0 107 0;
#X connect 112 0 109 0;
#X connect 113 0 98 0;
#X connect 114 0 122 0;
#X connect 115 0 99 0;
#X connect 116 0 123 0;
#X connect 117 0 103 0;
#X connect 118 0 124 0;
#X connect 119 0 104 0;
#X connect 120 0 125 0;
#X connect 121 0 72 0;
#X connect 122 0 113 0;
#X connect 123 0 115 0;
#X connect 124 0 117 0;
#X connect 125 0 119 0;
#X connect 127 0 13 0;
#X connect 132 0 77 0;
#X connect 133 0 19 0;
#X connect 134 0 19 0;
#X connect 135 0 10 0;
#X connect 136 0 17 0;
#X connect 137 0 54 0;
#X connect 138 0 89 0;
#X connect 139 0 175 0;
#X connect 140 0 146 0;
#X connect 141 0 140 0;
#X connect 142 0 140 0;
#X connect 143 0 151 0;
#X connect 143 1 151 1;
#X connect 143 2 203 0;
#X connect 144 0 11 0;
#X connect 144 1 11 1;
#X connect 145 0 163 0;
#X connect 145 1 163 1;
#X connect 145 2 204 0;
#X connect 146 0 139 0;
#X connect 149 0 152 1;
#X connect 149 1 152 2;
#X connect 150 0 152 0;
#X connect 151 0 150 1;
#X connect 151 1 150 2;
#X connect 152 0 157 0;
#X connect 153 0 149 0;
#X connect 154 0 150 0;
#X connect 155 0 176 0;
#X connect 157 0 155 0;
#X connect 158 0 157 0;
#X connect 159 0 158 0;
#X connect 160 0 158 0;
#X connect 161 0 164 1;
#X connect 161 1 164 2;
#X connect 162 0 164 0;
#X connect 163 0 162 1;
#X connect 163 1 162 2;
#X connect 164 0 169 0;
#X connect 165 0 161 0;
#X connect 166 0 162 0;
#X connect 167 0 177 0;
#X connect 169 0 167 0;
#X connect 170 0 169 0;
#X connect 171 0 170 0;
#X connect 172 0 170 0;
#X connect 179 0 183 0;
#X connect 179 0 195 0;
#X connect 180 0 185 0;
#X connect 180 0 199 0;
#X connect 181 0 184 0;
#X connect 181 0 191 0;
#X connect 182 0 186 0;
#X connect 182 0 187 0;
#X connect 187 0 188 0;
#X connect 187 1 189 0;
#X connect 187 2 190 0;
#X connect 191 0 192 0;
#X connect 191 1 193 0;
#X connect 191 2 194 0;
#X connect 195 0 196 0;
#X connect 195 1 197 0;
#X connect 195 2 198 0;
#X connect 199 0 200 0;
#X connect 199 1 201 0;
#X connect 199 2 202 0;
#X connect 203 0 79 0;
#X connect 204 0 115 0;
