#N canvas 61 24 627 660 10;
#X declare -lib mrpeach;
#X obj 91 -46 gemwin;
#X msg 150 -74 dimen 1366 795;
#X msg 150 -46 offset 1366 0;
#X obj 13 23 udpreceive 57120;
#X obj 93 -107 import mrpeach;
#X obj 13 45 unpackOSC;
#X obj 13 66 routeOSC /bile;
#X msg 263 -111 create \, 1;
#X msg 259 -73 0 \, destroy;
#X obj 35 253 cnv 15 100 60 empty empty empty 20 12 0 14 -233017 -66577
0;
#X obj 42 326 translateXYZ;
#N canvas 858 186 450 300 shake 0;
#X obj 101 11 inlet;
#X obj 101 150 line;
#X floatatom 101 173 5 0 0 0 - - -;
#X msg 101 128 \$1 250;
#X obj 101 193 outlet;
#X obj 171 150 line;
#X floatatom 171 173 5 0 0 0 - - -;
#X msg 171 128 \$1 250;
#X obj 171 193 outlet;
#X obj 171 11 inlet;
#X obj 101 83 / 1;
#X obj 171 83 / 1;
#X connect 0 0 10 0;
#X connect 1 0 2 0;
#X connect 2 0 4 0;
#X connect 3 0 1 0;
#X connect 5 0 6 0;
#X connect 6 0 8 0;
#X connect 7 0 5 0;
#X connect 9 0 11 0;
#X connect 10 0 3 0;
#X connect 11 0 7 0;
#X restore 66 305 pd shake;
#X obj 42 390 translateXYZ;
#N canvas 836 405 450 300 jmove 0;
#X msg 158 76 250 600;
#X msg 87 77 0 600;
#X obj 87 51 inlet;
#X obj 87 100 line;
#X obj 158 100 line;
#X floatatom 87 121 5 0 0 0 - - -;
#X obj 87 141 / 100;
#X floatatom 158 121 5 0 0 0 - - -;
#X obj 158 141 / 100;
#X obj 87 164 outlet;
#X obj 158 164 outlet;
#X connect 0 0 4 0;
#X connect 1 0 3 0;
#X connect 2 0 1 0;
#X connect 2 0 0 0;
#X connect 3 0 5 0;
#X connect 4 0 7 0;
#X connect 5 0 6 0;
#X connect 6 0 9 0;
#X connect 7 0 8 0;
#X connect 8 0 10 0;
#X restore 65 369 pd jmove;
#X text 39 253 julien - top;
#N canvas 916 304 450 300 smove 0;
#X msg 88 76 250 600;
#X obj 88 51 inlet;
#X msg 158 76 -145 600;
#X obj 88 99 line;
#X obj 158 99 line;
#X floatatom 88 120 5 0 0 0 - - -;
#X obj 88 140 / 100;
#X floatatom 158 120 5 0 0 0 - - -;
#X obj 158 140 / 100;
#X obj 88 163 outlet;
#X obj 158 163 outlet;
#X connect 0 0 3 0;
#X connect 1 0 0 0;
#X connect 1 0 2 0;
#X connect 2 0 4 0;
#X connect 3 0 5 0;
#X connect 4 0 7 0;
#X connect 5 0 6 0;
#X connect 6 0 9 0;
#X connect 7 0 8 0;
#X connect 8 0 10 0;
#X restore 295 369 pd smove;
#N canvas 395 165 450 300 lmove 0;
#X msg 88 76 -250 600;
#X msg 158 76 -145 600;
#X obj 88 51 inlet;
#X obj 88 99 line;
#X obj 158 99 line;
#X floatatom 88 120 5 0 0 0 - - -;
#X obj 88 140 / 100;
#X floatatom 158 120 5 0 0 0 - - -;
#X obj 158 140 / 100;
#X obj 88 163 outlet;
#X obj 158 163 outlet;
#X connect 0 0 3 0;
#X connect 1 0 4 0;
#X connect 2 0 0 0;
#X connect 2 0 1 0;
#X connect 3 0 5 0;
#X connect 4 0 7 0;
#X connect 5 0 6 0;
#X connect 6 0 9 0;
#X connect 7 0 8 0;
#X connect 8 0 10 0;
#X restore 535 369 pd lmove;
#X obj 265 253 cnv 15 100 60 empty empty empty 20 12 0 14 -233017 -66577
0;
#X obj 272 326 translateXYZ;
#N canvas 858 186 450 300 shake 0;
#X obj 101 11 inlet;
#X obj 101 150 line;
#X floatatom 101 173 5 0 0 0 - - -;
#X msg 101 128 \$1 250;
#X obj 101 193 outlet;
#X obj 171 150 line;
#X floatatom 171 173 5 0 0 0 - - -;
#X msg 171 128 \$1 250;
#X obj 171 193 outlet;
#X obj 171 11 inlet;
#X obj 101 83 / 1;
#X obj 171 83 / 1;
#X connect 0 0 10 0;
#X connect 1 0 2 0;
#X connect 2 0 4 0;
#X connect 3 0 1 0;
#X connect 5 0 6 0;
#X connect 6 0 8 0;
#X connect 7 0 5 0;
#X connect 9 0 11 0;
#X connect 10 0 3 0;
#X connect 11 0 7 0;
#X restore 296 305 pd shake;
#X obj 272 390 translateXYZ;
#X obj 505 253 cnv 15 100 60 empty empty empty 20 12 0 14 -233017 -66577
0;
#X obj 512 326 translateXYZ;
#N canvas 858 186 450 300 shake 0;
#X obj 101 11 inlet;
#X obj 101 150 line;
#X floatatom 101 173 5 0 0 0 - - -;
#X msg 101 128 \$1 250;
#X obj 101 193 outlet;
#X obj 171 150 line;
#X floatatom 171 173 5 0 0 0 - - -;
#X msg 171 128 \$1 250;
#X obj 171 193 outlet;
#X obj 171 11 inlet;
#X obj 101 83 / 1;
#X obj 171 83 / 1;
#X connect 0 0 10 0;
#X connect 1 0 2 0;
#X connect 2 0 4 0;
#X connect 3 0 1 0;
#X connect 5 0 6 0;
#X connect 6 0 8 0;
#X connect 7 0 5 0;
#X connect 9 0 11 0;
#X connect 10 0 3 0;
#X connect 11 0 7 0;
#X restore 536 305 pd shake;
#X obj 512 390 translateXYZ;
#X text 270 253 shelly - right;
#X text 511 253 les - left;
#X msg 1078 -80 draw linestrip;
#X obj 845 -91 rotateXYZ;
#X floatatom 916 -114 5 0 0 0 - - -;
#X obj 845 103 curve 3;
#X obj 858 60 pack f f f;
#X floatatom 858 10 5 0 0 0 - - -;
#X floatatom 928 10 5 0 0 0 - - -;
#X msg 858 81 \$1 \$2 \$3;
#X obj 928 29 t b f;
#X obj 1008 60 pack f f f;
#X floatatom 1008 10 5 0 0 0 - - -;
#X floatatom 1078 10 5 0 0 0 - - -;
#X msg 1008 81 \$1 \$2 \$3;
#X obj 1078 29 t b f;
#X obj 1148 60 pack f f f;
#X floatatom 1148 10 5 0 0 0 - - -;
#X floatatom 1218 10 5 0 0 0 - - -;
#X msg 1148 81 \$1 \$2 \$3;
#X obj 1218 29 t b f;
#X obj 858 -10 line;
#X obj 858 -52 r emerge;
#X obj 928 -10 line;
#X obj 928 -52 r emerge;
#X msg 858 -31 -2.77 600;
#X msg 928 -31 -1.46 600;
#X obj 1008 -10 line;
#X obj 1008 -52 r emerge;
#X obj 1078 -10 line;
#X obj 1078 -52 r emerge;
#X msg 1078 -31 0 600;
#X obj 1148 -10 line;
#X obj 1148 -52 r emerge;
#X obj 1218 -10 line;
#X obj 1218 -52 r emerge;
#X msg 1148 -31 0 600;
#X msg 1218 -31 2.56 600;
#X msg 1008 -31 -1.66 600;
#X msg 845 180 draw linestrip;
#X obj 845 159 rotateXYZ;
#X floatatom 916 136 5 0 0 0 - - -;
#X obj 845 353 curve 3;
#X obj 858 310 pack f f f;
#X floatatom 858 270 5 0 0 0 - - -;
#X floatatom 928 270 5 0 0 0 - - -;
#X msg 858 331 \$1 \$2 \$3;
#X obj 928 289 t b f;
#X obj 1008 310 pack f f f;
#X floatatom 1008 270 5 0 0 0 - - -;
#X floatatom 1078 270 5 0 0 0 - - -;
#X msg 1008 331 \$1 \$2 \$3;
#X obj 1078 289 t b f;
#X obj 1148 310 pack f f f;
#X floatatom 1148 270 5 0 0 0 - - -;
#X floatatom 1218 270 5 0 0 0 - - -;
#X msg 1148 331 \$1 \$2 \$3;
#X obj 1218 289 t b f;
#X obj 858 250 line;
#X obj 858 208 r emerge;
#X obj 928 250 line;
#X obj 928 208 r emerge;
#X msg 928 229 -1.46 600;
#X obj 1008 250 line;
#X obj 1008 208 r emerge;
#X obj 1078 250 line;
#X obj 1078 208 r emerge;
#X msg 1078 229 0 600;
#X obj 1148 250 line;
#X obj 1148 208 r emerge;
#X obj 1218 250 line;
#X obj 1218 208 r emerge;
#X msg 1148 229 0 600;
#X msg 1218 229 2.56 600;
#X msg 845 430 draw linestrip;
#X obj 845 409 rotateXYZ;
#X floatatom 916 386 5 0 0 0 - - -;
#X obj 845 603 curve 3;
#X obj 858 560 pack f f f;
#X floatatom 858 520 5 0 0 0 - - -;
#X floatatom 928 520 5 0 0 0 - - -;
#X msg 858 581 \$1 \$2 \$3;
#X obj 928 539 t b f;
#X obj 1008 560 pack f f f;
#X floatatom 1008 520 5 0 0 0 - - -;
#X floatatom 1078 520 5 0 0 0 - - -;
#X msg 1008 581 \$1 \$2 \$3;
#X obj 1078 539 t b f;
#X obj 1148 560 pack f f f;
#X floatatom 1148 520 5 0 0 0 - - -;
#X floatatom 1218 520 5 0 0 0 - - -;
#X msg 1148 581 \$1 \$2 \$3;
#X obj 1218 539 t b f;
#X obj 858 500 line;
#X obj 858 458 r emerge;
#X obj 928 500 line;
#X obj 928 458 r emerge;
#X msg 858 479 -2.77 600;
#X msg 928 479 -1.46 600;
#X obj 1008 500 line;
#X obj 1008 458 r emerge;
#X obj 1078 500 line;
#X obj 1078 458 r emerge;
#X obj 1148 500 line;
#X obj 1148 458 r emerge;
#X obj 1218 500 line;
#X obj 1218 458 r emerge;
#X msg 858 229 2.77 600;
#X msg 1008 479 0 600;
#X msg 1078 479 -1.47 600;
#X msg 1148 479 2.77 600;
#X msg 1218 479 -1.46 600;
#X obj 535 348 r emerge;
#X obj 359 -69 bng 30 250 50 0 emerge empty empty 17 7 0 10 -258113
-1 -1;
#X obj 295 348 r emerge;
#X obj 65 348 r emerge;
#X text 398 -61 emerge;
#X text 956 -114 left line;
#X text 956 136 right line;
#X text 956 386 bottom line;
#X msg 1008 229 1.82 600;
#X obj 845 36 color;
#X msg 1182 -80 width 10;
#X obj 42 271 gemhead 1;
#X obj 272 272 gemhead 2;
#X obj 512 272 gemhead 3;
#X obj 845 -115 gemhead 21;
#X obj 845 135 gemhead 22;
#X obj 845 385 gemhead 23;
#X obj 105 87 routeOSC /controller;
#X obj 13 113 route /Shelly;
#X obj 103 113 route /Shelly;
#X obj 193 113 route /Shelly;
#X obj 135 64 udpsend;
#X msg 135 36 connect 255.255.255.255 57120;
#X msg 135 10 disconnect;
#X obj 135 -24 bng 15 250 50 0 empty empty empty 17 7 0 10 -260097
-1 -1;
#X obj 135 -7 bng 15 250 50 0 empty empty empty 17 7 0 10 -258113 -1
-1;
#X obj 13 135 route /x /y /z;
#X obj 103 135 route /x /y /z;
#X obj 193 135 route /x /y /z;
#X text 157 -24 connect;
#X text 157 -9 disconnect;
#X obj 42 442 pix_texture;
#X msg 142 403 open \$1;
#X obj 42 420 pix_film;
#X msg 142 451 auto \$1;
#X obj 103 420 f;
#X obj 142 429 tgl 15 0 empty empty empty 17 7 0 10 -262144 -1 -1 1
1;
#X obj 142 299 playlist .mov 100 100 {Helvetica 10 bold} #457782 yellow
black red;
#N canvas 66 24 450 300 loadvids 0;
#X obj 91 -58 loadbang;
#X msg 91 -38 location /home/hellocatfood/Desktop/XYZvid;
#X obj 91 -18 outlet;
#X connect 0 0 1 0;
#X connect 1 0 2 0;
#X restore 142 278 pd loadvids;
#X msg 142 253 seek 1;
#X msg 192 253 seek 2;
#X obj 272 442 pix_texture;
#X msg 372 403 open \$1;
#X obj 272 420 pix_film;
#X msg 376 451 auto \$1;
#X obj 333 420 f;
#X obj 376 429 tgl 15 0 empty empty empty 17 7 0 10 -262144 -1 -1 1
1;
#X obj 372 299 playlist .mov 100 100 {Helvetica 10 bold} #457782 yellow
black red;
#N canvas 66 24 450 300 loadvids 0;
#X obj 91 -58 loadbang;
#X msg 91 -38 location /home/hellocatfood/Desktop/XYZvid;
#X obj 91 -18 outlet;
#X connect 0 0 1 0;
#X connect 1 0 2 0;
#X restore 372 278 pd loadvids;
#X msg 372 253 seek 1;
#X msg 422 253 seek 2;
#X obj 512 442 pix_texture;
#X msg 612 403 open \$1;
#X obj 512 420 pix_film;
#X msg 616 451 auto \$1;
#X obj 573 420 f;
#X obj 616 429 tgl 15 0 empty empty empty 17 7 0 10 -262144 -1 -1 1
1;
#X obj 612 299 playlist .mov 100 100 {Helvetica 10 bold} #457782 yellow
black red;
#N canvas 66 24 450 300 loadvids 0;
#X obj 91 -58 loadbang;
#X msg 91 -38 location /home/hellocatfood/Desktop/XYZvid;
#X obj 91 -18 outlet;
#X connect 0 0 1 0;
#X connect 1 0 2 0;
#X restore 612 278 pd loadvids;
#X msg 612 253 seek 1;
#X msg 662 253 seek 2;
#X obj 42 471 square;
#X obj 272 471 square;
#X obj 512 471 square;
#X connect 1 0 0 0;
#X connect 2 0 0 0;
#X connect 3 0 5 0;
#X connect 5 0 6 0;
#X connect 6 0 155 0;
#X connect 6 1 154 0;
#X connect 7 0 0 0;
#X connect 8 0 0 0;
#X connect 10 0 12 0;
#X connect 11 0 10 1;
#X connect 11 1 10 2;
#X connect 12 0 170 0;
#X connect 13 0 12 1;
#X connect 13 1 12 2;
#X connect 15 0 20 1;
#X connect 15 1 20 2;
#X connect 16 0 24 1;
#X connect 16 1 24 2;
#X connect 18 0 20 0;
#X connect 19 0 18 1;
#X connect 19 1 18 2;
#X connect 20 0 180 0;
#X connect 22 0 24 0;
#X connect 23 0 22 1;
#X connect 23 1 22 2;
#X connect 24 0 190 0;
#X connect 27 0 30 0;
#X connect 28 0 146 0;
#X connect 29 0 28 1;
#X connect 29 0 28 3;
#X connect 31 0 34 0;
#X connect 32 0 31 0;
#X connect 33 0 35 0;
#X connect 34 0 30 1;
#X connect 35 0 31 0;
#X connect 35 1 31 1;
#X connect 36 0 39 0;
#X connect 37 0 36 0;
#X connect 38 0 40 0;
#X connect 39 0 30 2;
#X connect 40 0 36 0;
#X connect 40 1 36 1;
#X connect 41 0 44 0;
#X connect 42 0 41 0;
#X connect 43 0 45 0;
#X connect 44 0 30 3;
#X connect 45 0 41 0;
#X connect 45 1 41 1;
#X connect 46 0 32 0;
#X connect 47 0 50 0;
#X connect 48 0 33 0;
#X connect 49 0 51 0;
#X connect 50 0 46 0;
#X connect 51 0 48 0;
#X connect 52 0 37 0;
#X connect 53 0 63 0;
#X connect 54 0 38 0;
#X connect 55 0 56 0;
#X connect 56 0 54 0;
#X connect 57 0 42 0;
#X connect 58 0 61 0;
#X connect 59 0 43 0;
#X connect 60 0 62 0;
#X connect 61 0 57 0;
#X connect 62 0 59 0;
#X connect 63 0 52 0;
#X connect 64 0 67 0;
#X connect 65 0 67 0;
#X connect 66 0 65 1;
#X connect 66 0 65 3;
#X connect 68 0 71 0;
#X connect 69 0 68 0;
#X connect 70 0 72 0;
#X connect 71 0 67 1;
#X connect 72 0 68 0;
#X connect 72 1 68 1;
#X connect 73 0 76 0;
#X connect 74 0 73 0;
#X connect 75 0 77 0;
#X connect 76 0 67 2;
#X connect 77 0 73 0;
#X connect 77 1 73 1;
#X connect 78 0 81 0;
#X connect 79 0 78 0;
#X connect 80 0 82 0;
#X connect 81 0 67 3;
#X connect 82 0 78 0;
#X connect 82 1 78 1;
#X connect 83 0 69 0;
#X connect 84 0 132 0;
#X connect 85 0 70 0;
#X connect 86 0 87 0;
#X connect 87 0 85 0;
#X connect 88 0 74 0;
#X connect 89 0 145 0;
#X connect 90 0 75 0;
#X connect 91 0 92 0;
#X connect 92 0 90 0;
#X connect 93 0 79 0;
#X connect 94 0 97 0;
#X connect 95 0 80 0;
#X connect 96 0 98 0;
#X connect 97 0 93 0;
#X connect 98 0 95 0;
#X connect 99 0 102 0;
#X connect 100 0 102 0;
#X connect 101 0 100 1;
#X connect 101 0 100 3;
#X connect 103 0 106 0;
#X connect 104 0 103 0;
#X connect 105 0 107 0;
#X connect 106 0 102 1;
#X connect 107 0 103 0;
#X connect 107 1 103 1;
#X connect 108 0 111 0;
#X connect 109 0 108 0;
#X connect 110 0 112 0;
#X connect 111 0 102 2;
#X connect 112 0 108 0;
#X connect 112 1 108 1;
#X connect 113 0 116 0;
#X connect 114 0 113 0;
#X connect 115 0 117 0;
#X connect 116 0 102 3;
#X connect 117 0 113 0;
#X connect 117 1 113 1;
#X connect 118 0 104 0;
#X connect 119 0 122 0;
#X connect 120 0 105 0;
#X connect 121 0 123 0;
#X connect 122 0 118 0;
#X connect 123 0 120 0;
#X connect 124 0 109 0;
#X connect 125 0 133 0;
#X connect 126 0 110 0;
#X connect 127 0 134 0;
#X connect 128 0 114 0;
#X connect 129 0 135 0;
#X connect 130 0 115 0;
#X connect 131 0 136 0;
#X connect 132 0 83 0;
#X connect 133 0 124 0;
#X connect 134 0 126 0;
#X connect 135 0 128 0;
#X connect 136 0 130 0;
#X connect 137 0 16 0;
#X connect 139 0 15 0;
#X connect 140 0 13 0;
#X connect 145 0 88 0;
#X connect 146 0 30 0;
#X connect 147 0 30 0;
#X connect 148 0 10 0;
#X connect 149 0 18 0;
#X connect 150 0 22 0;
#X connect 151 0 28 0;
#X connect 152 0 65 0;
#X connect 153 0 100 0;
#X connect 155 0 163 0;
#X connect 156 0 164 0;
#X connect 157 0 165 0;
#X connect 159 0 158 0;
#X connect 160 0 158 0;
#X connect 161 0 159 0;
#X connect 162 0 160 0;
#X connect 163 1 11 0;
#X connect 163 2 11 1;
#X connect 164 1 19 0;
#X connect 164 2 19 1;
#X connect 165 1 23 0;
#X connect 165 2 23 1;
#X connect 168 0 198 0;
#X connect 169 0 170 0;
#X connect 170 0 168 0;
#X connect 170 2 172 0;
#X connect 171 0 170 0;
#X connect 172 0 170 1;
#X connect 173 0 171 0;
#X connect 174 0 169 0;
#X connect 175 0 174 0;
#X connect 176 0 174 0;
#X connect 177 0 174 0;
#X connect 178 0 199 0;
#X connect 179 0 180 0;
#X connect 180 0 178 0;
#X connect 180 2 182 0;
#X connect 181 0 180 0;
#X connect 182 0 180 1;
#X connect 183 0 181 0;
#X connect 184 0 179 0;
#X connect 185 0 184 0;
#X connect 186 0 184 0;
#X connect 187 0 184 0;
#X connect 188 0 200 0;
#X connect 189 0 190 0;
#X connect 190 0 188 0;
#X connect 190 2 192 0;
#X connect 191 0 190 0;
#X connect 192 0 190 1;
#X connect 193 0 191 0;
#X connect 194 0 189 0;
#X connect 195 0 194 0;
#X connect 196 0 194 0;
#X connect 197 0 194 0;
