#N canvas 67 107 795 653 10;
#X declare -lib gridflow;
#X declare -path /home/hellocatfood/pd-externals/hellocatfood;
#X obj 123 27 bng 30 250 50 0 empty empty empty 17 7 0 10 -4034 -1
-1;
#X obj 163 47 bng 15 250 50 0 empty empty empty 17 7 0 10 -258113 -1
-1;
#X obj 163 27 bng 15 250 50 0 empty empty empty 17 7 0 10 -4032 -1
-1;
#N canvas 67 89 450 300 window 0;
#X obj 30 109 gemwin;
#X msg 200 39 0 \, destroy;
#X msg 30 39 create \, 1;
#X msg 110 39 dimen 800 600;
#X obj 30 19 inlet;
#X obj 110 19 inlet;
#X obj 200 19 inlet;
#X msg 123 100 offset 1366 0;
#X connect 1 0 0 0;
#X connect 2 0 0 0;
#X connect 3 0 0 0;
#X connect 4 0 2 0;
#X connect 5 0 7 0;
#X connect 5 0 3 0;
#X connect 6 0 1 0;
#X connect 7 0 0 0;
#X restore 123 66 pd window;
#X text 183 25 press this first;
#X text 183 45 destroy window;
#X text 120 5 create window;
#X obj 319 30 import gridflow;
#X obj 323 55 path /home/hellocatfood/pd-externals/hellocatfood;
#X floatatom 72 559 5 0 100 1 size - -;
#X obj 33 580 text3d;
#N canvas 535 223 450 300 cialissoldhere 0;
#X obj 20 289 outlet;
#X obj 110 199 drunk;
#X msg 123 179 3;
#X msg 153 179 2;
#X msg 20 249 text Cialis;
#X msg 100 249 text Sold;
#X msg 170 249 text Here;
#X obj 20 219 sel 0 1 2;
#X obj 20 -41 metro 200;
#X obj 71 -61 int;
#X obj 123 159 loadbang;
#X obj 20 9 shunt;
#X obj 20 199 counter;
#X msg 39 179 0;
#X msg 70 179 2;
#X obj 39 159 loadbang;
#X msg 29 78 0;
#X msg 29 97 1;
#X msg 29 117 2;
#X obj 205 60 tgl 15 0 empty empty empty 17 7 0 10 -258113 -1 -1 0
1;
#X obj 205 76 tgl 15 0 empty empty empty 17 7 0 10 -258113 -1 -1 0
1;
#X obj 205 92 tgl 15 0 empty empty empty 17 7 0 10 -258113 -1 -1 0
1;
#X obj 72 38 sel 1;
#X msg 72 58 0;
#X obj 72 78 sel 1;
#X msg 72 98 0;
#X obj 72 118 sel 1;
#X msg 72 138 0;
#X text 224 57 up;
#X text 224 73 down;
#X text 224 89 up/down;
#X obj 20 -71 inlet;
#X obj 71 -81 inlet;
#X obj 47 -11 inlet;
#X connect 1 0 7 0;
#X connect 2 0 1 1;
#X connect 3 0 1 2;
#X connect 4 0 0 0;
#X connect 5 0 0 0;
#X connect 6 0 0 0;
#X connect 7 0 4 0;
#X connect 7 1 5 0;
#X connect 7 2 6 0;
#X connect 8 0 11 0;
#X connect 9 0 8 1;
#X connect 10 0 2 0;
#X connect 10 0 3 0;
#X connect 11 0 12 0;
#X connect 11 1 1 0;
#X connect 12 0 7 0;
#X connect 13 0 12 2;
#X connect 14 0 12 4;
#X connect 15 0 13 0;
#X connect 15 0 14 0;
#X connect 16 0 12 1;
#X connect 17 0 12 1;
#X connect 18 0 12 1;
#X connect 19 0 22 0;
#X connect 20 0 24 0;
#X connect 21 0 26 0;
#X connect 22 0 23 0;
#X connect 22 0 16 0;
#X connect 23 0 20 0;
#X connect 23 0 21 0;
#X connect 24 0 25 0;
#X connect 25 0 17 0;
#X connect 25 0 19 0;
#X connect 25 0 21 0;
#X connect 26 0 27 0;
#X connect 27 0 18 0;
#X connect 27 0 19 0;
#X connect 27 0 20 0;
#X connect 31 0 8 0;
#X connect 32 0 9 0;
#X connect 33 0 11 1;
#X coords 0 300 1 299 85 60 0;
#X restore 184 608 pd cialissoldhere;
#X obj 184 549 tgl 15 0 empty empty empty 17 7 0 10 -4034 -1 -1 0 1
;
#X obj 184 569 tgl 15 0 empty empty empty 17 7 0 10 -159808 -262144
-1 0 1;
#X text 203 570 nerv;
#X text 203 547 start;
#X obj 187 589 hsl 80 15 500 10 0 0 empty empty empty -2 -8 0 10 -260097
-1 -1 0 1;
#X obj 334 549 tgl 15 0 empty empty empty 17 7 0 10 -4034 -1 -1 0 1
;
#X obj 334 568 tgl 15 0 empty empty empty 17 7 0 10 -159808 -262144
-1 0 1;
#X text 353 569 nerv;
#X text 353 547 start;
#X obj 337 588 hsl 80 15 500 10 0 0 empty empty empty -2 -8 0 10 -260097
-1 -1 0 1;
#N canvas 227 292 450 300 onlinepharmacy 0;
#X obj 20 319 outlet;
#X obj 110 199 drunk;
#X msg 153 179 2;
#X obj 20 -41 metro 200;
#X obj 71 -61 int;
#X obj 123 159 loadbang;
#X obj 20 9 shunt;
#X obj 20 199 counter;
#X msg 39 179 0;
#X obj 39 159 loadbang;
#X msg 29 78 0;
#X msg 29 97 1;
#X msg 29 117 2;
#X obj 205 60 tgl 15 0 empty empty empty 17 7 0 10 -258113 -1 -1 0
1;
#X obj 205 76 tgl 15 0 empty empty empty 17 7 0 10 -258113 -1 -1 0
1;
#X obj 205 92 tgl 15 0 empty empty empty 17 7 0 10 -258113 -1 -1 0
1;
#X obj 72 38 sel 1;
#X msg 72 58 0;
#X obj 72 78 sel 1;
#X msg 72 98 0;
#X obj 72 118 sel 1;
#X msg 72 138 0;
#X text 224 57 up;
#X text 224 73 down;
#X text 224 89 up/down;
#X obj 20 -71 inlet;
#X obj 71 -81 inlet;
#X obj 47 -11 inlet;
#X msg 70 179 5;
#X msg 123 179 5;
#X msg 20 279 text Save;
#X msg 90 279 text 80%;
#X msg 150 279 text with;
#X msg 219 279 text our;
#X msg 280 279 text online;
#X obj 20 219 sel 0 1 2 3 4 5;
#X msg 360 279 text pharmacy;
#X connect 1 0 35 0;
#X connect 2 0 1 2;
#X connect 3 0 6 0;
#X connect 4 0 3 1;
#X connect 5 0 29 0;
#X connect 5 0 2 0;
#X connect 6 0 7 0;
#X connect 6 1 1 0;
#X connect 7 0 35 0;
#X connect 8 0 7 2;
#X connect 9 0 8 0;
#X connect 9 0 28 0;
#X connect 10 0 7 1;
#X connect 11 0 7 1;
#X connect 12 0 7 1;
#X connect 13 0 16 0;
#X connect 14 0 18 0;
#X connect 15 0 20 0;
#X connect 16 0 17 0;
#X connect 16 0 10 0;
#X connect 17 0 14 0;
#X connect 17 0 15 0;
#X connect 18 0 19 0;
#X connect 19 0 11 0;
#X connect 19 0 13 0;
#X connect 19 0 15 0;
#X connect 20 0 21 0;
#X connect 21 0 12 0;
#X connect 21 0 13 0;
#X connect 21 0 14 0;
#X connect 25 0 3 0;
#X connect 26 0 4 0;
#X connect 27 0 6 1;
#X connect 28 0 7 4;
#X connect 29 0 1 1;
#X connect 30 0 0 0;
#X connect 31 0 0 0;
#X connect 32 0 0 0;
#X connect 33 0 0 0;
#X connect 34 0 0 0;
#X connect 35 0 30 0;
#X connect 35 1 31 0;
#X connect 35 2 32 0;
#X connect 35 3 33 0;
#X connect 35 4 34 0;
#X connect 35 5 36 0;
#X connect 36 0 0 0;
#X coords 0 300 1 299 85 60 0;
#X restore 334 608 pd onlinepharmacy;
#X obj 484 549 tgl 15 0 empty empty empty 17 7 0 10 -4034 -1 -1 0 1
;
#X obj 484 568 tgl 15 0 empty empty empty 17 7 0 10 -159808 -262144
-1 0 1;
#X text 503 569 nerv;
#X text 503 547 start;
#X obj 487 588 hsl 80 15 500 10 0 0 empty empty empty -2 -8 0 10 -260097
-1 -1 0 1;
#N canvas 227 292 450 300 viagratoday 0;
#X obj 20 319 outlet;
#X obj 110 199 drunk;
#X msg 153 179 2;
#X obj 20 -41 metro 200;
#X obj 71 -61 int;
#X obj 123 159 loadbang;
#X obj 20 9 shunt;
#X obj 20 199 counter;
#X msg 39 179 0;
#X obj 39 159 loadbang;
#X msg 29 78 0;
#X msg 29 97 1;
#X msg 29 117 2;
#X obj 205 60 tgl 15 0 empty empty empty 17 7 0 10 -258113 -1 -1 0
1;
#X obj 205 76 tgl 15 0 empty empty empty 17 7 0 10 -258113 -1 -1 0
1;
#X obj 205 92 tgl 15 0 empty empty empty 17 7 0 10 -258113 -1 -1 0
1;
#X obj 72 38 sel 1;
#X msg 72 58 0;
#X obj 72 78 sel 1;
#X msg 72 98 0;
#X obj 72 118 sel 1;
#X msg 72 138 0;
#X text 224 57 up;
#X text 224 73 down;
#X text 224 89 up/down;
#X obj 20 -71 inlet;
#X obj 71 -81 inlet;
#X obj 47 -11 inlet;
#X obj 20 219 sel 0 1 2 3 4;
#X msg 20 279 text Try;
#X msg 80 279 text Viagra;
#X msg 160 279 text and;
#X msg 219 279 text Cialis;
#X msg 300 279 text Today;
#X msg 70 179 4;
#X msg 123 179 4;
#X connect 1 0 28 0;
#X connect 2 0 1 2;
#X connect 3 0 6 0;
#X connect 4 0 3 1;
#X connect 5 0 35 0;
#X connect 5 0 2 0;
#X connect 6 0 7 0;
#X connect 6 1 1 0;
#X connect 7 0 28 0;
#X connect 8 0 7 2;
#X connect 9 0 8 0;
#X connect 9 0 34 0;
#X connect 10 0 7 1;
#X connect 11 0 7 1;
#X connect 12 0 7 1;
#X connect 13 0 16 0;
#X connect 14 0 18 0;
#X connect 15 0 20 0;
#X connect 16 0 17 0;
#X connect 16 0 10 0;
#X connect 17 0 14 0;
#X connect 17 0 15 0;
#X connect 18 0 19 0;
#X connect 19 0 11 0;
#X connect 19 0 13 0;
#X connect 19 0 15 0;
#X connect 20 0 21 0;
#X connect 21 0 12 0;
#X connect 21 0 13 0;
#X connect 21 0 14 0;
#X connect 25 0 3 0;
#X connect 26 0 4 0;
#X connect 27 0 6 1;
#X connect 28 0 29 0;
#X connect 28 1 30 0;
#X connect 28 2 31 0;
#X connect 28 3 32 0;
#X connect 28 4 33 0;
#X connect 29 0 0 0;
#X connect 30 0 0 0;
#X connect 31 0 0 0;
#X connect 32 0 0 0;
#X connect 33 0 0 0;
#X connect 34 0 7 4;
#X connect 35 0 1 1;
#X coords 0 300 1 299 85 60 0;
#X restore 484 608 pd viagratoday;
#X obj 614 549 tgl 15 0 empty empty empty 17 7 0 10 -4034 -1 -1 0 1
;
#X obj 614 568 tgl 15 0 empty empty empty 17 7 0 10 -159808 -262144
-1 0 1;
#X text 633 569 nerv;
#X text 633 547 start;
#X obj 617 588 hsl 80 15 500 10 0 0 empty empty empty -2 -8 0 10 -260097
-1 -1 0 1;
#N canvas 225 298 450 300 MaxGentleman 0;
#X obj 20 319 outlet;
#X obj 110 199 drunk;
#X msg 153 179 2;
#X obj 20 -41 metro 200;
#X obj 71 -61 int;
#X obj 123 159 loadbang;
#X obj 20 9 shunt;
#X obj 20 199 counter;
#X msg 39 179 0;
#X obj 39 159 loadbang;
#X msg 29 78 0;
#X msg 29 97 1;
#X msg 29 117 2;
#X obj 205 60 tgl 15 0 empty empty empty 17 7 0 10 -258113 -1 -1 0
1;
#X obj 205 76 tgl 15 0 empty empty empty 17 7 0 10 -258113 -1 -1 0
1;
#X obj 205 92 tgl 15 0 empty empty empty 17 7 0 10 -258113 -1 -1 0
1;
#X obj 72 38 sel 1;
#X msg 72 58 0;
#X obj 72 78 sel 1;
#X msg 72 98 0;
#X obj 72 118 sel 1;
#X msg 72 138 0;
#X text 224 57 up;
#X text 224 73 down;
#X text 224 89 up/down;
#X obj 20 -71 inlet;
#X obj 71 -81 inlet;
#X obj 47 -11 inlet;
#X msg 20 279 text MaxGentleman;
#X msg 140 279 text Enlargement;
#X msg 250 279 text Pills;
#X obj 20 219 sel 0 1 2;
#X msg 70 179 2;
#X msg 123 179 2;
#X connect 1 0 31 0;
#X connect 2 0 1 2;
#X connect 3 0 6 0;
#X connect 4 0 3 1;
#X connect 5 0 33 0;
#X connect 5 0 2 0;
#X connect 6 0 7 0;
#X connect 6 1 1 0;
#X connect 7 0 31 0;
#X connect 8 0 7 2;
#X connect 9 0 8 0;
#X connect 9 0 32 0;
#X connect 10 0 7 1;
#X connect 11 0 7 1;
#X connect 12 0 7 1;
#X connect 13 0 16 0;
#X connect 14 0 18 0;
#X connect 15 0 20 0;
#X connect 16 0 17 0;
#X connect 16 0 10 0;
#X connect 17 0 14 0;
#X connect 17 0 15 0;
#X connect 18 0 19 0;
#X connect 19 0 11 0;
#X connect 19 0 13 0;
#X connect 19 0 15 0;
#X connect 20 0 21 0;
#X connect 21 0 12 0;
#X connect 21 0 13 0;
#X connect 21 0 14 0;
#X connect 25 0 3 0;
#X connect 26 0 4 0;
#X connect 27 0 6 1;
#X connect 28 0 0 0;
#X connect 29 0 0 0;
#X connect 30 0 0 0;
#X connect 31 0 28 0;
#X connect 31 1 29 0;
#X connect 31 2 30 0;
#X connect 32 0 7 4;
#X connect 33 0 1 1;
#X coords 0 300 1 299 85 60 0;
#X restore 614 608 pd MaxGentleman;
#N canvas 631 145 450 300 font 0;
#X msg 23 84 font /home/hellocatfood/Desktop/Laptopera/Computerfont.ttf
;
#X obj 23 34 loadbang;
#X obj 23 274 outlet;
#X obj 23 64 inlet;
#X msg 43 134 font /home/hellocatfood/Desktop/Laptopera/Computerfont.ttf
;
#X obj 43 114 inlet;
#X msg 63 184 font /home/hellocatfood/Desktop/Laptopera/Computerfont.ttf
;
#X obj 63 164 inlet;
#X msg 83 234 font /home/hellocatfood/Desktop/Laptopera/Computerfont.ttf
;
#X obj 83 214 inlet;
#X connect 0 0 2 0;
#X connect 1 0 0 0;
#X connect 3 0 0 0;
#X connect 4 0 2 0;
#X connect 5 0 4 0;
#X connect 6 0 2 0;
#X connect 7 0 6 0;
#X connect 8 0 2 0;
#X connect 9 0 8 0;
#X restore 390 717 pd font;
#X obj 390 697 bng 12 250 50 0 empty empty empty 17 7 0 10 -258113
-1 -1;
#X obj 390 682 bng 12 250 50 0 empty empty empty 17 7 0 10 -258113
-1 -1;
#X obj 430 697 bng 12 250 50 0 empty empty empty 17 7 0 10 -258113
-1 -1;
#X obj 430 682 bng 12 250 50 0 empty empty empty 17 7 0 10 -258113
-1 -1;
#X obj 111 141 f;
#X obj 137 141 + 1;
#X obj 111 121 metro 30;
#X obj 77 190 rotateXYZ;
#X obj 77 210 part_head;
#X obj 77 390 part_velocity;
#X obj 77 420 part_info ____;
#X obj 77 440 separator;
#X msg 152 269 symbol sphere;
#X obj 77 170 gemhead 4;
#X obj 152 190 loadbang;
#X obj 320 200 cnv 15 110 110 empty empty empty 20 12 0 14 -191407
-66577 0;
#X obj 197 393 loadbang;
#X obj 328 249 hsl 90 15 0 2 0 0 empty empty empty -2 -8 0 10 -260097
-1 -1 4005 1;
#X obj 152 210 t b b;
#X msg 179 230 0.9;
#X msg 152 300 0 0 0 0.5 \$1;
#X obj 325 209 tgl 15 0 empty empty empty 17 7 0 10 -4034 -1 -1 0 1
;
#X text 325 228 spread;
#X text 345 208 rotate;
#X obj 77 330 part_source 1;
#X obj 17 151 loadbang;
#X obj 315 158 hsl 128 15 0 5 0 0 empty empty empty -2 -8 0 10 -262144
-1 -1 4600 1;
#X msg 17 171 speed \$1;
#X obj 77 360 part_killold 10;
#X msg 197 413 1;
#X obj 199 433 hsl 60 15 0 5 0 0 empty empty empty -2 -8 0 10 -260097
-1 -1 5300 1;
#X obj 209 342 hsl 128 15 1 50 0 0 empty empty empty -2 -8 0 10 -262144
-1 -1 9600 1;
#X obj 749 356 sin;
#X obj 781 276 osc~;
#X obj 837 317 env~;
#X floatatom 845 355 5 0 0 0 - - -;
#X floatatom 839 234 5 0 0 0 - - -;
#X obj 496 393 unpack f f f;
#X obj 496 415 - 1;
#X obj 589 391 random 100;
#X obj 589 411 / 100;
#X obj 656 337 tgl 15 0 empty empty empty 17 7 0 10 -262144 -1 -1 1
1;
#X obj 496 436 + 0;
#X obj 526 415 - 1;
#X obj 526 436 + 0;
#X obj 556 415 - 1;
#X obj 556 436 + 0;
#X obj 659 391 random 100;
#X obj 659 411 / 100;
#X obj 739 391 random 100;
#X obj 739 411 / 100;
#X obj 655 360 metro 100;
#X obj 77 460 translate;
#X obj 309 446 % 4;
#X obj 309 466 sel 0 1 2 3;
#X msg 360 491 0 1 0;
#X msg 460 491 0 0 1;
#X msg 410 491 1 0 0;
#X floatatom 288 394 5 0 0 0 - - -;
#X floatatom 253 477 5 0 0 0 - - -;
#X msg 309 491 0.3 1 0.9;
#X obj 456 327 colorRGB;
#X obj 74 499 colorRGB;
#X connect 0 0 3 0;
#X connect 1 0 3 2;
#X connect 2 0 3 1;
#X connect 9 0 10 1;
#X connect 11 0 10 0;
#X connect 12 0 11 0;
#X connect 13 0 11 1;
#X connect 16 0 11 2;
#X connect 17 0 22 0;
#X connect 18 0 22 1;
#X connect 21 0 22 2;
#X connect 22 0 10 0;
#X connect 23 0 28 0;
#X connect 24 0 28 1;
#X connect 27 0 28 2;
#X connect 28 0 10 0;
#X connect 29 0 34 0;
#X connect 30 0 34 1;
#X connect 33 0 34 2;
#X connect 35 0 10 0;
#X connect 36 0 35 0;
#X connect 37 0 35 1;
#X connect 38 0 35 3;
#X connect 39 0 35 2;
#X connect 40 0 41 0;
#X connect 40 0 43 2;
#X connect 40 0 43 1;
#X connect 41 0 40 1;
#X connect 42 0 40 0;
#X connect 43 0 44 0;
#X connect 44 0 60 0;
#X connect 45 0 46 0;
#X connect 46 0 47 0;
#X connect 46 1 94 0;
#X connect 46 2 88 2;
#X connect 46 3 73 0;
#X connect 47 0 88 0;
#X connect 48 0 60 2;
#X connect 49 0 43 0;
#X connect 50 0 54 0;
#X connect 52 0 65 0;
#X connect 53 0 56 0;
#X connect 54 0 48 0;
#X connect 54 0 56 0;
#X connect 54 1 55 0;
#X connect 55 0 53 0;
#X connect 56 0 60 3;
#X connect 57 0 42 0;
#X connect 60 0 64 0;
#X connect 61 0 63 0;
#X connect 62 0 63 0;
#X connect 63 0 44 0;
#X connect 64 0 45 0;
#X connect 65 0 66 0;
#X connect 66 0 88 1;
#X connect 67 0 64 1;
#X connect 69 0 70 0;
#X connect 70 0 71 0;
#X connect 72 0 69 0;
#X connect 73 0 74 0;
#X connect 73 1 79 0;
#X connect 73 2 81 0;
#X connect 74 0 78 0;
#X connect 75 0 76 0;
#X connect 76 0 78 1;
#X connect 77 0 87 0;
#X connect 79 0 80 0;
#X connect 81 0 82 0;
#X connect 83 0 84 0;
#X connect 84 0 80 1;
#X connect 85 0 86 0;
#X connect 86 0 82 1;
#X connect 87 0 75 0;
#X connect 87 0 83 0;
#X connect 87 0 85 0;
#X connect 88 0 98 0;
#X connect 89 0 90 0;
#X connect 89 0 95 0;
#X connect 90 0 96 0;
#X connect 90 1 91 0;
#X connect 90 2 93 0;
#X connect 90 3 92 0;
#X connect 98 0 10 0;
