#N canvas 66 54 1300 714 10;
#X declare -lib gridflow;
#X declare -path /home/hellocatfood/pd-externals/hellocatfood;
#X declare -lib mrpeach;
#X obj 473 -109 import gridflow;
#X obj 473 -87 path /home/hellocatfood/pd-externals/hellocatfood;
#X obj 83 500 text3d;
#N canvas 739 160 450 300 font 1;
#X obj 23 4 loadbang;
#X obj 23 274 outlet;
#X obj 23 34 inlet;
#X obj 43 94 inlet;
#X obj 63 154 inlet;
#X obj 83 214 inlet;
#X msg 23 54 font /home/hellocatfood/Desktop/Laptopera/fonts/Computerfont.ttf
;
#X msg 43 114 font /home/hellocatfood/Desktop/Laptopera/fonts/Dataface_12.ttf
;
#X msg 63 174 font /home/hellocatfood/Desktop/Laptopera/fonts/digital-7.ttf
;
#X msg 83 234 font /home/hellocatfood/Desktop/Laptopera/fonts/Glitch.ttf
;
#X connect 0 0 6 0;
#X connect 2 0 6 0;
#X connect 3 0 7 0;
#X connect 4 0 8 0;
#X connect 5 0 9 0;
#X connect 6 0 1 0;
#X connect 7 0 1 0;
#X connect 8 0 1 0;
#X connect 9 0 1 0;
#X restore 204 515 pd font;
#X obj 204 495 bng 12 250 50 0 empty empty empty 17 7 0 10 -258113
-1 -1;
#X obj 204 480 bng 12 250 50 0 empty empty empty 17 7 0 10 -258113
-1 -1;
#X obj 314 495 bng 12 250 50 0 empty empty empty 17 7 0 10 -258113
-1 -1;
#X obj 314 480 bng 12 250 50 0 empty empty empty 17 7 0 10 -258113
-1 -1;
#X obj 83 60 part_head;
#X obj 220 -20 cnv 15 110 230 empty stoprotate empty 20 12 0 14 -191407
-66577 0;
#X obj 228 85 hsl 90 15 0 2 0 0 empty empty empty -2 -8 0 10 -260097
-1 -1 3500 1;
#X obj 225 -15 tgl 15 0 empty stoprotate empty 17 7 0 10 -4034 -1 -1
0 1;
#X text 225 64 spread;
#X text 245 -16 rotate;
#X obj 98 20 loadbang;
#X obj 228 45 hsl 90 15 0 5 0 0 empty empty empty -2 -8 0 10 -260097
-1 -1 2280 1;
#X msg 98 40 speed \$1;
#X obj 83 160 part_killold 10;
#X obj 228 128 hsl 90 15 1 60 0 0 empty empty empty -2 -8 0 10 -260097
-1 -1 6100 1;
#X obj 83 120 part_targetcolor;
#X obj 129 100 pack f f f f;
#N canvas 129 154 450 300 rand 0;
#X obj 60 89 random 100;
#X obj 140 69 metro;
#X obj 140 89 random 100;
#X obj 220 69 metro;
#X obj 220 89 random 100;
#X obj 60 69 metro 50;
#X obj 60 149 /;
#X obj 140 149 /;
#X obj 220 149 /;
#X obj 60 199 outlet;
#X obj 140 199 outlet;
#X obj 220 199 outlet;
#X obj 80 119 * 5;
#X obj 160 119 * 5;
#X obj 240 119 * 5;
#X obj 60 29 inlet;
#X connect 0 0 3 1;
#X connect 0 0 6 0;
#X connect 0 0 12 0;
#X connect 1 0 2 0;
#X connect 2 0 5 1;
#X connect 2 0 7 0;
#X connect 2 0 13 0;
#X connect 3 0 4 0;
#X connect 4 0 1 1;
#X connect 4 0 8 0;
#X connect 4 0 14 0;
#X connect 5 0 0 0;
#X connect 6 0 9 0;
#X connect 7 0 10 0;
#X connect 8 0 11 0;
#X connect 12 0 8 1;
#X connect 13 0 6 1;
#X connect 14 0 7 1;
#X connect 15 0 5 0;
#X connect 15 0 1 0;
#X connect 15 0 3 0;
#X restore 129 79 pd rand;
#X obj 83 180 part_render;
#X obj 228 5 hsl 60 15 100 2 0 0 empty empty empty -2 -8 0 10 -260097
-1 -1 4600 1;
#X obj 305 5 bng 15 250 50 0 srotate empty empty 17 7 0 10 -258113
-1 -1;
#X text 225 110 amount;
#N canvas 503 136 450 300 rotate 0;
#X obj 111 111 f;
#X obj 137 111 + 1;
#X obj 111 91 metro 30;
#X obj 77 140 rotateXYZ;
#X obj 77 30 inlet;
#X obj 111 61 inlet;
#X obj 156 61 inlet;
#X obj 77 170 outlet;
#X msg 207 160 0;
#X obj 207 180 s stoprotate;
#X obj 207 140 r srotate;
#X connect 0 0 1 0;
#X connect 0 0 3 2;
#X connect 0 0 3 1;
#X connect 1 0 0 1;
#X connect 2 0 0 0;
#X connect 3 0 7 0;
#X connect 4 0 3 0;
#X connect 5 0 2 0;
#X connect 6 0 2 1;
#X connect 8 0 9 0;
#X connect 8 0 0 0;
#X connect 10 0 8 0;
#X restore 83 0 pd rotate;
#X text 225 24 speed;
#X msg 158 40 1;
#X obj 83 -20 gemhead -2;
#X obj 225 152 tgl 15 0 empty empty empty 17 7 0 10 -4034 -1 -1 0 1
;
#X obj 228 188 hsl 90 15 0.01 1 0 0 empty empty empty -2 -8 0 10 -260097
-1 -1 1900 1;
#X text 245 150 color;
#X text 224 170 saturation;
#N canvas 385 193 450 300 spread 0;
#X obj 57 220 part_velocity;
#X msg 132 70 symbol sphere;
#X obj 132 -10 loadbang;
#X obj 132 10 t b b;
#X obj 57 140 part_source 1;
#X msg 132 180 symbol sphere;
#X msg 132 120 0 0 0 0 \$1;
#X msg 132 200 0 0 0 0 \$1;
#X msg 159 30 0;
#X obj 57 -30 inlet;
#X obj 57 260 outlet;
#X obj 159 50 outlet;
#X obj 232 70 inlet;
#X connect 0 0 10 0;
#X connect 1 0 4 2;
#X connect 2 0 3 0;
#X connect 2 0 5 0;
#X connect 3 0 1 0;
#X connect 3 0 6 0;
#X connect 3 1 8 0;
#X connect 4 0 0 0;
#X connect 5 0 0 1;
#X connect 6 0 4 3;
#X connect 7 0 0 2;
#X connect 8 0 11 0;
#X connect 9 0 4 0;
#X connect 12 0 6 0;
#X connect 12 0 7 0;
#X restore 83 140 pd spread;
#X obj 100 250 cnv 15 110 110 empty stoprotate empty 20 12 0 14 -191407
-66577 0;
#X obj 105 258 tgl 15 0 empty empty empty 17 7 0 10 -4034 -1 -1 0 1
;
#X obj 108 298 hsl 90 15 1 4 0 0 empty empty empty -2 -8 0 10 -260097
-1 -1 3000 1;
#X text 104 280 size;
#X obj 108 338 hsl 90 15 2 6 0 0 empty empty empty -2 -8 0 10 -260097
-1 -1 6900 1;
#X text 104 320 segments;
#X obj 145 258 bng 15 250 50 0 empty empty empty 17 7 0 10 -258113
-1 -1;
#X obj 145 278 bng 15 250 50 0 empty empty empty 17 7 0 10 -258113
-1 -1;
#N canvas 670 141 450 300 sphere 0;
#X obj 49 157 sphere;
#X msg 162 85 draw line;
#X obj 49 127 spigot;
#X msg 182 126 draw fill;
#X obj 49 6 inlet;
#X obj 102 96 inlet;
#X obj 65 36 inlet;
#X obj 82 66 inlet;
#X obj 162 66 inlet;
#X obj 182 106 inlet;
#X connect 1 0 0 0;
#X connect 2 0 0 0;
#X connect 3 0 0 0;
#X connect 4 0 2 0;
#X connect 5 0 2 1;
#X connect 6 0 0 1;
#X connect 7 0 0 2;
#X connect 8 0 1 0;
#X connect 9 0 3 0;
#X restore 100 364 pd sphere;
#N canvas 670 141 450 300 cube___ 0;
#X msg 162 85 draw line;
#X obj 49 127 spigot;
#X msg 182 126 draw fill;
#X obj 49 6 inlet;
#X obj 102 96 inlet;
#X obj 65 36 inlet;
#X obj 162 66 inlet;
#X obj 182 106 inlet;
#X obj 49 157 cube;
#X connect 0 0 8 0;
#X connect 1 0 8 0;
#X connect 2 0 8 0;
#X connect 3 0 1 0;
#X connect 4 0 1 1;
#X connect 5 0 8 1;
#X connect 6 0 0 0;
#X connect 7 0 2 0;
#X restore 220 324 pd cube___;
#X obj 220 250 cnv 15 110 70 empty stoprotate empty 20 12 0 14 -191407
-66577 0;
#X obj 225 258 tgl 15 0 empty empty empty 17 7 0 10 -4034 -1 -1 0 1
;
#X obj 228 298 hsl 90 15 1 4 0 0 empty empty empty -2 -8 0 10 -260097
-1 -1 2800 1;
#X text 224 280 size;
#X obj 265 258 bng 15 250 50 0 empty empty empty 17 7 0 10 -258113
-1 -1;
#X obj 265 278 bng 15 250 50 0 empty empty empty 17 7 0 10 -258113
-1 -1;
#X text 164 256 line;
#X text 284 256 line;
#X text 284 276 fill;
#X text 164 276 fill;
#X text 222 492 Computerfont;
#X text 222 477 Dataface;
#X text 332 477 Digital;
#X text 332 492 Glitch;
#X obj 268 516 hsl 50 15 1 90 0 0 empty empty empty -2 -8 0 10 -260097
-1 -1 3800 1;
#X text 325 513 size;
#X msg 93 440 bang;
#X obj 93 420 loadbang;
#X obj 363 -130 udpreceive 57120;
#X obj 363 -108 unpackOSC;
#X obj 363 -87 routeOSC /bile;
#N canvas 459 244 450 300 messaging 0;
#X obj 225 254 udpsend;
#X obj 225 231 packOSC;
#X msg 225 206 connect 255.255.255.255 57120;
#X msg 225 160 disconnect;
#X obj 35 151 routeOSC /msg;
#X msg 145 110 send /bile/msg Antonio \$1;
#X obj 35 129 inlet;
#X obj 338 99 s displaytext;
#X obj 55 174 print chat;
#X msg 35 194 set \$1;
#X obj 35 214 outlet;
#X obj 225 140 inlet;
#X obj 225 186 inlet;
#X obj 145 88 inlet;
#X connect 1 0 0 0;
#X connect 2 0 0 0;
#X connect 3 0 0 0;
#X connect 4 0 9 0;
#X connect 4 0 8 0;
#X connect 5 0 1 0;
#X connect 6 0 4 0;
#X connect 9 0 10 0;
#X connect 11 0 3 0;
#X connect 12 0 2 0;
#X connect 13 0 5 0;
#X coords 0 0 1 1 248 86 0;
#X restore 363 131 pd messaging;
#X obj 363 45 cnv 15 242 80 empty empty empty 20 12 0 14 -228856 -66577
0;
#X obj 366 72 cnv 15 235 50 empty empty empty 20 12 0 14 -4034 -66577
0;
#X symbolatom 369 75 30 0 0 0 - - -;
#X symbolatom 415 100 30 0 0 0 - - -;
#X obj 366 48 bng 15 250 50 0 empty empty empty 17 7 0 10 -260097 -1
-1;
#X obj 456 48 bng 15 250 50 0 empty empty empty 17 7 0 10 -258113 -1
-1;
#X text 382 46 connect;
#X text 472 46 disconnect;
#X text 572 74 send;
#X text 365 100 recieve;
#X obj 551 48 cnv 15 50 20 empty empty empty 20 12 0 14 -257985 -66577
0;
#X text 556 48 chat;
#X obj 573 -109 import mrpeach;
#X obj 73 -119 bng 30 250 50 0 empty empty empty 17 7 0 10 -4034 -1
-1;
#X obj 113 -99 bng 15 250 50 0 empty empty empty 17 7 0 10 -258113
-1 -1;
#X obj 113 -119 bng 15 250 50 0 empty empty empty 17 7 0 10 -4032 -1
-1;
#N canvas 67 149 450 300 window 0;
#X obj 30 149 gemwin;
#X msg 320 39 0 \, destroy;
#X obj 30 19 inlet;
#X obj 150 19 inlet;
#X obj 320 19 inlet;
#X msg 151 69 offset 1366 0;
#X msg 260 68 border 0;
#X msg 30 39 FSAA 8 \, create \, 1;
#X obj 332 162 world_light;
#X obj 332 132 gemhead;
#X msg 150 129 lighting \$1;
#X obj 150 109 inlet;
#X msg 150 39 dimen 1600 1200;
#X connect 1 0 0 0;
#X connect 2 0 7 0;
#X connect 3 0 5 0;
#X connect 3 0 12 0;
#X connect 3 0 6 0;
#X connect 4 0 1 0;
#X connect 5 0 0 0;
#X connect 6 0 0 0;
#X connect 7 0 0 0;
#X connect 9 0 8 0;
#X connect 10 0 0 0;
#X connect 11 0 10 0;
#X connect 12 0 0 0;
#X restore 73 -80 pd window;
#X text 133 -121 press this first;
#X text 133 -101 destroy window;
#X text 70 -141 create window;
#X obj 143 -80 tgl 15 0 empty empty empty 17 7 0 10 -257985 -1 -1 1
1;
#X text 163 -81 lighting;
#X obj 125 -48 tgl 15 0 empty empty empty 17 7 0 10 -262144 -1 -1 1
1;
#X obj 83 390 spigot;
#X obj 133 390 tgl 15 0 empty empty empty 17 7 0 10 -4034 -1 -1 0 1
;
#X obj 363 155 cnv 15 360 240 empty empty empty 20 12 0 14 -191407
-66577 0;
#N canvas 533 229 450 300 cialissoldhere 0;
#X obj 20 289 outlet;
#X obj 110 199 drunk;
#X msg 123 179 3;
#X msg 153 179 2;
#X msg 20 249 text Cialis;
#X msg 100 249 text Sold;
#X msg 170 249 text Here;
#X obj 20 219 sel 0 1 2;
#X obj 20 -41 metro 200;
#X obj 71 -61 int;
#X obj 123 159 loadbang;
#X obj 20 9 shunt;
#X obj 20 199 counter;
#X msg 39 179 0;
#X msg 70 179 2;
#X obj 39 159 loadbang;
#X msg 29 78 0;
#X msg 29 97 1;
#X msg 29 117 2;
#X obj 205 60 tgl 15 0 empty empty empty 17 7 0 10 -258113 -1 -1 0
1;
#X obj 205 76 tgl 15 0 empty empty empty 17 7 0 10 -258113 -1 -1 0
1;
#X obj 205 92 tgl 15 0 empty empty empty 17 7 0 10 -258113 -1 -1 0
1;
#X obj 72 38 sel 1;
#X msg 72 58 0;
#X obj 72 78 sel 1;
#X msg 72 98 0;
#X obj 72 118 sel 1;
#X msg 72 138 0;
#X text 224 57 up;
#X text 224 73 down;
#X text 224 89 up/down;
#X obj 20 -71 inlet;
#X obj 71 -81 inlet;
#X obj 47 -11 inlet;
#X connect 1 0 7 0;
#X connect 2 0 1 1;
#X connect 3 0 1 2;
#X connect 4 0 0 0;
#X connect 5 0 0 0;
#X connect 6 0 0 0;
#X connect 7 0 4 0;
#X connect 7 1 5 0;
#X connect 7 2 6 0;
#X connect 8 0 11 0;
#X connect 9 0 8 1;
#X connect 10 0 2 0;
#X connect 10 0 3 0;
#X connect 11 0 12 0;
#X connect 11 1 1 0;
#X connect 12 0 7 0;
#X connect 13 0 12 2;
#X connect 14 0 12 4;
#X connect 15 0 13 0;
#X connect 15 0 14 0;
#X connect 16 0 12 1;
#X connect 17 0 12 1;
#X connect 18 0 12 1;
#X connect 19 0 22 0;
#X connect 20 0 24 0;
#X connect 21 0 26 0;
#X connect 22 0 23 0;
#X connect 22 0 16 0;
#X connect 23 0 20 0;
#X connect 23 0 21 0;
#X connect 24 0 25 0;
#X connect 25 0 17 0;
#X connect 25 0 19 0;
#X connect 25 0 21 0;
#X connect 26 0 27 0;
#X connect 27 0 18 0;
#X connect 27 0 19 0;
#X connect 27 0 20 0;
#X connect 31 0 8 0;
#X connect 32 0 9 0;
#X connect 33 0 11 1;
#X coords 0 300 1 299 85 60 0;
#X restore 368 199 pd cialissoldhere;
#X obj 368 160 tgl 15 0 empty empty empty 17 7 0 10 -4034 -1 -1 0 1
;
#X obj 429 160 tgl 15 0 empty empty empty 17 7 0 10 -159808 -262144
-1 0 1;
#X text 448 161 nerv;
#X text 387 158 start;
#X obj 371 180 hsl 80 15 500 10 0 0 empty empty empty -2 -8 0 10 -260097
-1 -1 5800 1;
#X obj 488 160 tgl 15 0 empty empty empty 17 7 0 10 -4034 -1 -1 0 1
;
#X obj 547 159 tgl 15 0 empty empty empty 17 7 0 10 -159808 -262144
-1 0 1;
#X text 566 160 nerv;
#X text 507 158 start;
#X obj 491 179 hsl 80 15 500 10 0 0 empty empty empty -2 -8 0 10 -260097
-1 -1 3000 1;
#N canvas 227 292 450 300 onlinepharmacy 0;
#X obj 20 319 outlet;
#X obj 110 199 drunk;
#X msg 153 179 2;
#X obj 20 -41 metro 200;
#X obj 71 -61 int;
#X obj 123 159 loadbang;
#X obj 20 9 shunt;
#X obj 20 199 counter;
#X msg 39 179 0;
#X obj 39 159 loadbang;
#X msg 29 78 0;
#X msg 29 97 1;
#X msg 29 117 2;
#X obj 205 60 tgl 15 0 empty empty empty 17 7 0 10 -258113 -1 -1 0
1;
#X obj 205 76 tgl 15 0 empty empty empty 17 7 0 10 -258113 -1 -1 0
1;
#X obj 205 92 tgl 15 0 empty empty empty 17 7 0 10 -258113 -1 -1 0
1;
#X obj 72 38 sel 1;
#X msg 72 58 0;
#X obj 72 78 sel 1;
#X msg 72 98 0;
#X obj 72 118 sel 1;
#X msg 72 138 0;
#X text 224 57 up;
#X text 224 73 down;
#X text 224 89 up/down;
#X obj 20 -71 inlet;
#X obj 71 -81 inlet;
#X obj 47 -11 inlet;
#X msg 70 179 5;
#X msg 123 179 5;
#X msg 20 279 text Save;
#X msg 90 279 text 80%;
#X msg 150 279 text with;
#X msg 219 279 text our;
#X msg 280 279 text online;
#X obj 20 219 sel 0 1 2 3 4 5;
#X msg 360 279 text pharmacy;
#X connect 1 0 35 0;
#X connect 2 0 1 2;
#X connect 3 0 6 0;
#X connect 4 0 3 1;
#X connect 5 0 29 0;
#X connect 5 0 2 0;
#X connect 6 0 7 0;
#X connect 6 1 1 0;
#X connect 7 0 35 0;
#X connect 8 0 7 2;
#X connect 9 0 8 0;
#X connect 9 0 28 0;
#X connect 10 0 7 1;
#X connect 11 0 7 1;
#X connect 12 0 7 1;
#X connect 13 0 16 0;
#X connect 14 0 18 0;
#X connect 15 0 20 0;
#X connect 16 0 17 0;
#X connect 16 0 10 0;
#X connect 17 0 14 0;
#X connect 17 0 15 0;
#X connect 18 0 19 0;
#X connect 19 0 11 0;
#X connect 19 0 13 0;
#X connect 19 0 15 0;
#X connect 20 0 21 0;
#X connect 21 0 12 0;
#X connect 21 0 13 0;
#X connect 21 0 14 0;
#X connect 25 0 3 0;
#X connect 26 0 4 0;
#X connect 27 0 6 1;
#X connect 28 0 7 4;
#X connect 29 0 1 1;
#X connect 30 0 0 0;
#X connect 31 0 0 0;
#X connect 32 0 0 0;
#X connect 33 0 0 0;
#X connect 34 0 0 0;
#X connect 35 0 30 0;
#X connect 35 1 31 0;
#X connect 35 2 32 0;
#X connect 35 3 33 0;
#X connect 35 4 34 0;
#X connect 35 5 36 0;
#X connect 36 0 0 0;
#X coords 0 300 1 299 85 60 0;
#X restore 488 199 pd onlinepharmacy;
#X obj 368 230 tgl 15 0 empty empty empty 17 7 0 10 -4034 -1 -1 0 1
;
#X obj 428 229 tgl 15 0 empty empty empty 17 7 0 10 -159808 -262144
-1 0 1;
#X text 447 230 nerv;
#X text 387 228 start;
#X obj 371 249 hsl 80 15 500 10 0 0 empty empty empty -2 -8 0 10 -260097
-1 -1 0 1;
#N canvas 227 292 450 300 viagratoday 0;
#X obj 20 319 outlet;
#X obj 110 199 drunk;
#X msg 153 179 2;
#X obj 20 -41 metro 200;
#X obj 71 -61 int;
#X obj 123 159 loadbang;
#X obj 20 9 shunt;
#X obj 20 199 counter;
#X msg 39 179 0;
#X obj 39 159 loadbang;
#X msg 29 78 0;
#X msg 29 97 1;
#X msg 29 117 2;
#X obj 205 60 tgl 15 0 empty empty empty 17 7 0 10 -258113 -1 -1 0
1;
#X obj 205 76 tgl 15 0 empty empty empty 17 7 0 10 -258113 -1 -1 0
1;
#X obj 205 92 tgl 15 0 empty empty empty 17 7 0 10 -258113 -1 -1 0
1;
#X obj 72 38 sel 1;
#X msg 72 58 0;
#X obj 72 78 sel 1;
#X msg 72 98 0;
#X obj 72 118 sel 1;
#X msg 72 138 0;
#X text 224 57 up;
#X text 224 73 down;
#X text 224 89 up/down;
#X obj 20 -71 inlet;
#X obj 71 -81 inlet;
#X obj 47 -11 inlet;
#X obj 20 219 sel 0 1 2 3 4;
#X msg 20 279 text Try;
#X msg 80 279 text Viagra;
#X msg 160 279 text and;
#X msg 219 279 text Cialis;
#X msg 300 279 text Today;
#X msg 70 179 4;
#X msg 123 179 4;
#X connect 1 0 28 0;
#X connect 2 0 1 2;
#X connect 3 0 6 0;
#X connect 4 0 3 1;
#X connect 5 0 35 0;
#X connect 5 0 2 0;
#X connect 6 0 7 0;
#X connect 6 1 1 0;
#X connect 7 0 28 0;
#X connect 8 0 7 2;
#X connect 9 0 8 0;
#X connect 9 0 34 0;
#X connect 10 0 7 1;
#X connect 11 0 7 1;
#X connect 12 0 7 1;
#X connect 13 0 16 0;
#X connect 14 0 18 0;
#X connect 15 0 20 0;
#X connect 16 0 17 0;
#X connect 16 0 10 0;
#X connect 17 0 14 0;
#X connect 17 0 15 0;
#X connect 18 0 19 0;
#X connect 19 0 11 0;
#X connect 19 0 13 0;
#X connect 19 0 15 0;
#X connect 20 0 21 0;
#X connect 21 0 12 0;
#X connect 21 0 13 0;
#X connect 21 0 14 0;
#X connect 25 0 3 0;
#X connect 26 0 4 0;
#X connect 27 0 6 1;
#X connect 28 0 29 0;
#X connect 28 1 30 0;
#X connect 28 2 31 0;
#X connect 28 3 32 0;
#X connect 28 4 33 0;
#X connect 29 0 0 0;
#X connect 30 0 0 0;
#X connect 31 0 0 0;
#X connect 32 0 0 0;
#X connect 33 0 0 0;
#X connect 34 0 7 4;
#X connect 35 0 1 1;
#X coords 0 300 1 299 85 60 0;
#X restore 368 269 pd viagratoday;
#X obj 488 230 tgl 15 0 empty empty empty 17 7 0 10 -4034 -1 -1 0 1
;
#X obj 551 229 tgl 15 0 empty empty empty 17 7 0 10 -159808 -262144
-1 0 1;
#X text 570 230 nerv;
#X text 507 228 start;
#X obj 491 249 hsl 80 15 500 10 0 0 empty empty empty -2 -8 0 10 -260097
-1 -1 0 1;
#N canvas 225 298 450 300 MaxGentleman 0;
#X obj 20 319 outlet;
#X obj 110 199 drunk;
#X msg 153 179 2;
#X obj 20 -41 metro 200;
#X obj 71 -61 int;
#X obj 123 159 loadbang;
#X obj 20 9 shunt;
#X obj 20 199 counter;
#X msg 39 179 0;
#X obj 39 159 loadbang;
#X msg 29 78 0;
#X msg 29 97 1;
#X msg 29 117 2;
#X obj 205 60 tgl 15 0 empty empty empty 17 7 0 10 -258113 -1 -1 0
1;
#X obj 205 76 tgl 15 0 empty empty empty 17 7 0 10 -258113 -1 -1 0
1;
#X obj 205 92 tgl 15 0 empty empty empty 17 7 0 10 -258113 -1 -1 0
1;
#X obj 72 38 sel 1;
#X msg 72 58 0;
#X obj 72 78 sel 1;
#X msg 72 98 0;
#X obj 72 118 sel 1;
#X msg 72 138 0;
#X text 224 57 up;
#X text 224 73 down;
#X text 224 89 up/down;
#X obj 20 -71 inlet;
#X obj 71 -81 inlet;
#X obj 47 -11 inlet;
#X msg 20 279 text MaxGentleman;
#X msg 140 279 text Enlargement;
#X msg 250 279 text Pills;
#X obj 20 219 sel 0 1 2;
#X msg 70 179 2;
#X msg 123 179 2;
#X connect 1 0 31 0;
#X connect 2 0 1 2;
#X connect 3 0 6 0;
#X connect 4 0 3 1;
#X connect 5 0 33 0;
#X connect 5 0 2 0;
#X connect 6 0 7 0;
#X connect 6 1 1 0;
#X connect 7 0 31 0;
#X connect 8 0 7 2;
#X connect 9 0 8 0;
#X connect 9 0 32 0;
#X connect 10 0 7 1;
#X connect 11 0 7 1;
#X connect 12 0 7 1;
#X connect 13 0 16 0;
#X connect 14 0 18 0;
#X connect 15 0 20 0;
#X connect 16 0 17 0;
#X connect 16 0 10 0;
#X connect 17 0 14 0;
#X connect 17 0 15 0;
#X connect 18 0 19 0;
#X connect 19 0 11 0;
#X connect 19 0 13 0;
#X connect 19 0 15 0;
#X connect 20 0 21 0;
#X connect 21 0 12 0;
#X connect 21 0 13 0;
#X connect 21 0 14 0;
#X connect 25 0 3 0;
#X connect 26 0 4 0;
#X connect 27 0 6 1;
#X connect 28 0 0 0;
#X connect 29 0 0 0;
#X connect 30 0 0 0;
#X connect 31 0 28 0;
#X connect 31 1 29 0;
#X connect 31 2 30 0;
#X connect 32 0 7 4;
#X connect 33 0 1 1;
#X coords 0 300 1 299 85 60 0;
#X restore 488 269 pd MaxGentleman;
#N canvas 67 89 450 300 no 0;
#X obj 115 61 inlet;
#X obj 115 91 outlet;
#X connect 0 0 1 0;
#X restore 367 369 pd no;
#X obj 608 160 tgl 15 0 empty empty empty 17 7 0 10 -4034 -1 -1 0 1
;
#X obj 669 160 tgl 15 0 empty empty empty 17 7 0 10 -159808 -262144
-1 0 1;
#X text 688 161 nerv;
#X text 627 158 start;
#X obj 611 180 hsl 80 15 500 10 0 0 empty empty empty -2 -8 0 10 -260097
-1 -1 0 1;
#X obj 368 300 tgl 15 0 empty empty empty 17 7 0 10 -4034 -1 -1 0 1
;
#X obj 427 299 tgl 15 0 empty empty empty 17 7 0 10 -159808 -262144
-1 0 1;
#X text 446 300 nerv;
#X text 387 298 start;
#X obj 371 319 hsl 80 15 500 10 0 0 empty empty empty -2 -8 0 10 -260097
-1 -1 4300 1;
#X obj 608 230 tgl 15 0 empty empty empty 17 7 0 10 -4034 -1 -1 0 1
;
#X obj 668 229 tgl 15 0 empty empty empty 17 7 0 10 -159808 -262144
-1 0 1;
#X text 687 230 nerv;
#X text 627 228 start;
#X obj 611 249 hsl 80 15 500 10 0 0 empty empty empty -2 -8 0 10 -260097
-1 -1 0 1;
#X obj 488 300 tgl 15 0 empty empty empty 17 7 0 10 -4034 -1 -1 0 1
;
#X obj 551 299 tgl 15 0 empty empty empty 17 7 0 10 -159808 -262144
-1 0 1;
#X text 570 300 nerv;
#X text 507 298 start;
#X obj 491 319 hsl 80 15 500 10 0 0 empty empty empty -2 -8 0 10 -260097
-1 -1 0 1;
#N canvas 225 114 450 300 onlinedoctor 0;
#X obj 20 289 outlet;
#X obj 110 199 drunk;
#X msg 153 179 2;
#X obj 20 -41 metro 200;
#X obj 71 -61 int;
#X obj 123 159 loadbang;
#X obj 20 9 shunt;
#X obj 20 199 counter;
#X msg 39 179 0;
#X obj 39 159 loadbang;
#X msg 29 78 0;
#X msg 29 97 1;
#X msg 29 117 2;
#X obj 205 60 tgl 15 0 empty empty empty 17 7 0 10 -258113 -1 -1 0
1;
#X obj 205 76 tgl 15 0 empty empty empty 17 7 0 10 -258113 -1 -1 0
1;
#X obj 205 92 tgl 15 0 empty empty empty 17 7 0 10 -258113 -1 -1 0
1;
#X obj 72 38 sel 1;
#X msg 72 58 0;
#X obj 72 78 sel 1;
#X msg 72 98 0;
#X obj 72 118 sel 1;
#X msg 72 138 0;
#X text 224 57 up;
#X text 224 73 down;
#X text 224 89 up/down;
#X obj 20 -71 inlet;
#X obj 71 -81 inlet;
#X obj 47 -11 inlet;
#X msg 20 249 text Is;
#X msg 70 249 text an;
#X msg 130 249 text online;
#X msg 210 249 text doctorate;
#X msg 310 249 text within;
#X msg 390 249 text reach?;
#X obj 20 219 sel 0 1 2 3 4 5;
#X msg 70 179 5;
#X msg 123 179 5;
#X connect 1 0 34 0;
#X connect 2 0 1 2;
#X connect 3 0 6 0;
#X connect 4 0 3 1;
#X connect 5 0 36 0;
#X connect 5 0 2 0;
#X connect 6 0 7 0;
#X connect 6 1 1 0;
#X connect 7 0 34 0;
#X connect 8 0 7 2;
#X connect 9 0 8 0;
#X connect 9 0 35 0;
#X connect 10 0 7 1;
#X connect 11 0 7 1;
#X connect 12 0 7 1;
#X connect 13 0 16 0;
#X connect 14 0 18 0;
#X connect 15 0 20 0;
#X connect 16 0 17 0;
#X connect 16 0 10 0;
#X connect 17 0 14 0;
#X connect 17 0 15 0;
#X connect 18 0 19 0;
#X connect 19 0 11 0;
#X connect 19 0 13 0;
#X connect 19 0 15 0;
#X connect 20 0 21 0;
#X connect 21 0 12 0;
#X connect 21 0 13 0;
#X connect 21 0 14 0;
#X connect 25 0 3 0;
#X connect 26 0 4 0;
#X connect 27 0 6 1;
#X connect 28 0 0 0;
#X connect 29 0 0 0;
#X connect 30 0 0 0;
#X connect 31 0 0 0;
#X connect 32 0 0 0;
#X connect 33 0 0 0;
#X connect 34 0 28 0;
#X connect 34 1 29 0;
#X connect 34 2 30 0;
#X connect 34 3 31 0;
#X connect 34 4 32 0;
#X connect 34 5 33 0;
#X connect 35 0 7 4;
#X connect 36 0 1 1;
#X coords 0 300 1 299 85 60 0;
#X restore 608 199 pd onlinedoctor;
#N canvas 225 298 450 304 onlinecasino 0;
#X obj 20 323 outlet;
#X obj 110 203 drunk;
#X msg 153 183 2;
#X obj 20 -37 metro 200;
#X obj 71 -57 int;
#X obj 123 163 loadbang;
#X obj 20 13 shunt;
#X obj 20 203 counter;
#X msg 39 183 0;
#X obj 39 163 loadbang;
#X msg 29 82 0;
#X msg 29 101 1;
#X msg 29 121 2;
#X obj 205 64 tgl 15 0 empty empty empty 17 7 0 10 -258113 -1 -1 0
1;
#X obj 205 80 tgl 15 0 empty empty empty 17 7 0 10 -258113 -1 -1 0
1;
#X obj 205 96 tgl 15 0 empty empty empty 17 7 0 10 -258113 -1 -1 0
1;
#X obj 72 42 sel 1;
#X msg 72 62 0;
#X obj 72 82 sel 1;
#X msg 72 102 0;
#X obj 72 122 sel 1;
#X msg 72 142 0;
#X text 224 61 up;
#X text 224 77 down;
#X text 224 93 up/down;
#X obj 20 -67 inlet;
#X obj 71 -77 inlet;
#X obj 47 -7 inlet;
#X msg 20 283 text Online;
#X msg 100 283 text casion;
#X msg 180 283 text gaing;
#X msg 259 283 text at;
#X msg 320 283 text its;
#X msg 390 283 text exciting;
#X msg 480 283 text best;
#X obj 20 223 sel 0 1 2 3 4 5 6;
#X msg 70 183 6;
#X msg 123 183 6;
#X connect 1 0 35 0;
#X connect 2 0 1 2;
#X connect 3 0 6 0;
#X connect 4 0 3 1;
#X connect 5 0 37 0;
#X connect 5 0 2 0;
#X connect 6 0 7 0;
#X connect 6 1 1 0;
#X connect 7 0 35 0;
#X connect 8 0 7 2;
#X connect 9 0 8 0;
#X connect 9 0 36 0;
#X connect 10 0 7 1;
#X connect 11 0 7 1;
#X connect 12 0 7 1;
#X connect 13 0 16 0;
#X connect 14 0 18 0;
#X connect 15 0 20 0;
#X connect 16 0 17 0;
#X connect 16 0 10 0;
#X connect 17 0 14 0;
#X connect 17 0 15 0;
#X connect 18 0 19 0;
#X connect 19 0 11 0;
#X connect 19 0 13 0;
#X connect 19 0 15 0;
#X connect 20 0 21 0;
#X connect 21 0 12 0;
#X connect 21 0 13 0;
#X connect 21 0 14 0;
#X connect 25 0 3 0;
#X connect 26 0 4 0;
#X connect 27 0 6 1;
#X connect 28 0 0 0;
#X connect 29 0 0 0;
#X connect 30 0 0 0;
#X connect 31 0 0 0;
#X connect 32 0 0 0;
#X connect 33 0 0 0;
#X connect 34 0 0 0;
#X connect 35 0 28 0;
#X connect 35 1 29 0;
#X connect 35 2 30 0;
#X connect 35 3 31 0;
#X connect 35 4 32 0;
#X connect 35 5 33 0;
#X connect 35 6 34 0;
#X connect 36 0 7 4;
#X connect 37 0 1 1;
#X coords 0 304 1 303 85 60 0;
#X restore 367 339 pd onlinecasino;
#N canvas 223 304 450 300 cholesterol 0;
#X obj 20 319 outlet;
#X obj 110 199 drunk;
#X msg 153 179 2;
#X obj 20 -41 metro 200;
#X obj 71 -61 int;
#X obj 123 159 loadbang;
#X obj 20 9 shunt;
#X obj 20 199 counter;
#X msg 39 179 0;
#X obj 39 159 loadbang;
#X msg 29 78 0;
#X msg 29 97 1;
#X msg 29 117 2;
#X obj 205 60 tgl 15 0 empty empty empty 17 7 0 10 -258113 -1 -1 0
1;
#X obj 205 76 tgl 15 0 empty empty empty 17 7 0 10 -258113 -1 -1 0
1;
#X obj 205 92 tgl 15 0 empty empty empty 17 7 0 10 -258113 -1 -1 0
1;
#X obj 72 38 sel 1;
#X msg 72 58 0;
#X obj 72 78 sel 1;
#X msg 72 98 0;
#X obj 72 118 sel 1;
#X msg 72 138 0;
#X text 224 57 up;
#X text 224 73 down;
#X text 224 89 up/down;
#X obj 20 -71 inlet;
#X obj 71 -81 inlet;
#X obj 47 -11 inlet;
#X obj 20 219 sel 0 1 2 3 4;
#X msg 70 179 4;
#X msg 123 179 4;
#X msg 20 279 text Ask;
#X msg 80 279 text us;
#X msg 140 279 text about;
#X msg 219 279 text your;
#X msg 290 279 text cholesterol;
#X connect 1 0 28 0;
#X connect 2 0 1 2;
#X connect 3 0 6 0;
#X connect 4 0 3 1;
#X connect 5 0 30 0;
#X connect 5 0 2 0;
#X connect 6 0 7 0;
#X connect 6 1 1 0;
#X connect 7 0 28 0;
#X connect 8 0 7 2;
#X connect 9 0 8 0;
#X connect 9 0 29 0;
#X connect 10 0 7 1;
#X connect 11 0 7 1;
#X connect 12 0 7 1;
#X connect 13 0 16 0;
#X connect 14 0 18 0;
#X connect 15 0 20 0;
#X connect 16 0 17 0;
#X connect 16 0 10 0;
#X connect 17 0 14 0;
#X connect 17 0 15 0;
#X connect 18 0 19 0;
#X connect 19 0 11 0;
#X connect 19 0 13 0;
#X connect 19 0 15 0;
#X connect 20 0 21 0;
#X connect 21 0 12 0;
#X connect 21 0 13 0;
#X connect 21 0 14 0;
#X connect 25 0 3 0;
#X connect 26 0 4 0;
#X connect 27 0 6 1;
#X connect 28 0 31 0;
#X connect 28 1 32 0;
#X connect 28 2 33 0;
#X connect 28 3 34 0;
#X connect 28 4 35 0;
#X connect 29 0 7 4;
#X connect 30 0 1 1;
#X connect 31 0 0 0;
#X connect 32 0 0 0;
#X connect 33 0 0 0;
#X connect 34 0 0 0;
#X connect 35 0 0 0;
#X coords 0 300 1 299 85 60 0;
#X restore 608 269 pd cholesterol;
#N canvas 223 304 450 300 RussianGirls 0;
#X obj 20 319 outlet;
#X obj 110 199 drunk;
#X msg 153 179 2;
#X obj 20 -41 metro 200;
#X obj 71 -61 int;
#X obj 123 159 loadbang;
#X obj 20 9 shunt;
#X obj 20 199 counter;
#X msg 39 179 0;
#X obj 39 159 loadbang;
#X msg 29 78 0;
#X msg 29 97 1;
#X msg 29 117 2;
#X obj 205 60 tgl 15 0 empty empty empty 17 7 0 10 -258113 -1 -1 0
1;
#X obj 205 76 tgl 15 0 empty empty empty 17 7 0 10 -258113 -1 -1 0
1;
#X obj 205 92 tgl 15 0 empty empty empty 17 7 0 10 -258113 -1 -1 0
1;
#X obj 72 38 sel 1;
#X msg 72 58 0;
#X obj 72 78 sel 1;
#X msg 72 98 0;
#X obj 72 118 sel 1;
#X msg 72 138 0;
#X text 224 57 up;
#X text 224 73 down;
#X text 224 89 up/down;
#X obj 20 -71 inlet;
#X obj 71 -81 inlet;
#X obj 47 -11 inlet;
#X msg 20 279 text Russian;
#X msg 110 279 text girls;
#X msg 70 179 1;
#X msg 123 179 1;
#X obj 20 219 sel 0 1;
#X connect 1 0 32 0;
#X connect 2 0 1 2;
#X connect 3 0 6 0;
#X connect 4 0 3 1;
#X connect 5 0 31 0;
#X connect 5 0 2 0;
#X connect 6 0 7 0;
#X connect 6 1 1 0;
#X connect 7 0 32 0;
#X connect 8 0 7 2;
#X connect 9 0 8 0;
#X connect 9 0 30 0;
#X connect 10 0 7 1;
#X connect 11 0 7 1;
#X connect 12 0 7 1;
#X connect 13 0 16 0;
#X connect 14 0 18 0;
#X connect 15 0 20 0;
#X connect 16 0 17 0;
#X connect 16 0 10 0;
#X connect 17 0 14 0;
#X connect 17 0 15 0;
#X connect 18 0 19 0;
#X connect 19 0 11 0;
#X connect 19 0 13 0;
#X connect 19 0 15 0;
#X connect 20 0 21 0;
#X connect 21 0 12 0;
#X connect 21 0 13 0;
#X connect 21 0 14 0;
#X connect 25 0 3 0;
#X connect 26 0 4 0;
#X connect 27 0 6 1;
#X connect 28 0 0 0;
#X connect 29 0 0 0;
#X connect 30 0 7 4;
#X connect 31 0 1 1;
#X connect 32 0 28 0;
#X connect 32 1 29 0;
#X coords 0 300 1 299 85 60 0;
#X restore 488 339 pd RussianGirls;
#X obj 608 300 tgl 15 0 empty empty empty 17 7 0 10 -4034 -1 -1 0 1
;
#X obj 667 299 tgl 15 0 empty empty empty 17 7 0 10 -159808 -262144
-1 0 1;
#X text 686 300 nerv;
#X text 627 298 start;
#X obj 611 319 hsl 80 15 500 10 0 0 empty empty empty -2 -8 0 10 -260097
-1 -1 0 1;
#N canvas 223 304 450 304 PenisEnlarge 0;
#X obj 20 323 outlet;
#X obj 110 203 drunk;
#X msg 153 183 2;
#X obj 20 -37 metro 200;
#X obj 71 -57 int;
#X obj 123 163 loadbang;
#X obj 20 13 shunt;
#X obj 20 203 counter;
#X msg 39 183 0;
#X obj 39 163 loadbang;
#X msg 29 82 0;
#X msg 29 101 1;
#X msg 29 121 2;
#X obj 205 64 tgl 15 0 empty empty empty 17 7 0 10 -258113 -1 -1 0
1;
#X obj 205 80 tgl 15 0 empty empty empty 17 7 0 10 -258113 -1 -1 0
1;
#X obj 205 96 tgl 15 0 empty empty empty 17 7 0 10 -258113 -1 -1 0
1;
#X obj 72 42 sel 1;
#X msg 72 62 0;
#X obj 72 82 sel 1;
#X msg 72 102 0;
#X obj 72 122 sel 1;
#X msg 72 142 0;
#X text 224 61 up;
#X text 224 77 down;
#X text 224 93 up/down;
#X obj 20 -67 inlet;
#X obj 71 -77 inlet;
#X obj 47 -7 inlet;
#X msg 20 283 text Buy;
#X msg 80 283 text advances;
#X msg 170 283 text Penis;
#X msg 249 283 text enlargement;
#X msg 360 283 text pill;
#X obj 20 223 sel 0 1 2 3 4;
#X msg 70 183 4;
#X msg 123 183 4;
#X connect 1 0 33 0;
#X connect 2 0 1 2;
#X connect 3 0 6 0;
#X connect 4 0 3 1;
#X connect 5 0 35 0;
#X connect 5 0 2 0;
#X connect 6 0 7 0;
#X connect 6 1 1 0;
#X connect 7 0 33 0;
#X connect 8 0 7 2;
#X connect 9 0 8 0;
#X connect 9 0 34 0;
#X connect 10 0 7 1;
#X connect 11 0 7 1;
#X connect 12 0 7 1;
#X connect 13 0 16 0;
#X connect 14 0 18 0;
#X connect 15 0 20 0;
#X connect 16 0 17 0;
#X connect 16 0 10 0;
#X connect 17 0 14 0;
#X connect 17 0 15 0;
#X connect 18 0 19 0;
#X connect 19 0 11 0;
#X connect 19 0 13 0;
#X connect 19 0 15 0;
#X connect 20 0 21 0;
#X connect 21 0 12 0;
#X connect 21 0 13 0;
#X connect 21 0 14 0;
#X connect 25 0 3 0;
#X connect 26 0 4 0;
#X connect 27 0 6 1;
#X connect 28 0 0 0;
#X connect 29 0 0 0;
#X connect 30 0 0 0;
#X connect 31 0 0 0;
#X connect 32 0 0 0;
#X connect 33 0 28 0;
#X connect 33 1 29 0;
#X connect 33 2 30 0;
#X connect 33 3 31 0;
#X connect 33 4 32 0;
#X connect 34 0 7 4;
#X connect 35 0 1 1;
#X coords 0 304 1 303 85 60 0;
#X restore 607 339 pd PenisEnlarge;
#X obj 645 369 cnv 15 70 20 empty empty empty 20 12 0 14 -257985 -66577
0;
#X text 648 369 section 2a;
#X obj 488 370 tgl 15 0 empty empty empty 17 7 0 10 -4034 -1 -1 0 1
;
#X obj 551 369 tgl 15 0 empty empty empty 17 7 0 10 -159808 -262144
-1 0 1;
#X text 570 370 nerv;
#X text 507 368 start;
#X obj 742 -21 pix_film;
#X obj 742 9 somepixeffects;
#X obj 712 -41 tgl 15 0 empty empty empty 17 7 0 10 -262144 -1 -1 1
1;
#X obj 742 389 pix_texture;
#X obj 742 409 rectangle 16 9;
#X obj 802 -21 f;
#X obj 642 -11 openpanel;
#X obj 642 -31 bng 15 250 50 0 empty empty empty 17 7 0 10 -262144
-1 -1;
#X msg 642 10 open \$1;
#X msg 642 60 auto \$1;
#X obj 642 39 tgl 15 0 empty empty empty 17 7 0 10 -262144 -1 -1 1
1;
#X obj 740 -41 gemhead -100;
#X obj 932 -21 pix_film;
#X obj 932 9 somepixeffects;
#X obj 922 -81 tgl 15 0 empty empty empty 17 7 0 10 -262144 -1 -1 1
1;
#X obj 992 -21 f;
#X obj 852 -51 openpanel;
#X obj 852 -71 bng 15 250 50 0 empty empty empty 17 7 0 10 -262144
-1 -1;
#X msg 852 -30 open \$1;
#X obj 930 -41 gemhead -100;
#X obj 803 359 pix_mix;
#X obj 811 325 hsl 128 15 0 1 0 0 empty empty empty -2 -8 0 10 -262144
-1 -1 12700 1;
#X msg 982 -70 auto \$1;
#X obj 982 -91 tgl 15 0 empty empty empty 17 7 0 10 -262144 -1 -1 1
1;
#X obj 187 406 translateXYZ;
#X floatatom 238 376 5 0 0 0 - - -;
#X floatatom 291 380 5 0 0 0 - - -;
#X connect 3 0 2 0;
#X connect 4 0 3 0;
#X connect 5 0 3 1;
#X connect 6 0 3 3;
#X connect 7 0 3 2;
#X connect 8 0 19 0;
#X connect 10 0 34 1;
#X connect 11 0 26 1;
#X connect 14 0 16 0;
#X connect 14 0 28 0;
#X connect 15 0 16 0;
#X connect 16 0 8 0;
#X connect 17 0 22 0;
#X connect 18 0 17 1;
#X connect 19 0 34 0;
#X connect 20 0 19 1;
#X connect 21 0 20 0;
#X connect 21 1 20 1;
#X connect 21 2 20 2;
#X connect 22 0 43 0;
#X connect 22 0 44 0;
#X connect 22 0 90 0;
#X connect 23 0 26 2;
#X connect 26 0 8 0;
#X connect 28 0 15 0;
#X connect 29 0 26 0;
#X connect 30 0 21 0;
#X connect 31 0 19 2;
#X connect 34 0 17 0;
#X connect 34 1 10 0;
#X connect 36 0 43 3;
#X connect 37 0 43 1;
#X connect 39 0 43 2;
#X connect 41 0 43 4;
#X connect 42 0 43 5;
#X connect 46 0 44 2;
#X connect 47 0 44 1;
#X connect 49 0 44 3;
#X connect 50 0 44 4;
#X connect 59 0 2 1;
#X connect 61 0 2 0;
#X connect 62 0 61 0;
#X connect 63 0 64 0;
#X connect 64 0 65 0;
#X connect 65 0 66 0;
#X connect 66 0 70 0;
#X connect 69 0 66 1;
#X connect 71 0 66 2;
#X connect 72 0 66 3;
#X connect 80 0 83 0;
#X connect 81 0 83 3;
#X connect 82 0 83 2;
#X connect 87 0 83 1;
#X connect 89 0 29 0;
#X connect 90 0 178 0;
#X connect 91 0 90 1;
#X connect 93 0 117 0;
#X connect 94 0 93 0;
#X connect 95 0 93 1;
#X connect 98 0 93 2;
#X connect 99 0 104 0;
#X connect 100 0 104 1;
#X connect 103 0 104 2;
#X connect 104 0 117 0;
#X connect 105 0 110 0;
#X connect 106 0 110 1;
#X connect 109 0 110 2;
#X connect 110 0 117 0;
#X connect 111 0 116 0;
#X connect 112 0 116 1;
#X connect 115 0 116 2;
#X connect 116 0 117 0;
#X connect 117 0 2 0;
#X connect 118 0 138 0;
#X connect 119 0 138 1;
#X connect 122 0 138 2;
#X connect 123 0 139 0;
#X connect 124 0 139 1;
#X connect 127 0 139 2;
#X connect 128 0 140 0;
#X connect 129 0 140 1;
#X connect 132 0 140 2;
#X connect 133 0 141 0;
#X connect 134 0 141 1;
#X connect 137 0 141 2;
#X connect 138 0 117 0;
#X connect 139 0 117 0;
#X connect 140 0 117 0;
#X connect 141 0 117 0;
#X connect 142 0 147 0;
#X connect 143 0 147 1;
#X connect 146 0 147 2;
#X connect 147 0 117 0;
#X connect 154 0 155 0;
#X connect 154 2 159 0;
#X connect 155 0 174 0;
#X connect 156 0 165 0;
#X connect 157 0 158 0;
#X connect 159 0 154 1;
#X connect 160 0 162 0;
#X connect 161 0 160 0;
#X connect 162 0 154 0;
#X connect 163 0 154 0;
#X connect 164 0 163 0;
#X connect 165 0 154 0;
#X connect 166 0 167 0;
#X connect 166 2 169 0;
#X connect 167 0 174 1;
#X connect 168 0 173 0;
#X connect 169 0 166 1;
#X connect 170 0 172 0;
#X connect 171 0 170 0;
#X connect 172 0 166 0;
#X connect 173 0 166 0;
#X connect 174 0 157 0;
#X connect 175 0 174 2;
#X connect 176 0 166 0;
#X connect 177 0 176 0;
#X connect 178 0 2 0;
#X connect 179 0 178 2;
#X connect 180 0 178 1;
