#N canvas 386 69 650 685 10;
#X declare -lib gridflow;
#X declare -path /home/hellocatfood/pd-externals/hellocatfood;
#X obj 123 -73 bng 30 250 50 0 empty empty empty 17 7 0 10 -4034 -1
-1;
#X obj 163 -53 bng 15 250 50 0 empty empty empty 17 7 0 10 -258113
-1 -1;
#X obj 163 -73 bng 15 250 50 0 empty empty empty 17 7 0 10 -4032 -1
-1;
#N canvas 67 89 450 300 window 0;
#X obj 30 109 gemwin;
#X msg 200 39 0 \, destroy;
#X msg 30 39 create \, 1;
#X msg 110 39 dimen 800 600;
#X obj 30 19 inlet;
#X obj 110 19 inlet;
#X obj 200 19 inlet;
#X msg 123 100 offset 1366 0;
#X connect 1 0 0 0;
#X connect 2 0 0 0;
#X connect 3 0 0 0;
#X connect 4 0 2 0;
#X connect 5 0 7 0;
#X connect 5 0 3 0;
#X connect 6 0 1 0;
#X connect 7 0 0 0;
#X restore 123 -34 pd window;
#X text 183 -75 press this first;
#X text 183 -55 destroy window;
#X text 120 -95 create window;
#X obj 119 -140 import gridflow;
#X obj 123 -115 path /home/hellocatfood/pd-externals/hellocatfood;
#X floatatom 112 429 5 0 100 1 size - -;
#X obj 73 550 text3d;
#N canvas 535 223 450 300 cialissoldhere 0;
#X obj 20 289 outlet;
#X obj 110 199 drunk;
#X msg 123 179 3;
#X msg 153 179 2;
#X msg 20 249 text Cialis;
#X msg 100 249 text Sold;
#X msg 170 249 text Here;
#X obj 20 219 sel 0 1 2;
#X obj 20 -41 metro 200;
#X obj 71 -61 int;
#X obj 123 159 loadbang;
#X obj 20 9 shunt;
#X obj 20 199 counter;
#X msg 39 179 0;
#X msg 70 179 2;
#X obj 39 159 loadbang;
#X msg 29 78 0;
#X msg 29 97 1;
#X msg 29 117 2;
#X obj 205 60 tgl 15 0 empty empty empty 17 7 0 10 -258113 -1 -1 0
1;
#X obj 205 76 tgl 15 0 empty empty empty 17 7 0 10 -258113 -1 -1 0
1;
#X obj 205 92 tgl 15 0 empty empty empty 17 7 0 10 -258113 -1 -1 0
1;
#X obj 72 38 sel 1;
#X msg 72 58 0;
#X obj 72 78 sel 1;
#X msg 72 98 0;
#X obj 72 118 sel 1;
#X msg 72 138 0;
#X text 224 57 up;
#X text 224 73 down;
#X text 224 89 up/down;
#X obj 20 -71 inlet;
#X obj 71 -81 inlet;
#X obj 47 -11 inlet;
#X connect 1 0 7 0;
#X connect 2 0 1 1;
#X connect 3 0 1 2;
#X connect 4 0 0 0;
#X connect 5 0 0 0;
#X connect 6 0 0 0;
#X connect 7 0 4 0;
#X connect 7 1 5 0;
#X connect 7 2 6 0;
#X connect 8 0 11 0;
#X connect 9 0 8 1;
#X connect 10 0 2 0;
#X connect 10 0 3 0;
#X connect 11 0 12 0;
#X connect 11 1 1 0;
#X connect 12 0 7 0;
#X connect 13 0 12 2;
#X connect 14 0 12 4;
#X connect 15 0 13 0;
#X connect 15 0 14 0;
#X connect 16 0 12 1;
#X connect 17 0 12 1;
#X connect 18 0 12 1;
#X connect 19 0 22 0;
#X connect 20 0 24 0;
#X connect 21 0 26 0;
#X connect 22 0 23 0;
#X connect 22 0 16 0;
#X connect 23 0 20 0;
#X connect 23 0 21 0;
#X connect 24 0 25 0;
#X connect 25 0 17 0;
#X connect 25 0 19 0;
#X connect 25 0 21 0;
#X connect 26 0 27 0;
#X connect 27 0 18 0;
#X connect 27 0 19 0;
#X connect 27 0 20 0;
#X connect 31 0 8 0;
#X connect 32 0 9 0;
#X connect 33 0 11 1;
#X coords 0 300 1 299 85 60 0;
#X restore 184 458 pd cialissoldhere;
#X obj 184 399 tgl 15 0 empty empty empty 17 7 0 10 -4034 -1 -1 0 1
;
#X obj 184 419 tgl 15 0 empty empty empty 17 7 0 10 -159808 -262144
-1 0 1;
#X text 203 420 nerv;
#X text 203 397 start;
#X obj 187 439 hsl 80 15 500 10 0 0 empty empty empty -2 -8 0 10 -260097
-1 -1 0 1;
#X obj 334 399 tgl 15 0 empty empty empty 17 7 0 10 -4034 -1 -1 0 1
;
#X obj 334 418 tgl 15 0 empty empty empty 17 7 0 10 -159808 -262144
-1 0 1;
#X text 353 419 nerv;
#X text 353 397 start;
#X obj 337 438 hsl 80 15 500 10 0 0 empty empty empty -2 -8 0 10 -260097
-1 -1 0 1;
#N canvas 227 292 450 300 onlinepharmacy 0;
#X obj 20 319 outlet;
#X obj 110 199 drunk;
#X msg 153 179 2;
#X obj 20 -41 metro 200;
#X obj 71 -61 int;
#X obj 123 159 loadbang;
#X obj 20 9 shunt;
#X obj 20 199 counter;
#X msg 39 179 0;
#X obj 39 159 loadbang;
#X msg 29 78 0;
#X msg 29 97 1;
#X msg 29 117 2;
#X obj 205 60 tgl 15 0 empty empty empty 17 7 0 10 -258113 -1 -1 0
1;
#X obj 205 76 tgl 15 0 empty empty empty 17 7 0 10 -258113 -1 -1 0
1;
#X obj 205 92 tgl 15 0 empty empty empty 17 7 0 10 -258113 -1 -1 0
1;
#X obj 72 38 sel 1;
#X msg 72 58 0;
#X obj 72 78 sel 1;
#X msg 72 98 0;
#X obj 72 118 sel 1;
#X msg 72 138 0;
#X text 224 57 up;
#X text 224 73 down;
#X text 224 89 up/down;
#X obj 20 -71 inlet;
#X obj 71 -81 inlet;
#X obj 47 -11 inlet;
#X msg 70 179 5;
#X msg 123 179 5;
#X msg 20 279 text Save;
#X msg 90 279 text 80%;
#X msg 150 279 text with;
#X msg 219 279 text our;
#X msg 280 279 text online;
#X obj 20 219 sel 0 1 2 3 4 5;
#X msg 360 279 text pharmacy;
#X connect 1 0 35 0;
#X connect 2 0 1 2;
#X connect 3 0 6 0;
#X connect 4 0 3 1;
#X connect 5 0 29 0;
#X connect 5 0 2 0;
#X connect 6 0 7 0;
#X connect 6 1 1 0;
#X connect 7 0 35 0;
#X connect 8 0 7 2;
#X connect 9 0 8 0;
#X connect 9 0 28 0;
#X connect 10 0 7 1;
#X connect 11 0 7 1;
#X connect 12 0 7 1;
#X connect 13 0 16 0;
#X connect 14 0 18 0;
#X connect 15 0 20 0;
#X connect 16 0 17 0;
#X connect 16 0 10 0;
#X connect 17 0 14 0;
#X connect 17 0 15 0;
#X connect 18 0 19 0;
#X connect 19 0 11 0;
#X connect 19 0 13 0;
#X connect 19 0 15 0;
#X connect 20 0 21 0;
#X connect 21 0 12 0;
#X connect 21 0 13 0;
#X connect 21 0 14 0;
#X connect 25 0 3 0;
#X connect 26 0 4 0;
#X connect 27 0 6 1;
#X connect 28 0 7 4;
#X connect 29 0 1 1;
#X connect 30 0 0 0;
#X connect 31 0 0 0;
#X connect 32 0 0 0;
#X connect 33 0 0 0;
#X connect 34 0 0 0;
#X connect 35 0 30 0;
#X connect 35 1 31 0;
#X connect 35 2 32 0;
#X connect 35 3 33 0;
#X connect 35 4 34 0;
#X connect 35 5 36 0;
#X connect 36 0 0 0;
#X coords 0 300 1 299 85 60 0;
#X restore 334 458 pd onlinepharmacy;
#X obj 484 399 tgl 15 0 empty empty empty 17 7 0 10 -4034 -1 -1 0 1
;
#X obj 484 418 tgl 15 0 empty empty empty 17 7 0 10 -159808 -262144
-1 0 1;
#X text 503 419 nerv;
#X text 503 397 start;
#X obj 487 438 hsl 80 15 500 10 0 0 empty empty empty -2 -8 0 10 -260097
-1 -1 0 1;
#N canvas 227 292 450 300 viagratoday 0;
#X obj 20 319 outlet;
#X obj 110 199 drunk;
#X msg 153 179 2;
#X obj 20 -41 metro 200;
#X obj 71 -61 int;
#X obj 123 159 loadbang;
#X obj 20 9 shunt;
#X obj 20 199 counter;
#X msg 39 179 0;
#X obj 39 159 loadbang;
#X msg 29 78 0;
#X msg 29 97 1;
#X msg 29 117 2;
#X obj 205 60 tgl 15 0 empty empty empty 17 7 0 10 -258113 -1 -1 0
1;
#X obj 205 76 tgl 15 0 empty empty empty 17 7 0 10 -258113 -1 -1 0
1;
#X obj 205 92 tgl 15 0 empty empty empty 17 7 0 10 -258113 -1 -1 0
1;
#X obj 72 38 sel 1;
#X msg 72 58 0;
#X obj 72 78 sel 1;
#X msg 72 98 0;
#X obj 72 118 sel 1;
#X msg 72 138 0;
#X text 224 57 up;
#X text 224 73 down;
#X text 224 89 up/down;
#X obj 20 -71 inlet;
#X obj 71 -81 inlet;
#X obj 47 -11 inlet;
#X obj 20 219 sel 0 1 2 3 4;
#X msg 20 279 text Try;
#X msg 80 279 text Viagra;
#X msg 160 279 text and;
#X msg 219 279 text Cialis;
#X msg 300 279 text Today;
#X msg 70 179 4;
#X msg 123 179 4;
#X connect 1 0 28 0;
#X connect 2 0 1 2;
#X connect 3 0 6 0;
#X connect 4 0 3 1;
#X connect 5 0 35 0;
#X connect 5 0 2 0;
#X connect 6 0 7 0;
#X connect 6 1 1 0;
#X connect 7 0 28 0;
#X connect 8 0 7 2;
#X connect 9 0 8 0;
#X connect 9 0 34 0;
#X connect 10 0 7 1;
#X connect 11 0 7 1;
#X connect 12 0 7 1;
#X connect 13 0 16 0;
#X connect 14 0 18 0;
#X connect 15 0 20 0;
#X connect 16 0 17 0;
#X connect 16 0 10 0;
#X connect 17 0 14 0;
#X connect 17 0 15 0;
#X connect 18 0 19 0;
#X connect 19 0 11 0;
#X connect 19 0 13 0;
#X connect 19 0 15 0;
#X connect 20 0 21 0;
#X connect 21 0 12 0;
#X connect 21 0 13 0;
#X connect 21 0 14 0;
#X connect 25 0 3 0;
#X connect 26 0 4 0;
#X connect 27 0 6 1;
#X connect 28 0 29 0;
#X connect 28 1 30 0;
#X connect 28 2 31 0;
#X connect 28 3 32 0;
#X connect 28 4 33 0;
#X connect 29 0 0 0;
#X connect 30 0 0 0;
#X connect 31 0 0 0;
#X connect 32 0 0 0;
#X connect 33 0 0 0;
#X connect 34 0 7 4;
#X connect 35 0 1 1;
#X coords 0 300 1 299 85 60 0;
#X restore 484 458 pd viagratoday;
#X obj 614 399 tgl 15 0 empty empty empty 17 7 0 10 -4034 -1 -1 0 1
;
#X obj 614 418 tgl 15 0 empty empty empty 17 7 0 10 -159808 -262144
-1 0 1;
#X text 633 419 nerv;
#X text 633 397 start;
#X obj 617 438 hsl 80 15 500 10 0 0 empty empty empty -2 -8 0 10 -260097
-1 -1 0 1;
#N canvas 225 298 450 300 MaxGentleman 0;
#X obj 20 319 outlet;
#X obj 110 199 drunk;
#X msg 153 179 2;
#X obj 20 -41 metro 200;
#X obj 71 -61 int;
#X obj 123 159 loadbang;
#X obj 20 9 shunt;
#X obj 20 199 counter;
#X msg 39 179 0;
#X obj 39 159 loadbang;
#X msg 29 78 0;
#X msg 29 97 1;
#X msg 29 117 2;
#X obj 205 60 tgl 15 0 empty empty empty 17 7 0 10 -258113 -1 -1 0
1;
#X obj 205 76 tgl 15 0 empty empty empty 17 7 0 10 -258113 -1 -1 0
1;
#X obj 205 92 tgl 15 0 empty empty empty 17 7 0 10 -258113 -1 -1 0
1;
#X obj 72 38 sel 1;
#X msg 72 58 0;
#X obj 72 78 sel 1;
#X msg 72 98 0;
#X obj 72 118 sel 1;
#X msg 72 138 0;
#X text 224 57 up;
#X text 224 73 down;
#X text 224 89 up/down;
#X obj 20 -71 inlet;
#X obj 71 -81 inlet;
#X obj 47 -11 inlet;
#X msg 20 279 text MaxGentleman;
#X msg 140 279 text Enlargement;
#X msg 250 279 text Pills;
#X obj 20 219 sel 0 1 2;
#X msg 70 179 2;
#X msg 123 179 2;
#X connect 1 0 31 0;
#X connect 2 0 1 2;
#X connect 3 0 6 0;
#X connect 4 0 3 1;
#X connect 5 0 33 0;
#X connect 5 0 2 0;
#X connect 6 0 7 0;
#X connect 6 1 1 0;
#X connect 7 0 31 0;
#X connect 8 0 7 2;
#X connect 9 0 8 0;
#X connect 9 0 32 0;
#X connect 10 0 7 1;
#X connect 11 0 7 1;
#X connect 12 0 7 1;
#X connect 13 0 16 0;
#X connect 14 0 18 0;
#X connect 15 0 20 0;
#X connect 16 0 17 0;
#X connect 16 0 10 0;
#X connect 17 0 14 0;
#X connect 17 0 15 0;
#X connect 18 0 19 0;
#X connect 19 0 11 0;
#X connect 19 0 13 0;
#X connect 19 0 15 0;
#X connect 20 0 21 0;
#X connect 21 0 12 0;
#X connect 21 0 13 0;
#X connect 21 0 14 0;
#X connect 25 0 3 0;
#X connect 26 0 4 0;
#X connect 27 0 6 1;
#X connect 28 0 0 0;
#X connect 29 0 0 0;
#X connect 30 0 0 0;
#X connect 31 0 28 0;
#X connect 31 1 29 0;
#X connect 31 2 30 0;
#X connect 32 0 7 4;
#X connect 33 0 1 1;
#X coords 0 300 1 299 85 60 0;
#X restore 614 458 pd MaxGentleman;
#N canvas 745 142 450 300 font 0;
#X obj 23 4 loadbang;
#X obj 23 274 outlet;
#X obj 23 34 inlet;
#X obj 43 94 inlet;
#X obj 63 154 inlet;
#X obj 83 214 inlet;
#X msg 23 54 font /home/hellocatfood/Desktop/Laptopera/fonts/Computerfont.ttf
;
#X msg 43 114 font /home/hellocatfood/Desktop/Laptopera/fonts/Dataface_12.ttf
;
#X msg 63 174 font /home/hellocatfood/Desktop/Laptopera/fonts/digital-7.ttf
;
#X msg 83 234 font /home/hellocatfood/Desktop/Laptopera/fonts/Glitch.ttf
;
#X connect 0 0 6 0;
#X connect 2 0 6 0;
#X connect 3 0 7 0;
#X connect 4 0 8 0;
#X connect 5 0 9 0;
#X connect 6 0 1 0;
#X connect 7 0 1 0;
#X connect 8 0 1 0;
#X connect 9 0 1 0;
#X restore 390 567 pd font;
#X obj 390 547 bng 12 250 50 0 empty empty empty 17 7 0 10 -258113
-1 -1;
#X obj 390 532 bng 12 250 50 0 empty empty empty 17 7 0 10 -258113
-1 -1;
#X obj 430 547 bng 12 250 50 0 empty empty empty 17 7 0 10 -258113
-1 -1;
#X obj 430 532 bng 12 250 50 0 empty empty empty 17 7 0 10 -258113
-1 -1;
#X obj 73 150 part_head;
#X obj 220 90 cnv 15 110 180 empty stoprotate empty 20 12 0 14 -191407
-66577 0;
#X obj 228 199 hsl 90 15 0 2 0 0 empty empty empty -2 -8 0 10 -260097
-1 -1 0 1;
#X obj 225 99 tgl 15 0 empty stoprotate empty 17 7 0 10 -4034 -1 -1
0 1;
#X text 225 178 spread;
#X text 245 98 rotate;
#X obj 88 110 loadbang;
#X obj 228 159 hsl 90 15 0 5 0 0 empty empty empty -2 -8 0 10 -260097
-1 -1 1780 1;
#X msg 88 130 speed \$1;
#X obj 73 249 part_killold 10;
#X obj 228 242 hsl 90 15 1 50 0 0 empty empty empty -2 -8 0 10 -260097
-1 -1 0 1;
#X obj 73 210 part_targetcolor;
#X obj 119 190 pack f f f f;
#N canvas 704 107 450 300 rand 0;
#X obj 60 89 random 100;
#X obj 131 68 metro;
#X obj 131 90 random 100;
#X obj 200 68 metro;
#X obj 200 90 random 100;
#X obj 64 67 metro 50;
#X msg 104 24 bang;
#X obj 59 151 /;
#X obj 126 167 /;
#X obj 189 167 /;
#X obj 61 207 outlet;
#X obj 128 203 outlet;
#X obj 204 208 outlet;
#X obj 77 121 * 5;
#X obj 150 125 * 5;
#X obj 243 122 * 5;
#X obj 105 3 loadbang;
#X connect 0 0 3 1;
#X connect 0 0 7 0;
#X connect 0 0 13 0;
#X connect 1 0 2 0;
#X connect 2 0 5 1;
#X connect 2 0 8 0;
#X connect 2 0 14 0;
#X connect 3 0 4 0;
#X connect 4 0 1 1;
#X connect 4 0 9 0;
#X connect 4 0 15 0;
#X connect 5 0 0 0;
#X connect 6 0 5 0;
#X connect 6 0 1 0;
#X connect 6 0 3 0;
#X connect 7 0 10 0;
#X connect 8 0 11 0;
#X connect 9 0 12 0;
#X connect 13 0 9 1;
#X connect 14 0 7 1;
#X connect 15 0 8 1;
#X connect 16 0 6 0;
#X restore 119 169 pd rand;
#X obj 73 269 part_render;
#X obj 228 119 hsl 60 15 100 2 0 0 empty empty empty -2 -8 0 10 -260097
-1 -1 0 1;
#X obj 305 119 bng 15 250 50 0 srotate empty empty 17 7 0 10 -258113
-1 -1;
#N canvas 387 187 450 300 spread 0;
#X obj 57 220 part_velocity;
#X msg 132 70 symbol sphere;
#X obj 132 -10 loadbang;
#X obj 132 10 t b b;
#X obj 57 140 part_source 1;
#X msg 132 180 symbol sphere;
#X msg 132 120 0 0 0 0 \$1;
#X msg 132 200 0 0 0 0 \$1;
#X msg 159 30 0;
#X obj 57 -30 inlet;
#X obj 57 260 outlet;
#X obj 159 50 outlet;
#X obj 232 70 inlet;
#X connect 0 0 10 0;
#X connect 1 0 4 2;
#X connect 2 0 3 0;
#X connect 2 0 5 0;
#X connect 3 0 1 0;
#X connect 3 0 6 0;
#X connect 3 1 8 0;
#X connect 4 0 0 0;
#X connect 5 0 0 1;
#X connect 6 0 4 3;
#X connect 7 0 0 2;
#X connect 8 0 11 0;
#X connect 9 0 4 0;
#X connect 12 0 6 0;
#X connect 12 0 7 0;
#X restore 73 229 pd spread;
#X text 225 224 amount;
#N canvas 503 136 450 300 rotate 0;
#X obj 111 111 f;
#X obj 137 111 + 1;
#X obj 111 91 metro 30;
#X obj 77 140 rotateXYZ;
#X obj 77 30 inlet;
#X obj 111 61 inlet;
#X obj 156 61 inlet;
#X obj 77 170 outlet;
#X msg 207 160 0;
#X obj 207 180 s stoprotate;
#X obj 207 140 r srotate;
#X connect 0 0 1 0;
#X connect 0 0 3 2;
#X connect 0 0 3 1;
#X connect 1 0 0 1;
#X connect 2 0 0 0;
#X connect 3 0 7 0;
#X connect 4 0 3 0;
#X connect 5 0 2 0;
#X connect 6 0 2 1;
#X connect 8 0 9 0;
#X connect 8 0 0 0;
#X connect 10 0 8 0;
#X restore 73 90 pd rotate;
#X text 225 138 speed;
#X msg 148 130 1;
#X obj 840 324 pix_texture;
#X obj 840 344 rectangle 4 3;
#N canvas 510 88 450 300 multiply 0;
#X obj 153 193 pix_mix;
#X obj 214 192 pix_multiply;
#X obj 153 103 shunt;
#X obj 256 103 shunt;
#X obj 43 103 inlet;
#X obj 171 218 outlet;
#X obj 386 103 inlet;
#X obj 283 43 inlet;
#X obj 153 43 inlet;
#X connect 0 0 5 0;
#X connect 1 0 5 0;
#X connect 2 0 0 0;
#X connect 2 1 1 0;
#X connect 3 0 0 1;
#X connect 3 1 1 1;
#X connect 4 0 2 0;
#X connect 6 0 3 0;
#X connect 7 0 2 1;
#X connect 7 0 3 1;
#X connect 8 0 0 2;
#X coords 0 300 1 299 180 40 0;
#X restore 840 304 pd multiply;
#X obj 793 250 hsl 128 40 0 1 0 0 empty empty empty 0 -20 0 20 -260097
-1 -1 0 1;
#X obj 930 250 tgl 40 0 empty empty empty 35 15 0 20 -260097 -1 -1
0 1;
#X obj 724 -55 somepixeffects;
#X obj 894 -55 somepixeffects;
#X obj 724 -164 player;
#X msg 570 119 open \$1;
#X obj 549 61 openpanel;
#X obj 590 31 bng 15 250 50 0 empty empty empty 17 7 0 10 -262144 -1
-1;
#X msg 1130 69 open \$1;
#X obj 1109 11 openpanel;
#X obj 1150 -19 bng 15 250 50 0 empty empty empty 17 7 0 10 -262144
-1 -1;
#X obj 73 50 gemhead -2;
#X obj 894 -164 player;
#X connect 0 0 3 0;
#X connect 1 0 3 2;
#X connect 2 0 3 1;
#X connect 9 0 10 1;
#X connect 11 0 10 0;
#X connect 12 0 11 0;
#X connect 13 0 11 1;
#X connect 16 0 11 2;
#X connect 17 0 22 0;
#X connect 18 0 22 1;
#X connect 21 0 22 2;
#X connect 22 0 10 0;
#X connect 23 0 28 0;
#X connect 24 0 28 1;
#X connect 27 0 28 2;
#X connect 28 0 10 0;
#X connect 29 0 34 0;
#X connect 30 0 34 1;
#X connect 33 0 34 2;
#X connect 34 0 10 0;
#X connect 35 0 10 0;
#X connect 36 0 35 0;
#X connect 37 0 35 1;
#X connect 38 0 35 3;
#X connect 39 0 35 2;
#X connect 40 0 51 0;
#X connect 42 0 57 1;
#X connect 43 0 59 1;
#X connect 46 0 48 0;
#X connect 46 0 61 0;
#X connect 47 0 48 0;
#X connect 48 0 40 0;
#X connect 49 0 54 0;
#X connect 50 0 49 1;
#X connect 51 0 57 0;
#X connect 52 0 51 1;
#X connect 53 0 52 0;
#X connect 53 1 52 1;
#X connect 53 2 52 2;
#X connect 54 0 10 0;
#X connect 55 0 59 2;
#X connect 57 0 49 0;
#X connect 57 1 42 0;
#X connect 59 0 40 0;
#X connect 61 0 47 0;
#X connect 62 0 63 0;
#X connect 64 0 62 0;
#X connect 65 0 64 1;
#X connect 66 0 64 2;
#X connect 67 0 64 0;
#X connect 68 0 64 3;
#X connect 69 0 67 0;
#X connect 70 0 69 0;
#X connect 71 0 70 0;
#X connect 72 0 71 0;
#X connect 73 0 77 0;
#X connect 74 0 73 0;
#X connect 75 0 74 0;
#X connect 76 0 59 0;
#X connect 77 0 68 0;
