#N canvas 65 54 1301 714 10;
#X declare -lib mrpeach;
#X declare -lib gridflow;
#X declare -path /home/hellocatfood/pd-externals/hellocatfood;
#X obj 35 -200 udpreceive 57120;
#X obj 35 -178 unpackOSC;
#X obj 35 -157 routeOSC /bile;
#N canvas 457 250 450 300 messaging 0;
#X obj 225 254 udpsend;
#X obj 225 231 packOSC;
#X msg 225 206 connect 255.255.255.255 57120;
#X msg 225 160 disconnect;
#X obj 35 151 routeOSC /msg;
#X msg 145 110 send /bile/msg Antonio \$1;
#X obj 35 129 inlet;
#X obj 338 99 s displaytext;
#X obj 55 174 print chat;
#X msg 35 194 set \$1;
#X obj 35 214 outlet;
#X obj 225 140 inlet;
#X obj 225 186 inlet;
#X obj 145 88 inlet;
#X connect 1 0 0 0;
#X connect 2 0 0 0;
#X connect 3 0 0 0;
#X connect 4 0 9 0;
#X connect 4 0 8 0;
#X connect 5 0 1 0;
#X connect 6 0 4 0;
#X connect 9 0 10 0;
#X connect 11 0 3 0;
#X connect 12 0 2 0;
#X connect 13 0 5 0;
#X coords 0 0 1 1 248 86 0;
#X restore 35 325 pd messaging;
#X obj 584 -184 import mrpeach;
#X obj 365 -137 cnv 15 100 230 empty empty empty 20 12 0 14 -4034 -66577
0;
#X obj 372 -132 cnv 15 80 20 empty empty empty 20 12 0 14 -233017 -66577
0;
#X obj 35 235 cnv 15 242 80 empty empty empty 20 12 0 14 -228856 -66577
0;
#X obj 38 262 cnv 15 235 50 empty empty empty 20 12 0 14 -4034 -66577
0;
#X symbolatom 41 265 30 0 0 0 - - -;
#X symbolatom 87 290 30 0 0 0 - - -;
#X obj 38 238 bng 15 250 50 0 empty empty empty 17 7 0 10 -260097 -1
-1;
#X obj 128 238 bng 15 250 50 0 empty empty empty 17 7 0 10 -258113
-1 -1;
#X text 54 236 connect;
#X text 144 236 disconnect;
#X text 244 264 send;
#X text 37 290 recieve;
#X obj 223 238 cnv 15 50 20 empty empty empty 20 12 0 14 -257985 -66577
0;
#X text 228 238 chat;
#X obj 372 -102 grid grid1 80 0 10 80 0 10 0 0.1 0.1 10 10 406.551
-66.8468;
#X obj 372 43 translateXYZ;
#X obj 372 3 pack f f f;
#N canvas 67 89 450 300 translated 0;
#X obj 119 216 - 5;
#X obj 119 196 line;
#X msg 119 176 \$1 100;
#X obj 192 216 - 5;
#X obj 192 196 line;
#X msg 192 176 \$1 100;
#X obj 119 156 inlet;
#X obj 192 156 inlet;
#X obj 119 236 outlet;
#X obj 192 236 outlet;
#X connect 0 0 8 0;
#X connect 1 0 0 0;
#X connect 2 0 1 0;
#X connect 3 0 9 0;
#X connect 4 0 3 0;
#X connect 5 0 4 0;
#X connect 6 0 2 0;
#X connect 7 0 5 0;
#X restore 372 -17 pd translated;
#X obj 372 73 sphere;
#N canvas 554 259 222 299 particles 0;
#X obj 43 20 part_head;
#X obj 58 -40 loadbang;
#X msg 58 0 speed \$1;
#X obj 43 140 part_targetcolor;
#X obj 43 240 part_render;
#X msg 58 -20 1;
#X obj 43 -60 gemhead -2;
#N canvas 385 193 450 300 spread 0;
#X obj 57 220 part_velocity;
#X msg 132 70 symbol sphere;
#X obj 132 -10 loadbang;
#X obj 132 10 t b b;
#X obj 57 140 part_source 1;
#X msg 132 180 symbol sphere;
#X msg 132 120 0 0 0 0 \$1;
#X msg 132 200 0 0 0 0 \$1;
#X msg 159 30 0;
#X obj 57 -30 inlet;
#X obj 57 260 outlet;
#X obj 159 50 outlet;
#X obj 232 70 inlet;
#X connect 0 0 10 0;
#X connect 1 0 4 2;
#X connect 2 0 3 0;
#X connect 2 0 5 0;
#X connect 3 0 1 0;
#X connect 3 0 6 0;
#X connect 3 1 8 0;
#X connect 4 0 0 0;
#X connect 5 0 0 1;
#X connect 6 0 4 3;
#X connect 7 0 0 2;
#X connect 8 0 11 0;
#X connect 9 0 4 0;
#X connect 12 0 6 0;
#X connect 12 0 7 0;
#X restore 43 200 pd spread;
#X obj 43 220 part_killold 5;
#X msg 94 175 0.06;
#X obj 43 260 outlet;
#X msg 136 120 0.4;
#X obj 43 -80 inlet;
#X msg 89 90 0.4 0.9 0.4 1;
#X connect 0 0 3 0;
#X connect 1 0 5 0;
#X connect 1 0 9 0;
#X connect 1 0 13 0;
#X connect 1 0 11 0;
#X connect 2 0 0 0;
#X connect 3 0 7 0;
#X connect 4 0 10 0;
#X connect 5 0 2 0;
#X connect 6 0 0 0;
#X connect 7 0 8 0;
#X connect 8 0 4 0;
#X connect 9 0 7 1;
#X connect 11 0 3 2;
#X connect 12 0 6 0;
#X connect 13 0 3 1;
#X restore 372 23 pd particles;
#X obj 482 -184 import gridflow;
#X obj 482 -164 path /home/hellocatfood/pd-externals/hellocatfood;
#X symbolatom 65 208 28 0 0 0 - - -;
#N canvas 194 332 522 299 fightouting 0;
#X obj 32 -25 inlet;
#X symbolatom 32 52 6 0 0 0 - - -;
#X symbolatom 82 92 6 0 0 0 - - -;
#X obj 32 -2 routeOSC /fighters;
#X obj 32 284 list2symbol;
#X symbolatom 62 72 6 0 0 0 - - -;
#X obj 32 214 pack s s;
#X obj 32 305 outlet;
#X obj 42 184 outlet;
#X obj 122 184 outlet;
#X obj 82 184 outlet;
#X obj 32 18 unpack s s s s s s;
#X symbolatom 132 112 6 0 0 0 - - -;
#X symbolatom 232 182 6 0 0 0 - - -;
#X symbolatom 232 162 6 0 0 0 - - -;
#X text 74 51 owner of the symbol;
#X text 104 71 symbol being fought over;
#X text 124 91 current control of above sumbol;
#X text 174 111 challenger;
#X connect 0 0 3 0;
#X connect 2 0 8 0;
#X connect 2 0 6 0;
#X connect 3 0 11 0;
#X connect 4 0 7 0;
#X connect 5 0 10 0;
#X connect 6 0 4 0;
#X connect 11 0 1 0;
#X connect 11 1 5 0;
#X connect 11 2 2 0;
#X connect 11 3 12 0;
#X connect 11 4 14 0;
#X connect 11 5 13 0;
#X connect 12 0 9 0;
#X connect 12 0 6 1;
#X restore 65 50 pd fightouting;
#X msg 92 130 1;
#X msg 131 130 2;
#X msg 171 130 3;
#X msg 146 180 1;
#X msg 185 180 2;
#X msg 225 180 3;
#X obj 119 70 sel x y z;
#X msg 119 90 0 0 1;
#X msg 159 90 0 1 0;
#X msg 199 90 1 0 0;
#X obj 55 -137 cnv 15 78 53 empty empty empty 20 12 0 14 -260097 -66577
0;
#X floatatom 58 -114 3 0 1 0 - - -;
#X floatatom 83 -114 3 0 1 0 - - -;
#X floatatom 109 -114 3 0 1 0 - - -;
#X text 60 -102 x;
#X text 85 -102 y;
#X text 111 -102 z;
#X obj 145 -137 cnv 15 78 53 empty empty empty 20 12 0 14 -260097 -66577
0;
#X floatatom 148 -114 3 0 1 0 - - -;
#X floatatom 173 -114 3 0 1 0 - - -;
#X floatatom 199 -114 3 0 1 0 - - -;
#X text 150 -102 x;
#X text 176 -100 y;
#X text 201 -102 z;
#X obj 235 -137 cnv 15 78 53 empty empty empty 20 12 0 14 -260097 -66577
0;
#X floatatom 238 -114 3 0 1 0 - - -;
#X floatatom 263 -114 3 0 1 0 - - -;
#X floatatom 289 -114 3 0 1 0 - - -;
#X text 240 -102 x;
#X text 265 -102 y;
#X text 291 -102 z;
#N canvas 450 212 450 300 Shelly 0;
#X obj 107 9 inlet;
#X obj 107 51 routeOSC /x;
#X obj 182 51 routeOSC /y;
#X obj 258 51 routeOSC /z;
#X obj 107 95 outlet;
#X obj 182 95 outlet;
#X obj 258 95 outlet;
#X obj 107 75 - 0;
#X obj 182 75 - 0;
#X obj 258 75 - 0;
#X obj 107 30 routeOSC /Shelly;
#X connect 0 0 10 0;
#X connect 1 0 7 0;
#X connect 2 0 8 0;
#X connect 3 0 9 0;
#X connect 7 0 4 0;
#X connect 8 0 5 0;
#X connect 9 0 6 0;
#X connect 10 0 1 0;
#X connect 10 0 2 0;
#X connect 10 0 3 0;
#X coords 0 300 1 299 59 84 0;
#X restore 148 -134 pd Shelly;
#N canvas 563 189 450 300 Les 0;
#X obj 107 9 inlet;
#X obj 107 51 routeOSC /x;
#X obj 182 51 routeOSC /y;
#X obj 258 51 routeOSC /z;
#X obj 107 95 outlet;
#X obj 182 95 outlet;
#X obj 258 95 outlet;
#X obj 107 75 - 0;
#X obj 182 75 - 0;
#X obj 258 75 - 0;
#X obj 107 30 routeOSC /Les;
#X connect 0 0 10 0;
#X connect 1 0 7 0;
#X connect 2 0 8 0;
#X connect 3 0 9 0;
#X connect 7 0 4 0;
#X connect 8 0 5 0;
#X connect 9 0 6 0;
#X connect 10 0 1 0;
#X connect 10 0 2 0;
#X connect 10 0 3 0;
#X coords 0 300 1 299 59 84 0;
#X restore 238 -134 pd Les;
#X obj 365 103 cnv 15 110 180 empty empty empty 20 12 0 14 -159808
-66577 0;
#X obj 370 260 curve 2;
#X obj 389 130 switch 3;
#X obj 409 150 switch 3;
#X msg 414 239 width \$1;
#X floatatom 414 219 5 0 0 0 - - -;
#X obj 370 230 color;
#X obj 485 -137 cnv 15 100 230 empty empty empty 20 12 0 14 -258113
-66577 0;
#X obj 492 -132 cnv 15 80 20 empty empty empty 20 12 0 14 -233017 -66577
0;
#X obj 492 -102 grid grid1 80 0 10 80 0 10 0 0.1 0.1 10 10 516.118
-76.3155;
#X obj 492 43 translateXYZ;
#X obj 492 3 pack f f f;
#N canvas 67 89 450 300 translated 0;
#X obj 119 216 - 5;
#X obj 119 196 line;
#X msg 119 176 \$1 100;
#X obj 192 216 - 5;
#X obj 192 196 line;
#X msg 192 176 \$1 100;
#X obj 119 156 inlet;
#X obj 192 156 inlet;
#X obj 119 236 outlet;
#X obj 192 236 outlet;
#X connect 0 0 8 0;
#X connect 1 0 0 0;
#X connect 2 0 1 0;
#X connect 3 0 9 0;
#X connect 4 0 3 0;
#X connect 5 0 4 0;
#X connect 6 0 2 0;
#X connect 7 0 5 0;
#X restore 492 -17 pd translated;
#X obj 492 73 sphere;
#N canvas 209 276 222 299 particles 0;
#X obj 43 20 part_head;
#X obj 58 -40 loadbang;
#X msg 58 0 speed \$1;
#X obj 43 140 part_targetcolor;
#X obj 43 240 part_render;
#X msg 58 -20 1;
#X obj 43 -60 gemhead -2;
#N canvas 385 193 450 300 spread 0;
#X obj 57 220 part_velocity;
#X msg 132 70 symbol sphere;
#X obj 132 -10 loadbang;
#X obj 132 10 t b b;
#X obj 57 140 part_source 1;
#X msg 132 180 symbol sphere;
#X msg 132 120 0 0 0 0 \$1;
#X msg 132 200 0 0 0 0 \$1;
#X msg 159 30 0;
#X obj 57 -30 inlet;
#X obj 57 260 outlet;
#X obj 159 50 outlet;
#X obj 232 70 inlet;
#X connect 0 0 10 0;
#X connect 1 0 4 2;
#X connect 2 0 3 0;
#X connect 2 0 5 0;
#X connect 3 0 1 0;
#X connect 3 0 6 0;
#X connect 3 1 8 0;
#X connect 4 0 0 0;
#X connect 5 0 0 1;
#X connect 6 0 4 3;
#X connect 7 0 0 2;
#X connect 8 0 11 0;
#X connect 9 0 4 0;
#X connect 12 0 6 0;
#X connect 12 0 7 0;
#X restore 43 200 pd spread;
#X obj 43 220 part_killold 5;
#X msg 94 175 0.06;
#X obj 43 260 outlet;
#X msg 136 120 0.4;
#X msg 89 90 1 0.1 0 1;
#X obj 43 -80 inlet;
#X connect 0 0 3 0;
#X connect 1 0 5 0;
#X connect 1 0 9 0;
#X connect 1 0 12 0;
#X connect 1 0 11 0;
#X connect 2 0 0 0;
#X connect 3 0 7 0;
#X connect 4 0 10 0;
#X connect 5 0 2 0;
#X connect 6 0 0 0;
#X connect 7 0 8 0;
#X connect 8 0 4 0;
#X connect 9 0 7 1;
#X connect 11 0 3 2;
#X connect 12 0 3 1;
#X connect 13 0 6 0;
#X restore 492 23 pd particles;
#X obj 605 -137 cnv 15 100 230 empty empty empty 20 12 0 14 -4160 -66577
0;
#X obj 612 -132 cnv 15 80 20 empty empty empty 20 12 0 14 -233017 -66577
0;
#X obj 612 -102 grid grid1 80 0 10 80 0 10 0 0.1 0.1 10 10 657.829
-33.5103;
#X obj 612 43 translateXYZ;
#X obj 612 3 pack f f f;
#N canvas 67 89 450 300 translated 0;
#X obj 119 216 - 5;
#X obj 119 196 line;
#X msg 119 176 \$1 100;
#X obj 192 216 - 5;
#X obj 192 196 line;
#X msg 192 176 \$1 100;
#X obj 119 156 inlet;
#X obj 192 156 inlet;
#X obj 119 236 outlet;
#X obj 192 236 outlet;
#X connect 0 0 8 0;
#X connect 1 0 0 0;
#X connect 2 0 1 0;
#X connect 3 0 9 0;
#X connect 4 0 3 0;
#X connect 5 0 4 0;
#X connect 6 0 2 0;
#X connect 7 0 5 0;
#X restore 612 -17 pd translated;
#X obj 612 73 sphere;
#N canvas 545 496 222 299 particles 0;
#X obj 43 20 part_head;
#X obj 58 -40 loadbang;
#X msg 58 0 speed \$1;
#X obj 43 140 part_targetcolor;
#X obj 43 240 part_render;
#X msg 58 -20 1;
#X obj 43 -60 gemhead -2;
#N canvas 385 193 450 300 spread 0;
#X obj 57 220 part_velocity;
#X msg 132 70 symbol sphere;
#X obj 132 -10 loadbang;
#X obj 132 10 t b b;
#X obj 57 140 part_source 1;
#X msg 132 180 symbol sphere;
#X msg 132 120 0 0 0 0 \$1;
#X msg 132 200 0 0 0 0 \$1;
#X msg 159 30 0;
#X obj 57 -30 inlet;
#X obj 57 260 outlet;
#X obj 159 50 outlet;
#X obj 232 70 inlet;
#X connect 0 0 10 0;
#X connect 1 0 4 2;
#X connect 2 0 3 0;
#X connect 2 0 5 0;
#X connect 3 0 1 0;
#X connect 3 0 6 0;
#X connect 3 1 8 0;
#X connect 4 0 0 0;
#X connect 5 0 0 1;
#X connect 6 0 4 3;
#X connect 7 0 0 2;
#X connect 8 0 11 0;
#X connect 9 0 4 0;
#X connect 12 0 6 0;
#X connect 12 0 7 0;
#X restore 43 200 pd spread;
#X obj 43 220 part_killold 5;
#X msg 94 175 0.06;
#X obj 43 260 outlet;
#X msg 136 120 0.4;
#X msg 89 90 0 0.1 1 1;
#X obj 43 -80 inlet;
#X connect 0 0 3 0;
#X connect 1 0 5 0;
#X connect 1 0 9 0;
#X connect 1 0 12 0;
#X connect 1 0 11 0;
#X connect 2 0 0 0;
#X connect 3 0 7 0;
#X connect 4 0 10 0;
#X connect 5 0 2 0;
#X connect 6 0 0 0;
#X connect 7 0 8 0;
#X connect 8 0 4 0;
#X connect 9 0 7 1;
#X connect 11 0 3 2;
#X connect 12 0 3 1;
#X connect 13 0 6 0;
#X restore 612 23 pd particles;
#X text 492 -130 Shelly;
#X text 612 -130 Les;
#X obj 432 73 tgl 15 0 empty empty empty 17 7 0 10 -257985 -1 -1 0
1;
#X obj 553 72 tgl 15 0 empty empty empty 17 7 0 10 -257985 -1 -1 0
1;
#X obj 673 72 tgl 15 0 empty empty empty 17 7 0 10 -257985 -1 -1 0
1;
#X obj 414 180 loadbang;
#X msg 414 199 12;
#N canvas 344 238 450 300 sendshelly 0;
#X msg 38 191 goto \$1 \$2;
#X obj 38 172 pack f f;
#X obj 38 22 inlet;
#X obj 83 22 inlet;
#X obj 38 222 outlet;
#X obj 83 52 * 50;
#X obj 38 52 * 50;
#X obj 38 122 line;
#X obj 83 122 line;
#X msg 38 92 \$1 100;
#X msg 83 92 \$1 100;
#X obj 133 22 inlet;
#X connect 0 0 4 0;
#X connect 1 0 0 0;
#X connect 2 0 6 0;
#X connect 3 0 5 0;
#X connect 5 0 10 0;
#X connect 6 0 9 0;
#X connect 7 0 1 0;
#X connect 8 0 1 1;
#X connect 9 0 7 0;
#X connect 10 0 8 0;
#X connect 11 0 5 1;
#X connect 11 0 6 1;
#X restore 148 -34 pd sendshelly;
#N canvas 494 210 450 300 sendles 0;
#X msg 38 171 goto \$1 \$2;
#X obj 38 152 pack f f;
#X obj 38 22 inlet;
#X obj 83 22 inlet;
#X obj 38 202 outlet;
#X obj 83 52 * 80;
#X obj 38 52 * 80;
#X obj 38 112 line;
#X obj 83 112 line;
#X msg 38 82 \$1 100;
#X msg 83 82 \$1 100;
#X obj 133 22 inlet;
#X connect 0 0 4 0;
#X connect 1 0 0 0;
#X connect 2 0 6 0;
#X connect 3 0 5 0;
#X connect 5 0 10 0;
#X connect 6 0 9 0;
#X connect 7 0 1 0;
#X connect 8 0 1 1;
#X connect 9 0 7 0;
#X connect 10 0 8 0;
#X connect 11 0 6 1;
#X connect 11 0 5 1;
#X restore 238 -34 pd sendles;
#X obj 111 -55 + 1;
#X obj 271 -75 * -1;
#X obj 271 -55 + 1;
#X obj 203 -72 * -1;
#X obj 181 -55 + 1;
#X msg 372 -164 bang;
#X obj 372 -184 metro 300;
#X obj 372 -204 tgl 15 0 empty empty empty 17 7 0 10 -262144 -1 -1
1 1;
#X obj 505 104 cnv 15 180 210 empty empty empty 20 12 0 14 -99865 -66577
0;
#X obj 510 110 gemhead -5;
#X obj 510 237 color;
#X obj 581 150 random 100;
#X obj 581 170 / 100;
#X obj 581 130 metro 1000;
#X obj 651 150 * 10;
#X obj 581 190 line \$1 100;
#X obj 581 110 tgl 15 0 empty empty empty 17 7 0 10 -4034 -1 -1 1 1
;
#X obj 644 170 * 10;
#X obj 581 220 pack f f f;
#X obj 392 -204 loadbang;
#X obj 510 267 rectangle 16 9;
#X msg 662 -209 color 255 255 255;
#X obj 165 -239 bng 30 250 50 0 empty empty empty 17 7 0 10 -4034 -1
-1;
#X obj 205 -219 bng 15 250 50 0 empty empty empty 17 7 0 10 -258113
-1 -1;
#X obj 205 -239 bng 15 250 50 0 empty empty empty 17 7 0 10 -4032 -1
-1;
#N canvas 220 242 450 300 window 0;
#X obj 30 149 gemwin;
#X msg 320 39 0 \, destroy;
#X obj 30 19 inlet;
#X obj 150 19 inlet;
#X obj 320 19 inlet;
#X msg 151 109 offset 1366 0;
#X msg 260 108 border 0;
#X msg 30 39 FSAA 8 \, create \, 1;
#X obj 332 162 world_light;
#X obj 332 132 gemhead;
#X msg 150 169 lighting \$1;
#X obj 150 149 inlet;
#X msg 198 80 dimen 1280 720;
#X connect 1 0 0 0;
#X connect 2 0 7 0;
#X connect 3 0 5 0;
#X connect 3 0 6 0;
#X connect 3 0 12 0;
#X connect 4 0 1 0;
#X connect 5 0 0 0;
#X connect 6 0 0 0;
#X connect 7 0 0 0;
#X connect 9 0 8 0;
#X connect 10 0 0 0;
#X connect 11 0 10 0;
#X connect 12 0 0 0;
#X restore 165 -200 pd window;
#X text 225 -241 press this first;
#X text 225 -221 destroy window;
#X text 162 -261 create window;
#X obj 235 -200 tgl 15 0 empty empty empty 17 7 0 10 -257985 -1 -1
1 1;
#X text 255 -201 lighting;
#X obj 61 -14 hsl 70 15 10 150 0 0 empty empty empty -2 -8 0 10 -260097
-1 -1 0 1;
#X obj 151 -14 hsl 70 15 10 150 0 0 empty empty empty -2 -8 0 10 -260097
-1 -1 0 1;
#X obj 241 -14 hsl 70 15 10 150 0 0 empty empty empty -2 -8 0 10 -260097
-1 -1 3600 1;
#X floatatom 238 6 5 0 0 0 - - -;
#X floatatom 148 6 5 0 0 0 - - -;
#X floatatom 58 6 5 0 0 0 - - -;
#X text 275 5 80;
#X text 185 5 50;
#X text 95 5 70;
#N canvas 380 236 450 300 sendcrhis 0;
#X msg 38 181 goto \$1 \$2;
#X obj 38 162 pack f f;
#X obj 83 102 * 70;
#X obj 38 102 * 70;
#X obj 38 22 inlet;
#X obj 83 22 inlet;
#X obj 38 212 outlet;
#X obj 38 142 line;
#X obj 83 142 line;
#X msg 38 122 \$1 100;
#X msg 83 122 \$1 100;
#X obj 133 22 inlet;
#X connect 0 0 6 0;
#X connect 1 0 0 0;
#X connect 2 0 10 0;
#X connect 3 0 9 0;
#X connect 4 0 3 0;
#X connect 5 0 2 0;
#X connect 7 0 1 0;
#X connect 8 0 1 1;
#X connect 9 0 7 0;
#X connect 10 0 8 0;
#X connect 11 0 3 1;
#X connect 11 0 2 1;
#X restore 58 -34 pd sendcrhis;
#X obj 112 -75 * 1;
#N canvas 238 203 450 300 Iain 0;
#X obj 107 9 inlet;
#X obj 107 51 routeOSC /x;
#X obj 182 51 routeOSC /y;
#X obj 258 51 routeOSC /z;
#X obj 107 95 outlet;
#X obj 182 95 outlet;
#X obj 258 95 outlet;
#X obj 107 75 - 0;
#X obj 182 75 - 0;
#X obj 258 75 - 0;
#X obj 107 30 routeOSC /Iain;
#X connect 0 0 10 0;
#X connect 1 0 7 0;
#X connect 2 0 8 0;
#X connect 3 0 9 0;
#X connect 7 0 4 0;
#X connect 8 0 5 0;
#X connect 9 0 6 0;
#X connect 10 0 1 0;
#X connect 10 0 2 0;
#X connect 10 0 3 0;
#X coords 0 300 1 299 59 84 0;
#X restore 58 -134 pd Iain;
#X text 372 -131 Iain;
#N canvas 66 127 702 640 feedback 0;
#X obj 500 250 cnv 15 110 195 empty empty empty 20 12 0 14 -233017
-66577 0;
#X obj 274 230 pix_texture;
#X msg 367 152 snap;
#X obj 274 128 render_trigger;
#X obj 274 460 rotateXYZ;
#X obj 274 410 translateXYZ;
#X obj 504 275 grid grid1 100 0 10 100 0 10 0 0.1 0.1 10 10 809 201
;
#N canvas 67 113 450 300 translated 0;
#X obj 119 196 line;
#X msg 119 176 \$1 100;
#X obj 192 196 line;
#X msg 192 176 \$1 100;
#X obj 119 156 inlet;
#X obj 192 156 inlet;
#X obj 119 236 outlet;
#X obj 192 236 outlet;
#X obj 119 216 - 5;
#X obj 192 216 - 5;
#X connect 0 0 8 0;
#X connect 1 0 0 0;
#X connect 2 0 9 0;
#X connect 3 0 2 0;
#X connect 4 0 1 0;
#X connect 5 0 3 0;
#X connect 8 0 6 0;
#X connect 9 0 7 0;
#X restore 297 380 pd translated;
#X obj 508 405 hsl 60 15 -10 10 0 0 empty empty empty -2 -8 0 10 -260097
-1 -1 4300 1;
#X obj 508 385 hsl 60 15 0 360 0 0 empty empty empty -2 -8 0 10 -260097
-1 -1 0 1;
#X text 570 384 rotate;
#X obj 274 580 spigot;
#X obj 505 425 tgl 15 0 empty empty empty 17 7 0 10 -4034 -1 -1 0 1
;
#X obj 274 250 separator;
#X obj 504 255 tgl 15 0 empty empty empty 17 7 0 10 -258113 -1 -1 1
1;
#X obj 294 530 square;
#X text 570 403 size;
#X text 521 253 render;
#X text 521 423 sphere;
#X obj 504 200 loadbang;
#X obj 504 220 t b b;
#X msg 597 224 3;
#X obj 575 136 key;
#X obj 577 177 bng 15 250 50 0 empty empty empty 17 7 0 10 -262144
-1 -1;
#X obj 575 156 sel 101;
#X obj 297 151 gemhead 100;
#X obj 274 104 gemhead -1;
#X obj 294 500 scaleXYZ;
#X obj 272 600 sphere 6;
#X obj 274 199 pix_snap 0 0 1280 720;
#X msg 414 430 1.5;
#X connect 1 0 13 0;
#X connect 2 0 29 0;
#X connect 3 0 29 0;
#X connect 3 2 2 0;
#X connect 4 0 11 0;
#X connect 4 0 27 0;
#X connect 5 0 4 0;
#X connect 6 0 7 0;
#X connect 6 1 7 1;
#X connect 7 0 5 1;
#X connect 7 1 5 2;
#X connect 8 0 15 1;
#X connect 9 0 4 3;
#X connect 11 0 28 0;
#X connect 12 0 11 1;
#X connect 13 0 5 0;
#X connect 14 0 25 0;
#X connect 14 0 26 0;
#X connect 19 0 20 0;
#X connect 19 0 21 0;
#X connect 19 0 30 0;
#X connect 20 0 14 0;
#X connect 20 1 14 0;
#X connect 21 0 8 0;
#X connect 22 0 24 0;
#X connect 23 0 14 0;
#X connect 24 0 23 0;
#X connect 25 0 29 0;
#X connect 26 0 3 0;
#X connect 27 0 15 0;
#X connect 29 0 1 0;
#X connect 30 0 27 1;
#X coords 0 -1 1 1 110 195 1 500 250;
#X restore 754 126 pd feedback;
#X obj 92 110 sel Iain Shelly Les;
#X obj 146 160 sel Iain Shelly Les;
#X obj 370 110 gemhead -1;
#X connect 0 0 1 0;
#X connect 1 0 2 0;
#X connect 2 0 3 0;
#X connect 2 0 28 0;
#X connect 2 0 136 0;
#X connect 2 0 60 0;
#X connect 2 0 61 0;
#X connect 3 0 10 0;
#X connect 9 0 3 1;
#X connect 11 0 3 2;
#X connect 12 0 3 3;
#X connect 19 0 22 0;
#X connect 19 1 22 1;
#X connect 20 0 23 0;
#X connect 21 0 64 1;
#X connect 21 0 65 1;
#X connect 22 0 20 1;
#X connect 22 0 21 0;
#X connect 22 1 20 2;
#X connect 22 1 21 1;
#X connect 24 0 20 0;
#X connect 28 0 27 0;
#X connect 28 1 139 0;
#X connect 28 2 35 0;
#X connect 28 3 140 0;
#X connect 29 0 64 0;
#X connect 30 0 64 0;
#X connect 31 0 64 0;
#X connect 32 0 65 0;
#X connect 33 0 65 0;
#X connect 34 0 65 0;
#X connect 35 0 36 0;
#X connect 35 1 37 0;
#X connect 35 2 38 0;
#X connect 36 0 68 1;
#X connect 37 0 68 1;
#X connect 38 0 68 1;
#X connect 40 0 134 0;
#X connect 41 0 134 1;
#X connect 47 0 92 0;
#X connect 48 0 92 1;
#X connect 54 0 93 0;
#X connect 55 0 95 0;
#X connect 60 0 47 0;
#X connect 60 1 48 0;
#X connect 60 2 49 0;
#X connect 61 0 54 0;
#X connect 61 1 55 0;
#X connect 61 2 56 0;
#X connect 64 0 63 1;
#X connect 65 0 63 2;
#X connect 66 0 63 0;
#X connect 67 0 66 0;
#X connect 68 0 63 0;
#X connect 71 0 74 0;
#X connect 71 1 74 1;
#X connect 72 0 75 0;
#X connect 73 0 64 2;
#X connect 73 0 65 2;
#X connect 74 0 72 1;
#X connect 74 0 73 0;
#X connect 74 1 72 2;
#X connect 74 1 73 1;
#X connect 76 0 72 0;
#X connect 79 0 82 0;
#X connect 79 1 82 1;
#X connect 80 0 83 0;
#X connect 81 0 64 3;
#X connect 81 0 65 3;
#X connect 82 0 80 1;
#X connect 82 0 81 0;
#X connect 82 1 80 2;
#X connect 82 1 81 1;
#X connect 84 0 80 0;
#X connect 87 0 24 0;
#X connect 88 0 76 0;
#X connect 89 0 84 0;
#X connect 90 0 91 0;
#X connect 91 0 67 0;
#X connect 92 0 71 0;
#X connect 93 0 79 0;
#X connect 95 0 96 0;
#X connect 96 0 93 1;
#X connect 97 0 98 0;
#X connect 98 0 92 1;
#X connect 99 0 19 0;
#X connect 99 0 71 0;
#X connect 99 0 79 0;
#X connect 100 0 99 0;
#X connect 101 0 100 0;
#X connect 103 0 104 0;
#X connect 104 0 114 0;
#X connect 105 0 106 0;
#X connect 105 0 108 0;
#X connect 105 0 111 0;
#X connect 106 0 109 0;
#X connect 107 0 105 0;
#X connect 108 0 107 1;
#X connect 109 0 112 2;
#X connect 109 0 112 0;
#X connect 109 0 112 1;
#X connect 110 0 107 0;
#X connect 111 0 109 1;
#X connect 112 0 104 1;
#X connect 113 0 101 0;
#X connect 115 0 19 0;
#X connect 115 0 71 0;
#X connect 115 0 79 0;
#X connect 116 0 119 0;
#X connect 117 0 119 3;
#X connect 118 0 119 2;
#X connect 123 0 119 1;
#X connect 125 0 134 2;
#X connect 125 0 130 0;
#X connect 126 0 92 2;
#X connect 126 0 129 0;
#X connect 127 0 93 2;
#X connect 127 0 128 0;
#X connect 134 0 19 0;
#X connect 135 0 94 0;
#X connect 136 0 40 0;
#X connect 136 1 41 0;
#X connect 136 2 42 0;
#X connect 139 0 29 0;
#X connect 139 1 30 0;
#X connect 139 2 31 0;
#X connect 140 0 32 0;
#X connect 140 1 33 0;
#X connect 140 2 34 0;
#X connect 141 0 68 0;
