#N canvas 66 54 1300 714 10;
#X declare -lib mrpeach;
#X declare -lib gridflow;
#X declare -path /home/hellocatfood/pd-externals/hellocatfood;
#X obj 35 10 udpreceive 57120;
#X obj 35 32 unpackOSC;
#X obj 35 53 routeOSC /bile;
#N canvas 66 34 450 300 Shelly 0;
#X obj 102 102 cnv 15 55 80 empty empty empty 20 12 0 14 -260097 -66577
0;
#X obj 107 29 inlet;
#X obj 107 50 routeOSC /Shelly;
#X floatatom 107 125 5 0 1 0 - - -;
#X floatatom 107 144 5 0 1 0 - - -;
#X floatatom 107 163 5 0 1 0 - - -;
#X obj 107 71 routeOSC /x;
#X obj 182 71 routeOSC /y;
#X obj 258 71 routeOSC /z;
#X obj 107 195 outlet;
#X obj 182 195 outlet;
#X obj 258 195 outlet;
#X text 107 102 Shelly;
#X text 141 124 x;
#X text 142 144 y;
#X text 141 161 z;
#X connect 1 0 2 0;
#X connect 2 0 6 0;
#X connect 2 0 7 0;
#X connect 2 0 8 0;
#X connect 3 0 9 0;
#X connect 4 0 10 0;
#X connect 5 0 11 0;
#X connect 6 0 3 0;
#X connect 7 0 4 0;
#X connect 8 0 5 0;
#X coords 0 -1 1 1 59 84 2 100 100;
#X restore 280 151 pd Shelly;
#N canvas 66 34 450 300 Shelly 0;
#X obj 102 102 cnv 15 55 80 empty empty empty 20 12 0 14 -260097 -66577
0;
#X obj 107 9 inlet;
#X floatatom 107 125 5 0 1 0 - - -;
#X floatatom 107 144 5 0 1 0 - - -;
#X floatatom 107 163 5 0 1 0 - - -;
#X obj 107 51 routeOSC /x;
#X obj 182 51 routeOSC /y;
#X obj 258 51 routeOSC /z;
#X obj 107 195 outlet;
#X obj 182 195 outlet;
#X obj 258 195 outlet;
#X text 141 124 x;
#X text 142 144 y;
#X text 141 161 z;
#X text 106 102 Julien;
#X obj 107 30 routeOSC /Julien;
#X obj 258 71 - 0.5;
#X obj 182 71 - 0.5;
#X obj 107 71 - 0.5;
#X connect 1 0 15 0;
#X connect 2 0 8 0;
#X connect 3 0 9 0;
#X connect 4 0 10 0;
#X connect 5 0 18 0;
#X connect 6 0 17 0;
#X connect 7 0 16 0;
#X connect 15 0 5 0;
#X connect 15 0 6 0;
#X connect 15 0 7 0;
#X connect 16 0 4 0;
#X connect 17 0 3 0;
#X connect 18 0 2 0;
#X coords 0 -1 1 1 59 84 2 100 100;
#X restore 481 153 pd Shelly;
#N canvas 69 32 450 300 Shelly 0;
#X obj 102 102 cnv 15 55 80 empty empty empty 20 12 0 14 -260097 -66577
0;
#X obj 107 29 inlet;
#X floatatom 107 125 5 0 1 0 - - -;
#X floatatom 107 144 5 0 1 0 - - -;
#X floatatom 107 163 5 0 1 0 - - -;
#X obj 107 71 routeOSC /x;
#X obj 182 71 routeOSC /y;
#X obj 258 71 routeOSC /z;
#X obj 107 195 outlet;
#X obj 182 195 outlet;
#X obj 258 195 outlet;
#X text 141 124 x;
#X text 142 144 y;
#X text 141 161 z;
#X text 107 102 les;
#X obj 107 50 routeOSC /Les;
#X connect 1 0 15 0;
#X connect 2 0 8 0;
#X connect 3 0 9 0;
#X connect 4 0 10 0;
#X connect 5 0 2 0;
#X connect 6 0 3 0;
#X connect 7 0 4 0;
#X connect 15 0 5 0;
#X connect 15 0 6 0;
#X connect 15 0 7 0;
#X coords 0 -1 1 1 59 84 2 100 100;
#X restore 342 152 pd Shelly;
#N canvas 459 244 450 300 messaging 0;
#X obj 225 254 udpsend;
#X obj 225 231 packOSC;
#X msg 225 206 connect 255.255.255.255 57120;
#X msg 225 160 disconnect;
#X obj 35 151 routeOSC /msg;
#X msg 145 110 send /bile/msg Antonio \$1;
#X obj 35 129 inlet;
#X obj 338 99 s displaytext;
#X obj 55 174 print chat;
#X msg 35 194 set \$1;
#X obj 35 214 outlet;
#X obj 225 140 inlet;
#X obj 225 186 inlet;
#X obj 145 88 inlet;
#X connect 1 0 0 0;
#X connect 2 0 0 0;
#X connect 3 0 0 0;
#X connect 4 0 9 0;
#X connect 4 0 8 0;
#X connect 5 0 1 0;
#X connect 6 0 4 0;
#X connect 9 0 10 0;
#X connect 11 0 3 0;
#X connect 12 0 2 0;
#X connect 13 0 5 0;
#X coords 0 0 1 1 248 86 0;
#X restore 35 225 pd messaging;
#X obj 145 -275 import mrpeach;
#X obj 395 -264 cnv 15 220 270 empty empty empty 20 12 0 14 -4032 -66577
0;
#N canvas 67 89 450 300 Shelly 0;
#X obj 102 102 cnv 15 55 80 empty empty empty 20 12 0 14 -260097 -66577
0;
#X obj 107 29 inlet;
#X floatatom 107 125 5 0 1 0 - - -;
#X floatatom 107 144 5 0 1 0 - - -;
#X floatatom 107 163 5 0 1 0 - - -;
#X obj 107 71 routeOSC /x;
#X obj 182 71 routeOSC /y;
#X obj 258 71 routeOSC /z;
#X obj 107 195 outlet;
#X obj 182 195 outlet;
#X obj 258 195 outlet;
#X text 141 124 x;
#X text 142 144 y;
#X text 141 161 z;
#X text 107 102 chris;
#X obj 107 50 routeOSC /chris;
#X connect 1 0 15 0;
#X connect 2 0 8 0;
#X connect 3 0 9 0;
#X connect 4 0 10 0;
#X connect 5 0 2 0;
#X connect 6 0 3 0;
#X connect 7 0 4 0;
#X connect 15 0 5 0;
#X connect 15 0 6 0;
#X connect 15 0 7 0;
#X coords 0 -1 1 1 59 84 2 100 100;
#X restore 412 152 pd Shelly;
#X obj 402 -259 cnv 15 80 20 empty empty empty 20 12 0 14 -233017 -66577
0;
#X obj 35 135 cnv 15 242 80 empty empty empty 20 12 0 14 -228856 -66577
0;
#X obj 38 162 cnv 15 235 50 empty empty empty 20 12 0 14 -4034 -66577
0;
#X symbolatom 41 165 30 0 0 0 - - -;
#X symbolatom 87 190 30 0 0 0 - - -;
#X obj 38 138 bng 15 250 50 0 empty empty empty 17 7 0 10 -260097 -1
-1;
#X obj 128 138 bng 15 250 50 0 empty empty empty 17 7 0 10 -258113
-1 -1;
#X text 54 136 connect;
#X text 144 136 disconnect;
#X text 244 164 send;
#X text 37 190 recieve;
#X obj 223 138 cnv 15 50 20 empty empty empty 20 12 0 14 -257985 -66577
0;
#X text 228 138 chat;
#X obj 512 -259 grid grid1 80 0 10 80 0 10 0 0.1 0.1 10 10 567 -196
;
#X obj 512 -114 translateXYZ;
#X obj 512 -154 pack f f f;
#X msg 532 -64 draw line;
#N canvas 67 83 450 300 translated 0;
#X obj 119 216 - 5;
#X obj 119 196 line;
#X msg 119 176 \$1 100;
#X obj 192 216 - 5;
#X obj 192 196 line;
#X msg 192 176 \$1 100;
#X obj 119 156 inlet;
#X obj 192 156 inlet;
#X obj 119 236 outlet;
#X obj 192 236 outlet;
#X connect 0 0 8 0;
#X connect 1 0 0 0;
#X connect 2 0 1 0;
#X connect 3 0 9 0;
#X connect 4 0 3 0;
#X connect 5 0 4 0;
#X connect 6 0 2 0;
#X connect 7 0 5 0;
#X restore 512 -174 pd translated;
#X obj 512 -34 sphere;
#N canvas 67 101 450 300 particles 0;
#X obj 43 20 part_head;
#X obj 58 -40 loadbang;
#X msg 58 0 speed \$1;
#X obj 43 140 part_targetcolor;
#X obj 43 240 part_render;
#X msg 58 -20 1;
#X obj 43 -60 gemhead -2;
#N canvas 385 193 450 300 spread 0;
#X obj 57 220 part_velocity;
#X msg 132 70 symbol sphere;
#X obj 132 -10 loadbang;
#X obj 132 10 t b b;
#X obj 57 140 part_source 1;
#X msg 132 180 symbol sphere;
#X msg 132 120 0 0 0 0 \$1;
#X msg 132 200 0 0 0 0 \$1;
#X msg 159 30 0;
#X obj 57 -30 inlet;
#X obj 57 260 outlet;
#X obj 159 50 outlet;
#X obj 232 70 inlet;
#X connect 0 0 10 0;
#X connect 1 0 4 2;
#X connect 2 0 3 0;
#X connect 2 0 5 0;
#X connect 3 0 1 0;
#X connect 3 0 6 0;
#X connect 3 1 8 0;
#X connect 4 0 0 0;
#X connect 5 0 0 1;
#X connect 6 0 4 3;
#X connect 7 0 0 2;
#X connect 8 0 11 0;
#X connect 9 0 4 0;
#X connect 12 0 6 0;
#X connect 12 0 7 0;
#X restore 43 200 pd spread;
#X obj 43 220 part_killold 5;
#X msg 94 175 0.06;
#X obj 43 260 outlet;
#X msg 136 120 0.4;
#X msg 89 90 0.4 0.1 1 1;
#X connect 0 0 3 0;
#X connect 1 0 5 0;
#X connect 1 0 9 0;
#X connect 1 0 12 0;
#X connect 2 0 0 0;
#X connect 3 0 7 0;
#X connect 4 0 10 0;
#X connect 5 0 2 0;
#X connect 6 0 0 0;
#X connect 7 0 8 0;
#X connect 8 0 4 0;
#X connect 9 0 7 1;
#X connect 11 0 3 2;
#X connect 12 0 3 1;
#X restore 512 -134 pd particles;
#X msg 532 -84 draw fill;
#X text 402 -257 chris - bright;
#X obj 655 -264 cnv 15 220 270 empty empty empty 20 12 0 14 -4032 -66577
0;
#X obj 662 -259 cnv 15 80 20 empty empty empty 20 12 0 14 -233017 -66577
0;
#X obj 772 -259 grid grid1 80 0 10 80 0 10 0 0.1 0.1 10 10 820 -241
;
#X obj 772 -114 translateXYZ;
#X obj 772 -154 pack f f f;
#X msg 792 -64 draw line;
#N canvas 67 83 450 300 translated 0;
#X obj 119 216 - 5;
#X obj 119 196 line;
#X msg 119 176 \$1 100;
#X obj 192 216 - 5;
#X obj 192 196 line;
#X msg 192 176 \$1 100;
#X obj 119 156 inlet;
#X obj 192 156 inlet;
#X obj 119 236 outlet;
#X obj 192 236 outlet;
#X connect 0 0 8 0;
#X connect 1 0 0 0;
#X connect 2 0 1 0;
#X connect 3 0 9 0;
#X connect 4 0 3 0;
#X connect 5 0 4 0;
#X connect 6 0 2 0;
#X connect 7 0 5 0;
#X restore 772 -174 pd translated;
#X obj 772 -34 sphere;
#N canvas 67 101 450 300 particles 0;
#X obj 43 20 part_head;
#X obj 58 -40 loadbang;
#X msg 58 0 speed \$1;
#X obj 43 140 part_targetcolor;
#X obj 43 240 part_render;
#X msg 58 -20 1;
#X obj 43 -60 gemhead -2;
#N canvas 385 193 450 300 spread 0;
#X obj 57 220 part_velocity;
#X msg 132 70 symbol sphere;
#X obj 132 -10 loadbang;
#X obj 132 10 t b b;
#X obj 57 140 part_source 1;
#X msg 132 180 symbol sphere;
#X msg 132 120 0 0 0 0 \$1;
#X msg 132 200 0 0 0 0 \$1;
#X msg 159 30 0;
#X obj 57 -30 inlet;
#X obj 57 260 outlet;
#X obj 159 50 outlet;
#X obj 232 70 inlet;
#X connect 0 0 10 0;
#X connect 1 0 4 2;
#X connect 2 0 3 0;
#X connect 2 0 5 0;
#X connect 3 0 1 0;
#X connect 3 0 6 0;
#X connect 3 1 8 0;
#X connect 4 0 0 0;
#X connect 5 0 0 1;
#X connect 6 0 4 3;
#X connect 7 0 0 2;
#X connect 8 0 11 0;
#X connect 9 0 4 0;
#X connect 12 0 6 0;
#X connect 12 0 7 0;
#X restore 43 200 pd spread;
#X obj 43 220 part_killold 5;
#X msg 94 175 0.06;
#X obj 43 260 outlet;
#X msg 136 120 0.4;
#X msg 89 90 0.4 0.1 1 1;
#X connect 0 0 3 0;
#X connect 1 0 5 0;
#X connect 1 0 9 0;
#X connect 1 0 12 0;
#X connect 2 0 0 0;
#X connect 3 0 7 0;
#X connect 4 0 10 0;
#X connect 5 0 2 0;
#X connect 6 0 0 0;
#X connect 7 0 8 0;
#X connect 8 0 4 0;
#X connect 9 0 7 1;
#X connect 11 0 3 2;
#X connect 12 0 3 1;
#X restore 772 -134 pd particles;
#X msg 792 -84 draw fill;
#X text 662 -257 chris - bright;
#X obj 915 -264 cnv 15 220 270 empty empty empty 20 12 0 14 -4032 -66577
0;
#X obj 922 -259 cnv 15 80 20 empty empty empty 20 12 0 14 -233017 -66577
0;
#X obj 1032 -259 grid grid1 80 0 10 80 0 10 0 0.1 0.1 10 10 1065 -208
;
#X obj 1032 -114 translateXYZ;
#X obj 1032 -154 pack f f f;
#X msg 1052 -64 draw line;
#N canvas 67 83 450 300 translated 0;
#X obj 119 216 - 5;
#X obj 119 196 line;
#X msg 119 176 \$1 100;
#X obj 192 216 - 5;
#X obj 192 196 line;
#X msg 192 176 \$1 100;
#X obj 119 156 inlet;
#X obj 192 156 inlet;
#X obj 119 236 outlet;
#X obj 192 236 outlet;
#X connect 0 0 8 0;
#X connect 1 0 0 0;
#X connect 2 0 1 0;
#X connect 3 0 9 0;
#X connect 4 0 3 0;
#X connect 5 0 4 0;
#X connect 6 0 2 0;
#X connect 7 0 5 0;
#X restore 1032 -174 pd translated;
#X obj 1032 -34 sphere;
#N canvas 67 101 450 300 particles 0;
#X obj 43 20 part_head;
#X obj 58 -40 loadbang;
#X msg 58 0 speed \$1;
#X obj 43 140 part_targetcolor;
#X obj 43 240 part_render;
#X msg 58 -20 1;
#X obj 43 -60 gemhead -2;
#N canvas 385 193 450 300 spread 0;
#X obj 57 220 part_velocity;
#X msg 132 70 symbol sphere;
#X obj 132 -10 loadbang;
#X obj 132 10 t b b;
#X obj 57 140 part_source 1;
#X msg 132 180 symbol sphere;
#X msg 132 120 0 0 0 0 \$1;
#X msg 132 200 0 0 0 0 \$1;
#X msg 159 30 0;
#X obj 57 -30 inlet;
#X obj 57 260 outlet;
#X obj 159 50 outlet;
#X obj 232 70 inlet;
#X connect 0 0 10 0;
#X connect 1 0 4 2;
#X connect 2 0 3 0;
#X connect 2 0 5 0;
#X connect 3 0 1 0;
#X connect 3 0 6 0;
#X connect 3 1 8 0;
#X connect 4 0 0 0;
#X connect 5 0 0 1;
#X connect 6 0 4 3;
#X connect 7 0 0 2;
#X connect 8 0 11 0;
#X connect 9 0 4 0;
#X connect 12 0 6 0;
#X connect 12 0 7 0;
#X restore 43 200 pd spread;
#X obj 43 220 part_killold 5;
#X msg 94 175 0.06;
#X obj 43 260 outlet;
#X msg 136 120 0.4;
#X msg 89 90 0.4 0.1 1 1;
#X connect 0 0 3 0;
#X connect 1 0 5 0;
#X connect 1 0 9 0;
#X connect 1 0 12 0;
#X connect 2 0 0 0;
#X connect 3 0 7 0;
#X connect 4 0 10 0;
#X connect 5 0 2 0;
#X connect 6 0 0 0;
#X connect 7 0 8 0;
#X connect 8 0 4 0;
#X connect 9 0 7 1;
#X connect 11 0 3 2;
#X connect 12 0 3 1;
#X restore 1032 -134 pd particles;
#X msg 1052 -84 draw fill;
#X text 922 -257 chris - bright;
#X obj 43 -213 bng 30 250 50 0 empty empty empty 17 7 0 10 -4034 -1
-1;
#X obj 83 -193 bng 15 250 50 0 empty empty empty 17 7 0 10 -258113
-1 -1;
#X obj 83 -213 bng 15 250 50 0 empty empty empty 17 7 0 10 -4032 -1
-1;
#N canvas 67 89 450 300 window 0;
#X obj 30 109 gemwin;
#X msg 200 39 0 \, destroy;
#X msg 30 39 create \, 1;
#X msg 110 39 dimen 800 600;
#X obj 30 19 inlet;
#X obj 110 19 inlet;
#X obj 200 19 inlet;
#X msg 123 100 offset 1366 0;
#X connect 1 0 0 0;
#X connect 2 0 0 0;
#X connect 3 0 0 0;
#X connect 4 0 2 0;
#X connect 5 0 7 0;
#X connect 5 0 3 0;
#X connect 6 0 1 0;
#X connect 7 0 0 0;
#X restore 43 -174 pd window;
#X text 103 -215 press this first;
#X text 103 -195 destroy window;
#X text 40 -235 create window;
#X obj 43 -275 import gridflow;
#X obj 43 -255 path /home/hellocatfood/pd-externals/hellocatfood;
#N canvas 438 107 681 660 resigntext 1;
#X obj 272 102 cnv 15 180 70 empty empty empty 20 12 0 14 -203904 -66577
0;
#X obj 276 248 translateXYZ;
#X symbolatom 276 128 28 0 0 0 - - -;
#X obj 276 273 loadbang;
#X msg 276 292 font /home/hellocatfood/.fonts/Orbitron-Black.ttf;
#X obj 279 150 hsl 40 15 -4 4 0 0 empty empty x 30 7 0 10 -260097 -1
-1 107 1;
#X obj 276 225 line;
#X obj 329 150 hsl 40 15 -4 4 0 0 empty empty y 30 7 0 10 -260097 -1
-1 2350 1;
#X obj 326 225 line;
#X obj 276 109 tgl 15 0 empty textrender empty 17 7 0 10 -260097 -1
-1 0 1;
#X text 293 107 render;
#X msg 309 345 \$1 100;
#X obj 309 365 line;
#X obj 336 104 cnv 15 110 20 empty empty empty 20 12 0 14 -257985 -66577
0;
#X obj 380 150 nbx 3 15 -1e+37 1e+37 0 0 empty empty empty 0 -8 0 10
-4034 -1 -1 40 256;
#X text 417 149 size;
#X obj 327 57 loadbang;
#X msg 326 205 \$1 100;
#X msg 276 205 \$1 100;
#X floatatom 326 185 5 0 0 0 - - -;
#X floatatom 276 185 5 0 0 0 - - -;
#X text 340 104 resign text;
#X msg 327 77 -3.78;
#X msg 584 292 justify left base;
#X msg 276 315 text resign: \$1;
#X msg 369 77 0.82;
#X obj 276 77 gemhead -60;
#X obj 276 386 text2d;
#X msg 411 77 40;
#X obj 37 55 inlet;
#X obj 37 125 unpack s s s;
#X symbolatom 37 149 6 0 0 0 - - -;
#X symbolatom 77 149 6 0 0 0 - - -;
#X symbolatom 117 149 6 0 0 0 - - -;
#X obj 37 201 pack s s s;
#X obj 37 176 outlet;
#X obj 77 176 outlet;
#X obj 117 176 outlet;
#X obj 37 78 routeOSC /resign;
#X obj 37 228 list2symbol;
#X obj 167 95 spigot;
#X obj 200 69 tgl 15 0 empty empty empty 17 7 0 10 -4034 -1 -1 0 1
;
#X text 220 69 print;
#X obj 167 115 print resign;
#X connect 1 0 27 0;
#X connect 2 0 24 0;
#X connect 3 0 4 0;
#X connect 3 0 23 0;
#X connect 3 0 24 0;
#X connect 4 0 27 0;
#X connect 5 0 20 0;
#X connect 6 0 1 1;
#X connect 7 0 19 0;
#X connect 8 0 1 2;
#X connect 9 0 26 0;
#X connect 11 0 12 0;
#X connect 12 0 27 1;
#X connect 14 0 11 0;
#X connect 16 0 22 0;
#X connect 16 0 25 0;
#X connect 16 0 28 0;
#X connect 17 0 8 0;
#X connect 18 0 6 0;
#X connect 19 0 17 0;
#X connect 20 0 18 0;
#X connect 22 0 5 0;
#X connect 23 0 27 0;
#X connect 24 0 27 0;
#X connect 25 0 7 0;
#X connect 26 0 1 0;
#X connect 28 0 14 0;
#X connect 29 0 38 0;
#X connect 30 0 31 0;
#X connect 30 1 32 0;
#X connect 30 2 33 0;
#X connect 31 0 34 0;
#X connect 31 0 35 0;
#X connect 32 0 34 1;
#X connect 32 0 36 0;
#X connect 33 0 34 2;
#X connect 33 0 37 0;
#X connect 34 0 39 0;
#X connect 38 0 30 0;
#X connect 38 0 40 0;
#X connect 39 0 2 0;
#X connect 40 0 43 0;
#X connect 41 0 40 1;
#X coords 0 0 1 1 184 74 0;
#X restore 245 -55 pd resigntext;
#X obj 664 24 gemhead;
#X obj 667 69 curve 2;
#N canvas 683 107 681 660 stealtext 0;
#X obj 272 102 cnv 15 180 70 empty empty empty 20 12 0 14 -203904 -66577
0;
#X obj 276 248 translateXYZ;
#X symbolatom 276 128 28 0 0 0 - - -;
#X obj 276 273 loadbang;
#X msg 276 292 font /home/hellocatfood/.fonts/Orbitron-Black.ttf;
#X obj 279 150 hsl 40 15 -4 4 0 0 empty empty x 30 7 0 10 -260097 -1
-1 107 1;
#X obj 276 225 line;
#X obj 329 150 hsl 40 15 -4 4 0 0 empty empty y 30 7 0 10 -260097 -1
-1 3550 1;
#X obj 326 225 line;
#X obj 276 109 tgl 15 0 empty textrender empty 17 7 0 10 -260097 -1
-1 0 1;
#X text 293 107 render;
#X msg 309 345 \$1 100;
#X obj 309 365 line;
#X obj 336 104 cnv 15 110 20 empty empty empty 20 12 0 14 -257985 -66577
0;
#X obj 380 150 nbx 3 15 -1e+37 1e+37 0 0 empty empty empty 0 -8 0 10
-4034 -1 -1 40 256;
#X text 417 149 size;
#X obj 327 57 loadbang;
#X msg 326 205 \$1 100;
#X msg 276 205 \$1 100;
#X msg 276 315 text steal: \$1;
#X floatatom 326 185 5 0 0 0 - - -;
#X floatatom 276 185 5 0 0 0 - - -;
#X text 340 104 steal text;
#X msg 584 292 justify left base;
#X msg 327 77 -3.78;
#X msg 369 77 3.282;
#X obj 276 77 gemhead -40;
#X obj 276 385 text2d;
#X msg 412 77 40;
#X obj 42 40 routeOSC /steal;
#X obj 42 87 unpack s s s;
#X symbolatom 42 111 6 0 0 0 - - -;
#X symbolatom 82 111 6 0 0 0 - - -;
#X symbolatom 122 111 6 0 0 0 - - -;
#X obj 42 163 pack s s s;
#X obj 42 138 outlet;
#X obj 82 138 outlet;
#X obj 122 138 outlet;
#X obj 42 192 list2symbol;
#X obj 172 77 print steal;
#X obj 172 57 spigot;
#X obj 205 31 tgl 15 0 empty empty empty 17 7 0 10 -4034 -1 -1 0 1
;
#X text 225 31 print;
#X obj 42 14 inlet;
#X connect 1 0 27 0;
#X connect 2 0 19 0;
#X connect 3 0 4 0;
#X connect 3 0 23 0;
#X connect 3 0 19 0;
#X connect 4 0 27 0;
#X connect 5 0 21 0;
#X connect 6 0 1 1;
#X connect 7 0 20 0;
#X connect 8 0 1 2;
#X connect 9 0 26 0;
#X connect 11 0 12 0;
#X connect 12 0 27 1;
#X connect 14 0 11 0;
#X connect 16 0 24 0;
#X connect 16 0 25 0;
#X connect 16 0 28 0;
#X connect 17 0 8 0;
#X connect 18 0 6 0;
#X connect 19 0 27 0;
#X connect 20 0 17 0;
#X connect 21 0 18 0;
#X connect 23 0 27 0;
#X connect 24 0 5 0;
#X connect 25 0 7 0;
#X connect 26 0 1 0;
#X connect 28 0 14 0;
#X connect 29 0 30 0;
#X connect 29 0 40 0;
#X connect 30 0 31 0;
#X connect 30 1 32 0;
#X connect 30 2 33 0;
#X connect 31 0 34 0;
#X connect 31 0 35 0;
#X connect 32 0 34 1;
#X connect 32 0 36 0;
#X connect 33 0 34 2;
#X connect 33 0 37 0;
#X connect 34 0 38 0;
#X connect 38 0 2 0;
#X connect 40 0 39 0;
#X connect 41 0 40 1;
#X connect 43 0 29 0;
#X coords 0 0 1 1 184 74 0;
#X restore 35 -54 pd stealtext;
#N canvas 633 89 681 660 winnertext 0;
#X obj 272 102 cnv 15 180 70 empty empty empty 20 12 0 14 -203904 -66577
0;
#X obj 276 248 translateXYZ;
#X symbolatom 276 128 28 0 0 0 - - -;
#X obj 276 273 loadbang;
#X msg 276 292 font /home/hellocatfood/.fonts/Orbitron-Black.ttf;
#X obj 279 150 hsl 40 15 -4 4 0 0 empty empty x 30 7 0 10 -260097 -1
-1 107 1;
#X obj 276 225 line;
#X obj 329 150 hsl 40 15 -4 4 0 0 empty empty y 30 7 0 10 -260097 -1
-1 2950 1;
#X obj 326 225 line;
#X obj 276 109 tgl 15 0 empty textrender empty 17 7 0 10 -260097 -1
-1 0 1;
#X text 293 107 render;
#X msg 309 345 \$1 100;
#X obj 309 365 line;
#X obj 336 104 cnv 15 110 20 empty empty empty 20 12 0 14 -257985 -66577
0;
#X obj 380 150 nbx 3 15 -1e+37 1e+37 0 0 empty empty empty 0 -8 0 10
-4034 -1 -1 40 256;
#X text 417 149 size;
#X obj 327 57 loadbang;
#X msg 326 205 \$1 100;
#X msg 276 205 \$1 100;
#X floatatom 326 185 5 0 0 0 - - -;
#X floatatom 276 185 5 0 0 0 - - -;
#X text 340 104 winner text;
#X msg 327 77 -3.78;
#X msg 584 292 justify left base;
#X msg 276 315 text winner: \$1;
#X msg 369 77 2.051;
#X obj 276 77 gemhead -50;
#X obj 275 386 text2d;
#X msg 411 77 40;
#X obj 32 85 unpack s s s;
#X symbolatom 32 109 6 0 0 0 - - -;
#X symbolatom 72 109 6 0 0 0 - - -;
#X symbolatom 112 109 6 0 0 0 - - -;
#X obj 32 161 pack s s s;
#X obj 32 136 outlet;
#X obj 72 136 outlet;
#X obj 112 136 outlet;
#X obj 32 38 routeOSC /winner;
#X obj 32 190 list2symbol;
#X obj 162 55 spigot;
#X obj 191 29 tgl 15 0 empty empty empty 17 7 0 10 -4034 -1 -1 0 1
;
#X text 211 29 print;
#X obj 162 75 print winner;
#X obj 32 12 inlet;
#X connect 1 0 27 0;
#X connect 2 0 24 0;
#X connect 3 0 4 0;
#X connect 3 0 23 0;
#X connect 3 0 24 0;
#X connect 4 0 27 0;
#X connect 5 0 20 0;
#X connect 6 0 1 1;
#X connect 7 0 19 0;
#X connect 8 0 1 2;
#X connect 9 0 26 0;
#X connect 11 0 12 0;
#X connect 12 0 27 1;
#X connect 14 0 11 0;
#X connect 16 0 22 0;
#X connect 16 0 25 0;
#X connect 16 0 28 0;
#X connect 17 0 8 0;
#X connect 18 0 6 0;
#X connect 19 0 17 0;
#X connect 20 0 18 0;
#X connect 22 0 5 0;
#X connect 23 0 27 0;
#X connect 24 0 27 0;
#X connect 25 0 7 0;
#X connect 26 0 1 0;
#X connect 28 0 14 0;
#X connect 29 0 30 0;
#X connect 29 1 31 0;
#X connect 29 2 32 0;
#X connect 30 0 33 0;
#X connect 30 0 34 0;
#X connect 31 0 33 1;
#X connect 31 0 35 0;
#X connect 32 0 33 2;
#X connect 32 0 36 0;
#X connect 33 0 38 0;
#X connect 37 0 29 0;
#X connect 37 0 39 0;
#X connect 38 0 2 0;
#X connect 39 0 42 0;
#X connect 40 0 39 1;
#X connect 43 0 37 0;
#X coords 0 0 1 1 184 74 0;
#X restore 33 -24 pd winnertext;
#N canvas 600 101 681 660 fightertext 1;
#X obj 272 102 cnv 15 180 70 empty empty empty 20 12 0 14 -203904 -66577
0;
#X obj 276 248 translateXYZ;
#X symbolatom 276 128 28 0 0 0 - - -;
#X obj 276 273 loadbang;
#X msg 276 292 font /home/hellocatfood/.fonts/Orbitron-Black.ttf;
#X obj 279 150 hsl 40 15 -4 4 0 0 empty empty x 30 7 0 10 -260097 -1
-1 107 1;
#X obj 276 225 line;
#X obj 329 150 hsl 40 15 -4 4 0 0 empty empty y 30 7 0 10 -260097 -1
-1 1750 1;
#X obj 326 225 line;
#X obj 276 109 tgl 15 0 empty textrender empty 17 7 0 10 -260097 -1
-1 0 1;
#X text 293 107 render;
#X msg 309 345 \$1 100;
#X obj 309 365 line;
#X obj 336 104 cnv 15 110 20 empty empty empty 20 12 0 14 -257985 -66577
0;
#X obj 380 150 nbx 3 15 -1e+37 1e+37 0 0 empty empty empty 0 -8 0 10
-4034 -1 -1 40 256;
#X text 417 149 size;
#X obj 327 57 loadbang;
#X msg 326 205 \$1 100;
#X msg 276 205 \$1 100;
#X floatatom 326 185 5 0 0 0 - - -;
#X floatatom 276 185 5 0 0 0 - - -;
#X text 340 104 fighters text;
#X msg 327 77 -3.78;
#X msg 584 292 justify left base;
#X msg 276 315 text fighters: \$1;
#X msg 369 77 -0.41;
#X obj 276 77 gemhead -70;
#X obj 276 386 text2d;
#X msg 411 77 40;
#X obj 32 55 inlet;
#X obj 32 125 unpack s s s;
#X symbolatom 32 149 6 0 0 0 - - -;
#X symbolatom 72 149 6 0 0 0 - - -;
#X symbolatom 112 149 6 0 0 0 - - -;
#X obj 32 201 pack s s s;
#X obj 32 176 outlet;
#X obj 72 176 outlet;
#X obj 112 176 outlet;
#X obj 32 78 routeOSC /fighters;
#X obj 32 230 list2symbol;
#X obj 162 115 print steal;
#X obj 162 95 spigot;
#X obj 195 69 tgl 15 0 empty empty empty 17 7 0 10 -4034 -1 -1 0 1
;
#X text 215 69 print;
#X connect 1 0 27 0;
#X connect 2 0 24 0;
#X connect 3 0 4 0;
#X connect 3 0 23 0;
#X connect 3 0 24 0;
#X connect 4 0 27 0;
#X connect 5 0 20 0;
#X connect 6 0 1 1;
#X connect 7 0 19 0;
#X connect 8 0 1 2;
#X connect 9 0 26 0;
#X connect 11 0 12 0;
#X connect 12 0 27 1;
#X connect 14 0 11 0;
#X connect 16 0 22 0;
#X connect 16 0 25 0;
#X connect 16 0 28 0;
#X connect 17 0 8 0;
#X connect 18 0 6 0;
#X connect 19 0 17 0;
#X connect 20 0 18 0;
#X connect 22 0 5 0;
#X connect 23 0 27 0;
#X connect 24 0 27 0;
#X connect 25 0 7 0;
#X connect 26 0 1 0;
#X connect 28 0 14 0;
#X connect 29 0 38 0;
#X connect 30 0 31 0;
#X connect 30 1 32 0;
#X connect 30 2 33 0;
#X connect 31 0 34 0;
#X connect 31 0 35 0;
#X connect 32 0 34 1;
#X connect 32 0 36 0;
#X connect 33 0 34 2;
#X connect 33 0 37 0;
#X connect 34 0 39 0;
#X connect 38 0 30 0;
#X connect 38 0 41 0;
#X connect 39 0 2 0;
#X connect 41 0 40 0;
#X connect 42 0 41 1;
#X coords 0 0 1 1 184 74 0;
#X restore 245 25 pd fightertext;
#X connect 0 0 1 0;
#X connect 1 0 2 0;
#X connect 2 0 4 0;
#X connect 2 0 3 0;
#X connect 2 0 5 0;
#X connect 2 0 6 0;
#X connect 2 0 66 0;
#X connect 2 0 67 0;
#X connect 2 0 63 0;
#X connect 2 0 68 0;
#X connect 2 0 9 0;
#X connect 6 0 14 0;
#X connect 13 0 6 1;
#X connect 15 0 6 2;
#X connect 16 0 6 3;
#X connect 23 0 27 0;
#X connect 23 1 27 1;
#X connect 24 0 28 0;
#X connect 25 0 65 2;
#X connect 26 0 28 0;
#X connect 27 0 24 1;
#X connect 27 0 25 0;
#X connect 27 1 24 2;
#X connect 27 1 25 1;
#X connect 29 0 24 0;
#X connect 30 0 28 0;
#X connect 34 0 38 0;
#X connect 34 1 38 1;
#X connect 35 0 39 0;
#X connect 36 0 65 1;
#X connect 37 0 39 0;
#X connect 38 0 35 1;
#X connect 38 0 36 0;
#X connect 38 1 35 2;
#X connect 38 1 36 1;
#X connect 40 0 35 0;
#X connect 41 0 39 0;
#X connect 45 0 49 0;
#X connect 45 1 49 1;
#X connect 46 0 50 0;
#X connect 48 0 50 0;
#X connect 49 0 46 1;
#X connect 49 0 47 0;
#X connect 49 1 46 2;
#X connect 49 1 47 1;
#X connect 51 0 46 0;
#X connect 52 0 50 0;
#X connect 54 0 57 0;
#X connect 55 0 57 2;
#X connect 56 0 57 1;
#X connect 64 0 65 0;
