#N canvas 220 34 1290 685 10;
#X declare -lib mrpeach;
#X msg 108 -212 dimen 1366 795;
#X obj 35 10 udpreceive 57120;
#X obj 35 32 unpackOSC;
#X obj 35 53 routeOSC /bile;
#X obj 35 286 cnv 15 220 270 empty empty empty 20 12 0 14 -16662 -66577
0;
#X obj 265 286 cnv 15 220 270 empty empty empty 20 12 0 14 -4034 -66577
0;
#X obj 495 286 cnv 15 220 270 empty empty empty 20 12 0 14 -159808
-66577 0;
#X obj 209 -195 bng 30 250 50 0 emerge empty empty 17 7 0 10 -258113
-1 -1;
#X text 248 -187 emerge;
#N canvas 66 34 450 300 Shelly 0;
#X obj 102 102 cnv 15 55 80 empty empty empty 20 12 0 14 -260097 -66577
0;
#X obj 107 29 inlet;
#X obj 107 50 routeOSC /Shelly;
#X floatatom 107 125 5 0 1 0 - - -;
#X floatatom 107 144 5 0 1 0 - - -;
#X floatatom 107 163 5 0 1 0 - - -;
#X obj 107 71 routeOSC /x;
#X obj 182 71 routeOSC /y;
#X obj 258 71 routeOSC /z;
#X obj 107 195 outlet;
#X obj 182 195 outlet;
#X obj 258 195 outlet;
#X text 107 102 Shelly;
#X text 141 124 x;
#X text 142 144 y;
#X text 141 161 z;
#X connect 1 0 2 0;
#X connect 2 0 6 0;
#X connect 2 0 7 0;
#X connect 2 0 8 0;
#X connect 3 0 9 0;
#X connect 4 0 10 0;
#X connect 5 0 11 0;
#X connect 6 0 3 0;
#X connect 7 0 4 0;
#X connect 8 0 5 0;
#X coords 0 -1 1 1 59 84 2 100 100;
#X restore 350 321 pd Shelly;
#N canvas 66 34 450 300 Shelly 0;
#X obj 102 102 cnv 15 55 80 empty empty empty 20 12 0 14 -260097 -66577
0;
#X obj 107 9 inlet;
#X floatatom 107 125 5 0 1 0 - - -;
#X floatatom 107 144 5 0 1 0 - - -;
#X floatatom 107 163 5 0 1 0 - - -;
#X obj 107 51 routeOSC /x;
#X obj 182 51 routeOSC /y;
#X obj 258 51 routeOSC /z;
#X obj 107 195 outlet;
#X obj 182 195 outlet;
#X obj 258 195 outlet;
#X text 141 124 x;
#X text 142 144 y;
#X text 141 161 z;
#X text 106 102 Julien;
#X obj 107 30 routeOSC /Julien;
#X obj 258 71 - 0.5;
#X obj 182 71 - 0.5;
#X obj 107 71 - 0.5;
#X connect 1 0 15 0;
#X connect 2 0 8 0;
#X connect 3 0 9 0;
#X connect 4 0 10 0;
#X connect 5 0 18 0;
#X connect 6 0 17 0;
#X connect 7 0 16 0;
#X connect 15 0 5 0;
#X connect 15 0 6 0;
#X connect 15 0 7 0;
#X connect 16 0 4 0;
#X connect 17 0 3 0;
#X connect 18 0 2 0;
#X coords 0 -1 1 1 59 84 2 100 100;
#X restore 123 321 pd Shelly;
#N canvas 69 32 450 300 Shelly 0;
#X obj 102 102 cnv 15 55 80 empty empty empty 20 12 0 14 -260097 -66577
0;
#X obj 107 29 inlet;
#X floatatom 107 125 5 0 1 0 - - -;
#X floatatom 107 144 5 0 1 0 - - -;
#X floatatom 107 163 5 0 1 0 - - -;
#X obj 107 71 routeOSC /x;
#X obj 182 71 routeOSC /y;
#X obj 258 71 routeOSC /z;
#X obj 107 195 outlet;
#X obj 182 195 outlet;
#X obj 258 195 outlet;
#X text 141 124 x;
#X text 142 144 y;
#X text 141 161 z;
#X text 107 102 les;
#X obj 107 50 routeOSC /Les;
#X connect 1 0 15 0;
#X connect 2 0 8 0;
#X connect 3 0 9 0;
#X connect 4 0 10 0;
#X connect 5 0 2 0;
#X connect 6 0 3 0;
#X connect 7 0 4 0;
#X connect 15 0 5 0;
#X connect 15 0 6 0;
#X connect 15 0 7 0;
#X coords 0 -1 1 1 59 84 2 100 100;
#X restore 582 322 pd Shelly;
#X obj 42 291 cnv 15 80 20 empty empty empty 20 12 0 14 -233017 -66577
0;
#N canvas 216 104 450 300 smove 0;
#X msg 88 76 250 600;
#X obj 88 51 inlet;
#X obj 88 99 line;
#X obj 158 99 line;
#X floatatom 88 120 5 0 0 0 - - -;
#X obj 88 140 / 100;
#X floatatom 158 120 5 0 0 0 - - -;
#X obj 158 140 / 100;
#X obj 88 163 outlet;
#X obj 158 163 outlet;
#X msg 158 76 250 600;
#X connect 0 0 2 0;
#X connect 1 0 0 0;
#X connect 1 0 10 0;
#X connect 2 0 4 0;
#X connect 3 0 6 0;
#X connect 4 0 5 0;
#X connect 5 0 8 0;
#X connect 6 0 7 0;
#X connect 7 0 9 0;
#X connect 10 0 3 0;
#X restore 293 419 pd smove;
#X obj 270 375 translateXYZ;
#N canvas 858 186 450 300 shake 0;
#X obj 101 11 inlet;
#X obj 101 150 line;
#X floatatom 101 173 5 0 0 0 - - -;
#X msg 101 128 \$1 250;
#X obj 101 193 outlet;
#X obj 171 150 line;
#X floatatom 171 173 5 0 0 0 - - -;
#X msg 171 128 \$1 250;
#X obj 171 193 outlet;
#X obj 171 11 inlet;
#X obj 101 83 / 1;
#X obj 171 83 / 1;
#X connect 0 0 10 0;
#X connect 1 0 2 0;
#X connect 2 0 4 0;
#X connect 3 0 1 0;
#X connect 5 0 6 0;
#X connect 6 0 8 0;
#X connect 7 0 5 0;
#X connect 9 0 11 0;
#X connect 10 0 3 0;
#X connect 11 0 7 0;
#X restore 294 354 pd shake;
#X obj 293 398 r emerge;
#X obj 270 291 cnv 15 80 20 empty empty empty 20 12 0 14 -233017 -66577
0;
#N canvas 395 165 450 300 lmove 0;
#X msg 88 76 -250 600;
#X msg 158 76 -145 600;
#X obj 88 51 inlet;
#X obj 88 99 line;
#X obj 158 99 line;
#X floatatom 88 120 5 0 0 0 - - -;
#X obj 88 140 / 100;
#X floatatom 158 120 5 0 0 0 - - -;
#X obj 158 140 / 100;
#X obj 88 163 outlet;
#X obj 158 163 outlet;
#X connect 0 0 3 0;
#X connect 1 0 4 0;
#X connect 2 0 0 0;
#X connect 2 0 1 0;
#X connect 3 0 5 0;
#X connect 4 0 7 0;
#X connect 5 0 6 0;
#X connect 6 0 9 0;
#X connect 7 0 8 0;
#X connect 8 0 10 0;
#X restore 525 419 pd lmove;
#X obj 502 376 translateXYZ;
#N canvas 858 186 450 300 shake 0;
#X obj 101 11 inlet;
#X obj 101 150 line;
#X floatatom 101 173 5 0 0 0 - - -;
#X msg 101 128 \$1 250;
#X obj 101 193 outlet;
#X obj 171 150 line;
#X floatatom 171 173 5 0 0 0 - - -;
#X msg 171 128 \$1 250;
#X obj 171 193 outlet;
#X obj 171 11 inlet;
#X obj 101 83 / 1;
#X obj 171 83 / 1;
#X connect 0 0 10 0;
#X connect 1 0 2 0;
#X connect 2 0 4 0;
#X connect 3 0 1 0;
#X connect 5 0 6 0;
#X connect 6 0 8 0;
#X connect 7 0 5 0;
#X connect 9 0 11 0;
#X connect 10 0 3 0;
#X connect 11 0 7 0;
#X restore 526 355 pd shake;
#X obj 525 398 r emerge;
#X obj 502 291 cnv 15 80 20 empty empty empty 20 12 0 14 -233017 -66577
0;
#N canvas 463 232 450 300 messaging 0;
#X obj 225 254 udpsend;
#X obj 225 231 packOSC;
#X msg 225 206 connect 255.255.255.255 57120;
#X msg 225 160 disconnect;
#X obj 35 151 routeOSC /msg;
#X msg 145 110 send /bile/msg Antonio \$1;
#X obj 35 129 inlet;
#X obj 338 99 s displaytext;
#X obj 55 174 print chat;
#X msg 35 194 set \$1;
#X obj 35 214 outlet;
#X obj 225 140 inlet;
#X obj 225 186 inlet;
#X obj 145 88 inlet;
#X connect 1 0 0 0;
#X connect 2 0 0 0;
#X connect 3 0 0 0;
#X connect 4 0 9 0;
#X connect 4 0 8 0;
#X connect 5 0 1 0;
#X connect 6 0 4 0;
#X connect 9 0 10 0;
#X connect 11 0 3 0;
#X connect 12 0 2 0;
#X connect 13 0 5 0;
#X coords 0 0 1 1 248 86 0;
#X restore 35 225 pd messaging;
#N canvas 685 108 681 660 text 0;
#X obj 272 102 cnv 15 180 70 empty empty empty 20 12 0 14 -203904 -66577
0;
#X obj 276 248 translateXYZ;
#X symbolatom 276 128 28 0 0 0 - - -;
#X obj 276 273 loadbang;
#X msg 276 292 font /home/hellocatfood/.fonts/Orbitron-Black.ttf;
#X obj 279 150 hsl 40 15 -4 4 0 0 empty empty x 30 7 0 10 -260097 -1
-1 107 1;
#X obj 276 225 line;
#X obj 329 150 hsl 40 15 -4 4 0 0 empty empty y 30 7 0 10 -260097 -1
-1 3550 1;
#X obj 326 225 line;
#X obj 276 109 tgl 15 0 empty textrender empty 17 7 0 10 -260097 -1
-1 0 1;
#X text 293 107 render;
#X msg 309 345 \$1 100;
#X obj 309 365 line;
#X obj 336 104 cnv 15 110 20 empty empty empty 20 12 0 14 -257985 -66577
0;
#X obj 380 150 nbx 3 15 -1e+37 1e+37 0 0 empty empty empty 0 -8 0 10
-4034 -1 -1 40 256;
#X text 417 149 size;
#X obj 327 57 loadbang;
#X msg 326 205 \$1 100;
#X msg 276 205 \$1 100;
#X msg 276 315 text steal: \$1;
#X floatatom 326 185 5 0 0 0 - - -;
#X floatatom 276 185 5 0 0 0 - - -;
#X text 340 104 steal text;
#X msg 584 292 justify left base;
#X msg 327 77 -3.78;
#X msg 369 77 3.282;
#X obj 276 77 gemhead -40;
#X obj 276 385 text2d;
#X msg 412 77 40;
#X obj 42 40 routeOSC /steal;
#X obj 42 87 unpack s s s;
#X symbolatom 42 111 6 0 0 0 - - -;
#X symbolatom 82 111 6 0 0 0 - - -;
#X symbolatom 122 111 6 0 0 0 - - -;
#X obj 42 163 pack s s s;
#X obj 42 138 outlet;
#X obj 82 138 outlet;
#X obj 122 138 outlet;
#X obj 42 192 list2symbol;
#X obj 172 77 print steal;
#X obj 172 57 spigot;
#X obj 205 31 tgl 15 0 empty empty empty 17 7 0 10 -4034 -1 -1 0 1
;
#X text 225 31 print;
#X obj 42 14 inlet;
#X connect 1 0 27 0;
#X connect 2 0 19 0;
#X connect 3 0 4 0;
#X connect 3 0 23 0;
#X connect 3 0 19 0;
#X connect 4 0 27 0;
#X connect 5 0 21 0;
#X connect 6 0 1 1;
#X connect 7 0 20 0;
#X connect 8 0 1 2;
#X connect 9 0 26 0;
#X connect 11 0 12 0;
#X connect 12 0 27 1;
#X connect 14 0 11 0;
#X connect 16 0 24 0;
#X connect 16 0 25 0;
#X connect 16 0 28 0;
#X connect 17 0 8 0;
#X connect 18 0 6 0;
#X connect 19 0 27 0;
#X connect 20 0 17 0;
#X connect 21 0 18 0;
#X connect 23 0 27 0;
#X connect 24 0 5 0;
#X connect 25 0 7 0;
#X connect 26 0 1 0;
#X connect 28 0 14 0;
#X connect 29 0 30 0;
#X connect 29 0 40 0;
#X connect 30 0 31 0;
#X connect 30 1 32 0;
#X connect 30 2 33 0;
#X connect 31 0 34 0;
#X connect 31 0 35 0;
#X connect 32 0 34 1;
#X connect 32 0 36 0;
#X connect 33 0 34 2;
#X connect 33 0 37 0;
#X connect 34 0 38 0;
#X connect 38 0 2 0;
#X connect 40 0 39 0;
#X connect 41 0 40 1;
#X connect 43 0 29 0;
#X coords 0 0 1 1 184 74 0;
#X restore 285 -134 pd text;
#N canvas 635 83 681 660 text 0;
#X obj 272 102 cnv 15 180 70 empty empty empty 20 12 0 14 -203904 -66577
0;
#X obj 276 248 translateXYZ;
#X symbolatom 276 128 28 0 0 0 - - -;
#X obj 276 273 loadbang;
#X msg 276 292 font /home/hellocatfood/.fonts/Orbitron-Black.ttf;
#X obj 279 150 hsl 40 15 -4 4 0 0 empty empty x 30 7 0 10 -260097 -1
-1 107 1;
#X obj 276 225 line;
#X obj 329 150 hsl 40 15 -4 4 0 0 empty empty y 30 7 0 10 -260097 -1
-1 2950 1;
#X obj 326 225 line;
#X obj 276 109 tgl 15 0 empty textrender empty 17 7 0 10 -260097 -1
-1 0 1;
#X text 293 107 render;
#X msg 309 345 \$1 100;
#X obj 309 365 line;
#X obj 336 104 cnv 15 110 20 empty empty empty 20 12 0 14 -257985 -66577
0;
#X obj 380 150 nbx 3 15 -1e+37 1e+37 0 0 empty empty empty 0 -8 0 10
-4034 -1 -1 40 256;
#X text 417 149 size;
#X obj 327 57 loadbang;
#X msg 326 205 \$1 100;
#X msg 276 205 \$1 100;
#X floatatom 326 185 5 0 0 0 - - -;
#X floatatom 276 185 5 0 0 0 - - -;
#X text 340 104 winner text;
#X msg 327 77 -3.78;
#X msg 584 292 justify left base;
#X msg 276 315 text winner: \$1;
#X msg 369 77 2.051;
#X obj 276 77 gemhead -50;
#X obj 275 386 text2d;
#X msg 411 77 40;
#X obj 32 85 unpack s s s;
#X symbolatom 32 109 6 0 0 0 - - -;
#X symbolatom 72 109 6 0 0 0 - - -;
#X symbolatom 112 109 6 0 0 0 - - -;
#X obj 32 161 pack s s s;
#X obj 32 136 outlet;
#X obj 72 136 outlet;
#X obj 112 136 outlet;
#X obj 32 38 routeOSC /winner;
#X obj 32 190 list2symbol;
#X obj 162 55 spigot;
#X obj 191 29 tgl 15 0 empty empty empty 17 7 0 10 -4034 -1 -1 0 1
;
#X text 211 29 print;
#X obj 162 75 print winner;
#X obj 32 12 inlet;
#X connect 1 0 27 0;
#X connect 2 0 24 0;
#X connect 3 0 4 0;
#X connect 3 0 23 0;
#X connect 3 0 24 0;
#X connect 4 0 27 0;
#X connect 5 0 20 0;
#X connect 6 0 1 1;
#X connect 7 0 19 0;
#X connect 8 0 1 2;
#X connect 9 0 26 0;
#X connect 11 0 12 0;
#X connect 12 0 27 1;
#X connect 14 0 11 0;
#X connect 16 0 22 0;
#X connect 16 0 25 0;
#X connect 16 0 28 0;
#X connect 17 0 8 0;
#X connect 18 0 6 0;
#X connect 19 0 17 0;
#X connect 20 0 18 0;
#X connect 22 0 5 0;
#X connect 23 0 27 0;
#X connect 24 0 27 0;
#X connect 25 0 7 0;
#X connect 26 0 1 0;
#X connect 28 0 14 0;
#X connect 29 0 30 0;
#X connect 29 1 31 0;
#X connect 29 2 32 0;
#X connect 30 0 33 0;
#X connect 30 0 34 0;
#X connect 31 0 33 1;
#X connect 31 0 35 0;
#X connect 32 0 33 2;
#X connect 32 0 36 0;
#X connect 33 0 38 0;
#X connect 37 0 29 0;
#X connect 37 0 39 0;
#X connect 38 0 2 0;
#X connect 39 0 42 0;
#X connect 40 0 39 1;
#X connect 43 0 37 0;
#X coords 0 0 1 1 184 74 0;
#X restore 283 -14 pd text;
#N canvas 469 24 681 660 text 0;
#X obj 272 102 cnv 15 180 70 empty empty empty 20 12 0 14 -203904 -66577
0;
#X obj 276 248 translateXYZ;
#X symbolatom 276 128 28 0 0 0 - - -;
#X obj 276 273 loadbang;
#X msg 276 292 font /home/hellocatfood/.fonts/Orbitron-Black.ttf;
#X obj 279 150 hsl 40 15 -4 4 0 0 empty empty x 30 7 0 10 -260097 -1
-1 107 1;
#X obj 276 225 line;
#X obj 329 150 hsl 40 15 -4 4 0 0 empty empty y 30 7 0 10 -260097 -1
-1 2350 1;
#X obj 326 225 line;
#X obj 276 109 tgl 15 0 empty textrender empty 17 7 0 10 -260097 -1
-1 0 1;
#X text 293 107 render;
#X msg 309 345 \$1 100;
#X obj 309 365 line;
#X obj 336 104 cnv 15 110 20 empty empty empty 20 12 0 14 -257985 -66577
0;
#X obj 380 150 nbx 3 15 -1e+37 1e+37 0 0 empty empty empty 0 -8 0 10
-4034 -1 -1 40 256;
#X text 417 149 size;
#X obj 327 57 loadbang;
#X msg 326 205 \$1 100;
#X msg 276 205 \$1 100;
#X floatatom 326 185 5 0 0 0 - - -;
#X floatatom 276 185 5 0 0 0 - - -;
#X text 340 104 resign text;
#X msg 327 77 -3.78;
#X msg 584 292 justify left base;
#X msg 276 315 text resign: \$1;
#X msg 369 77 0.82;
#X obj 276 77 gemhead -60;
#X obj 276 386 text2d;
#X msg 411 77 40;
#X obj 37 55 inlet;
#X obj 37 125 unpack s s s;
#X symbolatom 37 149 6 0 0 0 - - -;
#X symbolatom 77 149 6 0 0 0 - - -;
#X symbolatom 117 149 6 0 0 0 - - -;
#X obj 37 201 pack s s s;
#X obj 37 176 outlet;
#X obj 77 176 outlet;
#X obj 117 176 outlet;
#X obj 37 78 routeOSC /resign;
#X obj 37 228 list2symbol;
#X obj 167 95 spigot;
#X obj 200 69 tgl 15 0 empty empty empty 17 7 0 10 -4034 -1 -1 0 1
;
#X text 220 69 print;
#X obj 167 115 print resign;
#X connect 1 0 27 0;
#X connect 2 0 24 0;
#X connect 3 0 4 0;
#X connect 3 0 23 0;
#X connect 3 0 24 0;
#X connect 4 0 27 0;
#X connect 5 0 20 0;
#X connect 6 0 1 1;
#X connect 7 0 19 0;
#X connect 8 0 1 2;
#X connect 9 0 26 0;
#X connect 11 0 12 0;
#X connect 12 0 27 1;
#X connect 14 0 11 0;
#X connect 16 0 22 0;
#X connect 16 0 25 0;
#X connect 16 0 28 0;
#X connect 17 0 8 0;
#X connect 18 0 6 0;
#X connect 19 0 17 0;
#X connect 20 0 18 0;
#X connect 22 0 5 0;
#X connect 23 0 27 0;
#X connect 24 0 27 0;
#X connect 25 0 7 0;
#X connect 26 0 1 0;
#X connect 28 0 14 0;
#X connect 29 0 38 0;
#X connect 30 0 31 0;
#X connect 30 1 32 0;
#X connect 30 2 33 0;
#X connect 31 0 34 0;
#X connect 31 0 35 0;
#X connect 32 0 34 1;
#X connect 32 0 36 0;
#X connect 33 0 34 2;
#X connect 33 0 37 0;
#X connect 34 0 39 0;
#X connect 38 0 30 0;
#X connect 38 0 40 0;
#X connect 39 0 2 0;
#X connect 40 0 43 0;
#X connect 41 0 40 1;
#X coords 0 0 1 1 184 74 0;
#X restore 495 -135 pd text;
#N canvas 608 67 681 660 text 0;
#X obj 272 102 cnv 15 180 70 empty empty empty 20 12 0 14 -203904 -66577
0;
#X obj 276 248 translateXYZ;
#X symbolatom 276 128 28 0 0 0 - - -;
#X obj 276 273 loadbang;
#X msg 276 292 font /home/hellocatfood/.fonts/Orbitron-Black.ttf;
#X obj 279 150 hsl 40 15 -4 4 0 0 empty empty x 30 7 0 10 -260097 -1
-1 107 1;
#X obj 276 225 line;
#X obj 329 150 hsl 40 15 -4 4 0 0 empty empty y 30 7 0 10 -260097 -1
-1 1750 1;
#X obj 326 225 line;
#X obj 276 109 tgl 15 0 empty textrender empty 17 7 0 10 -260097 -1
-1 0 1;
#X text 293 107 render;
#X msg 309 345 \$1 100;
#X obj 309 365 line;
#X obj 336 104 cnv 15 110 20 empty empty empty 20 12 0 14 -257985 -66577
0;
#X obj 380 150 nbx 3 15 -1e+37 1e+37 0 0 empty empty empty 0 -8 0 10
-4034 -1 -1 40 256;
#X text 417 149 size;
#X obj 327 57 loadbang;
#X msg 326 205 \$1 100;
#X msg 276 205 \$1 100;
#X floatatom 326 185 5 0 0 0 - - -;
#X floatatom 276 185 5 0 0 0 - - -;
#X text 340 104 fighters text;
#X msg 327 77 -3.78;
#X msg 584 292 justify left base;
#X msg 276 315 text fighters: \$1;
#X msg 369 77 -0.41;
#X obj 276 77 gemhead -70;
#X obj 276 386 text2d;
#X msg 411 77 40;
#X obj 32 55 inlet;
#X obj 32 125 unpack s s s;
#X symbolatom 32 149 6 0 0 0 - - -;
#X symbolatom 72 149 6 0 0 0 - - -;
#X symbolatom 112 149 6 0 0 0 - - -;
#X obj 32 201 pack s s s;
#X obj 32 176 outlet;
#X obj 72 176 outlet;
#X obj 112 176 outlet;
#X obj 32 78 routeOSC /fighters;
#X obj 32 230 list2symbol;
#X obj 162 115 print steal;
#X obj 162 95 spigot;
#X obj 195 69 tgl 15 0 empty empty empty 17 7 0 10 -4034 -1 -1 0 1
;
#X text 215 69 print;
#X connect 1 0 27 0;
#X connect 2 0 24 0;
#X connect 3 0 4 0;
#X connect 3 0 23 0;
#X connect 3 0 24 0;
#X connect 4 0 27 0;
#X connect 5 0 20 0;
#X connect 6 0 1 1;
#X connect 7 0 19 0;
#X connect 8 0 1 2;
#X connect 9 0 26 0;
#X connect 11 0 12 0;
#X connect 12 0 27 1;
#X connect 14 0 11 0;
#X connect 16 0 22 0;
#X connect 16 0 25 0;
#X connect 16 0 28 0;
#X connect 17 0 8 0;
#X connect 18 0 6 0;
#X connect 19 0 17 0;
#X connect 20 0 18 0;
#X connect 22 0 5 0;
#X connect 23 0 27 0;
#X connect 24 0 27 0;
#X connect 25 0 7 0;
#X connect 26 0 1 0;
#X connect 28 0 14 0;
#X connect 29 0 38 0;
#X connect 30 0 31 0;
#X connect 30 1 32 0;
#X connect 30 2 33 0;
#X connect 31 0 34 0;
#X connect 31 0 35 0;
#X connect 32 0 34 1;
#X connect 32 0 36 0;
#X connect 33 0 34 2;
#X connect 33 0 37 0;
#X connect 34 0 39 0;
#X connect 38 0 30 0;
#X connect 38 0 41 0;
#X connect 39 0 2 0;
#X connect 41 0 40 0;
#X connect 42 0 41 1;
#X coords 0 0 1 1 184 74 0;
#X restore 495 -55 pd text;
#X obj 209 -235 tgl 30 0 textrender empty empty 17 7 0 10 -258113 -1
-1 0 1;
#X obj 209 -275 loadbang;
#X obj 209 -255 t b b;
#X obj 35 -210 gemwin;
#X msg 35 -255 create \, 1;
#X msg 35 -233 0 \, destroy;
#X msg 108 -233 border 0;
#X msg 108 -255 cursor 0;
#X msg 108 -191 offset 1366 0;
#X obj 35 -275 import mrpeach;
#X text 248 -227 render text;
#X obj 42 321 gemhead -10;
#X obj 270 321 gemhead -20;
#X obj 502 322 gemhead -30;
#X obj 725 286 cnv 15 220 270 empty empty empty 20 12 0 14 -4032 -66577
0;
#N canvas 67 89 450 300 Shelly 0;
#X obj 102 102 cnv 15 55 80 empty empty empty 20 12 0 14 -260097 -66577
0;
#X obj 107 29 inlet;
#X floatatom 107 125 5 0 1 0 - - -;
#X floatatom 107 144 5 0 1 0 - - -;
#X floatatom 107 163 5 0 1 0 - - -;
#X obj 107 71 routeOSC /x;
#X obj 182 71 routeOSC /y;
#X obj 258 71 routeOSC /z;
#X obj 107 195 outlet;
#X obj 182 195 outlet;
#X obj 258 195 outlet;
#X text 141 124 x;
#X text 142 144 y;
#X text 141 161 z;
#X text 107 102 chris;
#X obj 107 50 routeOSC /chris;
#X connect 1 0 15 0;
#X connect 2 0 8 0;
#X connect 3 0 9 0;
#X connect 4 0 10 0;
#X connect 5 0 2 0;
#X connect 6 0 3 0;
#X connect 7 0 4 0;
#X connect 15 0 5 0;
#X connect 15 0 6 0;
#X connect 15 0 7 0;
#X coords 0 -1 1 1 59 84 2 100 100;
#X restore 812 322 pd Shelly;
#X obj 732 376 translateXYZ;
#N canvas 858 186 450 300 shake 0;
#X obj 101 11 inlet;
#X obj 101 150 line;
#X floatatom 101 173 5 0 0 0 - - -;
#X msg 101 128 \$1 250;
#X obj 101 193 outlet;
#X obj 171 150 line;
#X floatatom 171 173 5 0 0 0 - - -;
#X msg 171 128 \$1 250;
#X obj 171 193 outlet;
#X obj 171 11 inlet;
#X obj 101 83 / 1;
#X obj 171 83 / 1;
#X connect 0 0 10 0;
#X connect 1 0 2 0;
#X connect 2 0 4 0;
#X connect 3 0 1 0;
#X connect 5 0 6 0;
#X connect 6 0 8 0;
#X connect 7 0 5 0;
#X connect 9 0 11 0;
#X connect 10 0 3 0;
#X connect 11 0 7 0;
#X restore 756 355 pd shake;
#X obj 755 398 r emerge;
#X obj 732 291 cnv 15 80 20 empty empty empty 20 12 0 14 -233017 -66577
0;
#X obj 732 322 gemhead -30;
#X text 42 293 julien - tleft;
#X text 270 293 shelly - tright;
#X text 502 293 les - bleft;
#X text 732 293 chris - bright;
#N canvas 395 165 450 300 cmove 0;
#X msg 158 76 -145 600;
#X obj 88 51 inlet;
#X obj 88 99 line;
#X obj 158 99 line;
#X floatatom 88 120 5 0 0 0 - - -;
#X obj 88 140 / 100;
#X floatatom 158 120 5 0 0 0 - - -;
#X obj 158 140 / 100;
#X obj 88 163 outlet;
#X obj 158 163 outlet;
#X msg 88 76 245 600;
#X connect 0 0 3 0;
#X connect 1 0 10 0;
#X connect 1 0 0 0;
#X connect 2 0 4 0;
#X connect 3 0 6 0;
#X connect 4 0 5 0;
#X connect 5 0 8 0;
#X connect 6 0 7 0;
#X connect 7 0 9 0;
#X connect 10 0 2 0;
#X restore 755 419 pd cmove;
#X obj 502 268 tgl 15 0 empty empty empty 17 7 0 10 -258113 -1 -1 0
1;
#X obj 732 268 tgl 15 0 empty empty empty 17 7 0 10 -258113 -1 -1 0
1;
#X obj 270 268 tgl 15 0 empty empty empty 17 7 0 10 -258113 -1 -1 0
1;
#X obj 42 268 tgl 15 0 empty empty empty 17 7 0 10 -258113 -1 -1 0
1;
#X obj 35 135 cnv 15 242 80 empty empty empty 20 12 0 14 -228856 -66577
0;
#X obj 38 162 cnv 15 235 50 empty empty empty 20 12 0 14 -4034 -66577
0;
#X symbolatom 41 165 30 0 0 0 - - -;
#X symbolatom 87 190 30 0 0 0 - - -;
#X obj 38 138 bng 15 250 50 0 empty empty empty 17 7 0 10 -260097 -1
-1;
#X obj 128 138 bng 15 250 50 0 empty empty empty 17 7 0 10 -258113
-1 -1;
#X text 54 136 connect;
#X text 144 136 disconnect;
#X text 244 164 send;
#X text 37 190 recieve;
#X obj 223 138 cnv 15 50 20 empty empty empty 20 12 0 14 -257985 -66577
0;
#X text 228 138 chat;
#X obj 513 182 sphere;
#X obj 819 -319 grid grid1 80 0 10 80 0 10 0 0.1 0.1 10 10 842 -269
;
#X obj 819 -174 translateXYZ;
#X obj 819 -214 pack f f f;
#X msg 839 -124 draw line;
#N canvas 67 83 450 300 translated 0;
#X obj 119 216 - 5;
#X obj 119 196 line;
#X msg 119 176 \$1 100;
#X obj 192 216 - 5;
#X obj 192 196 line;
#X msg 192 176 \$1 100;
#X obj 119 156 inlet;
#X obj 192 156 inlet;
#X obj 119 236 outlet;
#X obj 192 236 outlet;
#X connect 0 0 8 0;
#X connect 1 0 0 0;
#X connect 2 0 1 0;
#X connect 3 0 9 0;
#X connect 4 0 3 0;
#X connect 5 0 4 0;
#X connect 6 0 2 0;
#X connect 7 0 5 0;
#X restore 819 -234 pd translated;
#X obj 819 -94 sphere;
#N canvas 67 101 450 300 particles 0;
#X obj 43 20 part_head;
#X obj 58 -40 loadbang;
#X msg 58 0 speed \$1;
#X obj 43 140 part_targetcolor;
#X obj 43 240 part_render;
#X msg 58 -20 1;
#X obj 43 -60 gemhead -2;
#N canvas 385 193 450 300 spread 0;
#X obj 57 220 part_velocity;
#X msg 132 70 symbol sphere;
#X obj 132 -10 loadbang;
#X obj 132 10 t b b;
#X obj 57 140 part_source 1;
#X msg 132 180 symbol sphere;
#X msg 132 120 0 0 0 0 \$1;
#X msg 132 200 0 0 0 0 \$1;
#X msg 159 30 0;
#X obj 57 -30 inlet;
#X obj 57 260 outlet;
#X obj 159 50 outlet;
#X obj 232 70 inlet;
#X connect 0 0 10 0;
#X connect 1 0 4 2;
#X connect 2 0 3 0;
#X connect 2 0 5 0;
#X connect 3 0 1 0;
#X connect 3 0 6 0;
#X connect 3 1 8 0;
#X connect 4 0 0 0;
#X connect 5 0 0 1;
#X connect 6 0 4 3;
#X connect 7 0 0 2;
#X connect 8 0 11 0;
#X connect 9 0 4 0;
#X connect 12 0 6 0;
#X connect 12 0 7 0;
#X restore 43 200 pd spread;
#X obj 43 220 part_killold 5;
#X msg 94 175 0.06;
#X obj 43 260 outlet;
#X msg 136 120 0.4;
#X msg 89 90 0.4 0.1 1 1;
#X connect 0 0 3 0;
#X connect 1 0 5 0;
#X connect 1 0 9 0;
#X connect 1 0 12 0;
#X connect 2 0 0 0;
#X connect 3 0 7 0;
#X connect 4 0 10 0;
#X connect 5 0 2 0;
#X connect 6 0 0 0;
#X connect 7 0 8 0;
#X connect 8 0 4 0;
#X connect 9 0 7 1;
#X connect 11 0 3 2;
#X connect 12 0 3 1;
#X restore 819 -194 pd particles;
#X msg 839 -144 draw fill;
#X obj 619 -319 grid grid1 80 0 10 80 0 10 0 0.1 0.1 10 10 680 -291
;
#X obj 619 -174 translateXYZ;
#X obj 619 -214 pack f f f;
#X msg 639 -124 draw line;
#N canvas 67 83 450 300 translated 0;
#X obj 119 216 - 5;
#X obj 119 196 line;
#X msg 119 176 \$1 100;
#X obj 192 216 - 5;
#X obj 192 196 line;
#X msg 192 176 \$1 100;
#X obj 119 156 inlet;
#X obj 192 156 inlet;
#X obj 119 236 outlet;
#X obj 192 236 outlet;
#X connect 0 0 8 0;
#X connect 1 0 0 0;
#X connect 2 0 1 0;
#X connect 3 0 9 0;
#X connect 4 0 3 0;
#X connect 5 0 4 0;
#X connect 6 0 2 0;
#X connect 7 0 5 0;
#X restore 619 -234 pd translated;
#X obj 619 -94 sphere;
#N canvas 67 101 450 300 particles 0;
#X obj 43 20 part_head;
#X obj 58 -40 loadbang;
#X msg 58 0 speed \$1;
#X obj 43 140 part_targetcolor;
#X obj 43 240 part_render;
#X msg 58 -20 1;
#X obj 43 -60 gemhead -2;
#N canvas 385 193 450 300 spread 0;
#X obj 57 220 part_velocity;
#X msg 132 70 symbol sphere;
#X obj 132 -10 loadbang;
#X obj 132 10 t b b;
#X obj 57 140 part_source 1;
#X msg 132 180 symbol sphere;
#X msg 132 120 0 0 0 0 \$1;
#X msg 132 200 0 0 0 0 \$1;
#X msg 159 30 0;
#X obj 57 -30 inlet;
#X obj 57 260 outlet;
#X obj 159 50 outlet;
#X obj 232 70 inlet;
#X connect 0 0 10 0;
#X connect 1 0 4 2;
#X connect 2 0 3 0;
#X connect 2 0 5 0;
#X connect 3 0 1 0;
#X connect 3 0 6 0;
#X connect 3 1 8 0;
#X connect 4 0 0 0;
#X connect 5 0 0 1;
#X connect 6 0 4 3;
#X connect 7 0 0 2;
#X connect 8 0 11 0;
#X connect 9 0 4 0;
#X connect 12 0 6 0;
#X connect 12 0 7 0;
#X restore 43 200 pd spread;
#X obj 43 220 part_killold 5;
#X msg 94 175 0.06;
#X obj 43 260 outlet;
#X msg 136 120 0.4;
#X msg 89 90 0.4 0.1 1 1;
#X connect 0 0 3 0;
#X connect 1 0 5 0;
#X connect 1 0 9 0;
#X connect 1 0 12 0;
#X connect 2 0 0 0;
#X connect 3 0 7 0;
#X connect 4 0 10 0;
#X connect 5 0 2 0;
#X connect 6 0 0 0;
#X connect 7 0 8 0;
#X connect 8 0 4 0;
#X connect 9 0 7 1;
#X connect 11 0 3 2;
#X connect 12 0 3 1;
#X restore 619 -194 pd particles;
#X msg 639 -144 draw fill;
#X obj 619 1 grid grid1 80 0 10 80 0 10 0 0.1 0.1 10 10 679 63;
#X obj 619 146 translateXYZ;
#X obj 619 106 pack f f f;
#X msg 639 196 draw line;
#N canvas 67 83 450 300 translated 0;
#X obj 119 216 - 5;
#X obj 119 196 line;
#X msg 119 176 \$1 100;
#X obj 192 216 - 5;
#X obj 192 196 line;
#X msg 192 176 \$1 100;
#X obj 119 156 inlet;
#X obj 192 156 inlet;
#X obj 119 236 outlet;
#X obj 192 236 outlet;
#X connect 0 0 8 0;
#X connect 1 0 0 0;
#X connect 2 0 1 0;
#X connect 3 0 9 0;
#X connect 4 0 3 0;
#X connect 5 0 4 0;
#X connect 6 0 2 0;
#X connect 7 0 5 0;
#X restore 619 86 pd translated;
#X obj 619 226 sphere;
#N canvas 67 101 450 300 particles 0;
#X obj 43 20 part_head;
#X obj 58 -40 loadbang;
#X msg 58 0 speed \$1;
#X obj 43 140 part_targetcolor;
#X obj 43 240 part_render;
#X msg 58 -20 1;
#X obj 43 -60 gemhead -2;
#N canvas 385 193 450 300 spread 0;
#X obj 57 220 part_velocity;
#X msg 132 70 symbol sphere;
#X obj 132 -10 loadbang;
#X obj 132 10 t b b;
#X obj 57 140 part_source 1;
#X msg 132 180 symbol sphere;
#X msg 132 120 0 0 0 0 \$1;
#X msg 132 200 0 0 0 0 \$1;
#X msg 159 30 0;
#X obj 57 -30 inlet;
#X obj 57 260 outlet;
#X obj 159 50 outlet;
#X obj 232 70 inlet;
#X connect 0 0 10 0;
#X connect 1 0 4 2;
#X connect 2 0 3 0;
#X connect 2 0 5 0;
#X connect 3 0 1 0;
#X connect 3 0 6 0;
#X connect 3 1 8 0;
#X connect 4 0 0 0;
#X connect 5 0 0 1;
#X connect 6 0 4 3;
#X connect 7 0 0 2;
#X connect 8 0 11 0;
#X connect 9 0 4 0;
#X connect 12 0 6 0;
#X connect 12 0 7 0;
#X restore 43 200 pd spread;
#X obj 43 220 part_killold 5;
#X msg 94 175 0.06;
#X obj 43 260 outlet;
#X msg 136 120 0.4;
#X msg 89 90 0.4 0.1 1 1;
#X connect 0 0 3 0;
#X connect 1 0 5 0;
#X connect 1 0 9 0;
#X connect 1 0 12 0;
#X connect 2 0 0 0;
#X connect 3 0 7 0;
#X connect 4 0 10 0;
#X connect 5 0 2 0;
#X connect 6 0 0 0;
#X connect 7 0 8 0;
#X connect 8 0 4 0;
#X connect 9 0 7 1;
#X connect 11 0 3 2;
#X connect 12 0 3 1;
#X restore 619 126 pd particles;
#X msg 639 176 draw fill;
#X obj 809 1 grid grid1 80 0 10 80 0 10 0 0.1 0.1 10 10 830 23;
#X obj 809 146 translateXYZ;
#X obj 809 106 pack f f f;
#X msg 829 196 draw line;
#N canvas 67 83 450 300 translated 0;
#X obj 119 216 - 5;
#X obj 119 196 line;
#X msg 119 176 \$1 100;
#X obj 192 216 - 5;
#X obj 192 196 line;
#X msg 192 176 \$1 100;
#X obj 119 156 inlet;
#X obj 192 156 inlet;
#X obj 119 236 outlet;
#X obj 192 236 outlet;
#X connect 0 0 8 0;
#X connect 1 0 0 0;
#X connect 2 0 1 0;
#X connect 3 0 9 0;
#X connect 4 0 3 0;
#X connect 5 0 4 0;
#X connect 6 0 2 0;
#X connect 7 0 5 0;
#X restore 809 86 pd translated;
#X obj 809 226 sphere;
#N canvas 67 101 450 300 particles 0;
#X obj 43 20 part_head;
#X obj 58 -40 loadbang;
#X msg 58 0 speed \$1;
#X obj 43 140 part_targetcolor;
#X obj 43 240 part_render;
#X msg 58 -20 1;
#X obj 43 -60 gemhead -2;
#N canvas 385 193 450 300 spread 0;
#X obj 57 220 part_velocity;
#X msg 132 70 symbol sphere;
#X obj 132 -10 loadbang;
#X obj 132 10 t b b;
#X obj 57 140 part_source 1;
#X msg 132 180 symbol sphere;
#X msg 132 120 0 0 0 0 \$1;
#X msg 132 200 0 0 0 0 \$1;
#X msg 159 30 0;
#X obj 57 -30 inlet;
#X obj 57 260 outlet;
#X obj 159 50 outlet;
#X obj 232 70 inlet;
#X connect 0 0 10 0;
#X connect 1 0 4 2;
#X connect 2 0 3 0;
#X connect 2 0 5 0;
#X connect 3 0 1 0;
#X connect 3 0 6 0;
#X connect 3 1 8 0;
#X connect 4 0 0 0;
#X connect 5 0 0 1;
#X connect 6 0 4 3;
#X connect 7 0 0 2;
#X connect 8 0 11 0;
#X connect 9 0 4 0;
#X connect 12 0 6 0;
#X connect 12 0 7 0;
#X restore 43 200 pd spread;
#X obj 43 220 part_killold 5;
#X msg 94 175 0.06;
#X obj 43 260 outlet;
#X msg 136 120 0.4;
#X msg 89 90 0.4 0.1 1 1;
#X connect 0 0 3 0;
#X connect 1 0 5 0;
#X connect 1 0 9 0;
#X connect 1 0 12 0;
#X connect 2 0 0 0;
#X connect 3 0 7 0;
#X connect 4 0 10 0;
#X connect 5 0 2 0;
#X connect 6 0 0 0;
#X connect 7 0 8 0;
#X connect 8 0 4 0;
#X connect 9 0 7 1;
#X connect 11 0 3 2;
#X connect 12 0 3 1;
#X restore 809 126 pd particles;
#X msg 829 176 draw fill;
#X connect 0 0 31 0;
#X connect 1 0 2 0;
#X connect 2 0 3 0;
#X connect 3 0 10 0;
#X connect 3 0 9 0;
#X connect 3 0 11 0;
#X connect 3 0 23 0;
#X connect 3 0 24 0;
#X connect 3 0 25 0;
#X connect 3 0 26 0;
#X connect 3 0 27 0;
#X connect 3 0 43 0;
#X connect 9 0 15 0;
#X connect 9 1 15 1;
#X connect 11 0 20 0;
#X connect 11 1 20 1;
#X connect 15 0 14 1;
#X connect 15 1 14 2;
#X connect 16 0 13 0;
#X connect 20 0 19 1;
#X connect 20 1 19 2;
#X connect 21 0 18 0;
#X connect 23 0 61 0;
#X connect 29 0 30 0;
#X connect 30 0 28 0;
#X connect 30 1 28 0;
#X connect 32 0 31 0;
#X connect 33 0 31 0;
#X connect 34 0 31 0;
#X connect 35 0 31 0;
#X connect 36 0 31 0;
#X connect 40 0 14 0;
#X connect 41 0 19 0;
#X connect 43 0 45 0;
#X connect 43 1 45 1;
#X connect 45 0 44 1;
#X connect 45 1 44 2;
#X connect 46 0 53 0;
#X connect 48 0 44 0;
#X connect 54 0 41 0;
#X connect 55 0 48 0;
#X connect 56 0 40 0;
#X connect 57 0 39 0;
#X connect 60 0 23 1;
#X connect 62 0 23 2;
#X connect 63 0 23 3;
#X connect 71 0 75 0;
#X connect 71 1 75 1;
#X connect 72 0 76 0;
#X connect 74 0 76 0;
#X connect 75 0 72 1;
#X connect 75 0 73 0;
#X connect 75 1 72 2;
#X connect 75 1 73 1;
#X connect 77 0 72 0;
#X connect 78 0 76 0;
#X connect 79 0 83 0;
#X connect 79 1 83 1;
#X connect 80 0 84 0;
#X connect 82 0 84 0;
#X connect 83 0 80 1;
#X connect 83 0 81 0;
#X connect 83 1 80 2;
#X connect 83 1 81 1;
#X connect 85 0 80 0;
#X connect 86 0 84 0;
#X connect 87 0 91 0;
#X connect 87 1 91 1;
#X connect 88 0 92 0;
#X connect 90 0 92 0;
#X connect 91 0 88 1;
#X connect 91 0 89 0;
#X connect 91 1 88 2;
#X connect 91 1 89 1;
#X connect 93 0 88 0;
#X connect 94 0 92 0;
#X connect 95 0 99 0;
#X connect 95 1 99 1;
#X connect 96 0 100 0;
#X connect 98 0 100 0;
#X connect 99 0 96 1;
#X connect 99 0 97 0;
#X connect 99 1 96 2;
#X connect 99 1 97 1;
#X connect 101 0 96 0;
#X connect 102 0 100 0;
