#N canvas 66 54 1300 714 10;
#X declare -lib mrpeach;
#X declare -lib gridflow;
#X declare -path /home/hellocatfood/pd-externals/hellocatfood;
#X obj 35 -140 udpreceive 57120;
#X obj 35 -118 unpackOSC;
#X obj 35 -97 routeOSC /bile;
#N canvas 459 244 450 300 messaging 0;
#X obj 225 254 udpsend;
#X obj 225 231 packOSC;
#X msg 225 206 connect 255.255.255.255 57120;
#X msg 225 160 disconnect;
#X obj 35 151 routeOSC /msg;
#X msg 145 110 send /bile/msg Antonio \$1;
#X obj 35 129 inlet;
#X obj 338 99 s displaytext;
#X obj 55 174 print chat;
#X msg 35 194 set \$1;
#X obj 35 214 outlet;
#X obj 225 140 inlet;
#X obj 225 186 inlet;
#X obj 145 88 inlet;
#X connect 1 0 0 0;
#X connect 2 0 0 0;
#X connect 3 0 0 0;
#X connect 4 0 9 0;
#X connect 4 0 8 0;
#X connect 5 0 1 0;
#X connect 6 0 4 0;
#X connect 9 0 10 0;
#X connect 11 0 3 0;
#X connect 12 0 2 0;
#X connect 13 0 5 0;
#X coords 0 0 1 1 248 86 0;
#X restore 35 425 pd messaging;
#X obj 145 -275 import mrpeach;
#X obj 395 -264 cnv 15 100 230 empty empty empty 20 12 0 14 -4034 -66577
0;
#X obj 402 -259 cnv 15 80 20 empty empty empty 20 12 0 14 -233017 -66577
0;
#X obj 35 335 cnv 15 242 80 empty empty empty 20 12 0 14 -228856 -66577
0;
#X obj 38 362 cnv 15 235 50 empty empty empty 20 12 0 14 -4034 -66577
0;
#X symbolatom 41 365 30 0 0 0 - - -;
#X symbolatom 87 390 30 0 0 0 - - -;
#X obj 38 338 bng 15 250 50 0 empty empty empty 17 7 0 10 -260097 -1
-1;
#X obj 128 338 bng 15 250 50 0 empty empty empty 17 7 0 10 -258113
-1 -1;
#X text 54 336 connect;
#X text 144 336 disconnect;
#X text 244 364 send;
#X text 37 390 recieve;
#X obj 223 338 cnv 15 50 20 empty empty empty 20 12 0 14 -257985 -66577
0;
#X text 228 338 chat;
#X obj 402 -229 grid grid1 80 0 10 80 0 10 0 0.1 0.1 10 10 443 -204
;
#X obj 402 -84 translateXYZ;
#X obj 402 -124 pack f f f;
#N canvas 67 89 450 300 translated 0;
#X obj 119 216 - 5;
#X obj 119 196 line;
#X msg 119 176 \$1 100;
#X obj 192 216 - 5;
#X obj 192 196 line;
#X msg 192 176 \$1 100;
#X obj 119 156 inlet;
#X obj 192 156 inlet;
#X obj 119 236 outlet;
#X obj 192 236 outlet;
#X connect 0 0 8 0;
#X connect 1 0 0 0;
#X connect 2 0 1 0;
#X connect 3 0 9 0;
#X connect 4 0 3 0;
#X connect 5 0 4 0;
#X connect 6 0 2 0;
#X connect 7 0 5 0;
#X restore 402 -144 pd translated;
#X obj 402 -54 sphere;
#N canvas 543 496 222 299 particles 0;
#X obj 43 20 part_head;
#X obj 58 -40 loadbang;
#X msg 58 0 speed \$1;
#X obj 43 140 part_targetcolor;
#X obj 43 240 part_render;
#X msg 58 -20 1;
#X obj 43 -60 gemhead -2;
#N canvas 385 193 450 300 spread 0;
#X obj 57 220 part_velocity;
#X msg 132 70 symbol sphere;
#X obj 132 -10 loadbang;
#X obj 132 10 t b b;
#X obj 57 140 part_source 1;
#X msg 132 180 symbol sphere;
#X msg 132 120 0 0 0 0 \$1;
#X msg 132 200 0 0 0 0 \$1;
#X msg 159 30 0;
#X obj 57 -30 inlet;
#X obj 57 260 outlet;
#X obj 159 50 outlet;
#X obj 232 70 inlet;
#X connect 0 0 10 0;
#X connect 1 0 4 2;
#X connect 2 0 3 0;
#X connect 2 0 5 0;
#X connect 3 0 1 0;
#X connect 3 0 6 0;
#X connect 3 1 8 0;
#X connect 4 0 0 0;
#X connect 5 0 0 1;
#X connect 6 0 4 3;
#X connect 7 0 0 2;
#X connect 8 0 11 0;
#X connect 9 0 4 0;
#X connect 12 0 6 0;
#X connect 12 0 7 0;
#X restore 43 200 pd spread;
#X obj 43 220 part_killold 5;
#X msg 94 175 0.06;
#X obj 43 260 outlet;
#X msg 136 120 0.4;
#X msg 89 90 0.7 0.9 0.1 1;
#X obj 43 -80 inlet;
#X connect 0 0 3 0;
#X connect 1 0 5 0;
#X connect 1 0 9 0;
#X connect 1 0 12 0;
#X connect 1 0 11 0;
#X connect 2 0 0 0;
#X connect 3 0 7 0;
#X connect 4 0 10 0;
#X connect 5 0 2 0;
#X connect 6 0 0 0;
#X connect 7 0 8 0;
#X connect 8 0 4 0;
#X connect 9 0 7 1;
#X connect 11 0 3 2;
#X connect 12 0 3 1;
#X connect 13 0 6 0;
#X restore 402 -104 pd particles;
#X obj 43 -213 bng 30 250 50 0 empty empty empty 17 7 0 10 -4034 -1
-1;
#X obj 83 -193 bng 15 250 50 0 empty empty empty 17 7 0 10 -258113
-1 -1;
#X obj 83 -213 bng 15 250 50 0 empty empty empty 17 7 0 10 -4032 -1
-1;
#N canvas 67 107 450 300 window 0;
#X obj 30 149 gemwin;
#X msg 200 39 0 \, destroy;
#X msg 110 39 dimen 800 600;
#X obj 30 19 inlet;
#X obj 110 19 inlet;
#X obj 200 19 inlet;
#X msg 111 69 offset 1366 0;
#X msg 220 68 border 0;
#X msg 30 39 FSAA 8 \, create \, 1;
#X obj 332 92 world_light;
#X obj 332 62 gemhead;
#X msg 110 129 lighting \$1;
#X obj 110 109 inlet;
#X connect 1 0 0 0;
#X connect 2 0 0 0;
#X connect 3 0 8 0;
#X connect 4 0 6 0;
#X connect 4 0 2 0;
#X connect 4 0 7 0;
#X connect 5 0 1 0;
#X connect 6 0 0 0;
#X connect 7 0 0 0;
#X connect 8 0 0 0;
#X connect 10 0 9 0;
#X connect 11 0 0 0;
#X connect 12 0 11 0;
#X restore 43 -174 pd window;
#X text 103 -215 press this first;
#X text 103 -195 destroy window;
#X text 40 -235 create window;
#X obj 43 -275 import gridflow;
#X obj 43 -255 path /home/hellocatfood/pd-externals/hellocatfood;
#X obj 61 200 cnv 15 180 70 empty empty empty 20 12 0 14 -203904 -66577
0;
#X symbolatom 65 228 28 0 0 0 - - -;
#X obj 68 250 hsl 40 15 -4 4 0 0 empty empty x 30 7 0 10 -260097 -1
-1 107 1;
#X obj 118 250 hsl 40 15 -4 4 0 0 empty empty y 30 7 0 10 -260097 -1
-1 1750 1;
#X obj 125 204 cnv 15 110 20 empty empty empty 20 12 0 14 -257985 -66577
0;
#X obj 169 250 nbx 3 15 -1e+37 1e+37 0 0 empty empty empty 0 -8 0 10
-4034 -1 -1 40 256;
#X text 206 249 size;
#X obj 116 157 loadbang;
#X text 129 204 fighters text;
#X msg 116 177 -3.78;
#X msg 158 177 -0.41;
#X msg 200 177 40;
#N canvas 299 142 450 300 fightouting 0;
#X obj 32 55 inlet;
#X obj 32 108 unpack s s s;
#X symbolatom 32 132 6 0 0 0 - - -;
#X symbolatom 112 132 6 0 0 0 - - -;
#X obj 32 78 routeOSC /fighters;
#X obj 32 254 list2symbol;
#X symbolatom 72 132 6 0 0 0 - - -;
#X obj 32 184 pack s s;
#X obj 32 275 outlet;
#X msg 95 224 symbol -;
#X obj 95 204 loadbang;
#X obj 42 154 outlet;
#X obj 122 154 outlet;
#X obj 82 154 outlet;
#X connect 0 0 4 0;
#X connect 1 0 2 0;
#X connect 1 1 6 0;
#X connect 1 2 3 0;
#X connect 2 0 7 0;
#X connect 2 0 11 0;
#X connect 3 0 7 1;
#X connect 3 0 12 0;
#X connect 4 0 1 0;
#X connect 6 0 13 0;
#X connect 7 0 5 0;
#X connect 9 0 5 1;
#X connect 10 0 9 0;
#X restore 65 -10 pd fightouting;
#N canvas 524 245 450 300 fightertext 0;
#X obj 56 98 translateXYZ;
#X obj 56 123 loadbang;
#X msg 56 142 font /home/hellocatfood/.fonts/Orbitron-Black.ttf;
#X obj 56 75 line;
#X obj 106 75 line;
#X msg 89 265 \$1 100;
#X obj 89 285 line;
#X msg 106 55 \$1 100;
#X msg 56 55 \$1 100;
#X floatatom 106 35 5 0 0 0 - - -;
#X floatatom 56 35 5 0 0 0 - - -;
#X msg 86 205 text fighters: \$1;
#X obj 56 306 text2d;
#X obj 89 245 inlet;
#X obj 56 15 inlet;
#X obj 106 15 inlet;
#X msg 364 142 justify left base;
#X obj 86 185 inlet;
#X obj 56 -15 gemhead -4;
#X obj 46 -45 inlet;
#X connect 0 0 12 0;
#X connect 1 0 2 0;
#X connect 1 0 11 0;
#X connect 1 0 16 0;
#X connect 2 0 12 0;
#X connect 3 0 0 1;
#X connect 4 0 0 2;
#X connect 5 0 6 0;
#X connect 6 0 12 1;
#X connect 7 0 4 0;
#X connect 8 0 3 0;
#X connect 9 0 7 0;
#X connect 10 0 8 0;
#X connect 11 0 12 0;
#X connect 13 0 5 0;
#X connect 14 0 10 0;
#X connect 15 0 9 0;
#X connect 16 0 12 0;
#X connect 17 0 11 0;
#X connect 18 0 0 0;
#X connect 19 0 18 0;
#X restore 65 280 pd fightertext;
#X msg 92 70 1;
#X msg 131 70 2;
#X msg 171 70 3;
#X msg 211 70 4;
#X msg 146 110 1;
#X msg 185 110 2;
#X msg 225 110 3;
#X msg 265 110 4;
#X obj 469 331 gemhead -5;
#X obj 469 427 rectangle 4 4;
#X obj 469 397 color;
#X obj 540 284 random 100;
#X obj 540 304 / 100;
#X obj 540 264 metro 1000;
#X obj 610 304 * 10;
#X obj 540 350 line \$1 100;
#X obj 540 244 tgl 15 0 empty empty empty 17 7 0 10 -262144 -1 -1 1
1;
#X obj 603 330 * 10;
#X obj 540 380 pack f f f;
#X obj 119 10 sel x y z;
#X msg 119 30 0 0 1;
#X msg 159 30 0 1 0;
#X msg 199 30 1 0 0;
#X obj 66 171 tgl 15 0 empty empty empty 17 7 0 10 -262144 -1 -1 0
1;
#X obj 55 -77 cnv 15 78 53 empty empty empty 20 12 0 14 -260097 -66577
0;
#X floatatom 58 -54 3 0 1 0 - - -;
#X floatatom 83 -54 3 0 1 0 - - -;
#X floatatom 109 -54 3 0 1 0 - - -;
#X text 60 -42 x;
#X text 85 -42 y;
#X text 111 -42 z;
#N canvas 721 209 450 300 Julien 0;
#X obj 107 9 inlet;
#X obj 107 51 routeOSC /x;
#X obj 182 51 routeOSC /y;
#X obj 258 51 routeOSC /z;
#X obj 107 95 outlet;
#X obj 182 95 outlet;
#X obj 258 95 outlet;
#X obj 107 30 routeOSC /Julien;
#X obj 107 75 - 0;
#X obj 182 75 - 0;
#X obj 258 75 - 0;
#X connect 0 0 7 0;
#X connect 1 0 8 0;
#X connect 2 0 9 0;
#X connect 3 0 10 0;
#X connect 7 0 1 0;
#X connect 7 0 2 0;
#X connect 7 0 3 0;
#X connect 8 0 4 0;
#X connect 9 0 5 0;
#X connect 10 0 6 0;
#X coords 0 300 1 299 59 84 0;
#X restore 58 -74 pd Julien;
#X obj 145 -77 cnv 15 78 53 empty empty empty 20 12 0 14 -260097 -66577
0;
#X floatatom 148 -54 3 0 1 0 - - -;
#X floatatom 173 -54 3 0 1 0 - - -;
#X floatatom 199 -54 3 0 1 0 - - -;
#X text 150 -42 x;
#X text 175 -42 y;
#X text 201 -42 z;
#X obj 235 -77 cnv 15 78 53 empty empty empty 20 12 0 14 -260097 -66577
0;
#X floatatom 238 -54 3 0 1 0 - - -;
#X floatatom 263 -54 3 0 1 0 - - -;
#X floatatom 289 -54 3 0 1 0 - - -;
#X text 240 -42 x;
#X text 265 -42 y;
#X text 291 -42 z;
#N canvas 721 209 450 300 Shelly 0;
#X obj 107 9 inlet;
#X obj 107 51 routeOSC /x;
#X obj 182 51 routeOSC /y;
#X obj 258 51 routeOSC /z;
#X obj 107 95 outlet;
#X obj 182 95 outlet;
#X obj 258 95 outlet;
#X obj 107 30 routeOSC /Julien;
#X obj 107 75 - 0;
#X obj 182 75 - 0;
#X obj 258 75 - 0;
#X connect 0 0 7 0;
#X connect 1 0 8 0;
#X connect 2 0 9 0;
#X connect 3 0 10 0;
#X connect 7 0 1 0;
#X connect 7 0 2 0;
#X connect 7 0 3 0;
#X connect 8 0 4 0;
#X connect 9 0 5 0;
#X connect 10 0 6 0;
#X coords 0 300 1 299 59 84 0;
#X restore 148 -74 pd Shelly;
#N canvas 721 209 450 300 Les 0;
#X obj 107 9 inlet;
#X obj 107 51 routeOSC /x;
#X obj 182 51 routeOSC /y;
#X obj 258 51 routeOSC /z;
#X obj 107 95 outlet;
#X obj 182 95 outlet;
#X obj 258 95 outlet;
#X obj 107 30 routeOSC /Julien;
#X obj 107 75 - 0;
#X obj 182 75 - 0;
#X obj 258 75 - 0;
#X connect 0 0 7 0;
#X connect 1 0 8 0;
#X connect 2 0 9 0;
#X connect 3 0 10 0;
#X connect 7 0 1 0;
#X connect 7 0 2 0;
#X connect 7 0 3 0;
#X connect 8 0 4 0;
#X connect 9 0 5 0;
#X connect 10 0 6 0;
#X coords 0 300 1 299 59 84 0;
#X restore 238 -74 pd Les;
#X text 402 -257 Julien;
#X obj 395 36 cnv 15 110 180 empty empty empty 20 12 0 14 -159808 -66577
0;
#X obj 400 193 curve 2;
#X obj 419 76 switch 3;
#X obj 439 102 switch 3;
#X obj 400 43 gemhead -3;
#X msg 444 150 width \$1;
#X floatatom 444 130 5 0 0 0 - - -;
#X obj 400 163 color;
#X obj 515 -264 cnv 15 100 230 empty empty empty 20 12 0 14 -258113
-66577 0;
#X obj 522 -259 cnv 15 80 20 empty empty empty 20 12 0 14 -233017 -66577
0;
#X obj 522 -229 grid grid1 80 0 10 80 0 10 0 0.1 0.1 10 10 543 -170
;
#X obj 522 -84 translateXYZ;
#X obj 522 -124 pack f f f;
#N canvas 67 89 450 300 translated 0;
#X obj 119 216 - 5;
#X obj 119 196 line;
#X msg 119 176 \$1 100;
#X obj 192 216 - 5;
#X obj 192 196 line;
#X msg 192 176 \$1 100;
#X obj 119 156 inlet;
#X obj 192 156 inlet;
#X obj 119 236 outlet;
#X obj 192 236 outlet;
#X connect 0 0 8 0;
#X connect 1 0 0 0;
#X connect 2 0 1 0;
#X connect 3 0 9 0;
#X connect 4 0 3 0;
#X connect 5 0 4 0;
#X connect 6 0 2 0;
#X connect 7 0 5 0;
#X restore 522 -144 pd translated;
#X obj 522 -54 sphere;
#N canvas 209 276 222 299 particles 0;
#X obj 43 20 part_head;
#X obj 58 -40 loadbang;
#X msg 58 0 speed \$1;
#X obj 43 140 part_targetcolor;
#X obj 43 240 part_render;
#X msg 58 -20 1;
#X obj 43 -60 gemhead -2;
#N canvas 385 193 450 300 spread 0;
#X obj 57 220 part_velocity;
#X msg 132 70 symbol sphere;
#X obj 132 -10 loadbang;
#X obj 132 10 t b b;
#X obj 57 140 part_source 1;
#X msg 132 180 symbol sphere;
#X msg 132 120 0 0 0 0 \$1;
#X msg 132 200 0 0 0 0 \$1;
#X msg 159 30 0;
#X obj 57 -30 inlet;
#X obj 57 260 outlet;
#X obj 159 50 outlet;
#X obj 232 70 inlet;
#X connect 0 0 10 0;
#X connect 1 0 4 2;
#X connect 2 0 3 0;
#X connect 2 0 5 0;
#X connect 3 0 1 0;
#X connect 3 0 6 0;
#X connect 3 1 8 0;
#X connect 4 0 0 0;
#X connect 5 0 0 1;
#X connect 6 0 4 3;
#X connect 7 0 0 2;
#X connect 8 0 11 0;
#X connect 9 0 4 0;
#X connect 12 0 6 0;
#X connect 12 0 7 0;
#X restore 43 200 pd spread;
#X obj 43 220 part_killold 5;
#X msg 94 175 0.06;
#X obj 43 260 outlet;
#X msg 136 120 0.4;
#X msg 89 90 1 0.1 0 1;
#X obj 43 -80 inlet;
#X connect 0 0 3 0;
#X connect 1 0 5 0;
#X connect 1 0 9 0;
#X connect 1 0 12 0;
#X connect 1 0 11 0;
#X connect 2 0 0 0;
#X connect 3 0 7 0;
#X connect 4 0 10 0;
#X connect 5 0 2 0;
#X connect 6 0 0 0;
#X connect 7 0 8 0;
#X connect 8 0 4 0;
#X connect 9 0 7 1;
#X connect 11 0 3 2;
#X connect 12 0 3 1;
#X connect 13 0 6 0;
#X restore 522 -104 pd particles;
#X obj 635 -264 cnv 15 100 230 empty empty empty 20 12 0 14 -4160 -66577
0;
#X obj 642 -259 cnv 15 80 20 empty empty empty 20 12 0 14 -233017 -66577
0;
#X obj 642 -229 grid grid1 80 0 10 80 0 10 0 0.1 0.1 10 10 698 -172
;
#X obj 642 -84 translateXYZ;
#X obj 642 -124 pack f f f;
#N canvas 67 89 450 300 translated 0;
#X obj 119 216 - 5;
#X obj 119 196 line;
#X msg 119 176 \$1 100;
#X obj 192 216 - 5;
#X obj 192 196 line;
#X msg 192 176 \$1 100;
#X obj 119 156 inlet;
#X obj 192 156 inlet;
#X obj 119 236 outlet;
#X obj 192 236 outlet;
#X connect 0 0 8 0;
#X connect 1 0 0 0;
#X connect 2 0 1 0;
#X connect 3 0 9 0;
#X connect 4 0 3 0;
#X connect 5 0 4 0;
#X connect 6 0 2 0;
#X connect 7 0 5 0;
#X restore 642 -144 pd translated;
#X obj 642 -54 sphere;
#N canvas 545 496 222 299 particles 0;
#X obj 43 20 part_head;
#X obj 58 -40 loadbang;
#X msg 58 0 speed \$1;
#X obj 43 140 part_targetcolor;
#X obj 43 240 part_render;
#X msg 58 -20 1;
#X obj 43 -60 gemhead -2;
#N canvas 385 193 450 300 spread 0;
#X obj 57 220 part_velocity;
#X msg 132 70 symbol sphere;
#X obj 132 -10 loadbang;
#X obj 132 10 t b b;
#X obj 57 140 part_source 1;
#X msg 132 180 symbol sphere;
#X msg 132 120 0 0 0 0 \$1;
#X msg 132 200 0 0 0 0 \$1;
#X msg 159 30 0;
#X obj 57 -30 inlet;
#X obj 57 260 outlet;
#X obj 159 50 outlet;
#X obj 232 70 inlet;
#X connect 0 0 10 0;
#X connect 1 0 4 2;
#X connect 2 0 3 0;
#X connect 2 0 5 0;
#X connect 3 0 1 0;
#X connect 3 0 6 0;
#X connect 3 1 8 0;
#X connect 4 0 0 0;
#X connect 5 0 0 1;
#X connect 6 0 4 3;
#X connect 7 0 0 2;
#X connect 8 0 11 0;
#X connect 9 0 4 0;
#X connect 12 0 6 0;
#X connect 12 0 7 0;
#X restore 43 200 pd spread;
#X obj 43 220 part_killold 5;
#X msg 94 175 0.06;
#X obj 43 260 outlet;
#X msg 136 120 0.4;
#X msg 89 90 0 0.1 1 1;
#X obj 43 -80 inlet;
#X connect 0 0 3 0;
#X connect 1 0 5 0;
#X connect 1 0 9 0;
#X connect 1 0 12 0;
#X connect 1 0 11 0;
#X connect 2 0 0 0;
#X connect 3 0 7 0;
#X connect 4 0 10 0;
#X connect 5 0 2 0;
#X connect 6 0 0 0;
#X connect 7 0 8 0;
#X connect 8 0 4 0;
#X connect 9 0 7 1;
#X connect 11 0 3 2;
#X connect 12 0 3 1;
#X connect 13 0 6 0;
#X restore 642 -104 pd particles;
#X text 522 -257 Shelly;
#X text 642 -257 Les;
#X obj 92 50 sel julien shelly les ian;
#X obj 146 90 sel julien shelly les ian;
#X obj 755 -264 cnv 15 100 230 empty empty empty 20 12 0 14 -4160 -66577
0;
#X obj 762 -259 cnv 15 80 20 empty empty empty 20 12 0 14 -233017 -66577
0;
#X obj 762 -229 grid grid1 80 0 10 80 0 10 0 0.1 0.1 10 10 824 -170
;
#X obj 762 -84 translateXYZ;
#X obj 762 -124 pack f f f;
#N canvas 67 89 450 300 translated 0;
#X obj 119 216 - 5;
#X obj 119 196 line;
#X msg 119 176 \$1 100;
#X obj 192 216 - 5;
#X obj 192 196 line;
#X msg 192 176 \$1 100;
#X obj 119 156 inlet;
#X obj 192 156 inlet;
#X obj 119 236 outlet;
#X obj 192 236 outlet;
#X connect 0 0 8 0;
#X connect 1 0 0 0;
#X connect 2 0 1 0;
#X connect 3 0 9 0;
#X connect 4 0 3 0;
#X connect 5 0 4 0;
#X connect 6 0 2 0;
#X connect 7 0 5 0;
#X restore 762 -144 pd translated;
#X obj 762 -54 sphere;
#N canvas 543 496 222 299 particles 1;
#X obj 43 20 part_head;
#X obj 58 -40 loadbang;
#X msg 58 0 speed \$1;
#X obj 43 140 part_targetcolor;
#X obj 43 240 part_render;
#X msg 58 -20 1;
#X obj 43 -60 gemhead -2;
#N canvas 385 193 450 300 spread 0;
#X obj 57 220 part_velocity;
#X msg 132 70 symbol sphere;
#X obj 132 -10 loadbang;
#X obj 132 10 t b b;
#X obj 57 140 part_source 1;
#X msg 132 180 symbol sphere;
#X msg 132 120 0 0 0 0 \$1;
#X msg 132 200 0 0 0 0 \$1;
#X msg 159 30 0;
#X obj 57 -30 inlet;
#X obj 57 260 outlet;
#X obj 159 50 outlet;
#X obj 232 70 inlet;
#X connect 0 0 10 0;
#X connect 1 0 4 2;
#X connect 2 0 3 0;
#X connect 2 0 5 0;
#X connect 3 0 1 0;
#X connect 3 0 6 0;
#X connect 3 1 8 0;
#X connect 4 0 0 0;
#X connect 5 0 0 1;
#X connect 6 0 4 3;
#X connect 7 0 0 2;
#X connect 8 0 11 0;
#X connect 9 0 4 0;
#X connect 12 0 6 0;
#X connect 12 0 7 0;
#X restore 43 200 pd spread;
#X obj 43 220 part_killold 5;
#X msg 94 175 0.06;
#X obj 43 260 outlet;
#X msg 136 120 0.4;
#X msg 89 90 0 0.1 1 1;
#X obj 43 -80 inlet;
#X connect 0 0 3 0;
#X connect 1 0 5 0;
#X connect 1 0 9 0;
#X connect 1 0 12 0;
#X connect 1 0 11 0;
#X connect 2 0 0 0;
#X connect 3 0 7 0;
#X connect 4 0 10 0;
#X connect 5 0 2 0;
#X connect 6 0 0 0;
#X connect 7 0 8 0;
#X connect 8 0 4 0;
#X connect 9 0 7 1;
#X connect 11 0 3 2;
#X connect 12 0 3 1;
#X connect 13 0 6 0;
#X restore 762 -104 pd particles;
#X obj 462 -54 tgl 15 0 empty empty empty 17 7 0 10 -257985 -1 -1 1
1;
#X obj 583 -55 tgl 15 0 empty empty empty 17 7 0 10 -257985 -1 -1 1
1;
#X obj 703 -55 tgl 15 0 empty empty empty 17 7 0 10 -257985 -1 -1 1
1;
#X obj 823 -55 tgl 15 0 empty empty empty 17 7 0 10 -257985 -1 -1 0
1;
#X text 762 -257 Ian;
#X obj 129 -165 tgl 15 0 empty empty empty 17 7 0 10 -262144 -1 -1
1 1;
#X connect 0 0 1 0;
#X connect 1 0 2 0;
#X connect 2 0 3 0;
#X connect 2 0 46 0;
#X connect 2 0 79 0;
#X connect 2 0 94 0;
#X connect 2 0 95 0;
#X connect 3 0 10 0;
#X connect 9 0 3 1;
#X connect 11 0 3 2;
#X connect 12 0 3 3;
#X connect 19 0 22 0;
#X connect 19 1 22 1;
#X connect 20 0 23 0;
#X connect 21 0 99 1;
#X connect 21 0 100 1;
#X connect 22 0 20 1;
#X connect 22 0 21 0;
#X connect 22 1 20 2;
#X connect 22 1 21 1;
#X connect 24 0 20 0;
#X connect 25 0 28 0;
#X connect 26 0 28 3;
#X connect 27 0 28 2;
#X connect 35 0 47 2;
#X connect 36 0 47 1;
#X connect 37 0 47 4;
#X connect 39 0 47 3;
#X connect 41 0 43 0;
#X connect 41 0 44 0;
#X connect 41 0 45 0;
#X connect 43 0 36 0;
#X connect 44 0 37 0;
#X connect 45 0 39 0;
#X connect 46 0 35 0;
#X connect 46 1 123 0;
#X connect 46 2 67 0;
#X connect 46 3 124 0;
#X connect 48 0 99 0;
#X connect 49 0 99 0;
#X connect 50 0 99 0;
#X connect 51 0 99 0;
#X connect 52 0 100 0;
#X connect 53 0 100 0;
#X connect 54 0 100 0;
#X connect 55 0 100 0;
#X connect 56 0 58 0;
#X connect 58 0 57 0;
#X connect 59 0 60 0;
#X connect 59 0 62 0;
#X connect 59 0 65 0;
#X connect 60 0 63 0;
#X connect 61 0 59 0;
#X connect 62 0 61 1;
#X connect 63 0 66 2;
#X connect 63 0 66 0;
#X connect 63 0 66 1;
#X connect 64 0 61 0;
#X connect 65 0 63 1;
#X connect 66 0 58 1;
#X connect 67 0 68 0;
#X connect 67 1 69 0;
#X connect 67 2 70 0;
#X connect 68 0 104 1;
#X connect 69 0 104 1;
#X connect 70 0 104 1;
#X connect 71 0 47 0;
#X connect 79 0 73 0;
#X connect 79 1 74 0;
#X connect 79 2 75 0;
#X connect 94 0 81 0;
#X connect 94 1 82 0;
#X connect 94 2 83 0;
#X connect 95 0 88 0;
#X connect 95 1 89 0;
#X connect 95 2 90 0;
#X connect 99 0 98 1;
#X connect 100 0 98 2;
#X connect 101 0 104 0;
#X connect 102 0 98 0;
#X connect 103 0 102 0;
#X connect 104 0 98 0;
#X connect 107 0 110 0;
#X connect 107 1 110 1;
#X connect 108 0 111 0;
#X connect 109 0 99 2;
#X connect 109 0 100 2;
#X connect 110 0 108 1;
#X connect 110 0 109 0;
#X connect 110 1 108 2;
#X connect 110 1 109 1;
#X connect 112 0 108 0;
#X connect 115 0 118 0;
#X connect 115 1 118 1;
#X connect 116 0 119 0;
#X connect 117 0 99 3;
#X connect 117 0 100 3;
#X connect 118 0 116 1;
#X connect 118 0 117 0;
#X connect 118 1 116 2;
#X connect 118 1 117 1;
#X connect 120 0 116 0;
#X connect 123 0 48 0;
#X connect 123 1 49 0;
#X connect 123 2 50 0;
#X connect 123 3 51 0;
#X connect 124 0 52 0;
#X connect 124 1 53 0;
#X connect 124 2 54 0;
#X connect 124 3 55 0;
#X connect 127 0 130 0;
#X connect 127 1 130 1;
#X connect 128 0 131 0;
#X connect 130 0 128 1;
#X connect 130 0 129 0;
#X connect 130 1 128 2;
#X connect 130 1 129 1;
#X connect 132 0 128 0;
#X connect 133 0 24 0;
#X connect 134 0 112 0;
#X connect 135 0 120 0;
#X connect 136 0 132 0;
#X connect 138 0 28 1;
