#N canvas 66 54 1300 714 10;
#X declare -lib mrpeach;
#X msg 108 -212 dimen 1366 795;
#X obj 35 10 udpreceive 57120;
#X obj 35 32 unpackOSC;
#X obj 35 53 routeOSC /bile;
#X obj 35 286 cnv 15 220 270 empty empty empty 20 12 0 14 -16662 -66577
0;
#X obj 42 376 translateXYZ;
#N canvas 858 186 450 300 shake 0;
#X obj 101 11 inlet;
#X obj 101 150 line;
#X floatatom 101 173 5 0 0 0 - - -;
#X msg 101 128 \$1 250;
#X obj 101 193 outlet;
#X obj 171 150 line;
#X floatatom 171 173 5 0 0 0 - - -;
#X msg 171 128 \$1 250;
#X obj 171 193 outlet;
#X obj 171 11 inlet;
#X obj 101 83 / 1;
#X obj 171 83 / 1;
#X connect 0 0 10 0;
#X connect 1 0 2 0;
#X connect 2 0 4 0;
#X connect 3 0 1 0;
#X connect 5 0 6 0;
#X connect 6 0 8 0;
#X connect 7 0 5 0;
#X connect 9 0 11 0;
#X connect 10 0 3 0;
#X connect 11 0 7 0;
#X restore 66 355 pd shake;
#X obj 42 440 translateXYZ;
#N canvas 872 405 450 300 jmove 0;
#X msg 158 76 250 600;
#X obj 87 51 inlet;
#X obj 87 100 line;
#X obj 158 100 line;
#X floatatom 87 121 5 0 0 0 - - -;
#X obj 87 141 / 100;
#X floatatom 158 121 5 0 0 0 - - -;
#X obj 158 141 / 100;
#X obj 87 164 outlet;
#X obj 158 164 outlet;
#X msg 87 77 -245 600;
#X connect 0 0 3 0;
#X connect 1 0 10 0;
#X connect 1 0 0 0;
#X connect 2 0 4 0;
#X connect 3 0 6 0;
#X connect 4 0 5 0;
#X connect 5 0 8 0;
#X connect 6 0 7 0;
#X connect 7 0 9 0;
#X connect 10 0 2 0;
#X restore 65 419 pd jmove;
#X obj 265 286 cnv 15 220 270 empty empty empty 20 12 0 14 -4034 -66577
0;
#X obj 495 286 cnv 15 220 270 empty empty empty 20 12 0 14 -159808
-66577 0;
#X obj 209 -195 bng 30 250 50 0 emerge empty empty 17 7 0 10 -258113
-1 -1;
#X obj 65 398 r emerge;
#X text 248 -187 emerge;
#X obj 42 499 pix_texture;
#N canvas 66 34 450 300 Shelly 0;
#X obj 102 102 cnv 15 55 80 empty empty empty 20 12 0 14 -260097 -66577
0;
#X obj 107 29 inlet;
#X obj 107 50 routeOSC /Shelly;
#X floatatom 107 125 5 0 1 0 - - -;
#X floatatom 107 144 5 0 1 0 - - -;
#X floatatom 107 163 5 0 1 0 - - -;
#X obj 107 71 routeOSC /x;
#X obj 182 71 routeOSC /y;
#X obj 258 71 routeOSC /z;
#X obj 107 195 outlet;
#X obj 182 195 outlet;
#X obj 258 195 outlet;
#X text 107 102 Shelly;
#X text 141 124 x;
#X text 142 144 y;
#X text 141 161 z;
#X connect 1 0 2 0;
#X connect 2 0 6 0;
#X connect 2 0 7 0;
#X connect 2 0 8 0;
#X connect 3 0 9 0;
#X connect 4 0 10 0;
#X connect 5 0 11 0;
#X connect 6 0 3 0;
#X connect 7 0 4 0;
#X connect 8 0 5 0;
#X coords 0 -1 1 1 59 84 2 100 100;
#X restore 350 321 pd Shelly;
#N canvas 66 34 450 300 Shelly 0;
#X obj 102 102 cnv 15 55 80 empty empty empty 20 12 0 14 -260097 -66577
0;
#X obj 107 9 inlet;
#X floatatom 107 125 5 0 1 0 - - -;
#X floatatom 107 144 5 0 1 0 - - -;
#X floatatom 107 163 5 0 1 0 - - -;
#X obj 107 51 routeOSC /x;
#X obj 182 51 routeOSC /y;
#X obj 258 51 routeOSC /z;
#X obj 107 195 outlet;
#X obj 182 195 outlet;
#X obj 258 195 outlet;
#X text 141 124 x;
#X text 142 144 y;
#X text 141 161 z;
#X text 106 102 Julien;
#X obj 107 30 routeOSC /Julien;
#X obj 258 71 - 0.5;
#X obj 182 71 - 0.5;
#X obj 107 71 - 0.5;
#X connect 1 0 15 0;
#X connect 2 0 8 0;
#X connect 3 0 9 0;
#X connect 4 0 10 0;
#X connect 5 0 18 0;
#X connect 6 0 17 0;
#X connect 7 0 16 0;
#X connect 15 0 5 0;
#X connect 15 0 6 0;
#X connect 15 0 7 0;
#X connect 16 0 4 0;
#X connect 17 0 3 0;
#X connect 18 0 2 0;
#X coords 0 -1 1 1 59 84 2 100 100;
#X restore 123 321 pd Shelly;
#N canvas 69 32 450 300 Shelly 0;
#X obj 102 102 cnv 15 55 80 empty empty empty 20 12 0 14 -260097 -66577
0;
#X obj 107 29 inlet;
#X floatatom 107 125 5 0 1 0 - - -;
#X floatatom 107 144 5 0 1 0 - - -;
#X floatatom 107 163 5 0 1 0 - - -;
#X obj 107 71 routeOSC /x;
#X obj 182 71 routeOSC /y;
#X obj 258 71 routeOSC /z;
#X obj 107 195 outlet;
#X obj 182 195 outlet;
#X obj 258 195 outlet;
#X text 141 124 x;
#X text 142 144 y;
#X text 141 161 z;
#X text 107 102 les;
#X obj 107 50 routeOSC /Les;
#X connect 1 0 15 0;
#X connect 2 0 8 0;
#X connect 3 0 9 0;
#X connect 4 0 10 0;
#X connect 5 0 2 0;
#X connect 6 0 3 0;
#X connect 7 0 4 0;
#X connect 15 0 5 0;
#X connect 15 0 6 0;
#X connect 15 0 7 0;
#X coords 0 -1 1 1 59 84 2 100 100;
#X restore 582 322 pd Shelly;
#N canvas 67 83 450 300 play 0;
#X obj 153 28 tgl 30 1 empty empty empty 17 7 0 10 -258113 -1 -1 1
1;
#X msg 153 75 auto \$1;
#X obj 78 140 pix_film;
#X obj 139 140 f;
#X obj 78 110 inlet;
#X obj 78 170 outlet;
#X connect 0 0 1 0;
#X connect 1 0 2 0;
#X connect 2 0 5 0;
#X connect 2 2 3 0;
#X connect 3 0 2 1;
#X connect 4 0 2 0;
#X coords 0 -1 1 1 35 35 2 150 25;
#X restore 42 461 pd play;
#X obj 42 291 cnv 15 80 20 empty empty empty 20 12 0 14 -233017 -66577
0;
#N canvas 216 104 450 300 smove 0;
#X msg 88 76 250 600;
#X obj 88 51 inlet;
#X obj 88 99 line;
#X obj 158 99 line;
#X floatatom 88 120 5 0 0 0 - - -;
#X obj 88 140 / 100;
#X floatatom 158 120 5 0 0 0 - - -;
#X obj 158 140 / 100;
#X obj 88 163 outlet;
#X obj 158 163 outlet;
#X msg 158 76 250 600;
#X connect 0 0 2 0;
#X connect 1 0 0 0;
#X connect 1 0 10 0;
#X connect 2 0 4 0;
#X connect 3 0 6 0;
#X connect 4 0 5 0;
#X connect 5 0 8 0;
#X connect 6 0 7 0;
#X connect 7 0 9 0;
#X connect 10 0 3 0;
#X restore 293 419 pd smove;
#X obj 270 375 translateXYZ;
#N canvas 858 186 450 300 shake 0;
#X obj 101 11 inlet;
#X obj 101 150 line;
#X floatatom 101 173 5 0 0 0 - - -;
#X msg 101 128 \$1 250;
#X obj 101 193 outlet;
#X obj 171 150 line;
#X floatatom 171 173 5 0 0 0 - - -;
#X msg 171 128 \$1 250;
#X obj 171 193 outlet;
#X obj 171 11 inlet;
#X obj 101 83 / 1;
#X obj 171 83 / 1;
#X connect 0 0 10 0;
#X connect 1 0 2 0;
#X connect 2 0 4 0;
#X connect 3 0 1 0;
#X connect 5 0 6 0;
#X connect 6 0 8 0;
#X connect 7 0 5 0;
#X connect 9 0 11 0;
#X connect 10 0 3 0;
#X connect 11 0 7 0;
#X restore 294 354 pd shake;
#X obj 270 440 translateXYZ;
#X obj 293 398 r emerge;
#X obj 270 499 pix_texture;
#X obj 270 291 cnv 15 80 20 empty empty empty 20 12 0 14 -233017 -66577
0;
#N canvas 68 24 450 300 play 0;
#X obj 153 28 tgl 30 1 empty empty empty 17 7 0 10 -258113 -1 -1 1
1;
#X msg 153 75 auto \$1;
#X obj 78 140 pix_film;
#X obj 139 140 f;
#X obj 78 110 inlet;
#X obj 78 170 outlet;
#X connect 0 0 1 0;
#X connect 1 0 2 0;
#X connect 2 0 5 0;
#X connect 2 2 3 0;
#X connect 3 0 2 1;
#X connect 4 0 2 0;
#X coords 0 -1 1 1 35 35 2 150 25;
#X restore 270 461 pd play;
#N canvas 395 165 450 300 lmove 0;
#X msg 88 76 -250 600;
#X msg 158 76 -145 600;
#X obj 88 51 inlet;
#X obj 88 99 line;
#X obj 158 99 line;
#X floatatom 88 120 5 0 0 0 - - -;
#X obj 88 140 / 100;
#X floatatom 158 120 5 0 0 0 - - -;
#X obj 158 140 / 100;
#X obj 88 163 outlet;
#X obj 158 163 outlet;
#X connect 0 0 3 0;
#X connect 1 0 4 0;
#X connect 2 0 0 0;
#X connect 2 0 1 0;
#X connect 3 0 5 0;
#X connect 4 0 7 0;
#X connect 5 0 6 0;
#X connect 6 0 9 0;
#X connect 7 0 8 0;
#X connect 8 0 10 0;
#X restore 525 419 pd lmove;
#X obj 502 376 translateXYZ;
#N canvas 858 186 450 300 shake 0;
#X obj 101 11 inlet;
#X obj 101 150 line;
#X floatatom 101 173 5 0 0 0 - - -;
#X msg 101 128 \$1 250;
#X obj 101 193 outlet;
#X obj 171 150 line;
#X floatatom 171 173 5 0 0 0 - - -;
#X msg 171 128 \$1 250;
#X obj 171 193 outlet;
#X obj 171 11 inlet;
#X obj 101 83 / 1;
#X obj 171 83 / 1;
#X connect 0 0 10 0;
#X connect 1 0 2 0;
#X connect 2 0 4 0;
#X connect 3 0 1 0;
#X connect 5 0 6 0;
#X connect 6 0 8 0;
#X connect 7 0 5 0;
#X connect 9 0 11 0;
#X connect 10 0 3 0;
#X connect 11 0 7 0;
#X restore 526 355 pd shake;
#X obj 502 440 translateXYZ;
#X obj 525 398 r emerge;
#X obj 502 499 pix_texture;
#X obj 502 291 cnv 15 80 20 empty empty empty 20 12 0 14 -233017 -66577
0;
#N canvas 68 24 450 300 play 0;
#X obj 153 28 tgl 30 1 empty empty empty 17 7 0 10 -258113 -1 -1 1
1;
#X msg 153 75 auto \$1;
#X obj 78 140 pix_film;
#X obj 139 140 f;
#X obj 78 110 inlet;
#X obj 78 170 outlet;
#X connect 0 0 1 0;
#X connect 1 0 2 0;
#X connect 2 0 5 0;
#X connect 2 2 3 0;
#X connect 3 0 2 1;
#X connect 4 0 2 0;
#X coords 0 -1 1 1 35 35 2 150 25;
#X restore 502 461 pd play;
#N canvas 354 304 450 300 messaging 0;
#X obj 63 33 cnv 15 242 80 empty empty empty 20 12 0 14 -228856 -66577
0;
#X obj 66 60 cnv 15 235 50 empty empty empty 20 12 0 14 -4034 -66577
0;
#X obj 225 254 udpsend;
#X obj 225 231 packOSC;
#X msg 225 206 connect 255.255.255.255 57120;
#X msg 225 180 disconnect;
#X obj 51 152 routeOSC /msg;
#X msg 145 152 send /bile/msg Antonio \$1;
#X symbolatom 69 63 30 0 0 0 - - -;
#X symbolatom 115 88 30 0 0 0 - - -;
#X obj 12 152 inlet;
#X obj 66 36 bng 15 250 50 0 empty empty empty 17 7 0 10 -260097 -1
-1;
#X obj 156 36 bng 15 250 50 0 empty empty empty 17 7 0 10 -258113 -1
-1;
#X text 82 34 connect;
#X text 172 34 disconnect;
#X text 272 62 send;
#X text 65 88 recieve;
#X obj 251 36 cnv 15 50 20 empty empty empty 20 12 0 14 -257985 -66577
0;
#X obj 338 99 s displaytext;
#X text 256 36 chat;
#X obj 51 173 print chat;
#X msg 51 194 set \$1;
#X connect 3 0 2 0;
#X connect 4 0 2 0;
#X connect 5 0 2 0;
#X connect 6 0 21 0;
#X connect 6 0 20 0;
#X connect 7 0 3 0;
#X connect 8 0 7 0;
#X connect 10 0 6 0;
#X connect 11 0 4 0;
#X connect 12 0 5 0;
#X connect 21 0 9 0;
#X connect 21 0 18 0;
#X coords 0 0 1 1 248 86 0;
#X restore 35 155 pd messaging;
#N canvas 685 108 681 660 text 0;
#X obj 272 102 cnv 15 180 70 empty empty empty 20 12 0 14 -203904 -66577
0;
#X obj 276 248 translateXYZ;
#X symbolatom 276 128 28 0 0 0 - - -;
#X obj 276 273 loadbang;
#X msg 276 292 font /home/hellocatfood/.fonts/Orbitron-Black.ttf;
#X obj 279 150 hsl 40 15 -4 4 0 0 empty empty x 30 7 0 10 -260097 -1
-1 107 1;
#X obj 276 225 line;
#X obj 329 150 hsl 40 15 -4 4 0 0 empty empty y 30 7 0 10 -260097 -1
-1 3550 1;
#X obj 326 225 line;
#X obj 276 109 tgl 15 0 empty textrender empty 17 7 0 10 -260097 -1
-1 0 1;
#X text 293 107 render;
#X msg 309 345 \$1 100;
#X obj 309 365 line;
#X obj 336 104 cnv 15 110 20 empty empty empty 20 12 0 14 -257985 -66577
0;
#X obj 380 150 nbx 3 15 -1e+37 1e+37 0 0 empty empty empty 0 -8 0 10
-4034 -1 -1 40 256;
#X text 417 149 size;
#X obj 327 57 loadbang;
#X msg 326 205 \$1 100;
#X msg 276 205 \$1 100;
#X msg 276 315 text steal: \$1;
#X floatatom 326 185 5 0 0 0 - - -;
#X floatatom 276 185 5 0 0 0 - - -;
#X text 340 104 steal text;
#X msg 584 292 justify left base;
#X msg 327 77 -3.78;
#X msg 369 77 3.282;
#X obj 276 77 gemhead -40;
#X obj 276 385 text2d;
#X msg 412 77 40;
#X obj 42 40 routeOSC /steal;
#X obj 42 87 unpack s s s;
#X symbolatom 42 111 6 0 0 0 - - -;
#X symbolatom 82 111 6 0 0 0 - - -;
#X symbolatom 122 111 6 0 0 0 - - -;
#X obj 42 163 pack s s s;
#X obj 42 138 outlet;
#X obj 82 138 outlet;
#X obj 122 138 outlet;
#X obj 42 192 list2symbol;
#X obj 172 77 print steal;
#X obj 172 57 spigot;
#X obj 205 31 tgl 15 0 empty empty empty 17 7 0 10 -4034 -1 -1 0 1
;
#X text 225 31 print;
#X obj 42 14 inlet;
#X connect 1 0 27 0;
#X connect 2 0 19 0;
#X connect 3 0 4 0;
#X connect 3 0 23 0;
#X connect 3 0 19 0;
#X connect 4 0 27 0;
#X connect 5 0 21 0;
#X connect 6 0 1 1;
#X connect 7 0 20 0;
#X connect 8 0 1 2;
#X connect 9 0 26 0;
#X connect 11 0 12 0;
#X connect 12 0 27 1;
#X connect 14 0 11 0;
#X connect 16 0 24 0;
#X connect 16 0 25 0;
#X connect 16 0 28 0;
#X connect 17 0 8 0;
#X connect 18 0 6 0;
#X connect 19 0 27 0;
#X connect 20 0 17 0;
#X connect 21 0 18 0;
#X connect 23 0 27 0;
#X connect 24 0 5 0;
#X connect 25 0 7 0;
#X connect 26 0 1 0;
#X connect 28 0 14 0;
#X connect 29 0 30 0;
#X connect 29 0 40 0;
#X connect 30 0 31 0;
#X connect 30 1 32 0;
#X connect 30 2 33 0;
#X connect 31 0 34 0;
#X connect 31 0 35 0;
#X connect 32 0 34 1;
#X connect 32 0 36 0;
#X connect 33 0 34 2;
#X connect 33 0 37 0;
#X connect 34 0 38 0;
#X connect 38 0 2 0;
#X connect 40 0 39 0;
#X connect 41 0 40 1;
#X connect 43 0 29 0;
#X coords 0 0 1 1 184 74 0;
#X restore 285 -134 pd text;
#N canvas 637 24 681 660 text 0;
#X obj 272 102 cnv 15 180 70 empty empty empty 20 12 0 14 -203904 -66577
0;
#X obj 276 248 translateXYZ;
#X symbolatom 276 128 28 0 0 0 - - -;
#X obj 276 273 loadbang;
#X msg 276 292 font /home/hellocatfood/.fonts/Orbitron-Black.ttf;
#X obj 279 150 hsl 40 15 -4 4 0 0 empty empty x 30 7 0 10 -260097 -1
-1 107 1;
#X obj 276 225 line;
#X obj 329 150 hsl 40 15 -4 4 0 0 empty empty y 30 7 0 10 -260097 -1
-1 2950 1;
#X obj 326 225 line;
#X obj 276 109 tgl 15 0 empty textrender empty 17 7 0 10 -260097 -1
-1 0 1;
#X text 293 107 render;
#X msg 309 345 \$1 100;
#X obj 309 365 line;
#X obj 336 104 cnv 15 110 20 empty empty empty 20 12 0 14 -257985 -66577
0;
#X obj 380 150 nbx 3 15 -1e+37 1e+37 0 0 empty empty empty 0 -8 0 10
-4034 -1 -1 40 256;
#X text 417 149 size;
#X obj 327 57 loadbang;
#X msg 326 205 \$1 100;
#X msg 276 205 \$1 100;
#X floatatom 326 185 5 0 0 0 - - -;
#X floatatom 276 185 5 0 0 0 - - -;
#X text 340 104 winner text;
#X msg 327 77 -3.78;
#X msg 584 292 justify left base;
#X msg 276 315 text winner: \$1;
#X msg 369 77 2.051;
#X obj 276 77 gemhead -50;
#X obj 275 386 text2d;
#X msg 411 77 40;
#X obj 32 85 unpack s s s;
#X symbolatom 32 109 6 0 0 0 - - -;
#X symbolatom 72 109 6 0 0 0 - - -;
#X symbolatom 112 109 6 0 0 0 - - -;
#X obj 32 161 pack s s s;
#X obj 32 136 outlet;
#X obj 72 136 outlet;
#X obj 112 136 outlet;
#X obj 32 38 routeOSC /winner;
#X obj 32 190 list2symbol;
#X obj 162 55 spigot;
#X obj 191 29 tgl 15 0 empty empty empty 17 7 0 10 -4034 -1 -1 0 1
;
#X text 211 29 print;
#X obj 162 75 print winner;
#X obj 32 12 inlet;
#X connect 1 0 27 0;
#X connect 2 0 24 0;
#X connect 3 0 4 0;
#X connect 3 0 23 0;
#X connect 3 0 24 0;
#X connect 4 0 27 0;
#X connect 5 0 20 0;
#X connect 6 0 1 1;
#X connect 7 0 19 0;
#X connect 8 0 1 2;
#X connect 9 0 26 0;
#X connect 11 0 12 0;
#X connect 12 0 27 1;
#X connect 14 0 11 0;
#X connect 16 0 22 0;
#X connect 16 0 25 0;
#X connect 16 0 28 0;
#X connect 17 0 8 0;
#X connect 18 0 6 0;
#X connect 19 0 17 0;
#X connect 20 0 18 0;
#X connect 22 0 5 0;
#X connect 23 0 27 0;
#X connect 24 0 27 0;
#X connect 25 0 7 0;
#X connect 26 0 1 0;
#X connect 28 0 14 0;
#X connect 29 0 30 0;
#X connect 29 1 31 0;
#X connect 29 2 32 0;
#X connect 30 0 33 0;
#X connect 30 0 34 0;
#X connect 31 0 33 1;
#X connect 31 0 35 0;
#X connect 32 0 33 2;
#X connect 32 0 36 0;
#X connect 33 0 38 0;
#X connect 37 0 29 0;
#X connect 37 0 39 0;
#X connect 38 0 2 0;
#X connect 39 0 42 0;
#X connect 40 0 39 1;
#X connect 43 0 37 0;
#X coords 0 0 1 1 184 74 0;
#X restore 283 -14 pd text;
#N canvas 469 24 681 660 text 0;
#X obj 272 102 cnv 15 180 70 empty empty empty 20 12 0 14 -203904 -66577
0;
#X obj 276 248 translateXYZ;
#X symbolatom 276 128 28 0 0 0 - - -;
#X obj 276 273 loadbang;
#X msg 276 292 font /home/hellocatfood/.fonts/Orbitron-Black.ttf;
#X obj 279 150 hsl 40 15 -4 4 0 0 empty empty x 30 7 0 10 -260097 -1
-1 107 1;
#X obj 276 225 line;
#X obj 329 150 hsl 40 15 -4 4 0 0 empty empty y 30 7 0 10 -260097 -1
-1 2350 1;
#X obj 326 225 line;
#X obj 276 109 tgl 15 0 empty textrender empty 17 7 0 10 -260097 -1
-1 0 1;
#X text 293 107 render;
#X msg 309 345 \$1 100;
#X obj 309 365 line;
#X obj 336 104 cnv 15 110 20 empty empty empty 20 12 0 14 -257985 -66577
0;
#X obj 380 150 nbx 3 15 -1e+37 1e+37 0 0 empty empty empty 0 -8 0 10
-4034 -1 -1 40 256;
#X text 417 149 size;
#X obj 327 57 loadbang;
#X msg 326 205 \$1 100;
#X msg 276 205 \$1 100;
#X floatatom 326 185 5 0 0 0 - - -;
#X floatatom 276 185 5 0 0 0 - - -;
#X text 340 104 resign text;
#X msg 327 77 -3.78;
#X msg 584 292 justify left base;
#X msg 276 315 text resign: \$1;
#X msg 369 77 0.82;
#X obj 276 77 gemhead -60;
#X obj 276 386 text2d;
#X msg 411 77 40;
#X obj 37 55 inlet;
#X obj 37 125 unpack s s s;
#X symbolatom 37 149 6 0 0 0 - - -;
#X symbolatom 77 149 6 0 0 0 - - -;
#X symbolatom 117 149 6 0 0 0 - - -;
#X obj 37 201 pack s s s;
#X obj 37 176 outlet;
#X obj 77 176 outlet;
#X obj 117 176 outlet;
#X obj 37 78 routeOSC /resign;
#X obj 37 228 list2symbol;
#X obj 167 95 spigot;
#X obj 200 69 tgl 15 0 empty empty empty 17 7 0 10 -4034 -1 -1 0 1
;
#X text 220 69 print;
#X obj 167 115 print resign;
#X connect 1 0 27 0;
#X connect 2 0 24 0;
#X connect 3 0 4 0;
#X connect 3 0 23 0;
#X connect 3 0 24 0;
#X connect 4 0 27 0;
#X connect 5 0 20 0;
#X connect 6 0 1 1;
#X connect 7 0 19 0;
#X connect 8 0 1 2;
#X connect 9 0 26 0;
#X connect 11 0 12 0;
#X connect 12 0 27 1;
#X connect 14 0 11 0;
#X connect 16 0 22 0;
#X connect 16 0 25 0;
#X connect 16 0 28 0;
#X connect 17 0 8 0;
#X connect 18 0 6 0;
#X connect 19 0 17 0;
#X connect 20 0 18 0;
#X connect 22 0 5 0;
#X connect 23 0 27 0;
#X connect 24 0 27 0;
#X connect 25 0 7 0;
#X connect 26 0 1 0;
#X connect 28 0 14 0;
#X connect 29 0 38 0;
#X connect 30 0 31 0;
#X connect 30 1 32 0;
#X connect 30 2 33 0;
#X connect 31 0 34 0;
#X connect 31 0 35 0;
#X connect 32 0 34 1;
#X connect 32 0 36 0;
#X connect 33 0 34 2;
#X connect 33 0 37 0;
#X connect 34 0 39 0;
#X connect 38 0 30 0;
#X connect 38 0 40 0;
#X connect 39 0 2 0;
#X connect 40 0 43 0;
#X connect 41 0 40 1;
#X coords 0 0 1 1 184 74 0;
#X restore 495 -135 pd text;
#N canvas 608 67 681 660 text 0;
#X obj 272 102 cnv 15 180 70 empty empty empty 20 12 0 14 -203904 -66577
0;
#X obj 276 248 translateXYZ;
#X symbolatom 276 128 28 0 0 0 - - -;
#X obj 276 273 loadbang;
#X msg 276 292 font /home/hellocatfood/.fonts/Orbitron-Black.ttf;
#X obj 279 150 hsl 40 15 -4 4 0 0 empty empty x 30 7 0 10 -260097 -1
-1 107 1;
#X obj 276 225 line;
#X obj 329 150 hsl 40 15 -4 4 0 0 empty empty y 30 7 0 10 -260097 -1
-1 1750 1;
#X obj 326 225 line;
#X obj 276 109 tgl 15 0 empty textrender empty 17 7 0 10 -260097 -1
-1 0 1;
#X text 293 107 render;
#X msg 309 345 \$1 100;
#X obj 309 365 line;
#X obj 336 104 cnv 15 110 20 empty empty empty 20 12 0 14 -257985 -66577
0;
#X obj 380 150 nbx 3 15 -1e+37 1e+37 0 0 empty empty empty 0 -8 0 10
-4034 -1 -1 40 256;
#X text 417 149 size;
#X obj 327 57 loadbang;
#X msg 326 205 \$1 100;
#X msg 276 205 \$1 100;
#X floatatom 326 185 5 0 0 0 - - -;
#X floatatom 276 185 5 0 0 0 - - -;
#X text 340 104 fighters text;
#X msg 327 77 -3.78;
#X msg 584 292 justify left base;
#X msg 276 315 text fighters: \$1;
#X msg 369 77 -0.41;
#X obj 276 77 gemhead -70;
#X obj 276 386 text2d;
#X msg 411 77 40;
#X obj 32 55 inlet;
#X obj 32 125 unpack s s s;
#X symbolatom 32 149 6 0 0 0 - - -;
#X symbolatom 72 149 6 0 0 0 - - -;
#X symbolatom 112 149 6 0 0 0 - - -;
#X obj 32 201 pack s s s;
#X obj 32 176 outlet;
#X obj 72 176 outlet;
#X obj 112 176 outlet;
#X obj 32 78 routeOSC /fighters;
#X obj 32 230 list2symbol;
#X obj 162 115 print steal;
#X obj 162 95 spigot;
#X obj 195 69 tgl 15 0 empty empty empty 17 7 0 10 -4034 -1 -1 0 1
;
#X text 215 69 print;
#X connect 1 0 27 0;
#X connect 2 0 24 0;
#X connect 3 0 4 0;
#X connect 3 0 23 0;
#X connect 3 0 24 0;
#X connect 4 0 27 0;
#X connect 5 0 20 0;
#X connect 6 0 1 1;
#X connect 7 0 19 0;
#X connect 8 0 1 2;
#X connect 9 0 26 0;
#X connect 11 0 12 0;
#X connect 12 0 27 1;
#X connect 14 0 11 0;
#X connect 16 0 22 0;
#X connect 16 0 25 0;
#X connect 16 0 28 0;
#X connect 17 0 8 0;
#X connect 18 0 6 0;
#X connect 19 0 17 0;
#X connect 20 0 18 0;
#X connect 22 0 5 0;
#X connect 23 0 27 0;
#X connect 24 0 27 0;
#X connect 25 0 7 0;
#X connect 26 0 1 0;
#X connect 28 0 14 0;
#X connect 29 0 38 0;
#X connect 30 0 31 0;
#X connect 30 1 32 0;
#X connect 30 2 33 0;
#X connect 31 0 34 0;
#X connect 31 0 35 0;
#X connect 32 0 34 1;
#X connect 32 0 36 0;
#X connect 33 0 34 2;
#X connect 33 0 37 0;
#X connect 34 0 39 0;
#X connect 38 0 30 0;
#X connect 38 0 41 0;
#X connect 39 0 2 0;
#X connect 41 0 40 0;
#X connect 42 0 41 1;
#X coords 0 0 1 1 184 74 0;
#X restore 495 -55 pd text;
#X obj 209 -235 tgl 30 0 textrender empty empty 17 7 0 10 -258113 -1
-1 0 1;
#X obj 209 -275 loadbang;
#X obj 209 -255 t b b;
#X obj 35 -210 gemwin;
#X msg 35 -255 create \, 1;
#X msg 35 -233 0 \, destroy;
#X msg 108 -233 border 0;
#X msg 108 -255 cursor 0;
#X msg 108 -191 offset 1366 0;
#X obj 35 -275 import mrpeach;
#X text 248 -227 render text;
#X obj 42 321 gemhead -10;
#X obj 270 321 gemhead -20;
#X obj 502 322 gemhead -30;
#X obj 42 528 square;
#X obj 270 528 square;
#N canvas 75 92 450 300 xtext 0;
#X obj 94 70 text2d;
#X msg 224 -60 text x: \$1;
#X obj 94 11 translateXYZ;
#X floatatom 224 54 5 0 0 0 - - -;
#X obj 224 -82 inlet;
#X obj 224 13 loadbang;
#X obj 94 -164 gemhead -100;
#X obj 94 -137 loadbang;
#X msg 94 -118 font /home/hellocatfood/.fonts/Orbitron-Black.ttf;
#X msg 402 -118 justify left base;
#X floatatom 151 -13 5 0 0 0 - - -;
#X floatatom 117 -13 5 0 0 0 - - -;
#X msg 224 34 25;
#X obj 117 -56 loadbang;
#X msg 117 -35 2;
#X obj 136 -185 inlet;
#X obj 94 43 color 1 0 0;
#X msg 151 -35 3.44;
#X connect 1 0 0 0;
#X connect 2 0 16 0;
#X connect 3 0 0 1;
#X connect 4 0 1 0;
#X connect 5 0 12 0;
#X connect 6 0 2 0;
#X connect 7 0 8 0;
#X connect 7 0 9 0;
#X connect 8 0 0 0;
#X connect 9 0 0 0;
#X connect 10 0 2 2;
#X connect 11 0 2 1;
#X connect 12 0 3 0;
#X connect 13 0 14 0;
#X connect 13 0 17 0;
#X connect 13 0 1 0;
#X connect 14 0 11 0;
#X connect 15 0 6 0;
#X connect 16 0 0 0;
#X connect 17 0 10 0;
#X restore 420 321 pd xtext;
#N canvas 307 146 450 300 ytext 0;
#X obj 94 70 text2d;
#X obj 94 11 translateXYZ;
#X floatatom 224 54 5 0 0 0 - - -;
#X obj 224 -82 inlet;
#X obj 224 13 loadbang;
#X obj 94 -164 gemhead -100;
#X obj 94 -137 loadbang;
#X msg 94 -117 font /home/hellocatfood/.fonts/Orbitron-Black.ttf;
#X msg 403 -118 justify left base;
#X floatatom 151 -13 5 0 0 0 - - -;
#X floatatom 117 -13 5 0 0 0 - - -;
#X msg 224 34 25;
#X obj 117 -56 loadbang;
#X msg 224 -60 text y: \$1;
#X msg 117 -35 1.19;
#X obj 136 -185 inlet;
#X obj 94 43 color 1 0 0;
#X msg 151 -35 1.48;
#X connect 1 0 16 0;
#X connect 2 0 0 1;
#X connect 3 0 13 0;
#X connect 4 0 11 0;
#X connect 5 0 1 0;
#X connect 6 0 7 0;
#X connect 6 0 8 0;
#X connect 7 0 0 0;
#X connect 8 0 0 0;
#X connect 9 0 1 2;
#X connect 10 0 1 1;
#X connect 11 0 2 0;
#X connect 12 0 14 0;
#X connect 12 0 17 0;
#X connect 12 0 13 0;
#X connect 13 0 0 0;
#X connect 14 0 10 0;
#X connect 15 0 5 0;
#X connect 16 0 0 0;
#X connect 17 0 9 0;
#X restore 420 341 pd ytext;
#N canvas 113 84 450 300 ztext 0;
#X obj 94 70 text2d;
#X obj 94 11 translateXYZ;
#X floatatom 224 54 5 0 0 0 - - -;
#X obj 224 -82 inlet;
#X obj 224 13 loadbang;
#X obj 94 -164 gemhead -100;
#X obj 94 -137 loadbang;
#X msg 94 -118 font /home/hellocatfood/.fonts/Orbitron-Black.ttf;
#X msg 402 -118 justify left base;
#X floatatom 151 -13 5 0 0 0 - - -;
#X floatatom 117 -13 5 0 0 0 - - -;
#X msg 224 34 25;
#X obj 117 -56 loadbang;
#X msg 117 -35 2.91;
#X msg 224 -60 text z: \$1;
#X obj 136 -185 inlet;
#X obj 94 43 color 1 0 0;
#X msg 151 -35 2.12;
#X connect 1 0 16 0;
#X connect 2 0 0 1;
#X connect 3 0 14 0;
#X connect 4 0 11 0;
#X connect 5 0 1 0;
#X connect 6 0 7 0;
#X connect 6 0 8 0;
#X connect 7 0 0 0;
#X connect 8 0 0 0;
#X connect 9 0 1 2;
#X connect 10 0 1 1;
#X connect 11 0 2 0;
#X connect 12 0 13 0;
#X connect 12 0 17 0;
#X connect 12 0 14 0;
#X connect 13 0 10 0;
#X connect 14 0 0 0;
#X connect 15 0 5 0;
#X connect 16 0 0 0;
#X connect 17 0 9 0;
#X restore 420 361 pd ztext;
#N canvas 136 115 450 300 xtext 0;
#X obj 94 70 text2d;
#X msg 224 -60 text x: \$1;
#X obj 94 11 translateXYZ;
#X floatatom 224 54 5 0 0 0 - - -;
#X obj 224 -82 inlet;
#X obj 224 13 loadbang;
#X obj 94 -164 gemhead -100;
#X obj 94 -137 loadbang;
#X msg 94 -118 font /home/hellocatfood/.fonts/Orbitron-Black.ttf;
#X msg 402 -118 justify left base;
#X floatatom 151 -13 5 0 0 0 - - -;
#X floatatom 117 -13 5 0 0 0 - - -;
#X msg 224 34 25;
#X obj 117 -56 loadbang;
#X msg 151 -35 -0.56;
#X obj 136 -185 inlet;
#X obj 94 43 color 0 1 0;
#X msg 117 -35 -3.37;
#X connect 1 0 0 0;
#X connect 2 0 16 0;
#X connect 3 0 0 1;
#X connect 4 0 1 0;
#X connect 5 0 12 0;
#X connect 6 0 2 0;
#X connect 7 0 8 0;
#X connect 7 0 9 0;
#X connect 8 0 0 0;
#X connect 9 0 0 0;
#X connect 10 0 2 2;
#X connect 11 0 2 1;
#X connect 12 0 3 0;
#X connect 13 0 17 0;
#X connect 13 0 14 0;
#X connect 13 0 1 0;
#X connect 14 0 10 0;
#X connect 15 0 6 0;
#X connect 16 0 0 0;
#X connect 17 0 11 0;
#X restore 650 321 pd xtext;
#N canvas 902 454 450 300 ytext 0;
#X obj 94 70 text2d;
#X obj 94 11 translateXYZ;
#X floatatom 224 54 5 0 0 0 - - -;
#X obj 224 -82 inlet;
#X obj 224 13 loadbang;
#X obj 94 -164 gemhead -100;
#X obj 94 -137 loadbang;
#X msg 94 -118 font /home/hellocatfood/.fonts/Orbitron-Black.ttf;
#X msg 402 -118 justify left base;
#X floatatom 151 -13 5 0 0 0 - - -;
#X floatatom 117 -13 5 0 0 0 - - -;
#X msg 224 34 25;
#X obj 117 -56 loadbang;
#X msg 117 -35 -3.65;
#X msg 151 -35 -2.52;
#X msg 224 -60 text y: \$1;
#X obj 136 -185 inlet;
#X obj 94 43 color 0 1 0;
#X connect 1 0 17 0;
#X connect 2 0 0 1;
#X connect 3 0 15 0;
#X connect 4 0 11 0;
#X connect 5 0 1 0;
#X connect 6 0 7 0;
#X connect 6 0 8 0;
#X connect 7 0 0 0;
#X connect 8 0 0 0;
#X connect 9 0 1 2;
#X connect 10 0 1 1;
#X connect 11 0 2 0;
#X connect 12 0 13 0;
#X connect 12 0 14 0;
#X connect 12 0 15 0;
#X connect 13 0 10 0;
#X connect 14 0 9 0;
#X connect 15 0 0 0;
#X connect 16 0 5 0;
#X connect 17 0 0 0;
#X restore 650 341 pd ytext;
#N canvas 489 317 450 300 ztext 0;
#X obj 94 80 text2d;
#X obj 94 11 translateXYZ;
#X floatatom 224 64 5 0 0 0 - - -;
#X obj 224 -82 inlet;
#X obj 224 23 loadbang;
#X obj 94 -164 gemhead -100;
#X obj 94 -137 loadbang;
#X msg 94 -118 font /home/hellocatfood/.fonts/Orbitron-Black.ttf;
#X msg 402 -118 justify left base;
#X floatatom 151 -13 5 0 0 0 - - -;
#X floatatom 117 -13 5 0 0 0 - - -;
#X msg 224 44 25;
#X obj 117 -56 loadbang;
#X msg 117 -35 -2.09;
#X msg 224 -60 text z: \$1;
#X msg 151 -35 -1.88;
#X obj 136 -185 inlet;
#X obj 94 43 color 0 1 0;
#X connect 1 0 17 0;
#X connect 2 0 0 1;
#X connect 3 0 14 0;
#X connect 4 0 11 0;
#X connect 5 0 1 0;
#X connect 6 0 7 0;
#X connect 6 0 8 0;
#X connect 7 0 0 0;
#X connect 8 0 0 0;
#X connect 9 0 1 2;
#X connect 10 0 1 1;
#X connect 11 0 2 0;
#X connect 12 0 13 0;
#X connect 12 0 15 0;
#X connect 12 0 14 0;
#X connect 13 0 10 0;
#X connect 14 0 0 0;
#X connect 15 0 9 0;
#X connect 16 0 5 0;
#X connect 17 0 0 0;
#X restore 650 361 pd ztext;
#N canvas 208 189 450 300 xtext 0;
#X msg 224 -60 text x: \$1;
#X obj 94 11 translateXYZ;
#X floatatom 224 54 5 0 0 0 - - -;
#X obj 224 -82 inlet;
#X obj 224 13 loadbang;
#X obj 94 -164 gemhead -100;
#X obj 94 -137 loadbang;
#X msg 94 -118 font /home/hellocatfood/.fonts/Orbitron-Black.ttf;
#X msg 402 -118 justify left base;
#X floatatom 151 -13 5 0 0 0 - - -;
#X floatatom 117 -13 5 0 0 0 - - -;
#X msg 224 34 25;
#X obj 117 -56 loadbang;
#X msg 151 -35 3.44;
#X obj 136 -185 inlet;
#X obj 94 70 text2d;
#X obj 94 44 color 0 0 1;
#X msg 117 -35 -3.37;
#X connect 0 0 15 0;
#X connect 1 0 16 0;
#X connect 2 0 15 1;
#X connect 3 0 0 0;
#X connect 4 0 11 0;
#X connect 5 0 1 0;
#X connect 6 0 7 0;
#X connect 6 0 8 0;
#X connect 7 0 15 0;
#X connect 8 0 15 0;
#X connect 9 0 1 2;
#X connect 10 0 1 1;
#X connect 11 0 2 0;
#X connect 12 0 17 0;
#X connect 12 0 13 0;
#X connect 12 0 0 0;
#X connect 13 0 9 0;
#X connect 14 0 5 0;
#X connect 16 0 15 0;
#X connect 17 0 10 0;
#X restore 190 321 pd xtext;
#N canvas 272 70 450 300 ytext 0;
#X obj 94 70 text2d;
#X obj 94 11 translateXYZ;
#X floatatom 224 54 5 0 0 0 - - -;
#X obj 224 -82 inlet;
#X obj 224 13 loadbang;
#X obj 94 -164 gemhead -100;
#X obj 94 -137 loadbang;
#X msg 94 -118 font /home/hellocatfood/.fonts/Orbitron-Black.ttf;
#X msg 402 -118 justify left base;
#X floatatom 151 -13 5 0 0 0 - - -;
#X floatatom 117 -13 5 0 0 0 - - -;
#X msg 224 34 25;
#X obj 117 -56 loadbang;
#X msg 151 -35 1.42;
#X msg 224 -60 text y: \$1;
#X obj 136 -185 inlet;
#X obj 94 43 color 0 0 1;
#X msg 118 -35 -3.65;
#X connect 1 0 16 0;
#X connect 2 0 0 1;
#X connect 3 0 14 0;
#X connect 4 0 11 0;
#X connect 5 0 1 0;
#X connect 6 0 7 0;
#X connect 6 0 8 0;
#X connect 7 0 0 0;
#X connect 8 0 0 0;
#X connect 9 0 1 2;
#X connect 10 0 1 1;
#X connect 11 0 2 0;
#X connect 12 0 13 0;
#X connect 12 0 17 0;
#X connect 12 0 14 0;
#X connect 13 0 9 0;
#X connect 14 0 0 0;
#X connect 15 0 5 0;
#X connect 16 0 0 0;
#X connect 17 0 10 0;
#X restore 190 341 pd ytext;
#N canvas 131 77 450 300 ztext 0;
#X obj 94 70 text2d;
#X obj 94 11 translateXYZ;
#X floatatom 224 54 5 0 0 0 - - -;
#X obj 224 -82 inlet;
#X obj 224 13 loadbang;
#X obj 94 -164 gemhead -100;
#X obj 94 -137 loadbang;
#X msg 94 -118 font /home/hellocatfood/.fonts/Orbitron-Black.ttf;
#X msg 402 -118 justify left base;
#X floatatom 151 -13 5 0 0 0 - - -;
#X floatatom 117 -13 5 0 0 0 - - -;
#X msg 224 34 25;
#X obj 117 -56 loadbang;
#X msg 224 -60 text z: \$1;
#X msg 151 -35 2.43;
#X obj 136 -185 inlet;
#X obj 94 43 color 0 0 1;
#X msg 117 -35 -2.09;
#X connect 1 0 16 0;
#X connect 2 0 0 1;
#X connect 3 0 13 0;
#X connect 4 0 11 0;
#X connect 5 0 1 0;
#X connect 6 0 7 0;
#X connect 6 0 8 0;
#X connect 7 0 0 0;
#X connect 8 0 0 0;
#X connect 9 0 1 2;
#X connect 10 0 1 1;
#X connect 11 0 2 0;
#X connect 12 0 17 0;
#X connect 12 0 14 0;
#X connect 12 0 13 0;
#X connect 13 0 0 0;
#X connect 14 0 9 0;
#X connect 15 0 5 0;
#X connect 16 0 0 0;
#X connect 17 0 10 0;
#X restore 190 361 pd ztext;
#X obj 502 528 square;
#X obj 190 301 tgl 15 0 empty textrender empty 17 7 0 10 -257985 -1
-1 0 1;
#X obj 420 301 tgl 15 0 empty textrender empty 17 7 0 10 -257985 -1
-1 0 1;
#X obj 650 301 tgl 15 0 empty textrender empty 17 7 0 10 -257985 -1
-1 0 1;
#X obj 725 286 cnv 15 220 270 empty empty empty 20 12 0 14 -4032 -66577
0;
#N canvas 67 89 450 300 Shelly 0;
#X obj 102 102 cnv 15 55 80 empty empty empty 20 12 0 14 -260097 -66577
0;
#X obj 107 29 inlet;
#X floatatom 107 125 5 0 1 0 - - -;
#X floatatom 107 144 5 0 1 0 - - -;
#X floatatom 107 163 5 0 1 0 - - -;
#X obj 107 71 routeOSC /x;
#X obj 182 71 routeOSC /y;
#X obj 258 71 routeOSC /z;
#X obj 107 195 outlet;
#X obj 182 195 outlet;
#X obj 258 195 outlet;
#X text 141 124 x;
#X text 142 144 y;
#X text 141 161 z;
#X text 107 102 chris;
#X obj 107 50 routeOSC /chris;
#X connect 1 0 15 0;
#X connect 2 0 8 0;
#X connect 3 0 9 0;
#X connect 4 0 10 0;
#X connect 5 0 2 0;
#X connect 6 0 3 0;
#X connect 7 0 4 0;
#X connect 15 0 5 0;
#X connect 15 0 6 0;
#X connect 15 0 7 0;
#X coords 0 -1 1 1 59 84 2 100 100;
#X restore 812 322 pd Shelly;
#X obj 732 376 translateXYZ;
#N canvas 858 186 450 300 shake 0;
#X obj 101 11 inlet;
#X obj 101 150 line;
#X floatatom 101 173 5 0 0 0 - - -;
#X msg 101 128 \$1 250;
#X obj 101 193 outlet;
#X obj 171 150 line;
#X floatatom 171 173 5 0 0 0 - - -;
#X msg 171 128 \$1 250;
#X obj 171 193 outlet;
#X obj 171 11 inlet;
#X obj 101 83 / 1;
#X obj 171 83 / 1;
#X connect 0 0 10 0;
#X connect 1 0 2 0;
#X connect 2 0 4 0;
#X connect 3 0 1 0;
#X connect 5 0 6 0;
#X connect 6 0 8 0;
#X connect 7 0 5 0;
#X connect 9 0 11 0;
#X connect 10 0 3 0;
#X connect 11 0 7 0;
#X restore 756 355 pd shake;
#X obj 732 440 translateXYZ;
#X obj 755 398 r emerge;
#X obj 732 499 pix_texture;
#X obj 732 291 cnv 15 80 20 empty empty empty 20 12 0 14 -233017 -66577
0;
#N canvas 68 24 450 300 play 0;
#X obj 153 28 tgl 30 1 empty empty empty 17 7 0 10 -258113 -1 -1 1
1;
#X msg 153 75 auto \$1;
#X obj 78 140 pix_film;
#X obj 139 140 f;
#X obj 78 110 inlet;
#X obj 78 170 outlet;
#X connect 0 0 1 0;
#X connect 1 0 2 0;
#X connect 2 0 5 0;
#X connect 2 2 3 0;
#X connect 3 0 2 1;
#X connect 4 0 2 0;
#X coords 0 -1 1 1 35 35 2 150 25;
#X restore 732 461 pd play;
#X obj 732 322 gemhead -30;
#N canvas 267 92 450 300 xtext 0;
#X obj 94 70 text2d;
#X msg 224 -60 text x: \$1;
#X obj 94 11 translateXYZ;
#X floatatom 224 54 5 0 0 0 - - -;
#X obj 224 -82 inlet;
#X obj 224 13 loadbang;
#X obj 94 -164 gemhead -100;
#X obj 94 -137 loadbang;
#X msg 94 -118 font /home/hellocatfood/.fonts/Orbitron-Black.ttf;
#X msg 402 -118 justify left base;
#X floatatom 151 -13 5 0 0 0 - - -;
#X floatatom 117 -13 5 0 0 0 - - -;
#X msg 224 34 25;
#X obj 117 -56 loadbang;
#X msg 151 -35 -0.56;
#X obj 136 -185 inlet;
#X obj 94 43 color 0 1 0;
#X msg 117 -35 2;
#X connect 1 0 0 0;
#X connect 2 0 16 0;
#X connect 3 0 0 1;
#X connect 4 0 1 0;
#X connect 5 0 12 0;
#X connect 6 0 2 0;
#X connect 7 0 8 0;
#X connect 7 0 9 0;
#X connect 8 0 0 0;
#X connect 9 0 0 0;
#X connect 10 0 2 2;
#X connect 11 0 2 1;
#X connect 12 0 3 0;
#X connect 13 0 17 0;
#X connect 13 0 14 0;
#X connect 13 0 1 0;
#X connect 14 0 10 0;
#X connect 15 0 6 0;
#X connect 16 0 0 0;
#X connect 17 0 11 0;
#X restore 880 321 pd xtext;
#N canvas 367 232 450 300 ytext 0;
#X obj 94 70 text2d;
#X obj 94 11 translateXYZ;
#X floatatom 224 54 5 0 0 0 - - -;
#X obj 224 -82 inlet;
#X obj 224 13 loadbang;
#X obj 94 -164 gemhead -100;
#X obj 94 -137 loadbang;
#X msg 94 -118 font /home/hellocatfood/.fonts/Orbitron-Black.ttf;
#X msg 402 -118 justify left base;
#X floatatom 151 -13 5 0 0 0 - - -;
#X floatatom 117 -13 5 0 0 0 - - -;
#X msg 224 34 25;
#X obj 117 -56 loadbang;
#X msg 151 -35 -2.52;
#X msg 224 -60 text y: \$1;
#X obj 136 -185 inlet;
#X obj 94 43 color 0 1 0;
#X msg 117 -35 1.35;
#X connect 1 0 16 0;
#X connect 2 0 0 1;
#X connect 3 0 14 0;
#X connect 4 0 11 0;
#X connect 5 0 1 0;
#X connect 6 0 7 0;
#X connect 6 0 8 0;
#X connect 7 0 0 0;
#X connect 8 0 0 0;
#X connect 9 0 1 2;
#X connect 10 0 1 1;
#X connect 11 0 2 0;
#X connect 12 0 17 0;
#X connect 12 0 13 0;
#X connect 12 0 14 0;
#X connect 13 0 9 0;
#X connect 14 0 0 0;
#X connect 15 0 5 0;
#X connect 16 0 0 0;
#X connect 17 0 10 0;
#X restore 880 341 pd ytext;
#N canvas 490 98 449 300 ztext 0;
#X obj 94 80 text2d;
#X obj 94 11 translateXYZ;
#X floatatom 224 64 5 0 0 0 - - -;
#X obj 224 -82 inlet;
#X obj 224 23 loadbang;
#X obj 94 -164 gemhead -100;
#X obj 94 -137 loadbang;
#X msg 94 -118 font /home/hellocatfood/.fonts/Orbitron-Black.ttf;
#X msg 402 -118 justify left base;
#X floatatom 151 -13 5 0 0 0 - - -;
#X floatatom 117 -13 5 0 0 0 - - -;
#X msg 224 44 25;
#X obj 117 -56 loadbang;
#X msg 224 -60 text z: \$1;
#X msg 151 -35 -1.88;
#X obj 136 -185 inlet;
#X obj 94 43 color 0 1 0;
#X msg 117 -35 2.91;
#X connect 1 0 16 0;
#X connect 2 0 0 1;
#X connect 3 0 13 0;
#X connect 4 0 11 0;
#X connect 5 0 1 0;
#X connect 6 0 7 0;
#X connect 6 0 8 0;
#X connect 7 0 0 0;
#X connect 8 0 0 0;
#X connect 9 0 1 2;
#X connect 10 0 1 1;
#X connect 11 0 2 0;
#X connect 12 0 17 0;
#X connect 12 0 14 0;
#X connect 12 0 13 0;
#X connect 13 0 0 0;
#X connect 14 0 9 0;
#X connect 15 0 5 0;
#X connect 16 0 0 0;
#X connect 17 0 10 0;
#X restore 880 361 pd ztext;
#X obj 732 528 square;
#X obj 880 301 tgl 15 0 empty textrender empty 17 7 0 10 -257985 -1
-1 0 1;
#X text 42 293 julien - tleft;
#X text 270 293 shelly - tright;
#X text 502 293 les - bleft;
#X text 732 293 chris - bright;
#N canvas 395 165 450 300 cmove 0;
#X msg 158 76 -145 600;
#X obj 88 51 inlet;
#X obj 88 99 line;
#X obj 158 99 line;
#X floatatom 88 120 5 0 0 0 - - -;
#X obj 88 140 / 100;
#X floatatom 158 120 5 0 0 0 - - -;
#X obj 158 140 / 100;
#X obj 88 163 outlet;
#X obj 158 163 outlet;
#X msg 88 76 245 600;
#X connect 0 0 3 0;
#X connect 1 0 10 0;
#X connect 1 0 0 0;
#X connect 2 0 4 0;
#X connect 3 0 6 0;
#X connect 4 0 5 0;
#X connect 5 0 8 0;
#X connect 6 0 7 0;
#X connect 7 0 9 0;
#X connect 10 0 2 0;
#X restore 755 419 pd cmove;
#X obj 502 268 tgl 15 0 empty empty empty 17 7 0 10 -258113 -1 -1 0
1;
#X obj 732 268 tgl 15 0 empty empty empty 17 7 0 10 -258113 -1 -1 0
1;
#X obj 270 268 tgl 15 0 empty empty empty 17 7 0 10 -258113 -1 -1 0
1;
#X obj 42 268 tgl 15 0 empty empty empty 17 7 0 10 -258113 -1 -1 0
1;
#X connect 0 0 44 0;
#X connect 1 0 2 0;
#X connect 2 0 3 0;
#X connect 3 0 16 0;
#X connect 3 0 15 0;
#X connect 3 0 17 0;
#X connect 3 0 36 0;
#X connect 3 0 37 0;
#X connect 3 0 38 0;
#X connect 3 0 39 0;
#X connect 3 0 40 0;
#X connect 3 0 71 0;
#X connect 5 0 7 0;
#X connect 6 0 5 1;
#X connect 6 1 5 2;
#X connect 7 0 18 0;
#X connect 8 0 7 1;
#X connect 8 1 7 2;
#X connect 12 0 8 0;
#X connect 14 0 55 0;
#X connect 15 0 22 0;
#X connect 15 0 57 1;
#X connect 15 1 22 1;
#X connect 15 1 58 1;
#X connect 15 2 59 1;
#X connect 16 0 6 0;
#X connect 16 0 63 1;
#X connect 16 1 6 1;
#X connect 16 1 64 1;
#X connect 16 2 65 1;
#X connect 17 0 30 0;
#X connect 17 0 60 1;
#X connect 17 1 30 1;
#X connect 17 1 61 1;
#X connect 17 2 62 1;
#X connect 18 0 14 0;
#X connect 20 0 23 1;
#X connect 20 1 23 2;
#X connect 21 0 23 0;
#X connect 22 0 21 1;
#X connect 22 1 21 2;
#X connect 23 0 27 0;
#X connect 24 0 20 0;
#X connect 25 0 56 0;
#X connect 27 0 25 0;
#X connect 28 0 31 1;
#X connect 28 1 31 2;
#X connect 29 0 31 0;
#X connect 30 0 29 1;
#X connect 30 1 29 2;
#X connect 31 0 35 0;
#X connect 32 0 28 0;
#X connect 33 0 66 0;
#X connect 35 0 33 0;
#X connect 42 0 43 0;
#X connect 43 0 41 0;
#X connect 43 1 41 0;
#X connect 45 0 44 0;
#X connect 46 0 44 0;
#X connect 47 0 44 0;
#X connect 48 0 44 0;
#X connect 49 0 44 0;
#X connect 52 0 5 0;
#X connect 53 0 21 0;
#X connect 54 0 29 0;
#X connect 67 0 63 0;
#X connect 67 0 64 0;
#X connect 67 0 65 0;
#X connect 68 0 57 0;
#X connect 68 0 58 0;
#X connect 68 0 59 0;
#X connect 69 0 60 0;
#X connect 69 0 61 0;
#X connect 69 0 62 0;
#X connect 71 0 73 0;
#X connect 71 0 80 1;
#X connect 71 1 73 1;
#X connect 71 1 81 1;
#X connect 71 2 82 1;
#X connect 72 0 74 0;
#X connect 73 0 72 1;
#X connect 73 1 72 2;
#X connect 74 0 78 0;
#X connect 75 0 89 0;
#X connect 76 0 83 0;
#X connect 78 0 76 0;
#X connect 79 0 72 0;
#X connect 84 0 80 0;
#X connect 84 0 81 0;
#X connect 84 0 82 0;
#X connect 89 0 74 1;
#X connect 89 1 74 2;
#X connect 90 0 54 0;
#X connect 90 0 69 0;
#X connect 91 0 79 0;
#X connect 91 0 84 0;
#X connect 92 0 53 0;
#X connect 92 0 68 0;
#X connect 93 0 52 0;
#X connect 93 0 67 0;
